<svg width="123" height="134" viewBox="0 0 123 134" fill="none" xmlns="http://www.w3.org/2000/svg">
<path d="M120.314 13.8601H103.819V2.23333C103.819 1.00053 102.818 0 101.585 0H20.9621C19.7293 0 18.7287 1.00053 18.7287 2.23333V13.8601H2.23333C1.00053 13.8601 0 14.8606 0 16.0934V44.3346C0 48.4827 0.739979 52.4699 2.20058 56.1832C7.20027 68.9579 16.5937 77.184 26.9221 77.9969C33.9318 89.7532 43.8344 97.7322 54.6914 99.9774C54.6988 99.9789 54.7048 99.9819 54.7122 99.9848C56.1341 100.281 57.5843 100.472 59.0404 100.573V113.304C57.6006 113.382 56.1758 113.505 54.8134 113.732C42.5271 115.709 33.9392 123.086 33.8871 131.689C33.8856 131.716 33.8797 131.74 33.8797 131.767C33.8797 132.691 34.4425 133.485 35.245 133.824C35.5115 133.937 35.8063 134 36.116 134C36.1204 134 36.1249 133.999 36.1309 133.999H86.4196C86.424 133.999 86.4285 134 86.4345 134C86.7442 134 87.0375 133.937 87.3055 133.823C88.108 133.483 88.6708 132.69 88.6708 131.765C88.6708 131.738 88.6633 131.715 88.6633 131.688C88.6112 123.085 80.0233 115.708 67.7474 113.732C66.3806 113.504 64.9513 113.38 63.51 113.303V100.571C64.9677 100.47 66.4164 100.281 67.8382 99.9834C67.8457 99.9819 67.8516 99.9789 67.8591 99.9759C78.7146 97.7307 88.6187 89.7517 95.6283 77.9954C105.958 77.181 115.35 68.9564 120.35 56.1847C121.809 52.4684 122.55 48.4812 122.55 44.3332V16.0934C122.547 14.8591 121.547 13.8601 120.314 13.8601ZM6.35756 54.5514C5.10242 51.3577 4.46518 47.9214 4.46518 44.3346V18.3267H18.7272V50.3006C18.7272 56.4616 19.829 62.3993 22.0028 67.9499C22.6907 69.7068 23.45 71.3937 24.248 73.036C16.8393 71.1108 10.2063 64.3825 6.35756 54.5514ZM83.8885 129.532H38.659C40.1285 124.157 46.7675 119.549 55.5341 118.137C59.2012 117.53 63.3373 117.528 67.0253 118.139C75.7815 119.549 82.4204 124.157 83.8885 129.532ZM66.933 95.609C66.93 95.609 66.927 95.609 66.9226 95.6105C63.2272 96.3847 59.3218 96.3847 55.6249 95.6105C55.6219 95.6105 55.6174 95.6105 55.6145 95.609C43.3713 93.0853 32.3595 82.1375 26.1628 66.3211C24.1944 61.2901 23.1954 55.9003 23.1954 50.2991V4.46667H99.3521V50.2991C99.3521 55.9003 98.353 61.2901 96.3847 66.3211C90.1865 82.1375 79.1761 93.0853 66.933 95.609ZM118.081 44.3332C118.081 47.9199 117.444 51.3577 116.188 54.5529C112.34 64.381 105.707 71.1108 98.2964 73.0345C99.0945 71.3907 99.8538 69.7053 100.542 67.9484C102.715 62.3964 103.817 56.4587 103.817 50.2991V18.3267H118.079L118.081 44.3332Z" fill="#1A305D"/>
<path d="M82.3737 36.5841L69.9519 34.7796L64.3984 23.5206C63.8073 22.3235 62.6087 21.5806 61.2732 21.5806C59.9377 21.5806 58.7406 22.3235 58.148 23.5221L52.5945 34.7796L40.1712 36.5841C38.849 36.7777 37.7726 37.6859 37.3587 38.9559C36.9462 40.2274 37.2827 41.5942 38.2401 42.5277L47.2285 51.2899L45.1068 63.6595C44.9326 64.6765 45.2111 65.7083 45.8721 66.4914C46.9024 67.7153 48.7412 68.08 50.1631 67.3341L61.2732 61.4947L72.3833 67.3341C72.885 67.5991 73.4463 67.7376 74.0047 67.7376C74.0032 67.7376 74.0062 67.7376 74.0047 67.7376C75.032 67.7376 76.0072 67.2835 76.6743 66.4914C77.3338 65.7083 77.6138 64.675 77.4396 63.6595L75.3179 51.2884L84.3048 42.5277C85.2622 41.5957 85.6001 40.2274 85.1877 38.9574C84.7753 37.6874 83.6973 36.7777 82.3737 36.5841ZM71.8309 48.4505C71.0075 49.2531 70.6323 50.4055 70.8274 51.5355L72.7004 62.4535L62.8961 57.3005C62.3973 57.037 61.836 56.8985 61.2732 56.8985C60.7104 56.8985 60.1491 57.037 59.6503 57.299L49.846 62.4535L51.719 51.5355C51.914 50.4055 51.5388 49.2531 50.7155 48.4505L42.7827 40.7187L53.7498 39.1271C54.8814 38.9619 55.8596 38.2502 56.3703 37.2213L61.2732 27.2845L66.1776 37.2243C66.6868 38.2487 67.6665 38.9604 68.801 39.1256L79.7622 40.7173L71.8309 48.4505Z" fill="#1A305D"/>
</svg>
