<svg width="106" height="134" viewBox="0 0 106 134" fill="none" xmlns="http://www.w3.org/2000/svg">
<path fill-rule="evenodd" clip-rule="evenodd" d="M30.161 39.066L44.2285 37.0061L50.5039 24.1932C51.3208 22.5254 53.6983 22.5254 54.5152 24.1932L60.7907 37.0061L74.8582 39.066C76.6844 39.3333 77.4163 41.5752 76.0994 42.8686L65.9087 52.8782L68.3107 66.9904C68.6215 68.8169 66.701 70.2057 65.0639 69.3383L52.5096 62.6877L39.9553 69.3383C38.3181 70.2057 36.3976 68.8169 36.7085 66.9904L39.1105 52.8782L28.9198 42.8686C27.6029 41.5752 28.3347 39.3333 30.161 39.066ZM52.5096 30.2525L57.8147 41.0843L69.7614 42.8336L61.114 51.327L63.1467 63.2683L52.5096 57.6333L41.8725 63.2683L43.9051 51.327L35.2578 42.8336L47.2042 41.0843L52.5096 30.2525Z" fill="#1A305D"/>
<path fill-rule="evenodd" clip-rule="evenodd" d="M101.638 49.13C101.638 61.9239 96.7476 73.5756 88.7342 82.3178L88.7443 82.3069L104.407 109.435C106.279 112.678 103.569 116.647 99.8662 116.083L80.7805 113.176L73.7549 131.159C72.392 134.647 67.5994 135.01 65.7269 131.767L52.5078 108.87L39.2886 131.767C37.4161 135.01 32.6235 134.647 31.2606 131.159L24.235 113.176L5.1493 116.083C1.44691 116.647 -1.26373 112.678 0.608819 109.435L16.2712 82.3069C8.26393 73.5658 3.37772 61.9186 3.37772 49.13C3.37772 21.9962 25.3739 0 52.5078 0C79.6416 0 101.638 21.9962 101.638 49.13ZM52.5078 93.7937C77.1748 93.7937 97.1714 73.7971 97.1714 49.13C97.1714 24.463 77.1748 4.46637 52.5078 4.46637C27.8407 4.46637 7.84409 24.463 7.84409 49.13C7.84409 73.7971 27.8407 93.7937 52.5078 93.7937ZM52.5078 98.2601C52.8331 98.2601 53.1578 98.2569 53.4819 98.2507L35.4208 129.533L27.095 108.223L4.47689 111.668L19.5478 85.5642L19.5352 85.5526C28.2529 93.4496 39.8186 98.2601 52.5078 98.2601ZM55.0864 104.404L58.8692 97.8521L58.8524 97.8541C69.0284 96.5421 78.2289 92.1168 85.4677 85.5642L100.539 111.668L77.9205 108.223L69.5947 129.533L55.0864 104.404Z" fill="#1A305D"/>
</svg>
