<svg width="134" height="93" viewBox="0 0 134 93" fill="none" xmlns="http://www.w3.org/2000/svg">
<path d="M67.6026 0C49.6115 0.00555119 31.6219 0.0222065 13.6365 0.00555155H13.6031C13.4975 0.0333104 13.3918 0.077722 13.2917 0.127686C6.59596 0.1832 0.723276 5.41283 0.172738 12.119V12.1135C0.167177 12.169 0.161615 12.219 0.156054 12.2689C0.0225834 33.881 0.150493 55.4875 0.106003 77.0726C-0.811603 84.4951 4.31028 92.2837 12.2852 92.828H12.2907C12.3352 92.8391 12.3797 92.8447 12.4298 92.8447C47.6374 92.9779 82.8408 92.8502 118.039 92.8946C125.463 93.8051 133.276 88.7365 133.833 80.7644H133.827C133.838 80.7256 133.838 80.6812 133.844 80.6423C133.977 59.0245 133.85 37.4123 133.894 15.823C134.812 8.40047 129.69 0.611891 121.715 0.0675728H121.592C103.596 0.00650537 85.6004 -0.00459667 67.6093 0.00650572L67.6026 0ZM13.6023 4.16922L13.5856 4.18588C49.5393 4.22474 85.493 4.1026 121.43 4.23584C126.791 4.5967 130.45 10.2316 129.732 15.4388V15.4333C129.716 15.5221 129.705 15.6165 129.699 15.7109C129.66 37.3059 129.783 58.9025 129.649 80.4691C129.276 85.8208 123.615 89.4515 118.399 88.7409H118.404C118.31 88.7242 118.215 88.7131 118.126 88.7076C82.9285 88.6687 47.7479 88.7909 12.5673 88.6576C7.20626 88.2968 3.56918 82.6619 4.28657 77.4546V77.4602C4.29769 77.3658 4.30325 77.277 4.30325 77.1826C4.34218 55.5932 4.21983 34.0137 4.3533 12.457C4.72034 7.96578 9.05259 4.09089 13.5684 4.18525H13.5628C13.5795 4.1797 13.5962 4.17415 13.6073 4.1686L13.6023 4.16922ZM43.511 20.4192C36.3871 20.4192 30.5756 26.2484 30.5756 33.3821C30.5756 40.5157 36.3871 46.3616 43.511 46.3616C50.635 46.3616 56.452 40.5157 56.452 33.3821C56.452 26.2484 50.635 20.4192 43.511 20.4192ZM43.511 24.605C48.3604 24.605 52.2644 28.4967 52.2644 33.3821C52.2644 38.2674 48.3604 42.1757 43.511 42.1757C38.6617 42.1757 34.7632 38.2674 34.7632 33.3821C34.7632 28.4967 38.6617 24.605 43.511 24.605ZM81.5831 29.3849L81.5776 29.3794C81.027 29.3849 80.4931 29.607 80.1038 30.0012C79.7089 30.3953 79.492 30.9227 79.492 31.4779C79.4976 32.6271 80.4263 33.5597 81.5774 33.5654H112.248C113.399 33.5598 114.333 32.6272 114.333 31.4779C114.333 30.9228 114.116 30.3954 113.727 30.0012C113.332 29.607 112.804 29.3849 112.248 29.3794L81.5831 29.3849ZM81.5831 45.001L81.5776 44.9955C81.027 45.001 80.4931 45.2231 80.1038 45.6117C79.7089 46.0059 79.492 46.5388 79.492 47.094C79.4976 48.2432 80.4319 49.1702 81.5774 49.1758H112.248C113.399 49.1702 114.328 48.2431 114.333 47.094C114.333 46.5389 114.116 46.0059 113.727 45.6117C113.332 45.2231 112.804 45.001 112.248 44.9955L81.5831 45.001ZM35.6083 48.232C35.2913 48.2098 34.9799 48.2597 34.6851 48.3763C33.6174 48.7927 32.5885 49.2923 31.593 49.8586C31.5875 49.8642 31.5819 49.8697 31.5764 49.8753C24.1966 54.1278 19.6586 61.9998 19.6586 70.5054C19.6641 71.6545 20.5984 72.5816 21.7497 72.5871H65.2773C66.4229 72.5816 67.3572 71.6489 67.3627 70.5054C67.3627 62.0004 62.8247 54.1289 55.4449 49.8753C55.4394 49.8697 55.4338 49.8642 55.4283 49.8586C54.4328 49.2924 53.4039 48.7927 52.3362 48.3763C51.4241 48.0155 50.3842 48.3375 49.8336 49.148L43.5105 58.4524L37.1873 49.148C36.8314 48.6206 36.2479 48.2819 35.6083 48.232ZM34.7407 52.9953L41.7868 63.349L41.7813 63.3434C42.1706 63.9152 42.8157 64.2594 43.5108 64.2594C44.2059 64.2594 44.851 63.9152 45.2459 63.3434L52.292 52.9897C52.6479 53.1618 53.015 53.3062 53.3598 53.5005C58.7876 56.6371 61.9185 62.272 62.6193 68.406H24.4077C25.1084 62.2715 28.2393 56.6368 33.6671 53.5005L33.6838 53.4838C34.0175 53.2951 34.3901 53.1618 34.7349 52.9897L34.7407 52.9953ZM81.5884 60.6176L81.5773 60.612C80.4317 60.6176 79.4974 61.5447 79.4919 62.6938C79.4919 63.2489 79.7088 63.7819 80.1036 64.1761C80.4929 64.5703 81.0268 64.7923 81.5774 64.7923H102.215C102.771 64.7923 103.311 64.5758 103.706 64.1816C104.1 63.7875 104.317 63.249 104.317 62.6938C104.317 62.1386 104.095 61.6057 103.7 61.217C103.305 60.8284 102.771 60.6119 102.215 60.6119L81.5884 60.6176Z" fill="#1A305D"/>
</svg>
