<svg width="134" height="134" viewBox="0 0 134 134" fill="none" xmlns="http://www.w3.org/2000/svg">
<path d="M127.3 56.5512C127.3 55.681 126.633 54.9548 125.762 54.8828L117.224 54.1696C114.037 53.9013 111.473 51.7749 110.341 49.0465C109.202 46.2919 109.529 42.9942 111.59 40.5603L117.119 34.0174C117.682 33.3566 117.643 32.3686 117.028 31.7535L102.247 16.973C101.632 16.358 100.644 16.3122 99.9831 16.8814L93.4403 22.4102C91.0063 24.4713 87.7086 24.7984 84.9541 23.6599C82.2257 22.528 80.0993 19.9632 79.8309 16.7767L79.1178 8.23811C79.0458 7.3679 78.3195 6.70051 77.4493 6.70051H56.5504C55.6802 6.70051 54.954 7.3679 54.882 8.23811L54.1688 16.7767C53.9005 19.9631 51.7741 22.528 49.0457 23.6599C46.2911 24.7984 42.9934 24.4713 40.5595 22.4102L34.0166 16.8814C33.3558 16.3122 32.3678 16.358 31.7527 16.973L16.9722 31.7535C16.3572 32.3685 16.3179 33.3565 16.8806 34.0174L22.4094 40.5603C24.4705 42.9942 24.7976 46.2919 23.6591 49.0465C22.5272 51.7749 19.9624 53.9013 16.7759 54.1696L8.23731 54.8828C7.3671 54.9548 6.69972 55.681 6.69972 56.5512V77.4501C6.69972 78.3203 7.3671 79.0466 8.23731 79.1186L16.7759 79.8317C19.9623 80.1 22.5272 82.2265 23.6591 84.9549C24.7976 87.7094 24.4705 91.0071 22.4094 93.4411L16.8806 99.9839C16.3114 100.645 16.3572 101.633 16.9722 102.248L31.7527 117.028C32.3677 117.643 33.3557 117.683 34.0166 117.12L40.5595 111.591C42.9934 109.53 46.2911 109.203 49.0457 110.341C51.7741 111.473 53.9005 114.038 54.1688 117.225L54.882 125.763C54.954 126.633 55.6802 127.301 56.5504 127.301H77.4493C78.3195 127.301 79.0458 126.633 79.1178 125.763L79.8309 117.225C80.0992 114.038 82.2257 111.473 84.9541 110.341C87.7086 109.203 91.0063 109.53 93.4403 111.591L99.9831 117.12C100.644 117.683 101.632 117.643 102.247 117.028L117.028 102.248C117.643 101.633 117.688 100.645 117.119 99.9839L111.59 93.4411C109.529 91.0071 109.202 87.7094 110.341 84.9549C111.473 82.2265 114.037 80.1001 117.224 79.8317L125.762 79.1186C126.633 79.0466 127.3 78.3203 127.3 77.4501V56.5512ZM97.1501 67.0003C97.1501 50.3486 83.652 36.8505 67.0003 36.8505C50.3485 36.8505 36.8504 50.3486 36.8504 67.0003C36.8504 83.6521 50.3485 97.1502 67.0003 97.1502C83.652 97.1502 97.1501 83.6521 97.1501 67.0003ZM103.85 67.0003C103.85 87.3482 87.3488 103.85 67.0003 103.85C46.6518 103.85 30.1504 87.3488 30.1504 67.0003C30.1504 46.6518 46.6518 30.1505 67.0003 30.1505C87.3488 30.1505 103.85 46.6518 103.85 67.0003ZM134 77.4494C134 81.8071 130.663 85.4383 126.319 85.7983L117.787 86.5115C117.329 86.5507 116.799 86.8779 116.53 87.5256C116.269 88.1537 116.399 88.7557 116.7 89.1156L122.236 95.6519C125.049 98.9757 124.846 103.909 121.765 106.984L106.984 121.765C103.909 124.846 98.9823 125.049 95.6519 122.236L89.1156 116.7C88.7557 116.399 88.1537 116.269 87.5256 116.53C86.8779 116.799 86.5507 117.329 86.5115 117.787L85.7983 126.319C85.4384 130.663 81.8071 134 77.4494 134H56.5506C52.1929 134 48.5617 130.663 48.2017 126.319L47.4885 117.787C47.4493 117.329 47.1221 116.799 46.4744 116.53C45.8463 116.269 45.2443 116.399 44.8844 116.7L38.3481 122.236C35.0177 125.049 30.0909 124.846 27.0158 121.765L12.2353 106.984C9.15366 103.909 8.95081 98.9757 11.7642 95.6519L17.2996 89.1156C17.6005 88.7557 17.7314 88.1537 17.4697 87.5256C17.2014 86.8779 16.6714 86.5507 16.2134 86.5115L7.68135 85.7983C3.33675 85.4384 0 81.8071 0 77.4494V56.5506C0 52.1929 3.33692 48.5617 7.68135 48.2017L16.2134 47.4885C16.6714 47.4493 17.2014 47.1221 17.4697 46.4744C17.7314 45.8463 17.6005 45.2443 17.2996 44.8844L11.7642 38.3481C8.95073 35.0177 9.15357 30.0909 12.2353 27.0158L27.0158 12.2353C30.0909 9.15365 35.0243 8.95081 38.3481 11.7642L44.8844 17.2996C45.2443 17.6005 45.8463 17.7314 46.4744 17.4697C47.1221 17.2014 47.4493 16.6714 47.4885 16.2134L48.2017 7.68135C48.5616 3.33675 52.1929 0 56.5506 0H77.4494C81.8071 0 85.4383 3.33692 85.7983 7.68135L86.5115 16.2134C86.5507 16.6714 86.8779 17.2014 87.5256 17.4697C88.1537 17.7314 88.7557 17.6005 89.1156 17.2996L95.6519 11.7642C98.9757 8.95073 103.909 9.15357 106.984 12.2353L121.765 27.0158C124.846 30.0909 125.049 35.0177 122.236 38.3481L116.7 44.8844C116.399 45.2443 116.269 45.8463 116.53 46.4744C116.799 47.1221 117.329 47.4493 117.787 47.4885L126.319 48.2017C130.663 48.5616 134 52.1929 134 56.5506V77.4494Z" fill="#1A305D"/>
</svg>
