<svg width="134" height="134" viewBox="0 0 134 134" fill="none" xmlns="http://www.w3.org/2000/svg">
<path d="M2.35428 134C1.1472 134 -0.0269195 133.556 0.000470019 132.113C0.0443634 129.342 0.324186 117.37 0.527191 115.58L8.23052 45.9929L8.45548 35.1512C8.47743 34.1252 9.31689 33.3077 10.3373 33.3022L25.7991 33.2967C26.8415 33.2967 27.6866 34.1471 27.6866 35.1842L27.9005 45.9874L33.0635 92.603L65.4014 74.1846C66.6963 73.4439 68.3478 74.223 68.3478 75.7483V91.3912L98.1237 74.2075C99.4295 73.4558 101.103 74.2075 101.103 75.7493V91.4076L130.847 74.179C132.163 73.4163 133.793 74.2283 133.793 75.7427V132.102C133.793 133.139 132.943 133.989 131.905 133.989H2.36018L2.35428 134ZM6.51861 28.8805C4.98227 23.1085 8.01646 16.6068 13.5965 14.3402C14.606 4.90307 26.0841 0.508247 33.1779 6.5491C37.5453 -2.63017 51.6903 -2.08687 55.1569 7.71777C62.317 6.69175 68.7857 12.3376 68.7857 19.558C68.7857 30.087 56.1718 35.267 48.7647 28.3916C44.4192 33.8399 36.0466 34.3283 31.0866 29.4396C30.066 30.29 28.8479 30.8113 27.5256 30.9265L8.54122 30.9429C7.17503 30.9429 6.8404 29.9334 6.51664 28.8799L6.51861 28.8805ZM10.0082 27.1797L27.3787 27.1687C29.5789 27.1358 30.5829 22.4392 32.5746 25.3197C35.9214 30.6473 43.9978 30.1975 46.7961 24.5132C47.3667 23.1635 49.2431 22.9495 50.0881 24.1895C54.5707 30.7351 65.0063 27.646 65.0063 19.5696C65.0063 14.061 59.6403 10.1106 54.3841 11.7676C53.2758 12.0309 52.1894 11.4932 51.9644 10.3246C50.2415 1.39777 37.2218 1.66661 35.8551 10.6374C35.5918 12.3437 33.3367 12.8485 32.3986 11.3671C28.0531 4.51426 17.3105 7.53188 17.3105 15.7345C17.305 17.0129 16.4162 17.4025 15.4011 17.7097C11.5768 19.021 9.35475 23.2842 10.0077 27.1907L10.0082 27.1797ZM35.604 115.571C35.7796 117.178 35.9936 127.751 36.0649 130.22H130.008V79.0245L100.374 96.1872C99.0298 96.9663 97.3179 96.2914 97.3179 94.7003V79.0138L67.3931 96.2917C65.9007 97.1531 64.5675 95.968 64.5675 94.3768V78.9923L33.5134 96.6817L35.6094 115.566L35.604 115.571ZM24.3235 47.9634H11.7973L4.46159 114.204H31.6643L24.3285 47.9634H24.3235ZM23.9504 37.0779H12.176L12.0333 44.1886H24.093L23.9504 37.0779ZM3.82542 130.225H32.3007L31.9605 117.984H4.16506L3.82542 130.225ZM102.454 104.202H120.752C121.794 104.202 122.639 105.052 122.639 106.089V116.091C122.639 117.134 121.789 117.979 120.752 117.979H102.454C101.412 117.979 100.567 117.129 100.567 116.091V106.089C100.567 105.047 101.417 104.202 102.454 104.202ZM118.866 107.982H104.348V114.204H118.866V107.982ZM73.1784 104.202H91.476C92.5185 104.202 93.3635 105.052 93.3635 106.089V116.091C93.3635 117.134 92.5131 117.979 91.476 117.979H73.1784C72.136 117.979 71.2909 117.129 71.2909 116.091V106.089C71.2909 105.047 72.1414 104.202 73.1784 104.202ZM89.5897 107.982H75.0718V114.204H89.5897V107.982ZM43.9026 104.202H62.2002C63.2426 104.202 64.0876 105.052 64.0876 106.089V116.091C64.0876 117.134 63.2372 117.979 62.2002 117.979H43.9026C42.8601 117.979 42.0151 117.129 42.0151 116.091V106.089C42.0151 105.047 42.8655 104.202 43.9026 104.202ZM60.3138 107.982H45.796V114.204H60.3138V107.982Z" fill="#1A305D"/>
</svg>
