<svg width="134" height="134" viewBox="0 0 134 134" fill="none" xmlns="http://www.w3.org/2000/svg">
<path d="M62.8479 0.131014C99.7982 -2.16314 131.606 25.9463 133.872 62.8984C136.139 99.8504 108.005 131.636 71.0516 133.875C34.137 136.112 2.39212 108.015 0.127884 71.1021C-2.13636 34.1893 25.9369 2.42294 62.8479 0.131014ZM97.0044 36.0985C99.8268 45.6962 101.95 55.3015 101.748 65.3805C102.46 65.3676 109.912 64.533 107.218 68.1578C106.811 68.7057 102.991 68.4578 101.899 68.3962C101.937 80.1523 99.8875 86.6896 97.0044 97.5987C102.445 100.528 110.37 105.382 114.287 110.169C114.919 109.451 115.56 108.733 116.175 108.003C125.179 96.2458 130.965 83.6221 130.934 68.3962L121.293 68.4038C119.916 68.4056 118.374 68.477 117.007 68.3913C115.35 68.2868 115.548 65.5229 117.184 65.4158C118.691 65.3171 120.245 65.3702 121.765 65.3751L130.934 65.3805C130.97 51.0047 125.515 38.9553 117.22 27.6662C116.403 26.5535 114.921 24.9064 114.287 23.7959C112.872 24.7479 111.812 25.9012 110.555 27.0304C106.459 30.7092 101.866 33.5521 97.0044 36.0985ZM19.8443 110.169C24.2438 105.739 27.2519 103.095 32.5604 99.9228C34.2759 98.8762 35.2582 98.2814 37.1652 97.5987C33.7602 90.3242 32.146 76.3789 32.0349 68.3962C31.1133 68.3886 30.0872 68.3574 29.1745 68.3962C26.4366 77.2013 15.8771 77.5157 12.1854 68.3962C9.7077 68.3913 6.2562 68.2739 3.84238 68.3962C2.57876 68.5105 3.06233 69.3709 3.11502 70.3756C3.91561 85.5653 9.73226 98.9338 19.8443 110.169ZM3.05161 65.3805C5.70565 65.3827 9.67734 65.5252 12.1854 65.3805C12.6761 60.9186 15.9418 57.9716 20.377 57.6515C24.9233 57.6599 29.1732 60.5323 29.1745 65.3805C30.2412 65.3318 30.9699 65.3269 32.0349 65.3805C31.9357 55.3426 33.9205 45.0608 37.1652 35.6123C30.5891 32.6461 25.2546 28.4615 19.8443 23.7959C10.4721 34.1884 2.6118 51.0181 3.05161 65.3805ZM65.4238 93.6663C64.4218 93.6614 63.2654 93.6315 62.2773 93.6663C54.6415 94.8688 48.052 95.5573 40.8793 99.3356C44.5277 107.834 47.363 113.299 53.6039 120.438C55.915 122.974 57.9586 125.127 60.7583 127.156C62.3505 128.31 63.9624 129.116 65.4238 130.42C65.5609 118.282 65.4229 105.832 65.4238 93.6663ZM40.8793 34.5094C42.4233 34.7996 43.766 35.2703 45.1131 36.0985L45.3332 36.1432C52.6591 37.6595 57.2157 39.5058 65.4238 39.7912L65.4184 7.72789C65.4176 6.76567 65.5997 5.60475 65.5685 4.6586L65.4238 4.57957C54.6996 8.82541 43.8084 23.3507 40.8793 34.5094ZM68.4141 42.7341V65.3805H73.5386H98.8029C99.1668 57.9274 96.9593 46.4361 94.8406 39.5313C94.6964 39.0602 94.3896 37.6725 94.2115 37.4358C85.3367 40.8574 77.9733 42.7435 68.4141 42.7341ZM65.4238 42.7341C57.1933 42.8904 47.2603 40.4073 39.7996 36.9951C37.3755 45.3252 34.5331 56.7678 35.1403 65.3805H61.057H65.4238L65.4278 50.1836C65.4283 48.1551 65.547 44.6215 65.4238 42.7341ZM68.4141 39.7912C75.8765 39.5451 82.1799 38.4735 89.2106 36.0985C90.3805 35.6681 92.0107 35.1001 93.0774 34.5094C88.8677 23.7142 79.8688 8.72048 68.4141 4.57957V39.7912ZM21.9844 112.496C27.9958 118.932 38.7271 124.876 47 127.66C51.5294 128.939 55.7158 130.006 60.4372 130.42C52.0889 124.883 46.1432 116.715 41.4379 107.959C40.761 106.7 38.5405 101.148 37.8895 100.447C33.2663 103.068 25.0653 107.941 21.9844 112.496ZM37.8895 68.3962C36.979 68.4074 36.0481 68.4302 35.1403 68.3962C35.1644 77.4929 36.7558 87.8983 39.7996 96.5106C44.2491 93.994 52.1951 91.9924 57.2782 91.1931C60.1358 90.7939 62.5309 90.464 65.4238 90.51V68.3962H37.8895ZM73.9034 130.42C76.6173 129.895 79.3977 129.529 82.1299 129.006C83.5306 128.737 86.4213 127.732 87.6425 127.66C96.1243 123.589 100.935 122.189 108.717 115.479C109.825 114.523 110.974 113.323 112.16 112.496C108.226 107.129 101.315 103.959 95.9466 100.447C92.1861 110.286 83.2863 124.641 73.9034 130.42ZM19.918 60.7096C16.8514 61.1815 14.7318 64.028 15.1587 67.1013C15.5851 70.1742 18.3999 72.3358 21.479 71.9544C23.5119 71.7026 25.2511 70.3756 26.0311 68.4819C26.8107 66.5879 26.5098 64.421 25.2435 62.8108C23.9776 61.2012 21.9425 60.3979 19.918 60.7096ZM68.4141 130.42C73.9633 126.442 77.2442 124.407 81.8848 118.756C86.8071 112.721 90.1728 106.556 93.0774 99.3356C85.935 96.236 76.3775 93.222 68.4141 93.6663L68.4154 118.09C68.4163 122.114 68.4944 126.418 68.4141 130.42ZM58.8794 3.51643C45.6828 5.78425 31.1271 11.3781 21.9844 21.6554C24.5407 23.5718 26.3169 25.4145 29.1745 27.4251C31.7192 29.1652 35.7994 31.1664 37.8895 32.8489L37.9922 32.6756C39.0857 30.8052 39.984 28.2713 40.9458 26.2821C45.7739 16.2937 51.3954 9.63225 60.4372 3.51643H58.8794ZM112.16 21.6554C102.686 13.4539 94.5741 7.55107 81.8178 4.77424C79.0061 4.16208 75.9471 3.44321 73.0836 3.51643C84.6531 11.095 90.8069 20.3207 95.9466 33.2927C99.6397 31.099 102.381 29.538 105.862 26.9572C107.999 25.3274 110.135 23.4351 112.16 21.6554ZM68.4141 68.3962C68.3355 68.7704 68.4114 73.2565 68.4123 74.066L68.4141 90.51C77.7519 90.7488 85.6649 92.6353 94.2115 96.5106L95.2135 93.1046C97.3031 86.0784 99.2329 75.8815 98.8029 68.3962L78.5208 68.3935C75.4233 68.3931 71.4383 68.2681 68.4141 68.3962Z" fill="#1A305D"/>
<path d="M111.647 47.4914C116.4 47.386 120.345 51.1407 120.474 55.8929C120.603 60.6446 116.869 64.6083 112.118 64.7619C107.332 64.9164 103.333 61.1492 103.203 56.3631C103.073 51.5765 106.86 47.5972 111.647 47.4914ZM112.458 61.61C115.486 61.2773 117.672 58.5568 117.346 55.529C117.02 52.5008 114.305 50.308 111.276 50.6272C108.237 50.9478 106.036 53.6738 106.363 56.7114C106.69 59.7489 109.422 61.944 112.458 61.61Z" fill="#1A305D"/>
<path d="M111.632 67.2315C114.858 67.1614 113.279 70.5339 113.104 72.5847C112.75 76.7341 107.413 92.6887 104.333 94.456C103.723 94.3613 101.858 93.6889 102.406 92.7164C105.622 87.0172 108.184 80.992 109.602 74.5784C110.018 72.6963 110.09 67.9544 111.632 67.2315Z" fill="#1A305D"/>
<path d="M22.8977 77.4033C24.7579 77.469 25.0776 79.6948 25.6312 81.1665C27.4083 85.8856 30.0137 89.9073 32.6137 94.1384C33.1218 94.9658 32.1748 95.7963 31.2769 96.0508C28.7094 95.9204 22.8535 82.7011 22.0261 80.5119C21.4314 78.9384 21.0518 78.0637 22.8977 77.4033Z" fill="#1A305D"/>
</svg>
