<svg width="136" height="134" viewBox="0 0 136 134" fill="none" xmlns="http://www.w3.org/2000/svg">
<path d="M119.992 0.00299779C119.413 0.0331691 118.865 0.276098 118.455 0.68469L101.55 17.5008C101.288 17.7603 101.092 18.0775 100.978 18.4267C100.863 18.7758 100.833 19.1469 100.891 19.5096L102.556 29.7765L96.1293 36.1621C85.9184 26.5776 72.1546 20.6959 57.0161 20.6959C25.5582 20.6959 0 46.0876 0 77.3479C0 108.608 25.5582 134 57.0161 134C88.4741 134 114.014 108.608 114.014 77.3479C114.014 62.8043 108.485 49.5305 99.4043 39.4935L105.872 33.0671L116.21 34.7305C116.575 34.7876 116.948 34.7581 117.299 34.6444C117.651 34.5306 117.97 34.3359 118.231 34.0761L135.155 17.26C135.457 16.9558 135.669 16.5749 135.768 16.159C135.866 15.7432 135.847 15.3085 135.714 14.9024C135.58 14.4964 135.336 14.1348 135.01 13.8572C134.683 13.5796 134.285 13.3967 133.861 13.3286L124.022 11.747L122.435 1.95729C122.366 1.53468 122.18 1.13923 121.9 0.81447C121.619 0.489712 121.253 0.248236 120.843 0.116619C120.569 0.0269843 120.281 -0.0115303 119.992 0.00299779ZM118.524 7.21119L119.668 14.1512C119.747 14.6328 119.976 15.0774 120.323 15.4224C120.67 15.7674 121.118 15.9952 121.602 16.0737L128.605 17.1918L115.775 29.9356L107.098 28.5449L105.717 19.9414L118.524 7.21119ZM57.0161 25.3498C70.8875 25.3498 83.4849 30.6989 92.8404 39.4345L82.2194 49.9922C75.5731 43.9424 66.7236 40.2435 57.0161 40.2435C36.4187 40.2435 19.6732 56.88 19.6732 77.3479C19.6732 97.8158 36.4187 114.452 57.0161 114.452C77.6136 114.452 94.3591 97.8158 94.3591 77.3479C94.3591 68.1993 91.0111 59.8158 85.4716 53.3418L96.1064 42.7704C104.333 51.9549 109.33 64.0649 109.33 77.3479C109.33 106.093 85.9424 129.346 57.0161 129.346C28.0898 129.346 4.68384 106.093 4.68384 77.3479C4.68384 48.6025 28.0898 25.3498 57.0161 25.3498ZM57.0161 44.8974C65.4553 44.8974 73.1365 48.0634 78.926 53.2646L67.4496 64.6722C64.6036 62.3538 60.9698 60.9591 57.0161 60.9591C47.9308 60.9591 40.5036 68.32 40.5036 77.3479C40.5036 86.3759 47.9308 93.7504 57.0161 93.7504C66.1015 93.7504 73.5103 86.3759 73.5103 77.3479C73.5103 73.9225 72.4393 70.7378 70.6195 68.1036L82.1645 56.6278C86.854 62.2443 89.6706 69.4609 89.6706 77.3479C89.6706 95.301 75.0819 109.812 57.0161 109.812C38.9503 109.812 24.357 95.301 24.357 77.3479C24.357 59.3949 38.9503 44.8974 57.0161 44.8974ZM57.0161 65.5994C59.7009 65.5994 62.1659 66.4774 64.1426 67.9627L56.0144 76.0436C55.5781 76.4796 55.3332 77.0694 55.3332 77.6843C55.3332 78.2991 55.5781 78.889 56.0144 79.325C56.2319 79.5417 56.4904 79.7136 56.7749 79.8309C57.0594 79.9482 57.3644 80.0086 57.6725 80.0086C57.9805 80.0086 58.2856 79.9482 58.5701 79.8309C58.8546 79.7136 59.1131 79.5417 59.3306 79.325L67.2484 71.4578C68.2513 73.1872 68.8218 75.1978 68.8218 77.3479C68.8218 83.861 63.5698 89.0965 57.0161 89.0965C50.4624 89.0965 45.1921 83.861 45.1921 77.3479C45.1921 70.8349 50.4624 65.5994 57.0161 65.5994Z" fill="#1A305D"/>
</svg>
