<svg width="158" height="134" viewBox="0 0 158 134" fill="none" xmlns="http://www.w3.org/2000/svg">
<path d="M139.959 18.3042H100.673V14.8654C100.673 6.66605 94.0023 0 85.7973 0H68.189C59.984 0 53.3133 6.66605 53.3133 14.8654V18.3042H18.0466C8.09536 18.3042 0 26.3939 0 36.3383V53.1531C0 54.3797 0.796387 55.4604 1.96544 55.8327L7.6936 57.6215V117.506C7.6936 126.597 15.1021 134 24.1986 134H133.801C142.905 134 150.306 126.604 150.306 117.506V57.6215L156.035 55.8327C157.204 55.4676 158 54.3797 158 53.1531V36.3383C158.007 26.3939 149.91 18.3042 139.959 18.3042ZM58.9177 14.8654C58.9177 9.7617 63.0751 5.60738 68.1821 5.60738H85.7904C90.8976 5.60738 95.0547 9.76189 95.0547 14.8654V18.3042H58.9182L58.9177 14.8654ZM144.701 117.499C144.701 123.501 139.813 128.385 133.807 128.385H24.1967C18.191 128.385 13.303 123.501 13.303 117.499V59.3655L61.1016 74.2967V84.1606C61.1016 90.0454 65.8945 94.835 71.7834 94.835H86.2133C92.1021 94.835 96.8951 90.0454 96.8951 84.1606V74.2967L144.694 59.3655L144.701 117.499ZM66.7211 76.0568L78.1701 79.6345C78.4404 79.7221 78.7254 79.7586 79.0103 79.7586C79.2953 79.7586 79.5729 79.7148 79.8506 79.6345L91.2996 76.0568V84.1685C91.2996 86.9649 89.0274 89.2355 86.2291 89.2355H71.7991C69.0008 89.2355 66.7286 86.9649 66.7286 84.1685L66.7211 76.0568ZM152.396 51.0872L79.0041 74.0213L5.61257 51.0872V36.3313C5.61257 29.4827 11.1874 23.9046 18.0479 23.9046H139.969C146.823 23.9046 152.405 29.4756 152.405 36.3313L152.396 51.0872Z" fill="#1A305D"/>
</svg>
