<svg width="249" height="250" viewBox="0 0 249 250" fill="none" xmlns="http://www.w3.org/2000/svg">
<path d="M110.6 21.4501C110.667 16.8976 108.479 0.0768871 114.415 0.113621C139.893 0.273079 163.527 -3.26004 182.26 19.3254C190.839 29.3403 196.627 43.7834 195.367 57.0142L195.349 57.1987C216.746 75.1398 222.128 95.6723 214 121.523C213.376 123.506 212.376 128.457 209.613 128.599C208.928 128.635 179.134 119.291 176.691 118.449C176.807 120.7 176.969 123.147 176.691 125.375C175.418 128.067 171.601 130.536 169.241 133.347C160.918 143.263 159.365 151.698 156.19 163.334C156.19 164.101 156.052 171.048 156.19 171.269C156.638 176.68 157.268 183.042 158.323 188.364C168.804 192.468 166.413 203.922 166.373 213.408C171.875 215.499 176.627 219.695 177.306 225.774C177.702 229.32 177.904 245.317 176.64 247.896C175.097 251.041 168.131 249.728 165.352 249.729L76.2146 249.723C70.4198 250.008 71.0593 244.406 71.142 240.219C71.3373 230.333 68.6524 216.278 82.0561 213.408C82.016 203.305 79.6542 191.441 91.6979 187.712C90.969 182.759 91.0575 176.372 91.055 171.269C91.1961 168.556 91.4332 166.036 91.6979 163.334C94.0338 148.74 98.2924 135.266 106.506 122.852C114.378 110.954 121.336 100.574 118.579 84.9285C113.352 89.218 106.283 92.1458 99.3927 91.8954C87.6496 91.4688 91.9592 90.5872 85.9315 99.0167C69.6785 121.746 29.0234 96.8519 55.6779 69.502L79.3269 45.4381C82.405 42.2806 86.0342 38.2449 89.23 35.3839C87.7682 26.9952 86.4591 18.7794 85.3872 10.2505C84.9555 6.81586 84.675 3.76362 89.4062 2.84444C92.6671 2.20995 107.402 18.4563 110.6 21.4501ZM97.622 37.496C96.7571 39.2209 91.8172 44.0188 90.206 45.6868L74.8187 61.4907C70.6995 65.6591 58.1508 77.3154 56.1504 81.3728C49.0041 95.8693 72.0728 107.449 79.5874 93.7262C88.7116 77.065 94.1907 87.3412 106.38 82.9399C112.725 80.6482 117.042 74.3375 121.482 73.0293C125.292 74.1672 125.578 75.9813 126.243 79.6998C130.215 102.009 122.807 111.42 112.439 128.4C107.028 137.261 101 152.074 100.034 162.538C98.4084 171.755 99.9487 179.134 98.9469 187.192H150.691C145.354 163.984 149.69 138.636 168.789 122.557C170.569 86.4271 164.138 41.9066 120.992 34.8228C118.151 34.3562 113.86 34.2618 111.369 33.179C108.437 31.9042 97.9835 18.9021 94.518 17.3242C95.3737 23.0705 97.7481 31.9776 97.622 37.496ZM94.518 195.057C87.8191 198.002 90.0824 205.992 89.9914 212.587H154.373H158.323C158.375 202.328 161.545 195.033 149.075 195.036L112.672 195.055C107.492 195.05 99.3501 194.768 94.518 195.057ZM118.579 26.4133C120.889 26.8491 123.215 27.1964 125.526 27.6088C163.55 34.4012 178.97 75.3443 176.16 109.916L192.928 115.023C197.327 116.339 202.022 117.635 206.29 119.273L207.231 116.062C212.625 96.1765 209.02 82.014 194.701 67.1928C192.717 65.139 189.152 62.7772 187.66 60.4713C187.406 58.254 187.691 56.1409 187.636 53.9452C187.019 28.786 168.407 11.8684 144.648 8.23094C142.267 7.87696 136.989 8.02807 134.396 8.0264L118.579 8.03809C118.588 13.6308 118.824 20.9325 118.579 26.4133ZM162.565 241.698H169.569C169.633 225.479 173.1 220.429 154.141 220.433L86.0951 220.445C76.6153 221.424 79.0481 234.237 79.0815 241.698C88.1597 241.884 97.8508 241.699 106.997 241.698H162.565Z" fill="#000F29"/>
<path d="M19.6452 187.192C-3.24578 180.01 -0.570887 151.921 20.1553 147.59C30.7079 145.385 41.8633 152.638 43.7551 163.334H91.6976C91.433 166.036 91.1959 168.556 91.0548 171.268H43.7551C40.6953 180.498 37.4744 184.285 27.9253 187.192V214.565C45.6911 214.573 46.5744 210.919 46.5593 226.999C46.5552 232.027 48.0103 245.801 44.5874 249.135C40.9249 250.136 6.89942 249.94 2.53896 249.135L2.48553 249.089C-1.40408 245.877 0.386696 223.6 0.569529 217.843C0.0794679 212.55 16.0904 214.598 19.6452 214.565V187.192ZM8.58249 241.698C11.4335 241.511 15.7548 241.686 18.7569 241.69L38.4353 241.698C38.4437 235.743 38.5956 229.116 38.4353 223.216C33.0722 222.982 13.6342 222.453 8.58249 223.216V241.698ZM25.7948 179.132C32.2991 178.031 36.6771 171.864 35.5726 165.36C34.4673 158.857 28.2968 154.482 21.7941 155.591C15.2973 156.699 10.9268 162.863 12.0313 169.361C13.1358 175.858 19.2962 180.232 25.7948 179.132Z" fill="#9A2957"/>
<path d="M205.414 163.334C210.359 138.36 250.256 145.172 244.986 171.639C243.305 180.081 236.886 184.935 228.983 187.192V215.508L239.084 215.476C243.771 215.469 248.038 214.287 248.545 219.689C248.685 224.519 249.892 245.922 247.441 248.766C243.773 250.589 209.38 249.932 204.288 249.008C201.58 248.517 202.78 224.155 202.686 219.872C202.926 212.761 214.902 215.506 220.941 215.508C221.262 206.478 220.785 196.391 220.941 187.192C212.992 184.596 206.488 180.196 205.414 171.269L156.376 170.983L156.188 171.269C156.05 171.048 156.188 164.102 156.188 163.334H205.414ZM210.403 241.698H240.682C240.759 235.578 240.692 229.345 240.682 223.216H210.403C210.214 224.429 210.365 228.376 210.38 229.883L210.403 241.698ZM227.23 179.48C233.858 178.327 238.293 172.014 237.13 165.387C235.967 158.761 229.647 154.335 223.023 155.508C216.412 156.679 211.998 162.982 213.159 169.595C214.319 176.207 220.616 180.63 227.23 179.48Z" fill="#9A2957"/>
</svg>
