<svg width="212" height="250" viewBox="0 0 212 250" fill="none" xmlns="http://www.w3.org/2000/svg">
<path d="M105.088 0.00669789C105.831 -0.0049933 106.819 -0.0408997 107.455 0.327373C138.352 18.2199 173.195 29.9913 208.688 33.9638C209.583 34.064 210.729 35.132 211.407 35.7792C211.604 37.9003 211.418 43.5514 211.415 45.9756L211.419 96.5843C211.438 156.782 181.111 206.335 129.373 237.303C122.35 241.507 113.98 246.901 106.432 249.986C102.896 250.456 84.6625 238.95 80.6809 236.512C36.9057 209.717 3.80129 163.429 0.51273 111.315C0.177026 105.994 0.420042 100.091 0.420042 94.7137L0.439245 47.9122C0.384965 37.872 -2.53115 34.5909 7.41471 33.1754C38.606 28.7361 69.1634 19.3498 96.965 4.43097C99.7124 2.95621 102.308 1.35787 105.088 0.00669789ZM105.812 241.558C142.539 226.069 178.746 189.666 193.445 153.002C204.4 125.679 203.57 111.156 203.57 82.9949L203.569 41.143C171.267 37.1813 140.662 26.691 111.89 11.7781C110.685 11.1542 106.619 8.35922 105.812 8.34502C72.1563 26.7745 44.7522 34.2535 8.10031 41.143L8.09781 85.3975C8.09781 94.1842 7.72369 104.169 8.39092 112.896C10.9847 146.842 28.0012 179.627 51.6475 203.725C67.9801 220.37 85.4083 230.659 105.454 241.56L105.812 241.558Z" fill="#000F29"/>
<path d="M105.089 37.8234C108.605 37.7666 109.143 39.8385 110.48 42.6777C114.864 51.9914 119.896 61.134 124.259 70.4234C124.974 71.945 124.733 81.5393 124.725 83.6938C130.93 86.8003 146.563 96.4622 151.555 100.542C151.527 96.9532 150.94 91.364 152.852 88.2742C154.259 86.0003 158.907 87.5243 159.171 89.8174C159.751 94.8622 159.471 100.335 159.45 105.462C161.739 106.186 180.311 117.445 181.847 119.253C183.791 121.539 183.098 132.671 182.817 135.723C182.069 143.827 172.391 138.993 166.791 137.522L140.311 130.525C135.619 129.273 129.361 127.342 124.725 126.615C124.758 137.081 125.222 143.285 120.854 153.342C124.082 154.775 140.845 163.214 142.301 165.293C143.709 167.305 143.406 176.395 142.952 178.415C141.671 184.12 134.327 181.132 130.648 180.397C126.09 179.488 121.407 178.784 116.931 177.527C114.641 181.452 109.309 192.845 107.371 194.246C101.633 196.007 98.8892 182.522 94.5334 177.527C92.0072 178.217 87.8084 178.813 85.0276 179.368C67.1042 182.366 68.3159 183.896 68.7443 165.368C70.9781 163.013 87.0377 154.79 90.8365 153.342C86.7086 143.622 87.0126 136.72 87.0318 126.615C69.5493 130.111 51.5015 136.349 33.9889 140.308C26.6869 141.958 27.0627 119.392 32.1175 117.302C38.6562 113.325 45.149 109.277 51.8347 105.462C51.8631 100.437 51.5808 95.3624 51.985 90.3619C52.2213 87.4308 56.5554 86.3285 58.208 88.1581C60.5696 90.7719 59.4581 96.9382 59.616 100.542C63.4607 97.9779 84.3629 84.3677 87.0318 83.6938C87.3299 69.1858 86.1917 73.1057 92.7087 59.8872L101.613 41.4068C102.662 39.2163 102.802 38.6309 105.089 37.8234ZM76.5891 169.581C76.5749 170.843 76.5298 172.195 76.5891 173.448C79.8818 172.247 96.247 168.594 98.8909 169.905C101.252 171.076 104.484 179.349 105.813 182.036L107.371 179.446C108.028 177.14 110.74 171.013 112.686 169.859C115.365 168.269 131.507 172.711 135.246 173.448V169.581C130.433 167.114 125.131 164.292 120.54 161.849C111.21 156.883 110.642 157.638 114.929 147.266C117.218 141.725 116.934 132.757 116.935 126.397L116.947 96.3962C116.975 92.7929 117.285 88.7619 116.544 85.2612C115.665 81.115 106.699 80.0361 103.421 80.8854C92.854 82.0929 94.5325 87.1034 94.5267 95.8225L94.5284 126.823C94.5342 133.781 94.3079 140.438 96.743 147.047C97.6249 149.441 100.944 154.745 99.0929 157.143C97.8687 158.728 79.8801 167.714 76.5891 169.581ZM116.931 75.2811C117.173 72.0068 108.645 55.4512 105.813 50.8649C103.833 54.3948 94.5417 72.0535 94.7931 75.1843C94.9017 75.2269 104.214 73.4473 106.433 73.4932C110.604 73.3604 112.965 73.8565 116.931 75.2811ZM124.725 92.6726C124.501 94.7378 124.702 99.3716 124.714 101.677L124.725 118.462C129.158 119.123 138.233 121.964 142.86 123.23L175.152 131.878V123.707C169.327 120.222 163.636 116.561 157.853 113.009L139.843 102.084C135.367 99.3199 129.143 95.1328 124.725 92.6726ZM87.0318 92.6726C83.6347 94.3586 79.329 97.2689 76.0062 99.3099L55.8339 111.723C50.1303 115.256 41.5531 119.641 36.4816 123.707C36.4766 125.03 36.2161 131.232 36.4816 131.878C52.6079 127.121 70.5923 122.286 87.0318 118.462C87.0318 116.351 87.112 92.8221 87.0318 92.6726Z" fill="#9A2957"/>
</svg>
