<svg width="250" height="250" viewBox="0 0 250 250" fill="none" xmlns="http://www.w3.org/2000/svg">
<path d="M117.254 0.244429C186.191 -4.03571 245.533 48.4073 249.761 117.348C253.99 186.288 201.503 245.59 132.559 249.767C63.6885 253.94 4.46292 201.52 0.238589 132.653C-3.98574 63.786 48.3898 4.52041 117.254 0.244429ZM180.978 67.348C186.244 85.2541 190.206 103.174 189.828 121.979C191.157 121.954 205.06 120.397 200.034 127.16C199.275 128.182 192.148 127.72 190.109 127.605C190.18 149.538 186.357 161.734 180.978 182.087C191.128 187.553 205.914 196.609 213.223 205.539C214.401 204.2 215.597 202.861 216.745 201.498C233.542 179.563 244.337 156.011 244.28 127.605L226.293 127.619C223.723 127.622 220.847 127.756 218.297 127.596C215.204 127.401 215.575 122.244 218.627 122.044C221.439 121.86 224.337 121.959 227.174 121.969L244.28 121.979C244.347 95.1581 234.17 72.6778 218.695 51.6161C217.17 49.5402 214.406 46.4671 213.223 44.3954C210.583 46.1714 208.605 48.3231 206.26 50.4299C198.618 57.2933 190.049 62.5972 180.978 67.348ZM37.023 205.539C45.2309 197.274 50.8431 192.342 60.747 186.423C63.9476 184.47 65.7802 183.361 69.3381 182.087C62.9854 168.515 59.974 142.498 59.7665 127.605C58.0472 127.591 56.1328 127.532 54.4301 127.605C49.3219 144.032 29.6215 144.619 22.7339 127.605C18.1114 127.596 11.672 127.377 7.16862 127.605C4.81113 127.818 5.7133 129.423 5.8116 131.298C7.30523 159.637 18.1572 184.578 37.023 205.539ZM5.69331 121.979C10.6449 121.983 18.0547 122.248 22.7339 121.979C23.6494 113.654 29.7422 108.156 38.0168 107.559C46.4988 107.575 54.4276 112.933 54.4301 121.979C56.4202 121.888 57.7797 121.879 59.7665 121.979C59.5816 103.251 63.2845 84.0687 69.3381 66.4408C57.0692 60.907 47.1169 53.0998 37.023 44.3954C19.5375 63.7843 4.87277 95.1831 5.69331 121.979ZM122.059 174.751C120.19 174.741 118.032 174.686 116.189 174.751C101.943 176.994 89.6492 178.278 76.2673 185.328C83.0741 201.184 88.3639 211.378 100.007 224.697C104.319 229.429 108.132 233.446 113.355 237.232C116.326 239.384 119.333 240.889 122.059 243.321C122.315 220.675 122.058 197.448 122.059 174.751ZM76.2673 64.3832C79.148 64.9247 81.6529 65.8027 84.1662 67.348L84.5769 67.4313C98.2445 70.2603 106.746 73.7049 122.059 74.2372L122.049 14.4177C122.048 12.6225 122.388 10.4566 122.329 8.69142L122.059 8.54397C102.051 16.4653 81.732 43.5648 76.2673 64.3832ZM127.638 79.7278V121.979H137.199H184.334C185.013 108.074 180.894 86.6345 176.941 73.7524C176.672 72.8735 176.1 70.2845 175.768 69.843C159.21 76.2265 145.473 79.7453 127.638 79.7278ZM122.059 79.7278C106.704 80.0193 88.1723 75.3868 74.253 69.0208C69.7305 84.5619 64.4274 105.91 65.5603 121.979H113.912H122.059L122.067 93.6261C122.068 89.8417 122.289 83.249 122.059 79.7278ZM127.638 74.2372C141.561 73.7782 153.321 71.7789 166.438 67.348C168.62 66.545 171.662 65.4853 173.652 64.3832C165.798 44.2429 149.009 16.2695 127.638 8.54397V74.2372ZM41.0157 209.881C52.2309 221.888 72.2521 232.978 87.6866 238.171C96.1369 240.558 103.947 242.548 112.756 243.321C97.1807 232.991 86.088 217.751 77.3094 201.417C76.0466 199.067 71.9039 188.708 70.6893 187.402C62.0641 192.29 46.7637 201.383 41.0157 209.881ZM70.6893 127.605C68.9908 127.626 67.2539 127.668 65.5603 127.605C65.6053 144.576 68.5742 163.989 74.253 180.057C82.5543 175.362 97.379 171.628 106.862 170.136C112.194 169.392 116.662 168.776 122.059 168.862V127.605H70.6893ZM137.88 243.321C142.943 242.341 148.13 241.658 153.227 240.682C155.841 240.181 161.234 238.305 163.512 238.171C179.336 230.577 188.312 227.964 202.83 215.445C204.896 213.663 207.041 211.424 209.253 209.881C201.914 199.868 189.021 193.954 179.005 187.402C171.989 205.757 155.385 232.539 137.88 243.321ZM37.1604 113.264C31.4391 114.145 27.4847 119.455 28.2811 125.189C29.0766 130.922 34.3281 134.955 40.0727 134.243C43.8655 133.774 47.1102 131.298 48.5655 127.765C50.02 124.231 49.4585 120.188 47.0961 117.184C44.7344 114.181 40.9374 112.683 37.1604 113.264ZM127.638 243.321C137.991 235.9 144.112 232.102 152.77 221.559C161.953 210.3 168.233 198.799 173.652 185.328C160.327 179.545 142.495 173.922 127.638 174.751L127.641 220.317C127.642 227.825 127.788 235.854 127.638 243.321ZM109.85 6.56051C85.2291 10.7915 58.073 21.2278 41.0157 40.4018C45.7849 43.9772 49.0987 47.4151 54.4301 51.1663C59.1776 54.4126 66.7899 58.1463 70.6893 61.2852L70.8809 60.962C72.921 57.4724 74.5971 52.7449 76.3915 49.0337C85.3991 30.3987 95.887 17.9706 112.756 6.56051H109.85ZM209.253 40.4018C191.579 25.1006 176.444 14.0878 152.645 8.90717C147.399 7.76508 141.692 6.42389 136.35 6.56051C157.935 20.6996 169.416 37.9118 179.005 62.1132C185.895 58.0205 191.009 55.1082 197.503 50.2933C201.491 47.2527 205.476 43.7223 209.253 40.4018ZM127.638 127.605C127.492 128.303 127.633 136.672 127.635 138.183L127.638 168.862C145.059 169.308 159.823 172.827 175.768 180.057L177.637 173.703C181.536 160.594 185.136 141.57 184.334 127.605L146.494 127.6C140.715 127.599 133.28 127.366 127.638 127.605Z" fill="#9A2957"/>
<path d="M208.298 88.6036C217.165 88.4071 224.524 95.4121 224.765 104.278C225.007 113.143 218.039 120.538 209.175 120.825C200.246 121.113 192.787 114.085 192.544 105.155C192.301 96.2251 199.367 88.8011 208.298 88.6036ZM209.811 114.944C215.459 114.324 219.538 109.248 218.93 103.599C218.322 97.9495 213.255 93.8584 207.605 94.4541C201.936 95.0522 197.829 100.138 198.44 105.805C199.049 111.472 204.145 115.567 209.811 114.944Z" fill="#9A2957"/>
<path d="M208.268 125.432C214.287 125.301 211.341 131.593 211.014 135.419C210.353 143.161 200.398 172.927 194.65 176.224C193.512 176.047 190.033 174.793 191.056 172.979C197.055 162.346 201.836 151.105 204.48 139.139C205.257 135.628 205.392 126.781 208.268 125.432Z" fill="#9A2957"/>
<path d="M42.7191 144.409C46.1895 144.532 46.786 148.684 47.8189 151.43C51.1344 160.234 55.9952 167.738 60.846 175.631C61.794 177.175 60.0271 178.724 58.3519 179.199C53.5619 178.956 42.6366 154.293 41.093 150.209C39.9834 147.273 39.2753 145.641 42.7191 144.409Z" fill="#9A2957"/>
</svg>
