<svg width="265" height="250" viewBox="0 0 265 250" fill="none" xmlns="http://www.w3.org/2000/svg">
<path d="M15.118 16.3418H144.52C161.855 16.3232 164.317 12.1836 164.316 29.9444L164.305 58.7572C164.317 86.9578 136.875 113.033 111.993 122.197C109.196 123.25 106.132 124.082 103.519 125.463L103.149 125.663L103.154 188.495C103.149 202.988 101.594 207.223 86.1799 207.172L78.0422 207.178C56.7213 207.283 61.7368 190.4 61.7819 174.262C58.6712 174.383 55.9117 174.349 52.8037 174.262L48.0333 178.175C38.1412 185.927 28.6189 194.235 18.8179 202.09C14.3501 205.67 10.5263 198.903 13.3848 196.364C23.5061 187.376 34.6412 179.199 44.7828 170.235C42.2029 167.927 38.5428 165.127 35.8232 162.919L23.1991 152.565C20.2777 150.208 17.3059 147.852 14.45 145.394C10.2432 141.773 14.581 136.13 18.2544 138.347C20.0318 139.42 23.6052 142.566 25.3631 143.987L44.7191 159.825C47.03 161.713 50.3742 164.848 52.8037 166.373H61.7819C61.9845 152.917 61.6925 139.16 61.7819 125.663C37.0167 119.809 16.3469 101.012 5.01447 78.6777C-1.46259 65.912 0.179452 65.8704 0.20157 51.783L0.207767 32.3686C0.152029 14.9342 -2.26415 16.2595 15.118 16.3418ZM8.2614 24.0495L8.25079 54.5636C8.24725 65.5687 7.13338 65.9695 12.4851 75.7882C18.4702 69.8959 25.1446 62.412 31.0253 56.9285C33.8326 56.71 38.1739 56.9259 41.1767 56.9276L81.8713 56.925C85.5013 56.9259 89.1809 56.8374 92.8065 57.0665C97.1806 57.3426 97.0912 64.7406 93.209 64.8167C82.3145 65.0308 71.3696 64.6946 60.4707 64.8592C49.9699 76.0323 38.196 86.2102 28.1279 97.7665L28.3322 97.924C40.9785 107.762 45.4216 112.616 62.5206 117.455C97.1885 127.078 136.487 108.51 152.038 76.25C157.398 65.1281 156.363 61.9007 156.365 50.1011L156.353 24.0495H18.3154H8.2614ZM34.3961 64.8592C29.3851 69.2669 21.1562 77.5665 16.6212 82.8721C18.5852 85.8156 20.7015 88.9298 23.0354 91.5893L27.3582 87.0941C34.4917 79.8827 42.103 71.7804 49.4108 64.8592C44.7784 64.8362 38.9498 64.6884 34.3961 64.8592ZM73.9866 174.262H69.7355L69.7417 187.577C69.6648 198.467 68.3872 199.206 79.6878 199.18L91.7032 199.165C96.5975 198.927 95.2421 192.305 95.2386 188.775L95.2165 174.262H73.9866ZM94.0115 126.956C85.3208 127.951 78.4961 128.4 69.7355 126.956L69.7293 158.356C69.7267 159.654 69.3976 165.807 69.7355 166.373H95.2165C95.2174 162.606 95.3563 127.337 95.0404 126.829C94.4999 126.799 94.5308 126.797 94.0115 126.956Z" fill="#000F29"/>
<path d="M180.098 118.191C182.393 118.316 204.088 128.931 207.983 130.681L229.445 140.239C241.053 145.529 242.185 143.509 241.313 155.782C238.718 192.31 222.066 226.619 189.657 245.344C186.708 247.048 183.373 249.192 180.098 250C178.769 249.762 177.783 249.338 176.592 248.733C140.235 230.304 122.056 195.929 118.827 156.718C117.658 142.525 117.504 145.472 130.25 139.785L159.137 127.211C164.659 124.82 174.666 119.854 180.098 118.191ZM127.127 150.317C126.189 184.73 145.252 221.984 175.707 238.698C176.484 239.125 179.378 240.815 180.098 241.046C211.635 223.541 229.122 197.163 232.489 160.451C232.77 157.396 233.151 154.048 232.979 151.02C215.705 142.967 196.934 135.62 180.098 126.956C162.823 134.753 143.836 141.833 127.127 150.317Z" fill="#9A2957"/>
<path d="M178.857 150.316C183.088 149.628 185.972 156.971 194.945 158.354L197.62 157.11C201.806 155.166 205.125 156.537 205.173 161.482C205.249 169.261 205.006 177.156 205.152 184.929C205.435 200.026 194.222 212.389 180.752 217.629C178.35 217.978 175.938 215.827 174.022 214.596C152.035 200.48 155.159 191.673 154.482 169.835C155.163 162.733 151.545 152.989 163.471 157.721C169.977 160.303 174.627 152.648 178.857 150.316ZM162.869 166.373L162.844 179.514C162.823 194.841 166.963 200.865 180.099 208.569C201.554 197.899 196.12 185.576 196.773 166.373C189.287 165.517 186.185 165.391 180.099 160.198C173.369 165.234 171.261 165.755 162.869 166.373Z" fill="#9A2957"/>
<path d="M178.656 176.323C184.707 175.688 190.133 180.066 190.792 186.115C191.45 192.164 187.095 197.607 181.049 198.291C174.967 198.979 169.485 194.592 168.823 188.509C168.16 182.425 172.569 176.961 178.656 176.323ZM180.648 190.07C182.084 189.661 182.941 188.19 182.588 186.74C182.236 185.289 180.8 184.376 179.336 184.672C178.338 184.874 177.529 185.606 177.23 186.579C176.931 187.553 177.189 188.613 177.902 189.341C178.614 190.069 179.668 190.348 180.648 190.07Z" fill="#9A2957"/>
<path d="M181.406 0.0956738C222.523 -2.1763 260.383 36.3835 264.276 76.6137C264.646 80.4401 265.92 84.3683 261.88 86.435C259.372 86.7986 258.201 86.2527 256.76 84.209C256.526 83.058 256.439 81.7105 256.387 80.5418C254.635 41.1486 221.31 8.70492 181.916 7.74234C178.038 7.64767 177.389 2.43754 181.406 0.0956738Z" fill="#9A2957"/>
<path d="M182.492 20.9346C184.477 21.2531 186.889 21.2664 188.899 21.5327C217.63 25.3343 240.512 50.9647 242.847 79.5652C243.176 83.5854 243.525 85.5566 239.175 87.0942C233.74 85.4 235.332 81.0577 234.522 76.3961C230.446 52.92 212.593 33.4295 188.631 29.4686C185.266 28.9121 179.778 30.018 178.7 25.8395C178.029 23.2366 180.046 21.3831 182.492 20.9346Z" fill="#9A2957"/>
<path d="M181.406 42.1775C209.645 40.3028 230.218 82.3546 218.507 86.4349C212.919 86.6676 214.054 81.8618 213.337 78.0876C209.772 59.3367 197.179 53.157 180.865 49.695C177.292 48.9359 177.91 43.4878 181.406 42.1775Z" fill="#9A2957"/>
<path d="M181.405 64.2417C195.333 65.7979 205.072 82.9111 196.225 86.435C189.96 86.7765 192.339 79.988 188.964 76.0306C186.835 73.5339 171.05 69.7986 181.405 64.2417Z" fill="#9A2957"/>
</svg>
