<svg width="241" height="250" viewBox="0 0 241 250" fill="none" xmlns="http://www.w3.org/2000/svg">
<path d="M120.922 111.425C99.5717 112.628 105.785 108.385 116.36 97.9053L127.635 86.9076C135.026 79.6812 134.156 77.1896 142.4 85.6079L150.683 94.073C152.72 96.1489 166.006 107.102 161.584 110.255C159.263 111.91 152.973 111.289 150.04 111.425L150.031 245.399C150.014 247.436 149.73 249.195 147.229 249.327C143.297 249.533 122.447 249.855 121.684 248.6C120.151 246.076 120.918 232.4 120.918 229.113L120.922 111.425ZM121.888 104.965C124.367 105.043 127.114 104.838 127.19 108.05C127.312 113.217 127.267 118.382 127.267 123.551L127.261 242.934C132.757 242.99 138.31 242.944 143.811 242.934L143.814 108.182C143.836 105.035 146.29 104.862 148.831 104.965H152.3C147.029 99.5346 141.076 93.163 135.711 87.8971C129.901 93.6874 124.254 99.3548 118.262 104.965H121.888Z" fill="#000F29"/>
<path d="M120.922 111.425C99.5717 112.628 105.785 108.385 116.36 97.9053L127.635 86.9076C135.026 79.6812 134.156 77.1896 142.4 85.6079L150.683 94.073C152.72 96.1489 166.006 107.102 161.584 110.255C159.263 111.91 152.973 111.289 150.04 111.425C150.263 108.316 150.502 107.603 148.831 104.965H152.3C147.029 99.5346 141.076 93.163 135.711 87.8971C129.901 93.6874 124.254 99.3548 118.262 104.965H121.888C120.349 107.179 120.752 108.719 120.922 111.425Z" fill="#9A2957"/>
<path d="M67.0443 151.096C64.6756 151.106 48.8979 152.135 54.7334 146.029C62.5654 137.836 71.0841 129.812 78.9504 121.62C80.8189 119.816 82.3503 120.194 84.0833 121.93C87.1303 124.982 109.163 145.313 108.243 148.649C106.637 154.481 96.4912 148.07 96.2093 152.457C96.3908 156.734 96.2152 162.486 96.2143 166.9L96.2077 245.054C95.6347 249.743 95.3771 249.536 89.8494 249.413C86.0714 249.33 69.975 250.377 67.6658 248.114C66.7783 244.792 67.0443 236.406 67.0435 232.507L67.046 171.355C67.046 164.841 66.8578 157.514 67.0443 151.096ZM67.8096 144.744C73.4277 143.532 73.4988 145.234 73.5297 150.384L73.5163 242.935H89.9615C90.199 221.056 89.9531 198.68 89.9523 176.766L89.9531 157.979C89.954 149.218 87.2574 144.176 96.2093 144.744C96.518 144.484 96.39 144.643 96.5799 144.252C92.3151 139.364 86.0037 133.17 81.3341 128.719C78.9445 130.912 67.4926 141.847 65.8985 144.402C66.4588 144.751 67.0978 144.695 67.8096 144.744Z" fill="#000F29"/>
<path d="M67.0443 151.096C64.6756 151.106 48.8979 152.135 54.7334 146.029C62.5654 137.836 71.0841 129.812 78.9504 121.62C80.8189 119.816 82.3503 120.194 84.0833 121.93C87.1303 124.982 109.163 145.313 108.243 148.649C106.637 154.481 96.4912 148.07 96.2093 152.457C96.1516 151.436 96.0906 145.46 96.2093 144.744C96.518 144.484 96.39 144.643 96.5799 144.252C92.3151 139.364 86.0037 133.17 81.3341 128.719C78.9445 130.912 67.4926 141.847 65.8985 144.402C66.4588 144.751 67.0978 144.695 67.8096 144.744C66.7507 146.935 66.913 148.718 67.0443 151.096Z" fill="#9A2957"/>
<path d="M13.3545 188.149C1.12472 188.262 -5.10473 188.721 5.18291 178.566L20.8628 162.894C30.1024 153.613 28.7876 156.738 37.6157 165.413L48.9589 176.681C61.6352 189.345 56.468 186.415 42.9251 188.149L42.9335 226.214C42.9335 231.01 45.3599 249.437 39.4574 249.349C31.4908 249.23 23.3502 249.682 15.4312 249.147C13.6196 249.025 13.3796 246.452 13.367 245.078L13.3545 188.149ZM13.9617 181.58C17.3867 181.24 19.6492 181.129 19.7637 185.135C20.3149 204.374 19.251 223.695 19.7755 242.935H36.5652L36.5602 191.979C36.5627 185.844 34.7469 180.298 42.3614 181.58C43.2237 181.564 43.3935 181.548 44.2399 181.392C44.0768 180.963 29.4525 166.738 27.9913 165.203C26.0241 166.83 13.4431 179.633 12.4712 181.323C13.0274 181.622 13.2834 181.544 13.9617 181.58Z" fill="#000F29"/>
<path d="M13.3545 188.149C1.12472 188.262 -5.10473 188.721 5.18291 178.566L20.8628 162.894C30.1024 153.613 28.7876 156.738 37.6157 165.413L48.9589 176.681C61.6352 189.345 56.468 186.415 42.9251 188.149C43.023 185.775 43.3233 183.765 42.3614 181.58C43.2237 181.564 43.3935 181.548 44.2399 181.392C44.0768 180.963 29.4525 166.738 27.9913 165.203C26.0241 166.83 13.4431 179.633 12.4712 181.323C13.0274 181.622 13.2834 181.544 13.9617 181.58C13.1111 183.363 13.2951 186.138 13.3545 188.149Z" fill="#9A2957"/>
<path d="M194.933 0.198561C198.44 0.156741 217.738 -0.579283 220.233 1.07845C222.52 4.40227 221.524 21.6295 221.126 25.5722C220.575 28.1558 216.992 29.2088 215.254 27.1722C213.41 25.0127 214.262 15.1298 214.253 11.8562C211.082 15.2812 207.198 18.8953 203.869 22.2509L167.082 59.2997C165.412 60.96 161.584 65.505 159.707 65.8186C157.763 66.144 134.512 42.321 132.027 39.9799C125.293 45.8899 117.386 54.5591 110.747 61.0938L47.479 124.022C38.4911 133.016 38.287 138.02 29.1712 128.72L20.507 120.089C18.6419 118.245 12.9678 114.112 15.1098 111.029C19.3779 104.888 32.8254 122.089 35.7703 125.664C39.1611 122.719 44.3241 117.221 47.7007 113.878L128.143 33.6911C133.553 28.2988 135.249 32.9944 139.946 37.6832L150.171 47.8437C153.275 50.9651 156.554 53.8406 159.607 56.9997C161.44 54.871 164.124 52.3284 166.151 50.3027L208.958 7.28029C204.937 7.28029 198.241 7.75202 194.349 6.82279C191.355 6.10851 191.304 1.46402 194.933 0.198561Z" fill="#7C0D27"/>
<path d="M221.497 242.934L221.524 78.4784C221.559 72.8704 223.122 73.537 228.032 73.787C227.913 75.9968 227.842 77.5977 228.032 79.8325L228.035 228.036C228.035 231.626 228.397 245.982 227.425 248.443C224.85 250.13 203.478 249.425 199.814 249.366C199.27 248.82 198.775 248.366 198.328 247.736C198.12 243.496 198.328 237.851 198.328 233.448L198.324 177.708C198.325 169.685 195.225 159.941 203.895 160.13L204.749 160.151L204.723 173.205C204.728 174.627 204.608 177.314 204.749 178.628V242.934C210.316 242.934 215.937 242.845 221.497 242.934Z" fill="#000F29"/>
<path d="M174.313 160.152C177.846 160.039 180.504 159.308 180.52 163.795L180.549 234.502C180.549 238.616 180.589 242.74 180.49 246.851C180.385 251.122 174.461 251.347 174.314 245.675C174.234 242.597 174.323 239.741 174.335 236.781L174.313 166.499C174.229 164.176 174.227 162.482 174.313 160.152Z" fill="#000F29"/>
<path d="M198.327 79.833L198.101 79.8171C194.456 79.5821 184.699 81.4322 185.354 75.9254C185.656 73.3811 195.212 65.243 197.431 63.0232L206.335 54.1097C208.058 52.3809 210.861 48.7736 213.186 48.8079C216.667 50.2874 234.149 69.2878 239.053 73.9356C246.221 81.3285 231.041 79.8213 228.031 79.833C227.842 77.5982 227.913 75.9973 228.031 73.7876L228.821 73.4655L228.861 73.1385C223.415 67.8567 218.143 62.1542 212.777 56.9995C207.405 62.2888 201.116 68.351 195.976 73.7876H199.813C198.058 76.2549 198.281 76.6832 198.327 79.833Z" fill="#9A2957"/>
<path d="M189.529 134.81C192.499 136.282 195.597 140.045 198.067 142.426L198.33 142.348C198.669 143.781 203.032 148.054 204.367 148.719L204.751 148.487C205.685 153.597 223.835 161.338 214.256 166.498H204.751C204.757 170.15 204.922 175.086 204.751 178.628C204.61 177.314 204.73 174.627 204.726 173.205L204.751 160.151H207.101C201.661 155.062 194.575 148.538 189.529 143.107C186.947 145.38 174.556 157.552 172.987 159.981C173.49 160.253 173.681 160.159 174.314 160.151C174.228 162.481 174.229 164.175 174.314 166.498C171.566 166.519 159.647 168.077 161.61 162.275C162.21 160.5 185.592 136.642 189.529 134.81Z" fill="#9A2957"/>
<path d="M199.814 73.7871C206.988 72.3218 204.77 80.449 204.755 85.8011L204.753 135.335C204.754 138.291 204.973 145.775 204.749 148.487L204.365 148.719C203.03 148.054 198.667 143.781 198.328 142.348C198.026 137.116 198.412 129.614 198.39 124.177L198.328 79.8326C198.282 76.6827 198.059 76.2545 199.814 73.7871Z" fill="#000F29"/>
</svg>
