<svg width="285" height="221" viewBox="0 0 285 221" fill="none" xmlns="http://www.w3.org/2000/svg">
<path d="M208.299 0C215.562 2.0955 271.395 42.9784 281.964 50.4352C291.402 57.0937 276.401 63.0464 270.021 67.5035L225.814 98.4468C213.047 107.558 204.427 118.936 204.43 96.7347L204.445 81.5082H177.522L86.7604 81.5234C82.328 81.5311 72.7337 83.4549 72.3674 77.8484C72.0308 72.7008 72.1586 67.3776 72.1586 62.2204L72.1643 32.2385C75.3796 27.5744 85.1828 29.3848 90.8846 29.3895L204.445 29.3962C204.444 21.3309 201.093 2.89765 208.299 0ZM210.128 37.9509H80.6255L80.6408 61.9419C80.6427 64.3903 80.8286 70.7092 80.6255 72.9516H164.734L194.417 72.9392C202.153 72.9392 213.776 69.8832 212.952 79.7951C212.495 85.3053 213.386 91.3486 212.842 96.8033C215.917 95.2477 218.861 92.9843 221.692 90.9747L233.102 82.916C246.336 73.6813 260.256 64.1871 273.33 54.8169L222.769 19.634C220.144 17.7798 215.629 14.2584 212.842 13.0156C213.035 18.6898 214.904 35.0761 210.128 37.9509Z" fill="#000F29"/>
<path d="M75.4731 111.156C82.1917 110.982 80.6551 117.236 80.6485 122.116L80.6246 138.389C83.1589 138.593 88.5727 138.408 91.3339 138.399L200.45 138.37C204.865 138.359 210.028 136.996 212.841 141.076C212.666 156.4 213.662 172.964 212.841 188.057C209.68 191.92 203.847 190.459 198.88 190.448L108.387 190.431H80.6246L80.6466 207.521C80.6485 211.379 82.2537 221.203 75.5676 219.999C73.3528 219.6 46.5223 199.798 42.297 196.88L2.1857 169.065C1.24144 168.409 0.694908 167.529 0.0797047 166.575C-0.0528741 165.205 0.00340037 164.443 0.0797047 163.093C2.03691 160.509 7.44593 157.391 10.3369 155.377L66.0677 117.288C68.3902 115.706 73.1048 112.302 75.4731 111.156ZM11.5072 164.914L56.1166 196.211C60.1799 199.08 68.746 204.314 72.1634 207.236L72.1415 192.125C72.1224 187.878 71.0809 185.126 74.3267 181.992C79.0098 181.801 84.8357 181.987 89.6018 181.989L119.609 181.992H204.444C204.178 178.977 204.433 173.799 204.439 170.512L204.444 146.935L89.413 146.944C84.9559 146.95 80.5283 147.01 76.033 146.943C68.6353 146.832 73.6743 129.424 71.8945 123.843L71.6245 123.74L35.9246 148.13C28.2083 153.359 18.8878 159.407 11.5072 164.914Z" fill="#000F29"/>
</svg>
