<svg width="230" height="250" viewBox="0 0 230 250" fill="none" xmlns="http://www.w3.org/2000/svg">
<path d="M110.883 0.00357307C145.157 -0.277669 174.474 16.047 189.539 47.8684C202.107 74.5193 199.062 108.995 180.488 132.146C168.357 147.265 158.661 156.448 156.351 177.066C155.641 183.4 156.684 187.041 149.952 190.145L149.963 210.3C149.984 220.88 151.114 230.895 137.66 231.064C137.439 246.293 135.493 250.059 119.029 249.973L106.273 250C92.7966 249.973 91.1679 242.657 91.2191 231.064C77.7657 232.628 79.0955 219.611 79.1072 211.032L79.1047 190.145C72.6496 185.936 74.358 182.613 73.2104 176.078C69.5072 154.987 62.65 149.315 50.5734 134.686C12.1532 87.3951 36.7102 14.8691 97.6172 1.76574C101.947 0.833866 106.448 0.457758 110.883 0.00357307ZM95.0591 143.013C89.5426 137.849 83.6625 131.663 78.2325 126.279L72.4834 120.565C63.5894 111.858 68.8071 107.122 78.1359 116.167L86.8603 124.767C88.949 126.848 102.063 138.99 102.219 141.016C102.535 145.14 102.398 149.869 102.395 153.987L102.377 182.822H110.883H118.139H126.941C126.943 178.189 126.522 141.936 127.134 140.306C127.983 138.042 130.861 135.714 132.532 134.044L147.97 118.635C150.344 116.266 152.737 113.716 155.286 111.551C158.689 108.66 163.473 113.216 160.274 116.533C158.25 118.767 156.042 120.788 153.91 122.927L143.494 133.38C140.633 136.213 136.697 140.023 134.09 143.013V182.822H148.164C150.88 152.273 159.654 147.804 175.253 126.892C199.053 94.6461 192.554 48.0724 160.794 23.523C92.8906 -28.9649 6.69792 55.5829 51.0099 122.754C57.9738 133.31 68.2303 141.022 73.5303 152.992C78.7588 164.005 80.0181 171 81.6166 182.822C85.7286 182.968 90.8774 182.828 95.0591 182.822V143.013ZM86.4607 197.116H142.751V190.145H86.4607V197.116ZM91.2191 204.496H86.4607C86.4892 206.42 86.511 208.249 86.4607 210.177H138.71H142.751C142.789 208.243 142.788 206.43 142.751 204.496H91.2191ZM98.4088 231.064C98.3081 238.153 97.6239 242.797 106.363 242.84L117.654 242.853C121.204 242.85 125.931 243.399 128.844 241.255C131.188 238.33 130.664 234.647 130.301 231.064H98.4088ZM141.766 223.125C143.047 221.035 142.84 220.016 142.751 217.576L104.641 217.571C99.5439 217.57 91.3837 217.3 86.4607 217.576C86.3171 226.152 89.9733 223.943 97.9454 223.946L129.806 223.943C132.088 223.941 140.332 224.324 141.766 223.125Z" fill="#000F29"/>
<path d="M106.045 71.3215C105.735 80.7603 97.8013 78.4919 91.0658 78.6229C83.2061 78.6254 84.6719 68.0708 84.8314 62.9531C85.1051 54.1817 104.805 52.0014 106.045 63.6381H123.14C123.949 58.4641 126.399 56.0353 131.799 56.2242C146.749 56.7456 143.98 57.1083 145.019 70.2057C145.924 82.5065 123.607 81.5033 123.166 71.9419L123.147 71.5565C123.144 71.4785 123.142 71.4004 123.14 71.3215C121.466 71.1821 119.81 71.0763 118.137 71.3215V93.1761H138.708C138.707 82.1548 159.827 82.9061 160.791 92.0494C162.321 106.562 158.529 109.286 144.45 107.9C140.102 107.472 138.819 104.25 138.708 100.398C131.884 100.325 124.968 100.389 118.137 100.398V182.822H110.881V100.398H91.8734C91.7298 109.757 84.3294 107.76 77.1371 107.905C68.202 108.085 70.1808 97.6163 70.1338 91.764C70.0683 83.6441 93.7237 81.803 91.8734 93.1761H110.881V71.3215C108.888 71.1133 108.083 71.0671 106.045 71.3215ZM130.299 71.3215H136.657C138.555 71.2006 137.683 65.4792 137.659 63.6381C135.339 63.4912 133.844 63.5223 131.52 63.6381C129.185 63.8094 130.332 69.0321 130.299 71.3215ZM91.8734 63.6381V71.3215H98.9657C98.9565 68.9851 98.8557 65.9048 98.9657 63.6381C96.5454 63.4811 94.2954 63.4761 91.8734 63.6381ZM153.428 93.1761C150.241 92.8713 149.14 92.8067 146.006 93.1761V100.398C148.976 100.616 150.446 100.643 153.428 100.398V93.1761ZM84.8155 100.398C84.9523 97.8867 84.9616 95.6905 84.8155 93.1761H77.2648V100.398H84.8155Z" fill="#9A2957"/>
<path d="M126.939 182.822C126.941 178.189 126.52 141.936 127.132 140.306C127.981 138.042 130.859 135.714 132.53 134.044L147.969 118.635C150.342 116.267 152.735 113.716 155.284 111.551C158.687 108.66 163.471 113.217 160.272 116.533C158.248 118.768 156.041 120.788 153.908 122.927L143.492 133.38C140.631 136.213 136.695 140.024 134.089 143.013V182.822C132.033 182.652 129.063 182.787 126.939 182.822Z" fill="#9A2957"/>
<path d="M95.0597 143.012C89.5432 137.848 83.6631 131.662 78.2331 126.278L72.484 120.564C63.59 111.857 68.8077 107.121 78.1365 116.166L86.8609 124.766C88.9496 126.847 102.064 138.989 102.219 141.015C102.536 145.139 102.399 149.869 102.396 153.986L102.378 182.821H95.0597V143.012Z" fill="#9A2957"/>
<path d="M202.29 111.263C204.719 110.933 229.157 118.436 219.038 124.593C218.018 124.83 192.126 118.988 202.29 111.263Z" fill="#9A2957"/>
<path d="M10.2791 44.1378C13.2543 43.9439 36.6092 51.7062 25.2243 57.6341C23.1667 57.875 -1.5012 49.714 10.2791 44.1378Z" fill="#9A2957"/>
<path d="M221.35 81.0896C224.341 80.6328 228.641 80.2441 229.082 84.4955C229.632 89.777 217.704 88.6302 214.083 88.7419C212.287 88.8317 211.192 88.8871 209.417 88.7419C205.643 86.1175 206.126 81.3825 210.708 81.0409C213.447 80.836 218.593 80.8402 221.35 81.0896Z" fill="#9A2957"/>
<path d="M217.354 44.139C220.33 43.9753 222.418 46.4519 221.361 49.3424C220.439 51.8661 207.833 56.585 205.08 57.6353C199.978 57.3289 199.416 51.4287 203.767 49.7404C207.821 48.1679 213.294 45.1624 217.354 44.139Z" fill="#9A2957"/>
<path d="M4.45258 81.089C7.66881 81.0714 18.5567 80.4107 20.8805 81.8799C24.3242 84.0576 22.1482 88.3694 18.1209 88.7413C14.2742 88.7388 4.33001 89.5515 1.47477 87.4358C-1.92448 84.9181 1.18177 81.3803 4.45258 81.089Z" fill="#9A2957"/>
<path d="M23.6841 111.264C26.6661 110.439 27.7138 112.009 28.3611 114.649C27.2319 119.598 17.3616 122.197 12.4973 124.593C11.662 124.63 10.2944 124.521 9.71934 123.999C3.0963 117.993 18.934 112.318 23.6841 111.264Z" fill="#9A2957"/>
</svg>
