<svg width="217" height="250" viewBox="0 0 217 250" fill="none" xmlns="http://www.w3.org/2000/svg">
<path d="M107.4 0.000875045C111.016 -0.093782 120.987 7.51815 124.953 9.69359C156.361 26.9966 174.455 26.437 207.367 21.3641C217.527 19.7976 216.133 33.5011 216.13 39.2233L216.125 95.4789C216.126 102.544 216.471 110.462 215.677 117.403C209.457 171.827 169.577 212.786 125.223 240.844C120.881 243.59 113.849 248.813 109.147 249.969C104.14 250.604 91.5039 241.206 87.065 238.276C45.6153 210.911 10.0904 174.431 1.87198 123.951C0.0290992 112.971 0.171504 103.619 0.172342 92.6392L0.16983 41.7639C0.140512 28.5647 -2.61041 18.8016 15.1793 22.6398C41.9429 28.4139 69.0023 21.4302 92.7763 8.76461C97.4514 6.27421 102.854 1.93758 107.4 0.000875045ZM109.147 244.251C116.873 239.095 124.978 234.446 132.577 229.146C181.172 195.254 210.327 156.59 210.293 96.8853L210.298 44.9345C210.306 26.5007 213.904 26.1262 197.394 29.1067C168.804 34.2676 139.77 26.0316 115.467 10.8772C114.174 10.0705 109.121 6.50625 108.21 6.22479C76.6092 25.6421 47.9524 36.0845 9.84161 27.7337C3.84973 26.4203 6.06621 34.6152 6.07124 39.7803L6.07794 92.3167C6.07794 100.336 5.91124 107.942 6.67604 115.943C11.7389 168.949 50.4068 208.152 93.2328 235.468C96.1773 237.346 106.109 244.137 109.147 244.251Z" fill="#9A2957"/>
<path d="M108.21 29.7319C110.539 29.4831 114.218 32.2751 116.227 33.2594C133.557 41.75 153.447 47.8851 172.835 49.0026C179.935 49.4122 188.403 48.0275 190.783 56.8457C191.778 60.5281 191.197 74.8205 191.198 79.5693L191.212 101.903C191.212 105.474 191.35 110.51 191.112 113.989C188.123 157.621 157.859 188.297 124.066 212.308C120.177 215.072 112.642 220.75 108.21 221.887C103.664 221.371 85.7643 207.406 81.1604 203.999C44.2182 176.658 24.7046 144.012 24.7255 98.5217L24.7087 66.2461C24.661 48.5628 26.8842 49.909 43.8756 48.8016C60.882 47.6925 77.0382 43.5837 92.593 36.7265C97.2856 34.6574 103.51 30.7715 108.21 29.7319ZM108.21 215.707C111.311 214.147 114.157 212.088 117.036 210.144C154.886 184.594 185.244 153.236 185.167 105.114L185.157 70.7427C185.184 49.5462 185.423 56.7218 164.584 54.1509C145.387 51.7828 125.085 45.2356 108.21 35.7565C85.0028 46.5901 68.9547 53.3836 42.155 54.8102C40.0147 54.9241 31.4612 54.2825 31.0525 57.0861C30.1469 63.3084 30.5557 70.5057 30.5666 76.8628L30.5641 97.1236C30.5549 147.771 54.0893 179.905 96.0408 207.795C97.9013 209.033 106.59 215.41 108.21 215.707Z" fill="#9A2957"/>
<path d="M107.4 59.8996C109.137 59.7606 110.123 59.8628 110.759 61.74C114.468 72.6959 119.803 85.7486 122.528 96.7908L149.492 96.7883C150.728 96.7883 171.057 95.2444 163.364 101.557C160.877 103.598 158.149 105.274 155.465 107.103L139.977 117.653C137.573 119.29 133.975 121.587 131.766 123.35L131.576 123.505C133.839 134.845 139.474 148.02 142.803 159.348C143.433 161.494 141.542 163.699 139.438 162.573C129.614 156.112 120.06 149.132 110.483 142.314C109.702 141.771 109.02 141.363 108.209 140.88C98.7461 146.498 88.1629 154.987 79.132 161.517C76.2546 163.597 73.1284 162.566 74.1713 158.539C77.9551 146.957 80.7537 134.909 85.0242 123.505C82.2909 121.134 79.3314 119.237 76.3333 117.217L62.4991 107.927C61.1932 107.046 46.7082 98.0054 55.7542 97.0437C59.8965 96.604 64.6989 96.7849 68.9601 96.7841L93.5349 96.7908C96.1158 89.3899 98.6406 81.964 101.2 74.543C102.598 70.4887 104.015 61.905 107.4 59.8996ZM97.4276 102.612H65.3581C66.5141 103.68 67.8066 104.479 69.1117 105.346C75.8441 109.819 85.7722 115.827 91.6803 121.017L82.1543 152.283C86.011 149.597 105.566 134.943 108.209 134.19C116.191 139.073 127.077 146.402 134.461 152.283L127.998 131.749C126.961 128.416 125.547 124.292 124.73 121.017C126.65 119.41 130.414 117.061 132.658 115.571L144.948 107.324C146.835 106.055 149.992 104.079 151.624 102.612C140.736 102.436 129.641 102.713 118.711 102.612C116.233 95.5678 111.253 78.3929 108.209 72.5887C104.209 81.1698 100.74 93.4418 97.4276 102.612Z" fill="#9A2957"/>
</svg>
