<svg width="292" height="250" viewBox="0 0 292 250" fill="none" xmlns="http://www.w3.org/2000/svg">
<path d="M145.381 18.5913C151.64 18.8322 149.449 29.3046 149.444 34.1109C182.643 37.0712 204.385 66.3805 198.101 99.0568C195.846 110.78 191.994 114.595 185.109 123.729C177.939 133.241 174.121 146.669 172.642 158.287C186.51 164.444 183.043 174.076 183.183 187.278C183.276 196.097 182.112 199.011 174.792 204.062C174.912 209.498 174.654 215.057 174.812 220.46C175.267 236.043 162.303 250.116 146.485 249.923C125.687 251.277 116.766 234.589 116.744 216.488L116.765 204.062C113.648 202.068 109.142 197.998 108.999 194.048C108.443 178.566 104.389 166.457 118.396 158.287C116.712 137.559 112.811 133.341 101.938 118.344C77.0406 84.0063 100.186 36.8119 142.106 34.1109C142.435 29.3982 139.917 20.7619 145.381 18.5913ZM120.785 165.564C115.79 167.431 115.794 170.337 115.856 175.091C133.941 174.825 152.753 175.094 170.897 175.091H176.011C175.665 166.12 174.412 165.567 165.106 165.548L120.785 165.564ZM142.106 158.287C144.646 158.341 146.896 158.369 149.444 158.287H165.669C167.21 139.135 173.94 125.438 185.769 110.937C190.5 105.137 192.506 92.0147 191.959 84.7298C188.843 43.2133 137.07 25.5691 110.096 57.2654C97.5126 72.0507 95.0369 93.2179 105.117 110.065C108.826 116.261 114.296 120.948 117.351 127.602C122.789 138.642 124.852 146.207 125.788 158.287H142.106ZM116.765 182.183L116.161 182.359C114.833 186.759 115.009 194.991 119.925 197.24C121.378 197.905 169.263 199.161 173.391 195.973C176.938 192.142 176.048 187.484 176.011 182.183H116.765ZM167.481 204.641H127.57H123.969L123.933 215.328C123.908 219.868 123.662 223.746 125.105 228.172C129.536 241.761 147.405 248.112 158.666 238.764C169.763 230.653 167.518 216.724 167.481 204.641Z" fill="#000F29"/>
<path d="M142.106 127.451C138.923 124.618 125.516 115.591 125.728 111.978C126.618 96.7758 131.787 81.3537 141.707 69.6302C143.901 67.0374 146.408 66.5275 148.878 69.051C159.069 80.6283 164.756 96.3175 165.63 111.639C165.899 116.358 153.265 123.668 149.443 127.451V158.286C146.895 158.368 144.645 158.341 142.106 158.286V127.451ZM133.024 111.254C136.191 113.43 138.932 115.941 142.106 118.007V110.401C140.791 109.087 136.505 105.905 136.837 104.033C138.328 95.6388 144.538 103.512 145.38 103.659C147.699 102.002 153.788 96.9298 154.434 104.971C154.542 106.322 150.697 109.036 149.443 110.401C149.284 113.018 149.078 115.385 149.443 118.007C152.511 115.652 155.327 113.182 158.666 111.254C157.528 103.03 152.236 80.717 145.38 75.3862C137.618 88.2184 134.112 95.8241 133.024 111.254Z" fill="#9A2957"/>
<path d="M37.2309 109.378C60.8193 107.43 75.2604 126.658 70.0085 149.101C83.2376 157.116 82.0051 164.46 80.0763 180.026C79.3899 185.568 66.8307 177.535 65.2345 176.76C65.1389 184.316 61.5291 190.168 54.373 192.822C54.4822 200.983 52.4169 205.445 43.7006 206.843C43.7757 207.226 43.7113 208.681 43.7006 209.159C42.0234 212.644 37.382 211.673 37.2309 206.843C28.9533 204.952 25.8233 201.506 26.1012 192.822C19.2239 189.627 16.8056 185.034 16.8105 177.587C13.1851 178.951 7.32287 181.34 3.66726 182.183C-1.57971 179.487 0.168633 163.819 0.750762 158.326C1.20223 154.055 7.46231 150.759 10.5358 148.312C5.91289 129.949 18.3482 111.532 37.2309 109.378ZM7.74997 173.519C10.7757 172.275 13.6454 171.036 16.8105 170.167C16.3278 167.226 15.5156 163.037 19.6636 162.146C28.106 160.331 16.5297 185.465 31.6972 186.332C34.8838 186.514 40.1152 186.34 43.7006 186.336C57.463 186.511 58.2626 183.203 57.7058 169.886C57.306 160.323 64.9117 158.048 65.2345 169.042C67.8711 170.188 70.5351 171.429 73.1669 172.544V161.024C62.6603 150.349 61.3907 156.688 63.8362 143.355C66.8843 126.738 53.1882 115.267 37.2309 116.421C8.84694 122.638 19.3516 148.973 17.9153 150.721C15.0768 154.172 10.9736 157.148 7.74997 160.28V173.519ZM46.074 198.393C47.2821 196.786 47.1943 195.421 47.3855 193.407C43.0755 193.35 37.8266 193.269 33.544 193.407C32.2394 201.003 42.3218 201.104 46.074 198.393Z" fill="#9A2957"/>
<path d="M38.7603 127.003C45.662 126.008 52.0596 130.805 53.0376 137.71C54.0156 144.614 49.2016 151 42.295 151.96C35.4128 152.917 29.0553 148.124 28.0802 141.245C27.106 134.366 31.883 127.995 38.7603 127.003ZM35.0725 139.266C35.0404 141.01 35.8331 142.665 37.2099 143.734C38.5877 144.803 40.3877 145.159 42.0688 144.695C45.0146 143.88 46.7405 140.83 45.9204 137.887C45.1004 134.942 42.0464 133.223 39.1036 134.049C36.7555 134.708 35.1174 136.829 35.0725 139.266Z" fill="#9A2957"/>
<path d="M249.522 40.3174C252.073 40.8157 256.343 46.0285 258.276 47.9787L279.962 69.7349C291.831 81.5832 281.308 79.8271 270.419 79.7852V94.3072C274.872 98.7868 279.159 103.433 283.556 107.969C285.414 109.886 294.513 116.899 290.481 120.074C288.655 121.511 273.472 120.814 270.419 120.804C270.507 122.612 270.968 129.389 270.211 130.313C265.34 136.258 257.434 143.171 252.502 149.101C249.95 150.624 248.534 150.04 246.537 148.025C242.442 143.892 231.908 134.396 229.024 130.12C229.15 126.62 229.172 124.274 229.024 120.804C225.806 120.775 213.237 121.831 211.064 119.536C206.151 114.349 224.661 99.7862 229.024 95.1809V79.7852C226.453 80.1674 212.186 81.9889 215.669 75.0686C217.398 71.6344 245.193 41.6474 249.522 40.3174ZM226.396 72.9849C230.017 73.1701 234.018 72.3267 236.223 75.3865C236.227 82.491 236.405 90.3278 236.223 97.367C231.763 102.87 225.182 108.534 220.756 113.688C238.69 113.715 235.697 110.987 236.223 127.796C240.78 131.791 246.064 138.39 249.874 141.537C250.251 141.357 250.129 141.466 250.297 141.285C254.192 136.593 259.632 131.897 263.144 127.451C262.978 110.422 262.617 113.82 279.299 113.688C260.275 94.4739 263.154 101.483 263.144 75.3865C265.524 71.6909 268.612 73.0609 272.583 72.9849C267.15 66.639 255.784 54.6307 249.522 49.0649C241.717 56.9397 234.127 65.1929 226.396 72.9849Z" fill="#9A2957"/>
<path d="M139.317 0.0811899C172.059 -1.03041 201.493 9.24996 225.173 32.3138C227.521 34.6013 230.93 37.4935 232.536 40.3173C226.421 49.022 224.183 40.9121 217.227 34.6189C180.356 1.26007 129.301 -1.07624 87.9657 24.4721C62.6085 41.3373 44.699 69.2259 40.8766 99.5629H33.5439C35.8842 72.6504 52.0083 45.3946 71.8787 27.7796C91.8066 10.1139 113.253 2.54037 139.317 0.0811899Z" fill="#000F29"/>
<path d="M244.633 159.111C247.128 160.713 248.698 160.779 251.526 161.023C240.763 190.348 217.828 211.23 189.848 223.733C188.318 224.4 187.296 224.804 185.712 225.322C185.171 223.03 184.624 220.791 184.033 218.509C213.873 207.483 231.835 186.904 244.633 159.111Z" fill="#000F29"/>
<path d="M67.7801 195.126C71.1364 194.996 76.4769 201.276 79.3856 203.35C87.7587 209.321 98.8329 215.835 108.733 218.509C107.596 220.741 106.929 223.567 105.964 225.322C101.14 223.829 53.6364 201.89 67.7801 195.126Z" fill="#000F29"/>
</svg>
