<svg width="368" height="250" viewBox="0 0 368 250" fill="none" xmlns="http://www.w3.org/2000/svg">
<path d="M146.778 112.746L146.775 85.6428C146.776 80.2771 144.575 67.2334 151.36 66.8266C156.27 66.5325 182.827 63.9005 182.99 70.5222C183.289 82.7007 184.058 101.032 183.112 112.746H190.128L190.101 98.0321C190.054 83.2301 191.079 85.6366 205.339 85.7763C208.296 85.7874 211.368 85.8425 214.315 85.7763C221.554 85.7739 229.811 85.5668 236.961 85.7763H246.165C250.856 85.7359 261.957 83.7398 262.259 90.065C262.618 97.5775 262.425 105.214 262.393 112.746C288.374 113.21 284.384 109.119 293.814 137.728L355.226 137.707C375.384 137.703 365.851 153.096 359.727 163.949L350.31 180.891C347.646 185.611 342.379 195.768 339.665 199.672C343.292 198.472 363.136 193.524 361.73 202.277C360.679 207.655 353.907 206.145 349.992 206.556C340.707 207.531 334.376 214.431 325.512 216.785C294.421 225.037 286.931 203.016 265.128 205.78C247.408 207.543 244.881 220.007 220.574 218.519C208.336 217.769 201.451 210.768 190.688 206.726C177.948 201.941 166.57 210.071 156.281 215.181C146.12 220.175 129.261 220.537 119.087 214.986C109.207 209.595 105.199 205.682 93.2339 205.926C75.697 206.285 71.4819 219.673 47.4275 218.756C33.8361 218.238 24.5873 207.449 11.3195 206.393C5.05804 205.894 -6.02628 203.116 4.08145 196.675C9.48025 196.571 24.7736 199.75 25.3862 199.672C22.0301 189.979 20.2644 178.961 17.7561 168.99C13.4258 151.785 11.7937 151.304 29.6884 151.308L48.8807 151.335C49.1319 146.043 47.8588 118.468 49.9149 116.193C51.2774 114.684 53.88 114.731 55.7523 114.655C55.7205 108.204 53.5149 94.7139 58.8928 91.294L75.1015 91.2413C94.4923 91.2229 89.3361 93.7618 89.2761 114.655C98.6499 115.105 96.1416 121.274 96.1343 129.219L96.1048 151.335H112.102C117.189 141.443 123.583 131.855 128.984 122.203C135.041 111.381 135.177 112.568 146.778 112.746ZM358.122 147.038L280.653 147.001C268.982 146.953 267.692 147.812 256.627 151.275L236.475 157.468C221.974 162.08 217.572 160.901 202.354 160.89L25.3862 160.878C29.0304 175.587 32.8105 191.563 35.9253 206.392C55.3467 218.28 71.6375 199.252 86.6196 197.487C114.529 193.953 121.262 212.412 141.47 210.012C160.694 207.732 162.912 194.49 186.089 196.784C204.974 198.654 208.077 210.65 226.246 209.623C245.477 208.535 248.429 194.856 273.268 196.98C284.982 197.982 313.579 216.708 324.985 206.99C326.594 203.143 331.104 195.475 333.251 191.631L349.658 162.615C352.437 157.659 355.703 152.13 358.122 147.038ZM57.9824 151.335H86.8659V124.057C77.3794 123.909 67.5008 124.054 57.9824 124.057V151.335ZM155.821 112.746H173.867V75.9749H155.821V112.746ZM64.9533 114.655H78.9784L79.7565 114.553C80.3937 113.285 80.0947 102.79 80.0739 100.566H66.0819L65.18 100.836C64.5857 102.444 64.9656 112.252 64.9533 114.655ZM227.031 95.1195H199.565V112.746H225.482H252.996V95.1195H227.031ZM270.684 122.12H139.866C134.644 131.914 127.135 141.133 122.864 151.335H136.34L213.004 151.355C224.38 151.372 225.009 151.021 235.847 147.643L256.717 141.262C267.299 138.072 272.56 136.31 283.988 137.728C282.183 132.59 279.758 127.087 278.107 122.12C275.66 122.105 273.122 122.053 270.684 122.12Z" fill="#000F29"/>
<path d="M283.988 169.161C295.707 169.123 308.105 168.726 319.698 169.577C322.44 169.777 325.166 176.182 318.916 178.601H283.988C279.295 175.945 278.315 170.93 283.988 169.161Z" fill="#000F29"/>
<path d="M4.08145 196.675C9.48025 196.571 24.7736 199.75 25.3862 199.672C25.673 200.576 34.2882 206.072 35.9253 206.392C55.3467 218.28 71.6375 199.252 86.6196 197.487C114.529 193.953 121.262 212.412 141.47 210.013C160.694 207.732 162.912 194.49 186.089 196.784C204.974 198.654 208.077 210.65 226.246 209.623C245.477 208.535 248.429 194.856 273.268 196.98C284.982 197.982 313.579 216.708 324.985 206.99C328.14 206.72 336.316 201.515 339.665 199.672C343.292 198.472 363.136 193.525 361.73 202.277C360.679 207.655 353.907 206.145 349.992 206.556C340.707 207.531 334.376 214.431 325.512 216.785C294.421 225.038 286.931 203.016 265.128 205.78C247.408 207.544 244.881 220.008 220.574 218.519C208.336 217.769 201.451 210.769 190.688 206.726C177.948 201.941 166.57 210.071 156.281 215.181C146.12 220.175 129.261 220.537 119.087 214.986C109.207 209.595 105.199 205.682 93.2339 205.926C75.697 206.285 71.4819 219.673 47.4274 218.756C33.8361 218.238 24.5873 207.449 11.3195 206.393C5.05804 205.894 -6.02628 203.116 4.08145 196.675Z" fill="#9A2957"/>
<path d="M58.8935 91.294L75.1021 91.2413C94.4929 91.2229 89.3368 93.7618 89.2767 114.655C98.6505 115.105 96.1422 121.274 96.1349 129.219L96.1055 151.335C93.0275 151.371 89.9445 151.347 86.8665 151.335V124.057C77.38 123.909 67.5014 124.054 57.9831 124.057V151.335C54.5142 151.532 52.3233 151.509 48.8813 151.335C49.1325 146.043 47.8594 118.468 49.9155 116.193C51.2781 114.684 53.8806 114.731 55.753 114.655C55.7211 108.204 53.5155 94.7139 58.8935 91.294ZM64.9539 114.655H78.9791L79.7571 114.553C80.3943 113.285 80.0953 102.79 80.0745 100.566H66.0825L65.1806 100.836C64.5863 102.444 64.9662 112.252 64.9539 114.655Z" fill="#9A2957"/>
<path d="M146.778 112.746L146.774 85.6428C146.776 80.2771 144.575 67.2334 151.359 66.8266C156.269 66.5325 182.827 63.9005 182.99 70.5222C183.289 82.7007 184.057 101.032 183.111 112.746H173.866V75.9749H155.821V112.746C152.88 112.829 149.736 112.759 146.778 112.746Z" fill="#9A2957"/>
<path d="M263.936 227.302C288.575 225.041 293.737 239.679 311.568 239.309C331.809 238.89 335.408 226.821 355.512 227.058C358.046 226.156 362.566 230.164 361.789 232.827C360.224 238.193 348.421 236.068 344.042 238.167C337.448 241.328 331.639 245.241 325.088 246.95C294.635 254.892 286.754 233.328 265.442 235.951C246.289 238.307 245.255 249.947 219.503 248.391C201.831 248.412 187.761 224.132 161.154 242.526C133.617 261.562 118.958 238.445 97.3611 236.637C79.2875 235.134 76.7364 244.878 61.4173 248.133C36.9475 253.331 33.6612 242.061 16.0471 237.428C12.7546 236.563 0.789295 238.025 0.621425 232.86C0.256277 221.648 23.5976 229.482 28.5013 232.15C31.9016 233.999 34.6892 236.321 38.375 237.595C65.4965 247.254 69.8415 228.141 91.6572 227.346C115.348 226.482 121.104 240.484 136.913 240.131C153.965 240.857 159.461 228.826 175.417 227.481C202.083 225.231 206.172 239.896 224.228 239.656C241.58 239.427 247.762 228.297 263.936 227.302Z" fill="#9A2957"/>
<path d="M221.491 43.1321L221.469 16.7495C221.464 12.391 221.296 8.0705 221.586 3.73161C221.936 -1.46133 230.1 -0.995698 230.484 3.65075C230.829 7.84627 230.675 12.4167 230.676 16.6441L230.651 43.1321C235.86 37.6193 241.943 31.1581 247.701 26.1919C250.785 23.5329 258.974 27.9 250.753 35.8034C246.176 40.2035 241.784 44.9553 236.961 49.0835V53.6392C248.656 53.2851 246.216 57.2785 246.2 67.5749L246.164 85.7759H236.961C237.344 79.501 236.968 68.6789 236.961 62.0487C220.198 61.6002 234.78 47.4219 223.455 51.5672C219.707 55.6145 227.776 62.4702 214.314 62.0487V85.7759C211.367 85.8421 208.295 85.787 205.339 85.7759L205.302 66.9096C205.292 61.9752 203.855 56.7026 208.426 53.6392C210.49 53.6968 212.248 53.7507 214.314 53.6392C214.094 52.1468 214.038 50.5771 214.314 49.0835C208.619 42.8282 188.889 30.5197 201.299 24.9139C206.26 27.215 216.444 38.7809 221.491 43.1321Z" fill="#9A2957"/>
</svg>
