<svg width="203" height="250" viewBox="0 0 203 250" fill="none" xmlns="http://www.w3.org/2000/svg">
<path d="M150.942 123.74C153.068 123.739 156.498 126.743 158.414 127.9C170.493 135.2 184.452 138.862 198.476 139.652C201.058 139.797 202.101 141.819 202.113 144.316C202.171 157.49 202.884 174.023 202.003 186.81C200.18 213.309 174.986 237.547 152.846 249.992C150.098 250.164 146.9 247.707 144.658 246.189C117.588 227.851 101.974 209.663 102.003 176.548L102.024 160.49C102.032 155.274 101.23 146.659 102.228 141.938C102.74 139.521 107.788 139.445 109.63 139.236C125.654 137.42 137.885 132.644 150.942 123.74ZM108.561 145.911L108.55 171.902C108.538 195.221 110.772 206.89 128.77 224.838C134.283 230.335 145.078 239.487 151.962 242.981L152.245 242.949C169.568 231.805 189.635 213.921 194.283 192.972C195.805 186.111 195.595 176.637 195.596 169.493L195.587 145.911C181.395 145.201 163.705 140.125 152.031 131.67C151.747 131.463 151.905 131.541 151.57 131.443C138.225 139.612 124.22 144.714 108.561 145.911Z" fill="#000F29"/>
<path d="M151.569 170.133C156.521 170.221 158.078 180.843 159.407 185.003C162.328 184.993 173.107 184.357 174.833 186.325C178.213 190.182 166.796 196.036 163.938 198.307C165.469 203.67 171.429 212.907 164.815 214.927C162.105 213.907 155.945 209.179 152.845 207.348C152.114 206.705 143.639 213.232 142.035 214.173C139.774 215.742 136.675 213.247 137.554 210.909C138.842 207.481 139.957 202.455 141.526 199.271L140.826 198.506C138.413 195.832 129.665 191.291 129.558 187.922C129.416 183.389 142.592 184.987 145.548 185.003C146.55 181.621 148.374 171.783 151.569 170.133ZM149.885 191.656C147.568 191.644 145.246 191.619 142.931 191.656C144.493 192.814 147.455 194.903 148.843 196.136C148.24 198.41 147.643 200.808 147 203.061C148.719 201.915 151.102 200.238 152.845 199.271C154.669 200.518 156.542 201.877 158.393 203.061C157.78 200.739 157.201 198.472 156.646 196.136C158.369 194.546 160.07 193.195 161.785 191.656H154.813C154.364 190.231 153.056 185.962 152.244 185.003C151.448 187.218 150.648 189.429 149.885 191.656Z" fill="#9A2957"/>
<path d="M151.57 137.287C152.127 137.288 154.682 138.916 155.379 139.315C166.503 145.687 178.242 148.544 190.793 150.54V157.69C174.859 155.807 166.107 151.045 152.245 145.911C151.182 145.298 150.015 146.047 148.986 146.55C137.803 152.023 125.318 154.95 113.286 157.69C113.155 155.883 113.273 152.455 113.286 150.54C128.165 146.717 137.192 145.456 151.57 137.287Z" fill="#9A2957"/>
<path d="M89.5156 0.0820486C117.048 -1.48542 140.624 19.5947 142.136 47.1304C143.646 74.6668 122.519 98.1997 94.9795 99.6544C67.52 101.105 44.069 80.0514 42.5625 52.5943C41.0561 25.1381 62.0619 1.6445 89.5156 0.0820486ZM93.9329 93.1629C117.814 92.2868 136.476 72.2374 135.638 48.3542C134.801 24.4719 114.781 5.77844 90.8966 6.57764C66.9582 7.37852 48.213 27.4538 49.0523 51.3905C49.8916 75.3272 69.997 94.0407 93.9329 93.1629Z" fill="#000F29"/>
<path d="M114.252 37.9222C126.208 37.5519 109.385 51.5647 107.693 53.2567C104.817 56.1316 89.1526 73.4549 86.2518 73.1589C83.9227 72.9207 74.6216 62.7994 72.494 60.5532C63.6016 52.1766 71.8185 51.1107 73.6702 52.7727C78.0449 56.6968 82.1354 61.0899 86.4089 65.2121C89.5464 61.8322 111.387 39.4295 114.252 37.9222Z" fill="#9A2957"/>
<path d="M45.4423 128.161C49.3205 128.173 51.29 133.741 53.0347 136.691C56.0627 141.811 59.2369 146.913 62.0767 152.137C66.9856 152.673 94.0506 154.915 88.8374 162.449C84.8188 168.255 76.4924 176.51 71.6128 182.087C72.167 189.253 77.7339 209.662 71.6128 212.577C67.3192 211.45 63.5823 209.548 59.5328 207.773L45.4423 201.741C37.885 205.286 28.1642 209.57 20.2675 212.577C19.2359 212.074 18.1073 211.478 17.5297 210.441C16.2515 208.141 19.2894 185.881 20.2675 182.087C15.8293 178.416 12.0607 173.54 7.99779 169.377C-2.68524 157.701 -3.71182 157.275 11.3518 154.888L29.5252 152.137C31.9019 147.816 41.8125 129.563 45.4423 128.161ZM9.65639 162.119C12.4954 164.329 24.7743 177.643 26.779 180.624C26.3911 187.875 24.2334 196.903 24.2058 203.795C29.47 201.288 39.8036 196.372 45.4423 195.001C48.0397 195.283 63.7771 202.358 67.1152 203.795C66.9447 196.359 64.8279 187.571 64.9784 180.624C67.8366 175.62 76.9773 166.472 81.0678 162.119C73.9109 160.248 59.3681 160.376 55.9306 154.551L49.7301 143.982C48.5756 142.022 46.9028 138.934 45.4423 137.288C44.4584 139.545 34.6707 157.391 32.8859 157.823C25.4882 159.613 17.0206 160.15 9.65639 162.119Z" fill="#9A2957"/>
<path d="M130.182 99.5115C141.823 98.7884 154.859 98.541 164.472 105.687C179.975 117.519 178.627 136.362 170.734 128.371L170.527 128.159C167.693 111.121 154.642 105.051 138.601 105.906C127.486 106.499 133.635 105.577 123.757 110.381C102.014 122.172 74.3071 121.089 54.3848 105.892C48.5914 105.888 42.7178 105.832 36.9311 105.892C24.7291 107.13 14.5493 117.626 13.8655 129.721C13.5762 134.836 14.6898 141.242 13.1181 146.001C11.513 148.515 7.26457 147.243 7.33229 144.687C7.45936 139.927 7.21944 135.23 7.27377 130.551C7.45017 115.304 19.8135 101.382 35.041 99.6963C38.0747 99.3602 41.2582 99.4957 44.2443 99.4948L56.825 99.5115C76.2265 113.958 98.5197 115.618 120.268 104.85C122.835 103.579 127.955 99.4087 130.182 99.5115Z" fill="#000F29"/>
<path d="M9.65576 180.623C15.2443 181.085 13.9418 185.215 13.9059 189.708L13.8624 204.466C13.839 219.75 14.2478 221.999 28.8775 221.994L94.4546 221.983C99.2381 221.984 104.568 221.843 109.281 222.085C111.539 222.202 113.263 226.749 109.24 228.404C107.896 228.509 105.382 228.417 103.963 228.415H33.3559C20.6841 228.425 6.42803 229.21 7.31752 210.644C7.59506 204.84 5.54439 183.579 9.65576 180.623Z" fill="#000F29"/>
</svg>
