<svg width="321" height="250" viewBox="0 0 321 250" fill="none" xmlns="http://www.w3.org/2000/svg">
<path d="M158.506 0.0770131C165.814 -0.46789 169.825 1.9565 176.341 4.8928L292.106 58.2337C299.38 61.6766 307.018 64.6321 314.132 68.4773C320.672 72.1192 322.642 80.8568 315.773 85.5608C313.508 87.1136 310.366 88.2715 307.828 89.4316L262.134 110.44L262.148 140.61C262.144 166.82 264.893 160.021 238.87 165.813C238.886 166.246 238.9 166.658 238.904 167.091L238.882 201.998C238.881 211.237 241.112 224.762 233.532 231.679C206.323 256.508 131.215 253.212 98.4793 238.867C78.6478 230.176 81.3095 222.45 81.3085 204.052L81.317 171.446V165.813C75.3954 163.928 64.4324 163.305 60.0647 159.951C59.7848 157.702 60.0498 148.262 60.053 145.304L60.0647 111.276C53.1725 108.062 43.5239 103.186 36.6403 100.456V152.663C50.3129 156.736 52.2434 169.384 43.9571 180.481C45.1671 189.622 51.1717 201.968 53.5812 211.349C52.6276 213.271 52.3115 213.679 50.4874 214.788C43.2578 214.964 35.9687 214.71 28.7051 214.761C25.0738 214.787 11.0479 216.99 12.9561 209.901C15.6253 199.985 20.0441 190.398 22.6558 180.481C11.6886 171.74 16.8151 157.878 28.7317 152.663C28.9126 146.822 28.7402 140.02 28.7391 134.094L28.7317 96.8974C22.5185 94.1495 1.38223 86.6155 0.189192 79.8277C-1.27204 71.52 6.01817 69.6001 12.1707 66.7255L132.196 10.8803C139.227 7.6535 151.415 1.47226 158.506 0.0770131ZM158.506 69.4521C165.186 69.1999 173.352 69.449 180.168 69.4511L272.624 69.4521C280.536 69.45 289.365 69.2169 297.181 69.4521C292.656 67.5035 288.184 65.1078 283.706 63.0059L179.148 14.7277C175.06 12.845 164.207 7.29059 160.409 7.77164C150.839 9.45531 135.177 18.0886 126.101 22.368L19.8302 71.8691C17.6665 72.8748 8.98108 76.4954 7.81571 77.8694L7.81784 78.3228C9.86974 80.0724 21.3681 84.719 24.5289 86.1696L154.182 146.164C158.58 148.164 162.111 148.341 166.524 146.332L257.785 103.761C269.189 98.2639 304.443 84.4295 312.048 78.2185L311.953 77.7885C310.18 76.8051 301.839 77.4075 299.217 77.4096L163.638 77.3979C156.863 77.3852 152.452 73.9987 158.506 69.4521ZM230.907 197.889L230.89 178.236C230.887 175.02 230.743 170.922 230.907 167.79C207.541 175.315 185.566 186.384 168.582 204.457C156.166 217.671 158.841 208.795 146.368 198.505C132.205 185.521 108.079 172.252 89.2351 167.79L89.2202 204.519C89.2266 220.258 85.7816 225.024 102.221 231.817C133.164 244.604 201.715 248.071 227.844 226.187C232.895 221.957 230.868 204.463 230.907 197.889ZM31.6627 160.082C28.6412 160.51 26.0859 162.534 24.9791 165.377C23.8712 168.22 24.3831 171.44 26.3179 173.799C28.2528 176.158 31.3093 177.291 34.3138 176.761C38.8529 175.961 41.9126 171.669 41.1889 167.118C40.4652 162.566 36.2252 159.435 31.6627 160.082ZM22.6558 206.753H36.6403H43.9571C41.4369 199.653 38.8316 191.562 36.1039 184.674C33.44 184.774 31.3934 184.781 28.7317 184.674C28.3517 191.803 23.8914 199.413 22.6558 206.753ZM254.247 114.651L253.726 114.792C250.057 115.801 242.007 119.893 238.075 121.714L184.231 146.789C164.15 156.232 165.012 159.905 143.108 149.748C118.082 138.143 92.8132 126.766 67.9924 114.651V154.725C70.0007 154.973 71.7535 155.228 73.7448 155.585C105.205 162.131 139.235 176.356 160.409 201.499C181.241 180.5 200.254 168.468 229.489 160.172C237.45 157.913 245.971 155.56 254.247 154.725L254.239 120.924C254.245 119.932 254.671 114.992 254.334 114.648L254.247 114.651Z" fill="#9A2957"/>
</svg>
