<svg width="235" height="250" viewBox="0 0 235 250" fill="none" xmlns="http://www.w3.org/2000/svg">
<path d="M110.633 0.0840666L110.956 0.0698668C147.231 -1.44298 183.209 21.7726 198.624 54.1597C205.138 67.8463 196.674 65.6752 195.472 63.4172C171.343 3.60679 93.8405 -13.2199 49.1878 34.6874C33.0736 51.393 23.8637 76.2083 25.3398 99.4114C26.029 110.251 26.4417 106.22 21.8447 116.382L10.0385 141.956C8.32597 145.708 4.55012 150.263 8.06951 154.161C11.3725 157.82 29.3036 156.287 34.4938 156.298C37.5169 158.211 36.664 161.131 36.6557 164.405L36.6289 176.079C36.6014 185.576 35.4536 193.927 42.7889 201.38C55.8699 214.673 74.4476 200.55 87.6847 214.347C96.0058 223.019 94.1931 231.995 94.1739 243.016C98.0224 242.971 111.128 243.117 103.119 249.772C100.435 250.148 89.9335 250.166 88.3865 248.989C82.7903 242.205 98.8419 211.275 62.4735 214.394C53.6754 215.149 44.3728 213.113 37.7642 206.245C29.5292 197.688 29.738 190.487 29.738 179.339L29.7497 163.212L18.3854 163.229C-1.04014 163.282 -3.68908 154.472 4.01716 138.216L12.948 119.108C14.3088 116.207 17.713 109.454 18.3746 106.606L18.4523 106.266C18.7196 103.735 18.5416 101.012 18.4447 98.4541C16.4374 45.705 58.0151 1.63534 110.633 0.0840666Z" fill="#000F29"/>
<path d="M113.318 40.6844C121.826 29.0085 139.401 31.7953 143.877 46.0099C163.861 52.0353 163.259 76.854 143.36 82.0057C139.435 83.0224 125.733 82.2338 133.314 75.5993L133.536 75.408C138.61 75.1449 142.878 76.5399 147.395 72.9462C154.015 67.6792 152.737 57.3366 145.376 53.5457C143.74 52.7036 139.864 52.6335 138.722 51.2225C137.103 49.2202 137.404 45.6064 135.368 43.6399C129.375 37.0999 118.926 39.9827 117.011 48.612C116.363 51.5333 116.728 55.31 116.732 58.3515L116.731 74.2034C115.662 75.4907 114.772 76.352 113.031 76.5433C103.365 77.6034 118.861 38.3629 98.0409 40.0855C88.2889 40.8924 88.953 50.0263 86.3884 51.4464C82.8782 53.3911 79.6905 52.3703 76.268 56.4269C72.7787 60.5627 73.0727 66.8923 76.3799 71.0165C82.2158 78.2942 89.8627 73.4349 93.1649 76.2751C97.9833 80.4194 91.2728 82.3399 87.375 82.2438C79.7573 82.0542 75.9029 80.4169 70.6418 74.8884C63.8912 74.733 58.2216 78.3627 56.5074 84.9663C54.1584 94.0199 62.5789 98.2535 62.1862 101.171C61.6683 105.016 55.6587 106.84 56.2702 114.996C56.8783 123.104 63.7952 127.849 71.5264 127.105C75.532 123.039 79.0456 120.791 84.9683 120.235C89.2128 120.139 99.3909 120.767 92.2894 127.105C88.1744 127.381 85.3275 126.323 81.3153 128.146C71.1472 132.768 71.595 148.067 82.2659 151.754C93.4965 155.633 95.0252 145.733 97.9549 143.856C100.329 142.635 102.787 143.077 105.241 141.791C111.038 138.754 109.648 129.997 109.64 124.235L109.594 106.905C109.576 104.469 109.319 100.842 110.029 98.5752C110.883 95.9738 115.528 96.1501 116.299 98.4983C117.015 100.682 116.771 104.535 116.763 106.844L116.709 125.276C116.692 134.047 114.946 139.262 124.59 143.624C124.737 144.699 124.492 148.208 124.59 149.897C119.843 149.636 116.204 147.253 113.318 143.624C109.836 147.864 107.531 148.333 102.411 149.897C88.9889 168.665 62.9138 157.451 68.1307 133.822C50.862 133.133 44.5392 114.511 54.2778 100.658C43.4265 89.4689 51.0333 70.3482 67.3956 68.3859C66.1626 58.344 70.7571 46.9739 81.8591 46.0099C85.8956 31.2415 103.311 29.7136 113.318 40.6844Z" fill="#9A2957"/>
<path d="M124.592 143.624C124.698 139.419 128.133 138.081 130.293 140.834C131.65 142.565 131.13 144.822 131.257 146.871C131.01 148.51 131.28 154.788 131.257 156.902V243.016H157.964C157.842 232.898 156.269 211.809 161.693 203.728C163.039 201.723 167.589 195.383 170.679 197.501C175.81 201.683 168.775 204.442 166.965 207.912C163.397 214.273 164.727 229.636 164.722 237.066C164.618 242.513 166.737 249.777 159.824 249.783C149.347 249.792 138.87 249.761 128.397 249.775C124.656 249.781 124.887 246.551 124.663 243.787C124.525 233.08 124.587 222.29 124.587 211.586L124.592 149.896C124.493 148.208 124.738 144.699 124.592 143.624Z" fill="#000F29"/>
<path d="M210.63 114.374C213.374 103.863 227.283 100.36 232.873 111.068C239.823 124.378 220.654 136.135 211.465 121.05L175.02 121.05C171.076 121.049 162.782 121.324 159.22 121.05C156.974 121.08 154.692 121.142 152.451 121.05C148.15 121.319 136.803 121.577 132.507 121.122C129.685 120.824 128.689 117.422 130.763 115.458C132.654 113.667 149.273 114.367 152.451 114.374C154.612 114.494 157.081 114.662 159.22 114.374L193.154 114.367C198.777 114.366 205.045 114.228 210.63 114.374ZM223.837 120.885C226.394 120.116 227.854 117.427 227.104 114.864C226.355 112.299 223.678 110.82 221.108 111.549C218.51 112.286 217.011 114.999 217.768 117.591C218.525 120.184 221.25 121.663 223.837 120.885Z" fill="#9A2957"/>
<path d="M152.452 121.051C154.692 121.143 156.974 121.081 159.221 121.051C159.224 128.776 159.318 136.682 159.221 144.392L172.035 144.372C173.791 144.37 177.017 144.266 178.66 144.392C178.812 144.649 178.812 150.918 178.66 151.306C172.929 151.391 164.624 150.978 159.221 151.306V182.872C165.699 182.948 172.182 182.824 178.66 182.872C178.967 183.369 178.878 187.863 179.316 189.694C175.017 189.87 170.082 189.607 165.671 189.714C150.631 189.432 152.431 191.601 152.445 176.995L152.452 155.018C152.458 152.787 152.655 147.12 152.452 145.139C152.593 142.937 152.467 139.343 152.464 137.032L152.452 121.051Z" fill="#000F29"/>
<path d="M178.66 144.391C179.259 143.889 179.472 142.547 179.891 141.756C186.393 129.489 204.353 135.277 202.729 148.995C201.478 159.554 187.736 163.588 181.281 155.225C180.749 154.551 179.062 151.559 178.66 151.306C178.811 150.918 178.812 144.649 178.66 144.391ZM191.276 152.684C193.155 152.459 194.766 151.24 195.494 149.493C196.221 147.747 195.951 145.744 194.789 144.252C193.625 142.76 191.749 142.01 189.877 142.289C187.041 142.712 185.072 145.335 185.454 148.176C185.836 151.018 188.429 153.025 191.276 152.684Z" fill="#9A2957"/>
<path d="M178.66 182.872C179.277 181.99 179.491 180.883 180.035 179.968C185.965 169.992 201.339 173.318 202.492 184.854C203.955 199.497 182.063 202.443 179.316 189.694C178.877 187.863 178.967 183.369 178.66 182.872ZM186.465 188.873C187.608 190.468 189.573 191.251 191.5 190.879C194.22 190.353 196 187.723 195.477 185.002C194.954 182.28 192.326 180.497 189.604 181.018C187.922 181.34 186.52 182.496 185.884 184.086C185.249 185.677 185.468 187.481 186.465 188.873Z" fill="#9A2957"/>
<path d="M179.308 78.9418C180.726 73.2145 186.157 69.4153 192.024 70.0452C197.89 70.675 202.39 75.541 202.56 81.4387C202.73 87.3364 198.519 92.4538 192.698 93.4212C186.878 94.3885 181.238 90.9084 179.491 85.273C178.854 83.218 178.791 81.0294 179.308 78.9418ZM191.065 86.7959C193.857 86.5804 195.948 84.1469 195.741 81.3543C195.535 78.5617 193.109 76.4624 190.316 76.6587C187.509 76.8567 185.397 79.2977 185.604 82.1036C185.811 84.9096 188.259 87.0131 191.065 86.7959Z" fill="#9A2957"/>
<path d="M152.451 114.374C152.796 103.632 151.975 92.6391 152.703 81.9122C152.975 77.8949 161.226 78.9107 164.03 78.9132L179.308 78.9416C178.791 81.0292 178.854 83.2179 179.491 85.2729C176.936 85.5009 173.894 85.4299 171.296 85.4416L159.22 85.5427V114.374C157.08 114.663 154.611 114.495 152.451 114.374Z" fill="#000F29"/>
<path d="M131.257 146.871C136.947 155.908 147.293 153.586 152.452 145.139C152.655 147.12 152.458 152.787 152.452 155.017C146.304 160.332 138.306 160.588 131.257 156.902C131.28 154.788 131.01 148.51 131.257 146.871Z" fill="#9A2957"/>
</svg>
