<svg width="308" height="250" viewBox="0 0 308 250" fill="none" xmlns="http://www.w3.org/2000/svg">
<path d="M192.762 27.3294C192.716 23.7121 192.124 2.93944 193.643 1.23562C195.6 -0.960445 199.841 -0.118806 200.335 2.88601C200.793 5.67296 200.492 8.85762 200.473 11.6918L200.435 27.3294C204.47 27.2965 215.213 25.528 214.199 31.7472C213.913 33.5024 213.02 34.3862 211.551 35.2761C207.834 35.5012 204.145 35.2258 200.435 35.2761C200.209 44.2392 200.829 54.3923 200.435 63.1169C203.394 63.0984 211.188 62.7038 213.554 63.6492C215.47 65.835 218.301 84.9645 219.454 89.6855C225.814 86.3827 234.057 87.8758 240.965 87.8871C247.922 87.8984 262.285 85.3026 265.99 93.124C268.036 97.4431 267.234 111.002 267.174 116.304C277.565 118.715 275.332 126.471 275.582 134.773C275.813 142.423 275.315 150.293 275.563 157.925L294.153 157.898C297.889 157.894 307.924 156.157 307.758 162.193C307.67 165.416 292.762 188.288 290.276 192.765C289.84 199.392 285.825 197.446 280.692 198.895C276.63 200.042 272.098 203.734 268.382 204.701C255.05 208.172 247.583 204.99 236.645 199.162C220.195 190.399 212.523 200.695 200.833 204.254C176.906 211.539 172.392 196.525 156.07 196.263C136.906 195.956 127.097 213.796 105.515 203.014C94.7873 197.655 87.1489 191.82 73.5471 198.637C62.1629 204.341 51.531 209.546 37.9158 203.495C34.4085 201.936 31.7325 199.908 27.6846 198.6C21.4212 196.576 18.9199 200.088 17.0876 192.765C14.4877 187.924 0.0668345 164.722 0.00106559 161.804C-0.138693 155.621 13.5083 157.907 17.8388 157.909L47.5191 157.925C47.4893 153.084 45.6405 142.102 51.6574 142.046C62.0673 141.96 72.3663 141.859 82.7887 142.066C87.9998 142.171 86.3278 154.022 86.3001 157.925H135.616C138.126 157.941 141.579 152.44 143.074 150.424C146.449 146.989 166.371 121.755 167.779 118.595C169.29 115.203 169.577 110.687 170.355 107.044L177.602 72.0214C180.01 60.1214 179.71 63.1858 192.762 63.1169C192.762 54.0737 192.546 44.2382 192.762 35.2761C190.278 35.3039 175.57 37.0735 181.13 28.541C182.284 26.7714 190.225 27.3017 192.762 27.3294ZM283.06 189.97C288.432 182.26 293.161 173.755 297.902 165.648C295.177 165.451 290.408 165.621 287.495 165.631L10.4121 165.648C14.7271 173.749 20.1942 181.898 24.3612 189.97C25.2512 190.683 29.559 190.814 31.1149 191.308C40.9401 194.421 41.5207 199.27 55.3281 197.744C69.3882 196.191 78.4972 180.775 100.466 191.075C107.314 194.287 109.932 197.508 117.999 197.977C136.139 199.031 148.337 178.836 172.989 192.863C197.739 206.947 200.223 189.989 219.504 188.647C239.979 187.221 243.687 197.778 257.382 198.045C263.912 198.173 275.993 192.762 283.06 189.97ZM147.423 157.925C157.698 158.151 168.756 157.924 179.113 157.924L243.059 157.925H268.07L268.091 136.068C268.092 133.814 268.266 126.286 267.789 124.358C265.594 123.496 246.406 123.872 242.656 123.87L196.505 123.875C189.208 123.878 180.86 124.087 173.641 123.874L156.834 145.598C153.964 149.308 149.883 154.133 147.423 157.925ZM222.372 116.304H257.083H259.706C259.769 95.7475 264.083 95.283 245.616 95.3149L225.562 95.3488C220.174 96.0312 222.353 111.731 222.372 116.304ZM55.2048 149.617V157.925H78.6452V149.617C70.867 149.605 62.9737 149.526 55.2048 149.617ZM200.435 70.6464V116.304C204.222 116.313 211.075 116.555 214.605 116.304C215.651 103.247 209.924 84.2554 208.236 70.6464C205.697 70.6341 202.957 70.5683 200.435 70.6464ZM192.762 70.6464C190.359 70.6218 187.976 70.5868 185.572 70.6464L179.626 99.633C178.694 104.315 177.503 111.864 176.308 116.304H183.809H192.762V70.6464Z" fill="#000F29"/>
<path d="M24.3615 189.969C25.2515 190.682 29.5593 190.814 31.1151 191.307C40.9404 194.421 41.521 199.269 55.3284 197.743C69.3885 196.19 78.4975 180.775 100.466 191.075C107.315 194.286 109.932 197.508 117.999 197.976C136.139 199.031 148.337 178.836 172.989 192.863C197.74 206.947 200.223 189.989 219.504 188.647C239.98 187.22 243.687 197.777 257.383 198.044C263.912 198.173 275.993 192.761 283.06 189.969C286.82 190.262 287.595 190.143 290.276 192.764C289.841 199.392 285.826 197.445 280.693 198.894C276.63 200.041 272.098 203.733 268.382 204.7C255.05 208.172 247.583 204.989 236.645 199.161C220.195 190.399 212.523 200.695 200.834 204.253C176.906 211.538 172.392 196.524 156.07 196.262C136.906 195.955 127.098 213.796 105.515 203.014C94.7876 197.655 87.1492 191.82 73.5474 198.636C62.1632 204.341 51.5313 209.546 37.9161 203.495C34.4087 201.936 31.7328 199.907 27.6849 198.599C21.4214 196.576 18.9202 200.087 17.0879 192.764C21.6033 189.548 19.6858 190.893 24.3615 189.969Z" fill="#9A2957"/>
<path d="M208.236 136.444H220.151C220.162 138.169 220.311 142.382 219.988 143.861L219.454 144.054H207.054C207.024 142.424 206.738 137.756 207.474 136.583L208.236 136.444Z" fill="#000F29"/>
<path d="M228.4 136.443C232.494 136.425 236.598 136.391 240.692 136.443V144.053H228.4C228.341 141.569 228.393 138.939 228.4 136.443Z" fill="#000F29"/>
<path d="M186.497 136.444H198.613C198.714 138.909 198.638 141.571 198.613 144.054C196.884 144.269 188.702 144.064 186.497 144.054C186.434 141.414 186.396 139.096 186.497 136.444Z" fill="#000F29"/>
<path d="M81.1929 231.913C102.463 231.253 106.374 241.977 120.964 241.686C135.748 242.204 146.67 223.419 170.337 235.09C202.995 251.193 195.967 233.57 218.708 232.266C240.768 230.588 242.558 241.262 257.606 241.714C271.441 242.13 273.513 232.493 288.028 232.687C296.979 239.727 281.935 240.885 279.231 242.494C268.512 248.872 257.388 252.72 244.914 246.955C237.532 243.544 235.103 240.471 226.54 239.626C207.724 239.332 196.444 256.12 177.091 247.503C166.743 242.896 161.712 237.568 149.053 239.988C141.561 241.42 137.023 246.791 129.68 248.46C103.545 254.4 95.3989 231.507 74.1556 241.979C61.936 248.005 50.5569 254.268 36.1535 246.088C32.9853 244.289 31.596 242.735 27.5707 241.343C24.9132 240.425 17.8235 241.063 17.4793 237.254C16.3664 224.906 42.1745 240.388 46.3857 241.266C61.1642 244.119 66.4915 234.491 81.1929 231.913Z" fill="#9A2957"/>
<path d="M82.903 210.33C102.108 210.008 106.855 220.118 119.886 219.659C137.028 219.815 137.809 208.452 159.934 210.519C171.862 211.633 176.598 219.945 189.285 220.12C203.903 220.321 218.828 202.622 239.68 213.735C247.112 217.698 256.504 222.762 265.415 219.223C272.37 216.461 278.774 211.25 286.63 211.32C288.918 211.335 291.115 214.157 290.511 216.063C289.041 220.707 281.076 219.207 277.261 221.936C269.657 227.375 253.296 229.937 244.874 225.363C237.326 221.264 234.144 219.246 225.562 218.055C205.499 218.828 197.117 235.099 174.47 224.799C169.972 222.707 165.758 219.372 160.774 218.501C139.57 214.799 128.248 236.542 105.028 224.534C99.2538 221.548 96.1935 218.66 89.2754 218.11C72.6441 216.417 68.887 227.684 52.1098 227.728C36.3037 227.769 34.0768 220.746 19.4381 218.875C17.5483 217.081 16.3316 215.25 18.2471 212.91C23.1674 206.896 40.4533 218.828 46.7836 219.866C61.4017 222.264 67.7474 212.103 82.903 210.33Z" fill="#9A2957"/>
<path d="M133.933 61.233C143.648 60.5312 145.896 66.1585 140.812 68.2066C139.1 68.8961 136.906 68.6197 135.081 68.8067C119.937 69.1798 106.318 82.2637 103.989 97.0493C103.546 99.8671 103.974 102.84 103.49 105.643C96.3613 111.922 95.7344 101.427 96.461 96.3485C99.1657 77.4451 115.02 62.9564 133.933 61.233Z" fill="#9A2957"/>
<path d="M135.616 157.925C135.246 148.691 135.604 136.387 135.606 126.9L135.607 113.561C135.605 111.087 135.645 108.277 135.686 105.841C135.771 100.832 142.921 101.257 143.049 105.001C143.203 109.482 143.086 114.362 143.085 118.898L143.073 150.424C141.578 152.44 138.125 157.941 135.616 157.925Z" fill="#9A2957"/>
<path d="M134.982 74.7718C145.98 74.071 144.062 81.0116 140.584 81.6909C129.982 83.7616 120.479 84.3895 117.621 98.0797C117.09 100.625 117.351 103.153 116.419 105.643C106.16 116.836 103.826 78.646 134.982 74.7718Z" fill="#9A2957"/>
<path d="M135.616 87.8779C145.208 87.9005 147.613 93.9852 135.42 96.3487C129.013 97.5912 131.614 102.252 129.284 106.234C121.598 112.827 117.631 91.9453 135.616 87.8779Z" fill="#9A2957"/>
</svg>
