<svg width="334" height="250" viewBox="0 0 334 250" fill="none" xmlns="http://www.w3.org/2000/svg">
<path d="M131.141 101.693L131.125 84.3718C131.099 71.0287 131.163 62.3772 141.149 52.0777C159.88 32.7591 192.615 40.3022 200.728 65.9828C202.744 72.365 202.367 77.9863 202.357 84.5651L202.342 101.693L219.075 101.669C234.093 101.649 244.333 102.37 244.251 120.467V129.146V158.007C244.272 160.383 244.436 164.538 244.251 166.774C240.514 205.705 210.993 232.38 175.934 246.187C164.043 250.868 166.594 249.771 154.978 244.974C124.761 232.494 95.8994 206.92 90.1563 173.237C89.6401 170.364 89.4647 167.276 89.2312 164.353C89.0077 156.024 89.2267 146.675 89.2312 138.263V129.146C89.4524 106.442 88.668 101.607 113.625 101.666L131.141 101.693ZM166.748 240.279C180.93 234.193 196.695 227.331 208.21 216.726C232.799 195.5 235.335 177.07 235.34 147.797L235.324 115.158C231.28 108.428 224.266 110.631 216.722 110.645L131.159 110.651C122.334 110.649 110.923 110.271 102.418 110.656C94.6692 112.946 98.2748 148.353 98.1799 156.816C97.7843 192.145 120.314 218.86 151.669 233.496C156.482 235.752 162.202 237.873 166.748 240.279ZM139.961 101.693H170.443C177.158 101.68 186.929 101.363 193.374 101.693L193.385 85.3372C193.411 66.0566 186.373 47.1458 163.144 50.4062C136.099 54.8342 139.931 81.3439 139.961 101.693Z" fill="#000F29"/>
<path d="M164.591 134.524C185.141 132.917 194.439 154.633 179.221 170.856C180.878 177.607 186.106 192.177 180.934 196.714C178.431 196.958 172.566 196.743 169.813 196.714C145.25 196.587 148.958 197.744 154.755 170.856C139.798 159.083 146.287 137.112 164.591 134.524ZM164.591 165.932C162.834 172.416 161.457 181.491 160.071 188.322H168.416H173.97C172.699 182.496 170.282 171.657 169.813 165.932C184.965 157.83 178.187 142.02 165.42 143.156C152.595 145.959 150.622 161.042 164.591 165.932Z" fill="#9A2957"/>
<path d="M19.371 109.141C-7.24486 100.898 -2.82248 68.8711 18.3129 64.2453C31.5711 61.3436 43.2248 69.1672 46.2293 82.1852H100.117C105.942 82.8321 102.544 86.2679 106.708 88.8992C105.723 89.7964 105.165 90.3517 104.03 91.0802L65.1948 91.0746C59.8082 91.0713 51.2193 90.7405 46.2293 91.0802C43.8684 100.755 37.5052 107.08 27.7834 109.141C27.7789 115.606 27.6191 122.737 27.7834 129.146C46.4952 129.893 70.2977 130.01 89.233 129.146V138.263L28.0359 138.31C19.6816 137.925 19.2581 137.342 19.2727 128.65L19.371 109.141ZM25.123 100.41C32.8717 99.6501 38.5298 92.7428 37.751 84.9975C36.9723 77.251 30.0504 71.6096 22.3073 72.4085C14.5911 73.2052 8.97426 80.0957 9.7508 87.8142C10.5262 95.5316 17.4034 101.166 25.123 100.41Z" fill="#9A2957"/>
<path d="M19.3698 203.33L19.3508 182.357C19.1676 160.112 18.7765 164.361 40.8728 164.351L71.3501 164.358C77.6574 164.385 82.8709 164.632 89.2318 164.353C89.4653 167.276 89.6408 170.363 90.157 173.237H27.7822V203.33C64.6718 210.682 40.4806 266.177 10.2613 245.354C-6.89299 233.533 -1.64938 206.52 19.3698 203.33ZM25.133 240.381C33.0526 239.36 38.6448 232.111 37.6213 224.192C36.599 216.271 29.3486 210.681 21.429 211.706C13.5116 212.729 7.92389 219.977 8.94625 227.895C9.9686 235.812 17.2145 241.402 25.133 240.381Z" fill="#9A2957"/>
<path d="M306.106 92.1797C293.784 90.259 285.427 78.3137 287.364 66.1583C290.582 45.9592 316.876 39.6664 328.784 56.4833C338.19 69.7661 330.593 89.3484 314.668 92.1797C314.895 103.182 314.647 114.359 314.568 125.361C314.529 130.724 306.851 129.225 303.064 129.187L244.252 129.146V120.467H306.106V92.1797ZM312.573 83.4132C317.535 82.5864 321.667 79.1495 323.386 74.422C325.103 69.6935 324.14 64.4063 320.865 60.5873C317.59 56.7683 312.512 55.0096 307.578 55.9861C300.105 57.4644 295.203 64.6667 296.569 72.1606C297.933 79.6534 305.06 84.6646 312.573 83.4132Z" fill="#9A2957"/>
<path d="M244.252 158.007L305.292 157.989C307.582 157.981 310.752 157.84 312.97 158.007C313.621 158.857 314.159 159.5 314.668 160.437C314.897 168.999 314.857 180.591 314.668 189.16C335.207 194.253 340.18 219.299 322.441 231.346C306.569 242.125 282.443 226.125 288.133 205.347C290.119 197.613 297.896 189.726 306.106 189.16V166.774C285.905 166.771 264.335 166.36 244.252 166.774C244.436 164.538 244.272 160.383 244.252 158.007ZM310.899 225.618C318.702 225.255 324.743 218.655 324.417 210.851C324.089 203.048 317.517 196.976 309.713 197.267C301.857 197.559 295.736 204.184 296.066 212.039C296.394 219.893 303.047 225.982 310.899 225.618Z" fill="#9A2957"/>
<path d="M100.115 82.185L100.101 46.1669C100.095 23.5913 95.2828 26.3388 113.808 19.6214L154.178 4.55982C157.448 3.32518 163.578 0.788833 166.748 0C170.269 0.798889 175.453 2.94304 178.995 4.27154L220.034 20.2147C223.429 21.5454 230.675 23.9778 233.241 25.9969C234.915 30.712 233.731 74.7146 233.672 83.032C233.629 89.089 225.637 88.9192 225.053 83.937C224.428 78.6096 224.688 71.9805 224.694 66.5983L224.708 31.7645L185.232 16.1901C179.23 13.8694 172.513 12.0928 166.748 9.29841C162.371 11.218 156.404 13.1431 151.74 14.885L126.09 24.6292C120.458 26.7421 113.909 28.6047 108.854 31.7645L108.864 68.2341C108.866 73.652 109.104 81.1068 108.854 86.3303C108.123 87.3124 107.625 88.0622 106.706 88.8991C102.542 86.2677 105.94 82.832 100.115 82.185Z" fill="#000F29"/>
</svg>
