<svg width="290" height="250" viewBox="0 0 290 250" fill="none" xmlns="http://www.w3.org/2000/svg">
<path d="M208.454 0.100483C211.096 -0.0357009 214.868 0.0898576 217.608 0.0898576L252.86 0.0937189C267.391 0.0946847 266.39 -1.91427 266.903 12.6208L271.079 100.015C271.417 108.543 272.394 116.653 272.377 125.286C291.44 125.368 289.543 121.78 289.56 139.274L289.581 243.78C289.559 252.181 282.616 249.64 275.313 249.636L5.89896 249.624C4.60182 249.612 1.79991 249.59 0.848548 248.771C-0.416711 245.207 0.107745 228.33 0.107745 223.856L0.113537 183.239L0.0980844 158.353C0.094221 148.481 0.406191 142.094 1.54299 132.311L10.7311 51.0981C8.25176 51.2054 3.49497 52.4474 2.17466 49.4958C1.45607 47.8886 1.4493 30.4995 2.25868 28.9774C3.42639 26.7781 9.36055 27.6088 11.3434 27.6068L52.1514 27.5952C54.427 27.5962 68.934 27.2765 70.1751 28.2134C72.2401 31.4847 71.6393 47.3883 70.3963 50.3004C69.9046 51.4526 64.6475 51.1426 63.0906 51.0981C62.9824 53.6335 63.1939 56.0993 63.5513 58.6066C66.1803 77.0572 71.0946 102.179 71.2897 120.493C75.3085 118.756 82.4027 114.525 86.5868 112.225L118.721 94.4057C121.544 92.8623 130.066 87.9635 132.422 87.1165C134.335 87.8554 137.948 90.0672 139.881 91.1827L179.406 113.983C183.958 116.554 188.751 119.067 193.167 121.878C196.665 124.106 193.636 125.86 199.02 125.286C198.791 122.029 199.09 118.529 199.269 115.25L204.511 18.0816C204.832 12.415 203.36 2.32 208.454 0.100483ZM282.147 243.117L282.798 243.007C283.575 241.371 282.927 143.033 283.063 131.92H144.564L144.558 209.824C144.557 220.316 144.233 232.784 144.564 243.117C149.509 243.311 154.815 243.123 159.814 243.119L282.147 243.117ZM6.68226 243.117C14.0874 243.46 22.6603 242.966 30.2364 243.117V218.734L30.2296 188.214C30.2248 173.231 26.3923 172.402 38.6489 167.433L52.0742 161.927C56.1114 160.28 59.5517 159.314 63.0906 156.806V126.145C64.0226 124.802 64.266 124.573 65.6356 123.683C64.7171 119.717 64.07 112.086 63.4663 107.704L58.4014 70.1678C57.5698 63.8164 57.0492 57.2187 55.3493 51.0981H17.4099L7.98808 134.2C7.08888 142.46 6.65618 150.429 6.66391 158.715L6.68226 243.117ZM55.3493 201.832C55.3435 198.504 54.7341 187.071 56.6754 185.04C62.7071 183.663 107.068 184.136 108.596 184.949C111.498 186.493 110.083 200.899 110.08 204.106L110.065 243.117C118.514 243.456 129.24 243.11 137.944 243.117L137.949 148.21C137.949 143.552 137.813 138.293 138.169 133.711L137.944 133.632C105.887 145.583 73.119 160.538 41.3204 173.568C39.8446 174.173 38.2172 174.857 36.7162 175.362V243.117H55.3493V201.832ZM69.8071 129.057V154.66C82.1525 149.376 94.6013 144.039 107.089 139.124C117.31 135.023 129.497 129.387 139.955 125.706C142.042 124.972 153.206 125.274 155.934 125.276L185.38 125.286C181.683 122.726 176.164 119.837 172.14 117.489L143.856 101.192C141.128 99.6136 134.703 96.1974 132.422 94.5863C112.321 104.501 89.1134 117.764 69.8071 129.057ZM61.8765 243.117C75.7161 243.661 89.6639 242.808 103.521 243.117C103.918 226.475 102.374 207.591 103.521 191.324C100.204 191.044 93.6954 191.316 90.0551 191.32L61.8765 191.324C61.8765 208.294 61.5588 226.237 61.8765 243.117ZM208.897 55.1257C208.984 61.5901 208.389 67.6866 208.454 74.0351L245.057 74.0418C250.373 74.0447 257.78 74.3045 262.84 74.0351L263.271 73.9056C263.92 70.6585 262.425 60.0052 262.84 55.1257C245.057 54.8988 226.726 55.1277 208.897 55.1257ZM260.385 6.84016H211.861C211.475 10.4051 210.855 19.1644 211.082 22.5525C227.483 22.8848 244.004 21.8774 260.385 22.5525L260.719 22.4424C261.008 17.3669 259.951 12.3184 260.385 6.84016ZM209.651 48.3986H261.828C262.233 47.1189 261.281 33.286 261.828 29.1773H210.099C210.61 35.6716 209.594 41.9525 209.651 48.3986ZM221.369 80.7902H207.229C207.772 87.356 206.839 92.7348 206.753 99.1741H249.369H264.67C264.308 93.6794 263.588 86.1178 263.966 80.7902H221.369ZM265.305 105.844H207.229L206.465 105.993C206.113 106.703 205.466 122.032 204.831 125.286H263.966C266.626 125.139 265.789 123.397 265.7 121.146C265.5 116.07 265.051 110.921 265.305 105.844ZM8.30971 44.6936H64.5249C64.606 41.2262 64.5432 37.6342 64.5249 34.1562C53.152 33.9409 41.0442 34.1543 29.6008 34.1504L15.6472 34.1437C13.5089 34.1417 10.3699 34.0268 8.30971 34.1562C8.27397 37.6758 8.35124 41.2011 8.30971 44.6936Z" fill="#9A2957"/>
<path d="M162.852 156.806C174.91 156.373 187.396 157.137 199.503 156.733C205.045 156.549 204.09 161.471 204.051 165.386C203.996 170.922 206.249 196.315 201.444 197.829H162.852C161.916 197.241 160.902 196.626 160.515 195.533C159.662 193.125 157.812 158.787 162.852 156.806ZM166.672 191.324L187.039 191.33C190.037 191.332 194.422 191.471 197.321 191.324V163.32H166.672V191.324Z" fill="#9A2957"/>
<path d="M226.247 156.806C231.884 156.919 260.488 155.608 263.869 157.986C264.005 158.202 268.135 197.079 261.828 197.829L230.742 197.852C222.217 197.866 221.856 198.075 222.029 189.573C222.226 179.859 221.922 170.072 222.221 160.352C222.313 157.361 223.594 157.109 226.247 156.806ZM228.726 191.324H258.102V163.32H228.726V191.324Z" fill="#9A2957"/>
</svg>
