<svg width="299" height="250" viewBox="0 0 299 250" fill="none" xmlns="http://www.w3.org/2000/svg">
<path d="M41.2336 118.914L41.2177 18.2546C41.2117 15.3705 39.6108 0.509375 43.8382 0.265701C52.4177 -0.230634 61.1739 0.122894 69.7874 0.11091C74.8406 0.107914 74.4331 2.28399 74.3163 6.41845V10.3901H136.078C140.595 13.0126 162.812 37.9392 166.727 42.6279L213.817 42.6139C216.685 42.6209 225.516 41.3516 225.887 45.6649C226.467 52.4018 226.027 59.4823 225.998 66.2403C225.97 72.5428 223.126 72.3781 217.743 71.9576V95.7757C220.856 99.8423 223.761 104.104 226.737 108.276L247.706 137.875L269.307 137.854C284.57 137.845 286.38 135.148 284.805 151.464C283.64 159.701 279.176 166.11 272.918 171.31C272.914 178.293 272.661 186.859 272.918 193.7C277.769 193.598 298.361 191.601 298.429 197.211C298.45 198.913 275.942 246.759 272.918 249.78C270.66 250.051 264.993 249.785 262.29 249.784L41.3954 249.785C21.6409 249.822 25.8602 252.928 18.8117 234.239L3.32644 193.745C2.81612 192.451 0.470269 186.643 0.412346 185.687C-0.325665 173.626 0.132723 158.751 0.228595 146.492C0.249567 143.805 0.717941 142.434 3.02685 141.104C6.62502 140.798 15.2465 141.094 19.2621 141.104L19.2171 128.269C19.0993 118.381 19.4638 118.85 28.9361 118.892L41.2336 118.914ZM113.629 206.172H157.069C159.914 206.027 162.473 205.886 165.333 206.172C169.565 206.209 175.553 205.828 179.514 206.172C182.628 202.854 191.613 196.642 195.656 193.7L241.649 193.695C248.955 193.696 257.539 193.965 264.681 193.7C267.655 193.554 269.949 193.606 272.918 193.7C272.661 186.859 272.914 178.293 272.918 171.31C279.176 166.11 283.64 159.701 284.805 151.464C286.38 135.148 284.57 137.845 269.307 137.854L247.706 137.875L226.737 108.276C223.761 104.104 220.856 99.8423 217.743 95.7757V71.9576C223.126 72.3781 225.97 72.5428 225.998 66.2403C226.027 59.4823 226.467 52.4018 225.887 45.6649C225.516 41.3516 216.685 42.6209 213.817 42.6139L166.727 42.6279C162.812 37.9392 140.595 13.0126 136.078 10.3901H74.3163V6.41845C74.2504 7.91445 74.2514 8.89414 74.3163 10.3901C68.2564 10.518 68.9735 14.6265 66.2371 15.2506V8.22603C60.6786 8.13315 54.9563 8.20505 49.3857 8.22603C49.5315 14.5945 50.2016 26.9849 49.3857 32.9689C46.5795 37.4479 46.5136 38.1709 49.3857 42.6279C47.2066 47.9218 47.6031 67.4007 49.3857 71.9576V118.914H66.2371V71.9576C69.0374 71.8717 71.5151 71.7579 74.3163 71.9576L74.3233 103.402C74.3223 106.959 74.0117 115.765 74.3163 118.914C76.2218 119.92 93.4916 116.938 94.2356 121.112C95.0166 125.488 94.6131 136.27 94.6331 141.104C118.935 140.969 113.658 139.9 113.64 166.606L113.629 206.172ZM17.0201 206.172H105.461C105.735 205.542 105.461 154.829 105.461 149.361L41.2906 149.355C30.6239 149.355 19.0064 149.126 8.41163 149.361L8.39266 170.676C8.38666 180.046 7.67661 181.546 11.1629 190.398L15.1266 200.661C15.7528 202.312 16.6616 204.512 17.0201 206.172ZM198.238 201.899C194.234 204.879 185.248 212.068 181.49 214.271H20.3317C23.4415 223.112 27.4881 232.711 30.8466 241.603C56.9626 241.976 84.0503 241.599 110.234 241.603L250.663 241.599C255.991 241.597 263.024 241.386 268.237 241.603C274.013 228.404 282.771 214.835 287.757 201.899L227.889 201.893C218.678 201.893 207.277 201.578 198.238 201.899ZM86.4421 127.299H63.9182H27.529C27.546 131.807 27.6389 136.619 27.529 141.104H50.1427H86.4421V127.299Z" fill="#000F29"/>
<path d="M74.3159 10.3901C74.251 8.89414 74.25 7.91445 74.3159 6.41846V10.3901H136.077C140.595 13.0126 162.811 37.9392 166.727 42.6279L213.817 42.614C216.684 42.6209 225.515 41.3517 225.887 45.6649C226.467 52.4018 226.027 59.4824 225.998 66.2403C225.97 72.5428 223.126 72.3781 217.743 71.9576V95.7757C220.856 99.8423 223.761 104.104 226.737 108.276L247.706 137.875L269.307 137.854C284.569 137.845 286.38 135.148 284.805 151.464C283.639 159.701 279.175 166.11 272.918 171.31C272.914 178.293 272.661 186.859 272.918 193.7C269.949 193.606 267.655 193.554 264.681 193.7V176.326C255.598 179.133 249.632 178.483 240.274 178.465L189.332 178.469C179.681 178.488 174.709 178.767 165.333 176.326L165.347 196.157C165.352 199.093 165.544 203.377 165.333 206.172C162.473 205.886 159.913 206.027 157.069 206.172V171.882C150.364 165.642 146.025 160.689 143.849 151.375C140.17 135.625 144.336 137.861 157.715 137.865L179.514 137.875C186.927 129.107 195.012 116.694 201.485 107.081C204.043 103.283 207.137 99.6475 209.49 95.7757V71.9576H74.3159V118.914C74.0113 115.765 74.3219 106.959 74.3229 103.402L74.3159 71.9576C71.5147 71.7579 69.037 71.8717 66.2367 71.9576C60.7111 71.9227 54.852 72.1364 49.3853 71.9576C47.6027 67.4007 47.2062 47.9218 49.3853 42.6279C46.5132 38.1709 46.5791 37.4479 49.3853 32.9689C51.7741 30.7598 65.6365 17.0243 66.2367 15.2506C68.9731 14.6265 68.256 10.518 74.3159 10.3901ZM56.369 63.481L187.544 63.478C190.081 63.477 217.837 63.5119 217.695 63.5878L217.743 63.481C217.731 59.7041 217.569 54.7936 217.743 51.1096L73.521 51.1076C68.6126 51.1066 61.0767 50.8649 56.369 51.1096V63.481ZM269.431 162.472C274.702 158.725 276.706 152.597 276.942 146.36H217.743V170.301L240.918 170.321C251.116 170.327 262.37 171.467 269.431 162.472ZM155.044 42.6279L155.292 42.3094C152.59 37.8983 136.946 22.9263 132.845 18.7939L112.587 18.7789C109.6 18.7759 105.401 18.6351 102.521 18.7939L102.139 19.0835C102.599 20.1441 122.866 40.4598 125.139 42.6279H155.044ZM74.3159 42.6279H113.628C105.591 34.7335 97.9882 26.7742 90.0868 18.7939C87.2855 18.711 74.8901 17.6194 74.3159 20.195V42.6279ZM66.2367 28.3431C63.031 31.0854 54.817 39.4182 52.1236 42.6279H66.2367C66.1219 39.9945 66.036 38.2079 66.2367 35.5574C66.0819 33.0358 65.9282 30.8557 66.2367 28.3431ZM209.49 170.301V146.36H151.345C155.753 169.248 171.209 170.33 189.901 170.314L209.49 170.301ZM209.49 137.875C209.489 135.229 209.592 111.008 209.49 110.861C206.589 114.24 191.558 134.934 190.549 137.611L190.787 137.875H209.49ZM217.743 110.861C218.494 118.828 217.585 129.571 217.743 137.875H237.343C235.67 134.974 219.27 111.669 217.743 110.861Z" fill="#9A2957"/>
<path d="M66.2369 28.3429C67.0528 26.5443 72.4586 20.2817 74.3161 20.1948V42.6278C71.8164 42.9434 68.7775 42.7556 66.2369 42.6278C66.177 40.4167 66.4127 37.6355 66.2369 35.5572C66.0821 33.0356 65.9283 30.8555 66.2369 28.3429Z" fill="#000F29"/>
<path d="M25.39 162.473C28.4918 162.442 31.6316 162.375 34.7295 162.473V171.311H25.39C25.3181 169.323 25.0924 164.31 25.39 162.473Z" fill="#000F29"/>
<path d="M29.9275 184.874H34.7311C34.778 187.847 34.765 190.728 34.7311 193.701H30.8473C29.4981 193.585 26.8417 193.686 25.3916 193.701C25.4695 190.754 25.4216 187.821 25.3916 184.874H29.9275Z" fill="#000F29"/>
<path d="M78.543 162.473C81.6288 162.493 84.6877 162.511 87.7746 162.473V171.311C84.7047 171.349 81.6139 171.321 78.543 171.311C78.6488 168.182 78.6358 165.603 78.543 162.473Z" fill="#000F29"/>
<path d="M52.1238 162.472C55.0429 162.591 58.1557 162.368 61.1977 162.472C61.2296 165.416 61.2077 168.366 61.1977 171.31C57.7733 171.331 55.8648 170.955 52.1238 171.31C52.0949 168.345 52.0909 165.437 52.1238 162.472Z" fill="#000F29"/>
<path d="M52.1238 184.874C54.9101 184.768 58.3605 184.866 61.1977 184.874C61.1657 186.435 61.667 193.044 61.1977 193.701C57.7782 193.621 55.5792 193.547 52.1238 193.701C52.1618 190.768 52.0299 188.074 51.8242 185.161L52.1238 184.874Z" fill="#000F29"/>
<path d="M78.543 184.873C81.2174 184.734 85.0203 184.861 87.7746 184.873V193.7C83.6292 193.194 82.6714 193.306 78.543 193.7V184.873Z" fill="#000F29"/>
</svg>
