<svg width="251" height="250" viewBox="0 0 251 250" fill="none" xmlns="http://www.w3.org/2000/svg">
<path d="M175.126 70.4265C169.886 62.5132 166.683 58.9189 165.122 48.4902C161.644 25.2608 178.531 3.37805 201.715 0.377267C239.219 -4.47588 264.951 38.5496 241.135 68.6972C225.981 87.8805 199.139 90.5213 180.166 75.2738L171.188 84.4511C169.395 86.2692 166.819 88.7225 165.353 90.718C172.332 101.62 175.673 106.872 177.359 120.669L195.277 120.652C212.547 120.66 210.979 128.728 210.98 142.845L210.973 164.844C259.727 167.374 265.699 246.924 208.756 249.544C171.716 249.186 152.177 208.97 175.126 179.523C170.458 174.99 164.858 168.535 159.987 164.536C157.741 165.801 155.406 167.972 153.228 169.416C132.396 183.217 109.731 178.978 90.9849 164.536C87.4986 167.15 78.3556 176.357 75.7751 179.523C107.25 224.297 55.3522 269.301 17.7867 241.373C-28.1807 207.199 24.139 137.868 70.7922 174.378C75.2234 169.019 81.5272 164.328 85.5944 159.117C77.3947 148.506 73.8691 141.89 73.0237 128.092L53.9133 128.118C38.8407 128.099 39.5924 118.512 39.5899 106.383L39.5982 85.0303C-10.8053 80.7849 -14.686 4.66542 41.4012 0.0290588C76.6381 0.270126 97.9465 36.4051 78.2644 66.5686C77.4165 67.8677 76.5803 69.094 75.7751 70.4265C78.9985 72.5317 88.2059 82.4782 90.9849 85.664C113.133 68.2184 137.272 68.277 159.987 85.664C164.806 80.9012 170.474 75.2755 175.126 70.4265ZM115.313 125.166C107.234 117.282 108.231 114.98 108.057 104.271C107.8 88.4388 127.11 80.8158 137.783 92.2013C145.469 100.399 143.852 117.194 135.212 125.166C148.187 129.06 155.664 142.508 159.244 154.655C175.204 136.294 173.709 108.578 155.866 92.0405C138.022 75.5023 110.274 76.1142 93.1754 93.4216C76.0781 110.729 75.8052 138.484 92.5594 156.124C94.5113 143.086 101.762 129.13 115.313 125.166ZM232.095 67.9221C246.13 54.224 246.345 31.7235 232.573 17.7601C218.802 3.79658 196.3 3.70031 182.41 17.5441C168.519 31.3887 168.54 53.8908 182.456 67.7087C183.541 51.409 211.849 40.8598 226.233 57.3352C229.077 60.593 230.16 64.1621 232.095 67.9221ZM232.362 232.16C246.26 218.449 246.346 196.048 232.554 182.231C218.762 168.415 196.361 168.461 182.626 182.334C168.891 196.207 169.069 218.607 183.022 232.261C189.255 207.642 224.557 206.906 232.362 232.16ZM46.6695 85.0303L46.6604 105.701C46.6545 124.385 46.7466 120.53 62.0409 120.669C64.6885 120.668 70.9001 120.99 73.0237 120.669C74.45 108.915 77.9413 99.6475 86.0179 90.718C84.5564 89.0439 71.8878 75.7216 70.7922 75.2738C61.3679 81.5725 58.1813 83.3479 46.6695 85.0303ZM153.139 160.474C151.384 149.813 144.927 135.25 133.665 132.066L132.711 131.788C132.705 130.008 132.688 128.216 132.711 126.437C126.204 128.247 123.169 128.1 116.857 125.79C116.874 127.562 116.975 130.075 116.857 131.788C101.521 140.774 101.953 147.191 98.5827 161.429C114.916 173.407 137.235 173.017 153.139 160.474ZM67.6081 67.9815C81.6829 54.3504 81.9775 31.8683 68.2643 17.8722C54.5519 3.87609 32.0691 3.7112 18.1525 17.5048C4.23588 31.2983 4.20072 53.782 18.0738 67.6183C26.0441 40.042 61.9028 43.6036 67.6081 67.9815ZM61.5948 72.6623C55.9816 48.7137 29.6032 49.38 24.1373 72.4622C35.5579 79.6858 50.0981 79.7637 61.5948 72.6623ZM62.0468 236.758C54.5109 211.8 25.7762 217.473 23.7908 236.598C35.4064 244.155 50.3684 244.218 62.0468 236.758ZM203.809 164.536L203.819 141.553C203.819 134.852 206.025 126.582 196.676 127.572C190.338 127.804 183.659 127.282 177.359 127.596C175.091 146.135 172.256 145.332 165.353 159.117C169.53 164.096 175.459 169.828 180.166 174.378C182.162 173.006 184.927 170.603 187.19 170.165C191.487 167.166 198.619 165.056 203.809 164.536ZM68.0509 231.924C81.7825 218.143 81.7766 195.849 68.0375 182.076C54.2983 168.301 32.0055 168.239 18.1893 181.935C4.37315 195.632 4.24174 217.924 17.8955 231.783C22.968 210.625 53.314 206.526 65.0267 225.44C65.8327 226.743 67.5897 231.316 68.0509 231.924ZM225.982 72.6999C224.817 70.2742 224.359 67.5195 223.094 65.0578C214.701 48.723 193.489 54.7111 188.1 72.2638C199.579 79.7277 214.334 79.8976 225.982 72.6999ZM226.435 236.865C224.348 232.892 224.868 231.202 221.498 227.219C211.544 215.451 189.927 220.708 189.404 237.209C200.815 244.121 215.154 243.988 226.435 236.865ZM124.181 93.8494C119.052 94.4679 115.573 98.0471 115.304 103.367C114.922 110.962 115.457 122.965 126.702 120.669C139.627 119.996 138.263 91.4906 124.181 93.8494Z" fill="#000F29"/>
<path d="M206.051 18.5461C212.893 17.643 219.176 22.4459 220.1 29.2853C221.023 36.1239 216.24 42.4218 209.404 43.3668C202.538 44.316 196.207 39.5072 195.278 32.6385C194.35 25.7689 199.179 19.4526 206.051 18.5461ZM209.434 36.1022C212.21 35.081 213.653 32.0208 212.673 29.2292C211.693 26.4386 208.653 24.9511 205.848 25.8895C203.996 26.5097 202.622 28.0783 202.252 29.996C201.881 31.9128 202.572 33.8815 204.06 35.1463C205.548 36.411 207.601 36.776 209.434 36.1022Z" fill="#9A2957"/>
<path d="M206.323 182.928C210.81 182.282 215.296 184.099 218.07 187.683C220.843 191.267 221.476 196.066 219.726 200.247C217.976 204.427 214.113 207.344 209.613 207.883C202.768 208.703 196.537 203.865 195.637 197.03C194.736 190.196 199.5 183.909 206.323 182.928ZM208.774 201.103C211.91 200.789 214.205 198.001 213.91 194.862C213.616 191.724 210.845 189.412 207.704 189.684C204.534 189.96 202.195 192.764 202.492 195.932C202.788 199.1 205.608 201.421 208.774 201.103Z" fill="#9A2957"/>
<path d="M42.1528 182.582C49.1287 182.038 55.2357 187.227 55.8258 194.199C56.4151 201.171 51.2657 207.312 44.2973 207.946C37.2653 208.586 31.0562 203.38 30.4611 196.343C29.8659 189.307 35.1133 183.132 42.1528 182.582ZM43.2527 200.938C46.3974 200.837 48.8642 198.203 48.757 195.057C48.6507 191.913 46.0116 189.452 42.8668 189.564C39.7296 189.676 37.2762 192.307 37.3825 195.444C37.4897 198.58 40.1155 201.039 43.2527 200.938Z" fill="#9A2957"/>
<path d="M41.1183 18.9455C47.9351 17.9654 54.2581 22.6921 55.2458 29.5081C56.2344 36.3241 51.5151 42.6522 44.7008 43.6482C37.8748 44.6468 31.5333 39.9176 30.544 33.0907C29.5537 26.2629 34.2897 19.9282 41.1183 18.9455ZM44.2731 36.7552C47.227 36.0086 49.0107 33.0028 48.2498 30.0522C47.489 27.1016 44.474 25.333 41.5276 26.1081C38.6005 26.8782 36.8469 29.8681 37.6019 32.7977C38.3577 35.7282 41.3393 37.4968 44.2731 36.7552Z" fill="#9A2957"/>
<path d="M115.312 125.166C107.234 117.282 108.23 114.979 108.056 104.271C107.799 88.4386 127.109 80.8157 137.782 92.2011C145.468 100.399 143.852 117.193 135.212 125.166C148.187 129.06 155.663 142.508 159.243 154.655C157.394 156.781 155.351 158.73 153.138 160.474C151.383 149.813 144.926 135.25 133.665 132.066L132.711 131.788C132.705 130.008 132.687 128.215 132.711 126.437C126.203 128.246 123.168 128.1 116.856 125.79C116.874 127.562 116.974 130.075 116.856 131.788C101.52 140.774 101.953 147.19 98.5819 161.428C96.4207 159.843 94.4051 158.068 92.5586 156.124C94.5106 143.085 101.761 129.13 115.312 125.166ZM126.701 120.669C139.626 119.996 138.263 91.4904 124.18 93.8492C119.052 94.4678 115.572 98.047 115.303 103.366C114.921 110.962 115.456 122.965 126.701 120.669Z" fill="#9A2957"/>
<path d="M124.181 131.788C131.263 131.922 135.815 134.95 129.366 141.331C129.176 145.46 130.858 150.524 126.702 152.639C119.94 153.837 121.352 145.673 121.406 141.331C116.549 137.407 117.926 132.563 124.181 131.788Z" fill="#9A2957"/>
<path d="M18.0732 67.6184C26.0435 40.0422 61.9023 43.6038 67.6075 67.9817C65.7778 69.7546 63.7613 71.3232 61.5942 72.6624C55.9811 48.7139 29.6026 49.3802 24.1368 72.4624C21.9437 71.0754 19.9105 69.4507 18.0732 67.6184Z" fill="#9A2957"/>
<path d="M182.457 67.7089C183.542 51.4093 211.85 40.8601 226.233 57.3355C229.078 60.5933 230.161 64.1624 232.095 67.9224C230.239 69.7346 228.189 71.3367 225.983 72.7002C224.818 70.2745 224.36 67.5198 223.094 65.058C214.701 48.7232 193.49 54.7114 188.1 72.2641C186.068 70.9432 184.177 69.4165 182.457 67.7089Z" fill="#9A2957"/>
<path d="M17.8955 231.784C22.968 210.626 53.314 206.526 65.0267 225.441C65.8327 226.743 67.5897 231.317 68.0509 231.924C66.232 233.75 64.2189 235.371 62.0468 236.758C54.5109 211.8 25.7762 217.474 23.7908 236.598C21.658 235.211 19.6809 233.596 17.8955 231.784Z" fill="#9A2957"/>
<path d="M183.022 232.262C189.255 207.643 224.557 206.906 232.363 232.16C230.561 233.937 228.574 235.514 226.435 236.865C224.348 232.893 224.869 231.203 221.498 227.219C211.544 215.452 189.927 220.708 189.404 237.21C187.094 235.811 184.953 234.15 183.022 232.262Z" fill="#9A2957"/>
</svg>
