<svg width="130" height="134" viewBox="0 0 130 134" fill="none" xmlns="http://www.w3.org/2000/svg">
<path fill-rule="evenodd" clip-rule="evenodd" d="M32.7629 98.8228C32.7817 99.1997 32.8759 99.5326 33.0456 99.8216C33.2403 100.154 33.5104 100.425 33.8936 100.644L37.4364 102.686C39.5282 103.898 40.2505 106.574 39.0382 108.672L36.915 112.36C36.4941 113.082 36.5004 113.899 36.915 114.621C37.1349 114.992 37.3987 115.268 37.7442 115.463C38.0645 115.645 38.454 115.746 38.8812 115.746H42.9643C45.3827 115.746 47.3552 117.712 47.3552 120.13V124.383C47.3552 126.204 49.2899 127.191 50.7473 126.349L54.1896 124.364C56.294 123.045 59.1711 123.817 60.3393 126.016L62.4061 129.597C63.2855 131.117 65.4589 131.117 66.3321 129.597L68.3736 126.06C69.5922 123.956 72.2745 123.252 74.36 124.458C75.0385 124.854 78.0788 126.694 78.6001 126.82H78.6127C79.9193 127.178 81.4394 126.217 81.4394 124.615V120.532C81.4394 118.114 83.4056 116.148 85.8303 116.148H90.083C90.9436 116.148 91.6157 115.764 92.0492 115.017C92.4575 114.301 92.47 113.459 92.0492 112.749L90.0077 109.213C88.7953 107.115 89.5177 104.432 91.6095 103.226L95.2969 101.097C96.7982 100.23 96.8108 98.0439 95.2906 97.1707L91.7478 95.1292C89.656 93.9231 88.9336 91.2471 90.146 89.149L92.2754 85.4553C92.6963 84.7329 92.69 83.9163 92.2754 83.194C91.842 82.4591 91.1699 82.0633 90.3092 82.0633H86.2261C83.8077 82.0633 81.8352 80.0971 81.8352 77.6724H81.8414V73.4198H81.8352C81.8352 72.5655 81.4394 71.8808 80.7045 71.4536C79.9884 71.0452 79.1466 71.0327 78.4367 71.4536L74.9002 73.495C72.8399 74.7074 70.1325 74.0039 68.9137 71.8869L66.7843 68.2058C66.5707 67.8352 66.288 67.5525 65.9614 67.3578C65.8106 67.2699 65.6536 67.2071 65.4777 67.1568C65.0757 67.3138 64.6297 67.3013 64.2402 67.138L63.6811 67.3578C63.3545 67.5463 63.0718 67.8352 62.8582 68.2058L60.8167 71.7424C59.6107 73.8342 56.9346 74.5565 54.8365 73.3442L51.1429 71.2147C50.4205 70.7939 49.6039 70.8001 48.8816 71.2147C48.1466 71.6482 47.7509 72.314 47.7509 73.181V77.2641C47.7509 79.6825 45.7784 81.655 43.36 81.655V81.6487H39.1073V81.655C37.3108 81.655 36.2869 83.5646 37.1411 85.0471L39.1763 88.5649C40.4075 90.7006 39.6789 93.3641 37.5871 94.5701L33.8997 96.6996C33.1082 97.1707 32.7189 97.912 32.7629 98.8228ZM21.7511 22.877L23.2273 27.4501C23.4408 28.1097 24.025 28.5306 24.716 28.5306L29.5215 28.518C34.195 28.5117 36.1236 34.5045 32.3545 37.237L28.4598 40.0574C27.8945 40.4657 27.6746 41.1379 27.8945 41.8037L29.3895 46.3768C30.8343 50.7991 25.7525 54.5178 21.9772 51.7602L18.095 48.9272C17.5423 48.5252 16.8073 48.5252 16.2546 48.9272L12.3724 51.7602C8.59711 54.5178 3.50908 50.7991 4.96007 46.3768L6.4551 41.8037C6.67496 41.1378 6.4551 40.472 5.88976 40.0574L1.9951 37.237C-1.77397 34.5108 0.148355 28.5117 4.82809 28.518L9.63358 28.5306C10.3246 28.5306 10.9088 28.116 11.1223 27.4501L12.5985 22.877C14.0182 18.4359 20.3126 18.4359 21.7511 22.877ZM20.1242 28.4488L18.648 23.8756C18.1831 22.4434 16.1479 22.4434 15.6894 23.8756L14.2132 28.4488C13.5599 30.4714 11.7509 31.7905 9.62128 31.7843L4.81579 31.7717C3.30819 31.7717 2.66753 33.7001 3.89867 34.5922L7.79333 37.4126C9.50821 38.6501 10.2055 40.7985 9.54584 42.8086L8.0508 47.3817C7.57968 48.8265 9.22547 50.02 10.4504 49.1279L14.3325 46.295C16.0537 45.0386 18.2836 45.0386 20.0048 46.295L23.8869 49.1279C25.1118 50.0199 26.7577 48.8264 26.2865 47.3817L24.7915 42.8086C24.1319 40.7985 24.8354 38.6502 26.544 37.4126L30.4386 34.5922C31.6698 33.7002 31.0291 31.7717 29.5215 31.7717L24.716 31.7843C22.5866 31.7906 20.7775 30.4714 20.1242 28.4488ZM53.6611 101.699C53.0204 101.059 53.0204 100.028 53.6611 99.3877C54.3019 98.747 55.3321 98.747 55.9728 99.3877L60.6715 104.086L72.3868 92.3711C73.0275 91.7304 74.0578 91.7304 74.6985 92.3711C75.3392 93.0118 75.3392 94.0421 74.6985 94.6827L61.8274 107.554C61.1866 108.195 60.1564 108.195 59.5157 107.554L53.6611 101.699ZM64.5849 78.4012C75.9171 78.4012 85.1011 87.5849 85.1011 98.9173C85.1011 110.25 75.9174 119.433 64.5849 119.433C53.2591 119.433 44.0688 110.25 44.0688 98.9173C44.0688 87.5849 53.2588 78.4012 64.5849 78.4012ZM76.7838 86.7244C83.5178 93.4583 83.5178 104.377 76.7838 111.116C70.0499 117.85 59.1317 117.85 52.3922 111.116C45.6582 104.382 45.6582 93.4591 52.3922 86.7244C59.1261 79.9842 70.0443 79.9842 76.7838 86.7244ZM29.8032 100.55H17.1645C16.2034 100.55 15.4496 99.7526 15.5438 98.7036C16.3227 84.0988 22.0391 71.0009 30.8208 61.5533C49.7529 41.1819 79.3838 41.1819 98.3176 61.5533C107.118 71.026 112.847 84.1728 113.601 98.8291C113.645 99.7462 112.948 100.519 111.974 100.544V100.55H99.5111C99.1468 101.982 98.2297 103.17 96.9105 103.936L93.2294 106.059C92.6955 106.367 92.5133 107.064 92.8148 107.592L94.9129 111.235C95.8363 113.019 95.8866 114.91 94.8564 116.656C93.8576 118.39 92.0673 119.42 90.0697 119.42H85.8171C85.2015 119.42 84.699 119.923 84.699 120.538V124.622C84.699 128.347 81.1373 130.897 77.7515 129.967V129.974L76.4009 129.408L72.6634 127.247C72.1923 126.99 71.4887 127.159 71.1746 127.693L69.1331 131.23C67.0037 134.923 61.6894 134.923 59.56 131.23C58.8501 130.005 58.1215 128.78 57.4305 127.542C57.129 127.015 56.4317 126.826 55.8978 127.128L52.3613 129.169C48.6425 131.318 44.0631 128.61 44.0631 124.383V120.13C44.0631 119.514 43.5606 119.012 42.945 119.012H38.8619C37.8819 119.012 36.9019 118.754 36.0916 118.277C35.275 117.806 34.5903 117.115 34.0815 116.242C33.0639 114.476 33.0639 112.36 34.1317 110.626L36.211 107.026C36.5439 106.455 36.3304 105.82 35.7148 105.443L32.2599 103.452C31.3931 102.95 30.7084 102.265 30.231 101.436C30.0551 101.166 29.9162 100.864 29.8032 100.55ZM99.3664 97.284C98.933 96.0528 98.0787 95.0352 96.9166 94.363L93.3172 92.2775C92.8649 92.0074 92.6891 91.2913 92.9215 90.8641L95.0447 87.183C96.1188 85.4493 96.1188 83.3324 95.0949 81.5672C94.0836 79.821 92.3184 78.7969 90.3082 78.7969H86.2251C85.6095 78.7969 85.107 78.2944 85.107 77.6788H85.1007V73.4262H85.107C85.107 71.4223 84.0831 69.6446 82.343 68.6395C80.5905 67.6093 78.7059 67.6533 76.9219 68.583L73.2786 70.6811C72.7509 70.9826 72.0474 70.7941 71.7459 70.2727L69.6666 66.6733C69.2143 65.8316 68.5296 65.1218 67.7632 64.6444L77.9018 51.8047C84.7237 54.1792 90.8734 58.325 95.9367 63.7712C103.896 72.333 109.185 84.0992 110.234 97.2776L99.3664 97.284ZM61.9716 64.601C61.1864 65.0721 60.5206 65.7442 60.0306 66.5923L57.9892 70.1288C57.6814 70.6627 56.9778 70.8449 56.4502 70.5434L52.857 68.4704C51.1233 67.3962 49.0064 67.3962 47.2412 68.4201C45.495 69.4315 44.4709 71.1967 44.4709 73.2005V77.2837C44.4709 77.8993 43.9684 78.4018 43.3528 78.4018V78.4081H39.1002V78.4018C34.8601 78.4018 32.1715 82.9937 34.3135 86.6999L36.3675 90.2615C36.6502 90.7892 36.468 91.4739 35.9404 91.7754L32.253 93.9049C30.9464 94.6587 30.0293 95.8584 29.6587 97.2907H18.8982C19.9535 84.1118 25.2427 72.3459 33.1952 63.7843C38.3839 58.1999 44.7095 53.9849 51.7318 51.6481L61.9716 64.601ZM116.552 22.8788C115.12 18.4377 108.819 18.4377 107.387 22.8788L105.911 27.4519C105.698 28.1115 105.113 28.5323 104.422 28.5323L99.6169 28.5198C94.9434 28.5135 93.0148 34.5063 96.7839 37.2387L100.679 40.0592C101.25 40.4675 101.464 41.1396 101.244 41.8054L99.7488 46.3785C98.3041 50.8008 103.386 54.5196 107.161 51.762L111.043 48.929C111.596 48.527 112.331 48.527 112.884 48.929L116.766 51.762C120.541 54.5196 125.629 50.8009 124.178 46.3785L122.683 41.8054C122.463 41.1396 122.683 40.4737 123.249 40.0592L127.143 37.2387C130.912 34.5125 128.99 28.5135 124.31 28.5198L119.505 28.5323C118.814 28.5323 118.23 28.1178 118.016 27.4519L116.552 22.8788ZM114.925 28.4505L113.449 23.8774C112.984 22.4452 110.949 22.4452 110.49 23.8774L109.014 28.4505C108.361 30.4732 106.552 31.7923 104.422 31.786L99.6169 31.7735C98.1093 31.7735 97.4686 33.7019 98.6998 34.5939L102.594 37.4144C104.309 38.6519 105.007 40.8002 104.347 42.8104L102.852 47.3835C102.381 48.8283 104.027 50.0217 105.252 49.1297L109.134 46.2967C110.855 45.0404 113.085 45.0404 114.806 46.2967L118.688 49.1297C119.907 50.0217 121.559 48.8282 121.088 47.3835L119.593 42.8104C118.933 40.8002 119.637 38.652 121.345 37.4144L125.24 34.5939C126.471 33.7019 125.83 31.7735 124.323 31.7735L119.517 31.786C117.388 31.7923 115.579 30.4732 114.925 28.4505ZM74.541 50.7999C68.1778 49.1793 61.5066 49.1352 55.1184 50.668L64.88 63.0303L74.541 50.7999ZM64.5658 0C52.1847 0 42.1473 10.0381 42.1473 22.4185C42.1473 34.7996 52.1854 44.8371 64.5658 44.8371C76.9463 44.8371 86.9843 34.799 86.9843 22.4185C86.9843 10.0374 76.9463 0 64.5658 0ZM78.1091 8.87591C70.6277 1.39455 58.5047 1.39455 51.0222 8.87591C43.5409 16.3573 43.5409 28.4803 51.0222 35.9628C58.5036 43.4441 70.6266 43.4441 78.1091 35.9628C85.5904 28.4814 85.5904 16.3584 78.1091 8.87591Z" fill="#1A305D"/>
</svg>
