<svg width="134" height="59" viewBox="0 0 134 59" fill="none" xmlns="http://www.w3.org/2000/svg">
<path d="M106.011 0C100.139 0 94.505 1.94009 89.6518 5.61635C89.4013 5.73287 89.1683 5.88435 88.9527 6.07078L41.7497 47.3428C41.5983 47.4185 41.4468 47.5176 41.3128 47.6283C37.3743 50.7743 32.7659 52.4348 27.9885 52.4348C15.7712 52.4348 5.82609 41.9828 5.82609 29.1304C5.82609 16.2781 15.7712 5.82609 27.9885 5.82609C32.7659 5.82609 37.3743 7.48652 41.307 10.6326C41.3885 10.6967 41.4759 10.7608 41.5633 10.8132L48.2691 17.4783H37.8696C36.2616 17.4783 34.9565 18.7833 34.9565 20.3913C34.9565 21.9993 36.2616 23.3043 37.8696 23.3043H55.3362C55.7207 23.3043 56.111 23.2286 56.4723 23.0771C56.8277 22.9315 57.1481 22.7159 57.4103 22.4479C57.4277 22.4304 57.4336 22.4071 57.451 22.3897C57.6957 22.1275 57.8997 21.8303 58.0395 21.4924C58.1327 21.2652 58.1502 21.0205 58.1851 20.7817C58.2026 20.6535 58.2609 20.5311 58.2609 20.3913V2.91304C58.2609 1.30504 56.9558 0 55.3478 0C53.7398 0 52.4348 1.30504 52.4348 2.91304V13.3942L45.1813 6.19313C44.9424 5.96009 44.6686 5.77365 44.3773 5.63965C39.5183 1.94591 33.867 0 27.9885 0C12.5552 0 0 13.0679 0 29.1304C0 45.193 12.5552 58.2609 27.9885 58.2609C33.8612 58.2609 39.5009 56.3208 44.3482 52.6445C44.5987 52.528 44.8317 52.3765 45.0473 52.1901L92.2503 10.9181C92.4017 10.8423 92.5474 10.7433 92.6872 10.6326C96.6257 7.48652 101.234 5.82609 106.011 5.82609C118.229 5.82609 128.174 16.2781 128.174 29.1304C128.174 41.9828 118.229 52.4348 106.011 52.4348C101.234 52.4348 96.6257 50.7743 92.6872 47.6283C92.6057 47.5642 92.5183 47.5001 92.4309 47.4477L85.725 40.7826H96.1304C97.7384 40.7826 99.0435 39.4776 99.0435 37.8696C99.0435 36.2616 97.7384 34.9565 96.1304 34.9565H78.6522C78.2677 34.9565 77.889 35.0323 77.5277 35.1837C77.2947 35.2828 77.1083 35.4401 76.916 35.5916C76.8111 35.6731 76.683 35.7139 76.5839 35.813C76.4616 35.9353 76.4091 36.0926 76.3101 36.2266C76.1877 36.4014 76.0479 36.5587 75.9605 36.7568C75.809 37.1238 75.7333 37.5083 75.7333 37.8987V55.3478C75.7333 56.9558 77.0383 58.2609 78.6463 58.2609C80.2543 58.2609 81.5594 56.9558 81.5594 55.3478V44.8725L88.807 52.0677C89.0459 52.3066 89.3197 52.493 89.611 52.6212C94.4758 56.315 100.127 58.2609 106.011 58.2609C121.445 58.2609 134 45.193 134 29.1304C134 13.0679 121.445 0 106.011 0Z" fill="#1A305D"/>
</svg>
