<svg width="108" height="134" viewBox="0 0 108 134" fill="none" xmlns="http://www.w3.org/2000/svg">
<path d="M105.087 20.1149C97.6507 19.5343 90.3265 18.0828 83.2922 15.7604C73.0425 12.3885 63.5071 7.25256 54.9551 0.485682C54.1512 -0.161894 52.99 -0.161894 52.1861 0.485682C43.6335 7.22955 34.0759 12.3655 23.8489 15.7604C16.8148 18.0828 9.46882 19.5565 2.0544 20.1149C0.893218 20.2042 0 21.1644 0 22.3479V65.2896C0 97.5569 21.8174 125.783 53.0343 133.933C53.2129 133.978 53.4139 134 53.5925 134C53.7712 134 53.9721 133.978 54.1508 133.933C85.3691 125.782 107.185 97.5569 107.185 65.2896V22.3479C107.185 21.1868 106.292 20.2042 105.131 20.1149H105.087ZM102.675 65.2889C102.675 95.3238 82.5112 121.629 53.5481 129.445C24.5849 121.629 4.42107 95.3238 4.42107 65.2889V24.4023C11.4998 23.7101 18.4893 22.2363 25.2109 20.0033C35.4159 16.6313 44.9289 11.6293 53.5481 5.06439C62.1675 11.6072 71.6811 16.6316 81.8852 20.0033C88.6066 22.214 95.5962 23.6878 102.675 24.4023V65.2889Z" fill="#1A305D"/>
<path d="M44.9963 81.3443L29.0741 65.4221C28.2033 64.5512 26.7964 64.5512 25.9256 65.4221C25.0548 66.293 25.0547 67.6999 25.9256 68.5707L43.4098 86.0549C43.8341 86.4792 44.3923 86.7025 44.9953 86.7025C45.5982 86.7025 46.1565 86.4568 46.5808 86.0549L84.1631 48.4726C85.034 47.6017 85.034 46.1948 84.1631 45.324C83.2922 44.4532 81.8853 44.4531 81.0146 45.324L44.9963 81.3443Z" fill="#1A305D"/>
</svg>
