<svg width="95" height="134" viewBox="0 0 95 134" fill="none" xmlns="http://www.w3.org/2000/svg">
<path d="M20.9776 51.7445C30.4235 51.3826 40.2684 54.8318 50.1451 58.2866C64.041 63.1506 77.9972 68.0366 89.4031 61.1107V15.8051C76.5719 21.8151 62.4134 16.8579 48.3112 11.9227C32.8755 6.51569 17.4999 1.13624 5.58665 12.1749V123.471C5.58665 124.831 6.13265 126.06 7.01713 126.943C7.91259 127.837 9.14106 128.39 10.4843 128.39C11.8275 128.39 13.056 127.836 13.9406 126.943C14.8306 126.049 15.382 124.821 15.382 123.471V19.9016C15.382 18.3496 16.6324 17.0939 18.1776 17.0939C19.7228 17.0939 20.9731 18.3497 20.9731 19.9016V51.7515L20.9776 51.7445ZM48.3056 63.5728C38.876 60.2716 29.4677 56.976 20.9776 57.3598V123.466C20.9776 126.361 19.7982 128.999 17.8981 130.907C15.998 132.816 13.3717 134 10.4888 134C7.60043 134 4.97959 132.816 3.07945 130.907C1.18476 128.988 0 126.356 0 123.466V10.9733C0 10.2549 0.273002 9.53658 0.819017 8.9881C15.3098 -5.56534 32.6954 0.521362 50.1509 6.63558C64.4781 11.6531 78.8598 16.6872 90.4572 8.77964C90.9377 8.39577 91.5438 8.16546 92.2044 8.16546C93.7497 8.16546 95 9.42123 95 10.9731V62.624C94.9891 63.5124 94.5687 64.3843 93.7879 64.9271C79.8373 74.6112 64.0417 69.0782 48.3111 63.5726L48.3056 63.5728Z" fill="#1A305D"/>
</svg>
