<svg width="136" height="134" viewBox="0 0 136 134" fill="none" xmlns="http://www.w3.org/2000/svg">
<path fill-rule="evenodd" clip-rule="evenodd" d="M39.0932 70.7946C38.1105 70.9517 37.2229 71.4732 36.6073 72.2552C35.9917 73.0373 35.6933 74.0225 35.7715 75.0147C35.8496 76.0069 36.2986 76.9333 37.029 77.6093C37.7594 78.2854 38.7177 78.6615 39.713 78.6628H57.647C58.6424 78.6619 59.6009 78.286 60.3316 77.6101C61.0623 76.9342 61.5116 76.0078 61.5899 75.0155C61.6683 74.0232 61.37 73.0378 60.7544 72.2555C60.1388 71.4733 59.2511 70.9517 58.2682 70.7946H39.0932ZM39.713 67.1425H57.647C57.936 67.1426 58.2247 67.1586 58.5119 67.1906H58.7165C59.4712 67.1734 60.1892 66.8615 60.7169 66.3216C61.2446 65.7818 61.54 65.0568 61.54 64.3019C61.54 63.547 61.2446 62.822 60.7169 62.2822C60.1892 61.7423 59.4712 61.4304 58.7165 61.4132H38.6435C37.8888 61.4304 37.1708 61.7423 36.6431 62.2822C36.1154 62.822 35.8199 63.547 35.8199 64.3019C35.8199 65.0568 36.1154 65.7818 36.6431 66.3216C37.1708 66.8615 37.8888 67.1734 38.6435 67.1906H38.8496C39.1363 67.1586 39.4245 67.1426 39.713 67.1425ZM53.7347 82.2653H38.6435C37.8772 82.2653 37.1422 82.5697 36.6003 83.1116C36.0584 83.6535 35.754 84.3884 35.754 85.1547C35.754 85.9211 36.0584 86.656 36.6003 87.1979C37.1422 87.7398 37.8772 88.0442 38.6435 88.0442H53.7347C54.501 88.0442 55.236 87.7398 55.7779 87.1979C56.3197 86.656 56.6242 85.9211 56.6242 85.1547C56.6242 84.3884 56.3197 83.6535 55.7779 83.1116C55.236 82.5697 54.501 82.2653 53.7347 82.2653ZM54.6011 51.2526H39.0331C38.1758 51.2709 37.3598 51.6244 36.76 52.2372C36.1601 52.85 35.8242 53.6734 35.8242 54.5309C35.8242 55.3884 36.1601 56.2118 36.76 56.8246C37.3598 57.4374 38.1758 57.7908 39.0331 57.8092H54.6011C55.4584 57.7908 56.2744 57.4374 56.8742 56.8246C57.474 56.2118 57.8099 55.3884 57.8099 54.5309C57.8099 53.6734 57.474 52.85 56.8742 52.2372C56.2744 51.6244 55.4584 51.2709 54.6011 51.2526ZM38.3743 30.3614C38.3968 30.2892 38.3863 30.3193 38.3743 30.3614ZM65.2084 74.6618C65.1975 72.6713 64.3999 70.7659 62.9898 69.3611L62.892 69.2664C63.0424 69.146 63.1718 69.0197 63.3041 68.8888C64.1016 68.0893 64.6769 67.0958 64.9733 66.0062C65.2697 64.9165 65.277 63.7685 64.9944 62.6752C64.7118 61.5819 64.1491 60.5812 63.3619 59.7717C62.5746 58.9621 61.5899 58.3718 60.5049 58.0589C61.1276 57.0145 61.4626 55.8239 61.4758 54.6081C61.4891 53.3923 61.1801 52.1946 60.5802 51.137C59.9804 50.0793 59.1112 49.1994 58.061 48.5867C57.0108 47.9739 55.817 47.6503 54.6011 47.6486H54.5334C55.4409 41.2258 58.4477 35.2836 63.0852 30.7483C67.7228 26.2129 73.7305 23.3392 80.172 22.5751C86.6134 21.811 93.1267 23.1993 98.6966 26.5238C104.267 29.8483 108.58 34.9221 110.965 40.9543C113.35 46.9866 113.672 53.6384 111.882 59.873C110.091 66.1076 106.288 71.5747 101.066 75.4221C95.8435 79.2694 89.4949 81.281 83.0097 81.1432C76.5246 81.0054 70.2672 78.726 65.2129 74.6603L65.2084 74.6618ZM41.0141 29.6394L41.0863 29.6965C41.5996 30.0959 42.06 30.5588 42.4565 31.0743C42.8535 31.5956 43.1807 32.1665 43.4297 32.7725C43.6675 33.3358 43.8244 33.9298 43.896 34.5369C43.9448 35.0633 43.9083 35.5941 43.7877 36.1088C43.6448 36.7931 43.3786 37.6701 43.004 38.8689C42.449 40.6453 41.9903 42.0983 41.5766 43.3949L40.2138 47.6501H39.0331C37.6721 47.6491 36.3414 48.0519 35.2095 48.8077C34.0777 49.5635 33.1956 50.6382 32.675 51.8957C32.1544 53.1532 32.0187 54.5369 32.2852 55.8716C32.5516 57.2063 33.2081 58.4318 34.1716 59.3931L34.283 59.5014C34.2062 59.5706 34.1325 59.6413 34.0573 59.715C33.4539 60.3154 32.9749 61.0291 32.6479 61.8151C32.3208 62.601 32.1522 63.4438 32.1516 64.2951C32.1505 64.9985 32.2654 65.6973 32.4915 66.3633C31.3867 67.6848 30.0425 68.786 28.5296 69.6093C26.7059 70.6316 24.676 71.2314 22.5897 71.3646C22.1231 71.4014 21.6892 71.6187 21.3804 71.9703C21.0715 72.322 20.912 72.7802 20.9357 73.2476C20.9594 73.715 21.1645 74.1547 21.5073 74.4733C21.8502 74.7919 22.3038 74.9642 22.7717 74.9536C25.3998 74.797 27.9591 74.0522 30.2608 72.774C31.3723 72.1632 32.4151 71.4351 33.3714 70.602C32.4272 72.0522 32.0112 73.7834 32.1934 75.5042C32.3755 77.2251 33.1448 78.8308 34.3717 80.0511C34.4123 80.0933 34.4544 80.1339 34.4965 80.173C34.3461 80.3008 34.1957 80.4347 34.0573 80.5746C33.1086 81.5184 32.4761 82.7333 32.2468 84.0517C32.0176 85.3702 32.2029 86.7272 32.7773 87.9359C32.3652 87.968 31.9641 87.9961 31.574 88.0202C29.9074 88.127 28.2558 88.1946 26.6283 88.1841C25.0008 88.1736 23.3192 88.0878 21.7022 87.9374C20.0852 87.787 18.4923 87.5689 17.0122 87.2921C15.6209 87.0304 14.3544 86.7236 13.1556 86.4333C11.7266 86.0873 10.3864 85.7624 9.01165 85.5488C7.80137 85.3674 6.58133 85.2584 5.35805 85.2224C4.70224 85.1999 4.1081 85.1984 3.61023 85.2029C3.61023 84.7727 3.61023 84.1966 3.62226 83.4505L3.63128 82.5902C3.67942 77.3828 3.67942 68.9685 3.67942 64.7614V62.0299C4.53979 61.9968 5.78523 61.9471 6.95998 61.8689C8.31372 61.7787 9.74868 61.6478 10.9355 61.4477C12.0406 61.2888 13.1161 60.9675 14.1273 60.4941C15.0306 60.0475 15.8316 59.4186 16.4798 58.647C17.1005 57.8841 17.6622 57.0751 18.1599 56.2268C18.5835 55.5207 19.0439 54.8374 19.5392 54.1797C20.0563 53.5306 20.6345 52.9327 21.266 52.3942C21.9369 51.8106 22.725 51.215 23.6125 50.5712L24.6052 49.8567C26.3835 48.6402 28.0826 47.3119 29.6923 45.8797C31.8588 43.8887 33.6621 41.5357 35.0215 38.926C35.7309 37.5473 36.3582 36.128 36.9002 34.6753C37.4011 33.3546 37.8313 32.052 38.1516 31.0473L38.3713 30.3614C38.503 29.8184 38.6884 29.2898 38.9248 28.7835C38.9589 28.7647 38.9972 28.7549 39.0361 28.7549C39.2551 28.7465 39.4732 28.786 39.6754 28.8708C40.0926 29.033 40.4862 29.2505 40.8456 29.5175C40.8986 29.5616 40.9559 29.6023 41.0141 29.6394ZM52.2516 91.6467L40.2063 117.59L54.1288 116.349C54.4612 116.297 54.8015 116.339 55.1114 116.47C55.4213 116.601 55.6885 116.816 55.8826 117.091L63.99 128.626L76.8806 100.854C75.942 100.21 74.9059 99.7221 73.8122 99.4081C72.488 99.2679 71.1498 99.3477 69.8517 99.6443C67.7493 100.2 65.5316 100.141 63.4621 99.4728C61.5389 98.4542 59.9534 96.8984 58.8985 94.9949C58.2432 93.8956 57.4066 92.9151 56.4241 92.0949C56.2382 91.9723 56.043 91.8642 55.8405 91.7715C55.6143 91.6653 55.3823 91.5719 55.1456 91.4917C54.6813 91.5939 54.2071 91.6443 53.7317 91.6422L52.2516 91.6467ZM120.282 88.324L134.478 118.896C134.612 119.182 134.667 119.499 134.64 119.814C134.612 120.129 134.501 120.43 134.319 120.689C134.137 120.947 133.89 121.153 133.603 121.285C133.316 121.418 132.999 121.472 132.685 121.442L116.572 120.005L107.269 133.241C107.086 133.497 106.839 133.701 106.552 133.833C106.266 133.964 105.95 134.018 105.636 133.99C105.323 133.961 105.022 133.851 104.764 133.67C104.506 133.489 104.3 133.244 104.166 132.958L89.499 101.371C87.7817 102.638 85.7415 103.395 83.6132 103.554C82.3609 103.527 81.1306 103.218 80.0138 102.651L65.9409 132.961C65.8071 133.247 65.601 133.492 65.3431 133.673C65.0851 133.854 64.7843 133.964 64.4705 133.993C64.1567 134.021 63.8409 133.967 63.5545 133.836C63.268 133.704 63.021 133.5 62.8378 133.244L53.5346 120.008L37.4221 121.445C37.109 121.473 36.7943 121.417 36.5093 121.285C36.2243 121.152 35.9792 120.947 35.7984 120.69C35.6176 120.433 35.5075 120.133 35.4792 119.82C35.4508 119.507 35.5051 119.192 35.6367 118.906L48.2896 91.6512H38.6435C37.8759 91.6524 37.1142 91.5159 36.3948 91.2481C34.9343 91.3759 33.4587 91.5023 31.7981 91.6076C30.1375 91.7129 28.4047 91.7836 26.6148 91.7715C24.8639 91.761 23.092 91.6707 21.3788 91.5113C19.6099 91.3473 17.9072 91.1142 16.3519 90.8224C14.92 90.5547 13.5798 90.2298 12.3103 89.9199C10.9445 89.5875 9.66144 89.2776 8.46263 89.0911C7.3967 88.9341 6.3223 88.8412 5.24524 88.8128C4.34275 88.7828 3.57112 88.7918 3.03113 88.8023C2.96795 88.8023 2.90478 88.8113 2.8401 88.8113C1.31789 88.8399 0.594395 88.8414 0.155182 86.9026C0.00282911 85.7515 -0.0374704 84.5883 0.0348498 83.4295L0.0438748 82.5691C0.0784703 78.8704 0.07847 69.4694 0.07847 64.7689V60.3016C0.0786719 59.8343 0.261026 59.3854 0.586811 59.0504C0.912596 58.7153 1.35615 58.5204 1.82329 58.5071L3.45379 58.444C4.22242 58.4154 5.3746 58.3703 6.74188 58.28C7.98732 58.1973 9.29894 58.0784 10.3518 57.901C11.1091 57.7985 11.8474 57.5862 12.5434 57.2707C13.0096 57.0383 13.4225 56.7115 13.7558 56.3111C14.2528 55.6821 14.7051 55.0192 15.1095 54.3271C15.6012 53.5099 16.137 52.72 16.7144 51.961C17.3756 51.1338 18.114 50.3712 18.9195 49.6838C19.7227 48.9873 20.5741 48.339 21.5067 47.6652L22.5265 46.9357C24.1796 45.8035 25.7596 44.5681 27.257 43.2369C29.1199 41.5288 30.6708 39.5091 31.8402 37.2685C32.48 36.0171 33.046 34.7293 33.5354 33.4118C34.0483 32.0581 34.4454 30.8653 34.7312 29.9673C35.0034 29.1114 34.7026 30.0455 34.9388 29.2949C35.1391 28.0867 35.7001 26.9672 36.5482 26.0836C37.1477 25.565 37.8958 25.2491 38.6856 25.1811C39.4383 25.1178 40.1955 25.2247 40.9012 25.4939C41.2522 25.6239 41.5931 25.7798 41.9211 25.9602C42.079 25.8384 42.2219 25.7165 42.3723 25.5962C42.7226 25.3008 43.0335 24.9616 43.2974 24.5869C43.9022 23.4566 44.3092 22.231 44.5007 20.9634C44.756 18.8293 45.6249 16.8151 47.0021 15.1649C48.6527 13.7882 50.6667 12.9189 52.8006 12.662C54.069 12.4719 55.2953 12.0648 56.4256 11.4587C57.4084 10.6394 58.2451 9.65934 58.9 8.56015C59.9545 6.65634 61.5401 5.10048 63.4636 4.08228C65.5331 3.41453 67.7508 3.35502 69.8532 3.9108C71.1513 4.20742 72.4895 4.28722 73.8137 4.14696C75.0768 3.75915 76.2696 3.17162 77.3469 2.40665C79.1666 1.0289 81.3391 0.19451 83.6132 0C85.8878 0.194555 88.0608 1.02893 89.881 2.40665C90.9581 3.16798 92.1499 3.75243 93.4113 4.13793C94.7359 4.27819 96.0746 4.1984 97.3732 3.90178C99.4756 3.34599 101.693 3.40551 103.763 4.07325C105.686 5.09146 107.272 6.64732 108.326 8.55112C108.981 9.65032 109.818 10.6304 110.801 11.4496C111.931 12.0551 113.157 12.4622 114.424 12.653C116.559 12.9096 118.573 13.7789 120.224 15.1559C121.602 16.8059 122.471 18.8202 122.726 20.9544C122.919 22.2226 123.328 23.4483 123.937 24.5779C124.756 25.5609 125.736 26.398 126.835 27.0537C128.739 28.1073 130.295 29.6925 131.313 31.6158C131.982 33.6858 132.041 35.9042 131.484 38.007C131.188 39.3051 131.108 40.6433 131.248 41.9674C131.635 43.232 132.221 44.4264 132.986 45.5052C134.363 47.3256 135.197 49.4986 135.392 51.773C135.197 54.0475 134.363 56.2204 132.986 58.0408C132.224 59.1176 131.639 60.3094 131.254 61.5711C131.114 62.8952 131.194 64.2335 131.49 65.5315C132.047 67.6343 131.987 69.8528 131.319 71.9227C130.298 73.8443 128.74 75.4274 126.835 76.4788C125.737 77.1345 124.757 77.971 123.937 78.9531C123.329 80.0833 122.919 81.3095 122.726 82.5781C122.468 84.6836 121.621 86.6734 120.282 88.318V88.324ZM92.6607 99.6322L106.121 128.626L114.229 117.091C114.423 116.816 114.69 116.601 115 116.47C115.31 116.339 115.65 116.297 115.983 116.349L129.905 117.59L117.174 90.1666C116.271 90.4536 115.353 90.6916 114.424 90.8796C113.156 91.0734 111.931 91.4829 110.801 92.0904C109.818 92.9106 108.982 93.8911 108.326 94.9904C107.272 96.8939 105.686 98.4496 103.763 99.4683C101.693 100.136 99.4756 100.196 97.3732 99.6398C96.0746 99.3431 94.7359 99.2633 93.4113 99.4036C93.155 99.4579 92.9034 99.5328 92.6592 99.6277L92.6607 99.6322ZM89.314 97.2888C88.8718 97.5445 88.434 97.8137 87.9948 98.0845C86.7146 99.0641 85.2073 99.7037 83.6132 99.9436C82.3827 99.815 81.2052 99.3756 80.1913 98.6666C80.1368 98.6295 80.08 98.5958 80.0213 98.5658C79.7581 98.4079 79.4949 98.2454 79.2331 98.083C77.8076 97.0816 76.217 96.3388 74.5342 95.8884C72.7888 95.6378 71.0123 95.7082 69.2922 96.096C67.8427 96.4865 66.3187 96.5097 64.8579 96.1637C63.6042 95.3617 62.5723 94.2574 61.8571 92.9523C61.0151 91.5749 59.9543 90.3439 58.7165 89.3077C59.5521 88.3105 60.0676 87.0845 60.1956 85.7897C60.3236 84.495 60.0582 83.1917 59.4339 82.0502C60.4352 81.803 61.3759 81.3551 62.1989 80.7335C63.0219 80.112 63.7101 79.3297 64.2217 78.4342C70.0667 82.6847 77.1467 84.8963 84.3719 84.7286C91.5971 84.5609 98.5669 82.0231 104.208 77.5059C109.85 72.9887 113.85 66.7425 115.594 59.7289C117.337 52.7152 116.728 45.3229 113.858 38.6899C110.988 32.0569 106.018 26.5508 99.7128 23.0194C93.4073 19.4879 86.1158 18.1267 78.9609 19.1455C71.8059 20.1642 65.1841 23.5063 60.1147 28.6574C55.0454 33.8084 51.8096 40.4828 50.9054 47.6531H43.9863C44.2375 46.868 44.5563 45.8647 44.9986 44.4824C45.6875 42.3209 46.2214 40.6423 46.4395 39.9413C46.8396 38.6613 47.1269 37.7122 47.3074 36.8428C47.5071 35.9677 47.5629 35.0659 47.4729 34.1729C47.3645 33.2231 47.1224 32.2934 46.7539 31.4113C46.3859 30.5132 45.902 29.6672 45.3144 28.8948C45.146 28.6752 44.969 28.4621 44.7835 28.2556C45.3491 27.7697 45.8505 27.2137 46.2756 26.601C47.1512 25.1023 47.7365 23.452 48.0009 21.7365C48.1671 20.2853 48.6986 18.9 49.5456 17.7099C50.7372 16.8621 52.124 16.3297 53.5768 16.1621C55.2923 15.8965 56.9422 15.3091 58.4397 14.4309C59.8076 13.3768 60.9666 12.0764 61.8571 10.5968C62.5719 9.29137 63.6039 8.18696 64.8579 7.3854C66.3187 7.03931 67.8427 7.06257 69.2922 7.45309C71.0123 7.84089 72.7888 7.91124 74.5342 7.66066C76.217 7.21025 77.8076 6.46741 79.2331 5.4661C80.5128 4.48621 82.0196 3.84613 83.6132 3.60546C85.2074 3.84582 86.7148 4.48592 87.9948 5.4661C89.4204 6.46741 91.011 7.21025 92.6938 7.66066C94.4392 7.91124 96.2157 7.84089 97.9358 7.45309C99.3853 7.06257 100.909 7.03931 102.37 7.3854C103.624 8.18696 104.656 9.29137 105.371 10.5968C106.26 12.0796 107.419 13.3826 108.788 14.4384C110.286 15.3144 111.936 15.8993 113.651 16.1621C115.102 16.3301 116.486 16.8614 117.676 17.7069C118.523 18.8973 119.054 20.2825 119.221 21.7335C119.488 23.4494 120.075 25.0996 120.952 26.598C122.009 27.9668 123.312 29.1263 124.794 30.0169C126.1 30.7308 127.205 31.763 128.005 33.0177C128.352 34.4779 128.328 36.0015 127.938 37.4505C127.551 39.1707 127.48 40.947 127.73 42.6924C128.18 44.3758 128.923 45.9666 129.926 47.3914C130.904 48.6722 131.543 50.1794 131.782 51.773C131.542 53.3668 130.902 54.874 129.923 56.1546C128.92 57.5795 128.177 59.1702 127.727 60.8536C127.477 62.5985 127.548 64.3744 127.935 66.0941C128.325 67.5436 128.348 69.0676 128.002 70.5283C127.202 71.783 126.097 72.8152 124.791 73.5291C123.31 74.42 122.009 75.5789 120.952 76.9466C120.075 78.4446 119.488 80.0943 119.221 81.8095C119.054 83.2605 118.523 84.6457 117.676 85.8361C116.486 86.6817 115.102 87.2126 113.651 87.3794C111.936 87.6463 110.286 88.2346 108.788 89.1137C107.419 90.1695 106.26 91.4725 105.371 92.9553C104.656 94.2604 103.624 95.3648 102.37 96.1667C100.909 96.5128 99.3853 96.4895 97.9358 96.099C96.2158 95.7103 94.4392 95.6399 92.6938 95.8914C91.5614 96.1535 90.4775 96.5931 89.4824 97.194C89.4247 97.2231 89.3684 97.2538 89.314 97.2888ZM86.3794 47.972L83.6132 41.2033L80.9058 47.8336C80.7971 48.1783 80.5875 48.4825 80.304 48.7066C80.0205 48.9308 79.6763 49.0648 79.3159 49.0911L72.0388 49.6281L77.6147 54.3436C77.868 54.5595 78.0568 54.8412 78.16 55.1576C78.2633 55.474 78.277 55.8128 78.1998 56.1366L76.455 63.2422L82.64 59.4126C82.9248 59.2283 83.2561 59.1285 83.5954 59.1251C83.9346 59.1216 84.2678 59.2145 84.5563 59.3931L90.773 63.2422L89.0538 56.2313C88.9544 55.8962 88.9546 55.5393 89.0542 55.2042C89.1538 54.8691 89.3485 54.5701 89.6148 54.3436L95.1892 49.6281L87.9136 49.0911C87.5794 49.0675 87.2586 48.9506 86.9874 48.7539C86.7162 48.5572 86.5056 48.2884 86.3794 47.978V47.972ZM85.2738 35.7884C85.1394 35.4582 84.9096 35.1756 84.6138 34.9767C84.3181 34.7778 83.9697 34.6715 83.6132 34.6715C83.2568 34.6715 82.9084 34.7778 82.6126 34.9767C82.3168 35.1756 82.0871 35.4582 81.9526 35.7884L77.9501 45.5834L67.3909 46.3641C67.0358 46.3905 66.6965 46.5217 66.4161 46.7412C66.1357 46.9607 65.9269 47.2586 65.816 47.597C65.7051 47.9354 65.6973 48.2991 65.7934 48.642C65.8896 48.9848 66.0854 49.2914 66.3561 49.5228L74.4424 56.3622L71.9169 66.6597C71.8316 67.0058 71.8513 67.3695 71.9736 67.7043C72.0958 68.0392 72.315 68.3301 72.6032 68.5398C72.8914 68.7496 73.2356 68.8688 73.5918 68.8822C73.948 68.8956 74.3002 68.8026 74.6033 68.615L83.6087 63.0376L92.569 68.5865C92.8699 68.7849 93.2236 68.8882 93.5841 68.883C93.9445 68.8777 94.295 68.764 94.59 68.5568C94.885 68.3496 95.1108 68.0584 95.2381 67.7212C95.3653 67.3839 95.3881 67.0161 95.3035 66.6657L92.7811 56.3772L100.815 49.5815C101.098 49.3558 101.307 49.0501 101.414 48.7042C101.522 48.3582 101.522 47.9879 101.416 47.6416C101.31 47.2952 101.103 46.9887 100.82 46.7619C100.538 46.5352 100.194 46.3986 99.8325 46.3701L89.2734 45.5894L85.2738 35.7884Z" fill="#1A305D"/>
</svg>
