<svg width="134" height="134" viewBox="0 0 134 134" fill="none" xmlns="http://www.w3.org/2000/svg">
<path d="M93.7421 37.7486C90.9373 33.5071 89.223 31.5805 88.3874 25.9908C86.5257 13.5398 95.5647 1.81064 107.975 0.202215C128.05 -2.39907 141.824 20.6626 129.076 36.8217C120.964 47.1039 106.596 48.5194 96.4398 40.3468L91.6344 45.2658C90.6747 46.2403 89.2956 47.5553 88.511 48.6249C92.2469 54.4681 94.0351 57.2834 94.9375 64.6785L104.529 64.6696C113.773 64.6736 112.934 68.9982 112.934 76.5652L112.93 88.3566C139.028 89.7125 142.225 132.351 111.744 133.755C91.9172 133.564 81.4582 112.008 93.7421 96.2242C91.2433 93.7948 88.2458 90.3348 85.6386 88.1911C84.4364 88.8695 83.1864 90.0333 82.0205 90.8067C70.8694 98.2041 58.7374 95.9322 48.7028 88.1911C46.8367 89.5922 41.9426 94.5274 40.5612 96.2242C57.4094 120.223 29.6292 144.345 9.52094 129.376C-15.0847 111.059 12.9212 73.897 37.8939 93.4668C40.2659 90.5941 43.6402 88.0798 45.8173 85.2865C41.4282 79.5989 39.541 76.0532 39.0885 68.6572L28.8589 68.6711C20.7908 68.6612 21.1932 63.5224 21.1918 57.0214L21.1963 45.5763C-5.78391 43.3007 -7.86117 2.50066 22.1614 0.0155755C41.0232 0.144788 52.4293 19.5131 41.8937 35.6808C41.4398 36.3771 40.9922 37.0344 40.5612 37.7486C42.2867 38.877 47.2153 44.2083 48.7028 45.9159C60.5583 36.5651 73.4797 36.5965 85.6386 45.9159C88.218 43.3631 91.2522 40.3477 93.7421 37.7486ZM61.725 67.0892C57.4009 62.8633 57.9345 61.6291 57.8413 55.8894C57.7038 47.4032 68.0399 43.3173 73.753 49.4199C77.8671 53.814 77.0019 62.8157 72.3771 67.0892C79.3224 69.1763 83.3244 76.3843 85.2407 82.8952C93.7842 73.0535 92.984 58.1978 83.4328 49.3337C73.8812 40.4692 59.0278 40.7972 49.8754 50.074C40.7234 59.3508 40.5773 74.2272 49.5456 83.6826C50.5905 76.6939 54.4715 69.2135 61.725 67.0892ZM124.237 36.4063C131.75 29.064 131.865 17.0038 124.493 9.51939C117.122 2.03496 105.076 1.98337 97.641 9.40364C90.2056 16.8244 90.2168 28.8855 97.6661 36.2918C98.2468 27.5552 113.4 21.9009 121.099 30.7317C122.621 32.4778 123.201 34.3909 124.237 36.4063ZM124.38 124.438C131.819 117.089 131.865 105.082 124.483 97.6761C117.1 90.2706 105.109 90.2953 97.7566 97.7312C90.4045 105.167 90.4999 117.174 97.969 124.492C101.305 111.296 120.202 110.901 124.38 124.438ZM24.9815 45.5763L24.9766 56.6557C24.9734 66.6701 25.0227 64.6041 33.2095 64.6785C34.6267 64.6781 37.9517 64.8508 39.0885 64.6785C39.8519 58.3786 41.7208 53.4111 46.044 48.6249C45.2617 47.7276 38.4804 40.5868 37.8939 40.3468C32.8493 43.7229 31.1436 44.6745 24.9815 45.5763ZM81.973 86.0142C81.0335 80.2997 77.5772 72.4941 71.5491 70.7874L71.0383 70.6384C71.0352 69.6842 71.0257 68.7236 71.0383 67.7702C67.5551 68.7402 65.9305 68.6617 62.5517 67.4234C62.5611 68.3732 62.6149 69.7201 62.5517 70.6384C54.3425 75.4547 54.5741 78.8941 52.7698 86.5257C61.5127 92.9464 73.4596 92.7373 81.973 86.0142ZM36.1896 36.4381C43.7236 29.1318 43.8813 17.0814 36.5408 9.57951C29.2008 2.07758 17.1661 1.9892 9.71674 9.38255C2.2674 16.7759 2.24858 28.8272 9.67462 36.2434C13.941 21.4625 33.1356 23.3715 36.1896 36.4381ZM32.9707 38.947C29.9661 26.1106 15.8461 26.4677 12.9203 38.8397C19.0336 42.7116 26.8167 42.7533 32.9707 38.947ZM33.2127 126.902C29.1789 113.525 13.7976 116.566 12.7348 126.817C18.9525 130.867 26.9614 130.901 33.2127 126.902ZM109.096 88.1911L109.101 75.8724C109.101 72.2805 110.282 67.8478 105.278 68.3786C101.885 68.5029 98.31 68.2229 94.9375 68.3916C93.7237 78.3284 92.2061 77.8981 88.511 85.2865C90.7468 87.9556 93.9204 91.0279 96.4398 93.4668C97.5084 92.731 98.9888 91.4434 100.2 91.2083C102.5 89.6012 106.318 88.4702 109.096 88.1911ZM36.4266 124.311C43.7769 116.925 43.7738 104.975 36.4194 97.5926C29.065 90.2096 17.132 90.1759 9.73646 97.5172C2.34088 104.859 2.27054 116.808 9.57919 124.236C12.2944 112.895 28.5381 110.698 34.8078 120.836C35.2392 121.534 36.1797 123.986 36.4266 124.311ZM120.965 38.9672C120.341 37.667 120.096 36.1904 119.419 34.871C114.926 26.1155 103.572 29.3252 100.687 38.7334C106.832 42.734 114.73 42.8251 120.965 38.9672ZM121.207 126.96C120.09 124.83 120.369 123.924 118.564 121.789C113.236 115.482 101.665 118.299 101.385 127.144C107.493 130.849 115.168 130.778 121.207 126.96ZM66.4722 50.3033C63.7269 50.6348 61.8644 52.5533 61.7206 55.4045C61.5158 59.4755 61.8021 65.9092 67.8217 64.6785C74.7401 64.3178 74.0102 49.039 66.4722 50.3033Z" fill="#1A305D"/>
<path d="M110.296 9.94032C113.959 9.45622 117.322 12.0306 117.817 15.6965C118.311 19.362 115.751 22.7377 112.091 23.2442C108.416 23.753 105.027 21.1755 104.53 17.4938C104.033 13.8117 106.618 10.4262 110.296 9.94032ZM112.107 19.3504C113.593 18.803 114.366 17.1627 113.841 15.6665C113.316 14.1707 111.689 13.3734 110.188 13.8763C109.196 14.2088 108.461 15.0496 108.263 16.0774C108.064 17.1049 108.434 18.1601 109.23 18.838C110.027 19.5159 111.126 19.7115 112.107 19.3504Z" fill="#1A305D"/>
<path d="M110.442 98.0493C112.843 97.7034 115.245 98.677 116.73 100.598C118.214 102.519 118.553 105.091 117.616 107.332C116.679 109.573 114.611 111.137 112.203 111.425C108.539 111.865 105.204 109.271 104.722 105.608C104.239 101.945 106.79 98.5752 110.442 98.0493ZM111.754 107.791C113.433 107.623 114.661 106.129 114.503 104.446C114.346 102.764 112.862 101.525 111.181 101.671C109.484 101.818 108.232 103.321 108.391 105.02C108.55 106.718 110.059 107.962 111.754 107.791Z" fill="#1A305D"/>
<path d="M22.5633 97.8638C26.2974 97.5721 29.5664 100.353 29.8823 104.091C30.1977 107.827 27.4413 111.119 23.7112 111.459C19.9471 111.802 16.6235 109.011 16.3049 105.24C15.9863 101.468 18.7952 98.1585 22.5633 97.8638ZM23.1521 107.703C24.8354 107.648 26.1558 106.237 26.0985 104.55C26.0416 102.865 24.6288 101.546 22.9455 101.606C21.2662 101.666 19.953 103.076 20.0099 104.758C20.0672 106.439 21.4728 107.757 23.1521 107.703Z" fill="#1A305D"/>
<path d="M22.0096 10.1549C25.6586 9.62952 29.0432 12.1631 29.5719 15.8164C30.101 19.4698 27.5749 22.8616 23.9273 23.3955C20.2734 23.9308 16.879 21.3959 16.3494 17.7367C15.8193 14.077 18.3544 10.6816 22.0096 10.1549ZM23.6983 19.7009C25.2795 19.3007 26.2343 17.6896 25.827 16.1081C25.4198 14.5266 23.8059 13.5786 22.2287 13.994C20.6619 14.4068 19.7232 16.0094 20.1273 17.5797C20.5319 19.1504 22.1279 20.0984 23.6983 19.7009Z" fill="#1A305D"/>
<path d="M61.7244 67.0893C57.4002 62.8635 57.9338 61.6292 57.8406 55.8896C57.7031 47.4033 68.0392 43.3174 73.7524 49.42C77.8664 53.8141 77.0012 62.8159 72.3764 67.0893C79.3217 69.1764 83.3237 76.3845 85.24 82.8953C84.2503 84.0349 83.1566 85.0794 81.9724 86.0144C81.0328 80.2999 77.5765 72.4942 71.5484 70.7875L71.0376 70.6386C71.0345 69.6843 71.0251 68.7237 71.0376 67.7704C67.5545 68.7403 65.9298 68.6618 62.551 67.4236C62.5604 68.3734 62.6142 69.7202 62.551 70.6386C54.3418 75.4549 54.5734 78.8943 52.7691 86.5258C51.6122 85.6761 50.5333 84.7245 49.5449 83.6827C50.5898 76.6941 54.4708 69.2137 61.7244 67.0893ZM67.821 64.6787C74.7394 64.318 74.0096 49.0391 66.4715 50.3034C63.7263 50.635 61.8637 52.5534 61.7199 55.4046C61.5151 59.4757 61.8014 65.9093 67.821 64.6787Z" fill="#1A305D"/>
<path d="M66.4721 70.6387C70.2631 70.7105 72.6996 72.3332 69.2478 75.7538C69.1461 77.967 70.0462 80.6813 67.8216 81.8146C64.2023 82.4571 64.9577 78.0809 64.9868 75.7538C62.3872 73.6505 63.1242 71.0541 66.4721 70.6387Z" fill="#1A305D"/>
<path d="M9.67383 36.2431C13.9402 21.4622 33.1348 23.3713 36.1888 36.4378C35.2093 37.3881 34.13 38.2288 32.9699 38.9467C29.9653 26.1103 15.8453 26.4674 12.9195 38.8395C11.7456 38.096 10.6573 37.2252 9.67383 36.2431Z" fill="#1A305D"/>
<path d="M97.666 36.2916C98.2467 27.555 113.399 21.9007 121.099 30.7315C122.621 32.4776 123.201 34.3907 124.237 36.4061C123.243 37.3774 122.146 38.2361 120.965 38.967C120.341 37.6668 120.096 36.1903 119.419 34.8708C114.926 26.1153 103.572 29.325 100.687 38.7332C99.5989 38.0252 98.5868 37.2069 97.666 36.2916Z" fill="#1A305D"/>
<path d="M9.5791 124.236C12.2943 112.895 28.5381 110.698 34.8077 120.836C35.2391 121.534 36.1796 123.986 36.4265 124.311C35.4529 125.29 34.3753 126.159 33.2126 126.902C29.1788 113.525 13.7975 116.566 12.7347 126.817C11.5931 126.073 10.5348 125.207 9.5791 124.236Z" fill="#1A305D"/>
<path d="M97.9688 124.492C101.305 111.296 120.202 110.901 124.38 124.438C123.416 125.39 122.352 126.235 121.207 126.959C120.09 124.83 120.368 123.924 118.564 121.789C113.236 115.482 101.665 118.299 101.385 127.144C100.148 126.394 99.002 125.504 97.9688 124.492Z" fill="#1A305D"/>
</svg>
