<svg width="165" height="135" viewBox="0 0 165 135" fill="none" xmlns="http://www.w3.org/2000/svg">
<path d="M28.6745 25.0059C28.7819 23.7455 29.8847 22.8074 31.1452 22.9077C43.4915 23.8817 55.5797 26.9681 66.8803 32.0314C67.4389 32.2749 67.8685 32.7332 68.0906 33.3061C68.3054 33.8719 68.2911 34.5021 68.0404 35.0607C67.7898 35.6121 67.3314 36.0489 66.7657 36.2638C66.1928 36.4786 65.5626 36.4643 65.0112 36.2136C54.1832 31.3654 42.6025 28.4077 30.7794 27.4696C29.519 27.3694 28.5813 26.2664 28.6745 25.0059ZM99.0574 36.4141C99.3796 36.4141 99.6948 36.3425 99.9884 36.2136C110.816 31.3654 122.397 28.4077 134.22 27.4696C135.48 27.3693 136.426 26.2665 136.318 25.006C136.218 23.7456 135.115 22.8003 133.855 22.9077C121.508 23.8745 109.42 26.961 98.1197 32.0314C97.1314 32.4683 96.5871 33.5425 96.8163 34.6023C97.0383 35.655 97.9759 36.4141 99.0574 36.4141ZM99.0574 58.6651C99.3796 58.6651 99.6948 58.6007 99.9884 58.4646C110.816 53.6164 122.397 50.6515 134.22 49.7206C135.48 49.6203 136.426 48.5103 136.318 47.2498C136.218 45.9894 135.115 45.0513 133.855 45.1516C121.508 46.1255 109.42 49.2193 98.1197 54.2824C97.1314 54.7264 96.5871 55.7935 96.8163 56.8533C97.0383 57.9132 97.9759 58.6651 99.0574 58.6651ZM30.7809 49.7205C42.6044 50.6515 54.1851 53.6092 65.0127 58.4574C66.1657 58.973 67.5192 58.4502 68.0347 57.2973C68.5502 56.1443 68.0347 54.7907 66.8817 54.2752C55.581 49.2121 43.4922 46.1256 31.1467 45.1515C29.8863 45.0513 28.7762 45.9894 28.6759 47.2498C28.5756 48.5101 29.5138 49.6202 30.7741 49.7205L30.7809 49.7205ZM30.7809 71.9715C42.6044 72.9025 54.1851 75.8602 65.0127 80.7084C66.1657 81.224 67.5192 80.7084 68.0347 79.5554C68.5503 78.4024 68.0347 77.0489 66.8817 76.5262C55.581 71.4631 43.4922 68.3837 31.1467 67.4097C29.8863 67.3094 28.7762 68.2475 28.6759 69.515C28.5757 70.7754 29.5138 71.8784 30.7741 71.9786L30.7809 71.9715ZM99.0574 80.9089C99.3796 80.9089 99.6948 80.8445 99.9884 80.7084C110.816 75.8602 122.397 72.9025 134.22 71.9716C135.48 71.8713 136.426 70.7684 136.318 69.5079C136.218 68.2404 135.115 67.3023 133.855 67.4026C121.508 68.3837 109.42 71.4703 98.1197 76.5334C97.1314 76.9774 96.5871 78.0516 96.8163 79.1043C97.0383 80.1641 97.9764 80.9161 99.0579 80.9161L99.0574 80.9089ZM30.7809 94.2291C42.6044 95.1672 54.1851 98.1249 65.0127 102.973C66.1657 103.489 67.5192 102.966 68.0347 101.813C68.5502 100.66 68.0347 99.3065 66.8817 98.7909C55.581 93.7279 43.4922 90.6413 31.1467 89.6672C29.8863 89.5598 28.7762 90.5051 28.6759 91.7655C28.5756 93.0258 29.5138 94.1288 30.7741 94.2291L30.7809 94.2291ZM133.856 89.6673C121.509 90.6412 109.421 93.7277 98.1206 98.791C97.562 99.0344 97.1323 99.4928 96.9103 100.066C96.6954 100.631 96.7097 101.262 96.9604 101.82C97.2111 102.372 97.6694 102.808 98.2351 103.023C98.808 103.238 99.4382 103.224 99.9897 102.973C110.818 98.125 122.398 95.1673 134.221 94.2292C135.482 94.1289 136.427 93.0261 136.32 91.7656C136.219 90.5052 135.116 89.5598 133.856 89.6673ZM165 12.8037V125.252C165 125.882 164.742 126.484 164.284 126.914C163.826 127.35 163.21 127.572 162.579 127.537C135.861 126.054 109.069 128.439 83.0299 134.626H83.0085L82.8796 134.655H82.8151L82.765 134.662H82.7578C82.5859 134.684 82.4141 134.684 82.2422 134.662L82.1921 134.655H82.1276L81.9987 134.626H81.9701C55.9314 128.439 29.1412 126.054 2.42055 127.544C1.79035 127.58 1.17446 127.35 0.71613 126.921C0.257801 126.484 0 125.882 0 125.252V12.8037C0 11.6078 0.923827 10.6124 2.11968 10.5192C5.45687 10.2614 8.83714 10.154 12.2029 10.154V2.9067C12.2029 1.71076 13.1268 0.715339 14.3155 0.622206C38.3851 -1.17531 62.3686 5.06232 82.4984 18.3682C102.636 5.06232 126.619 -1.18233 150.681 0.622206C151.877 0.715304 152.801 1.71074 152.801 2.9067V10.1468C156.16 10.1468 159.54 10.2614 162.884 10.5121V10.5192C164.08 10.6123 164.997 11.6078 164.997 12.8037L165 12.8037ZM84.7923 22.357V128.167C103.749 116.308 125.899 110.571 148.229 111.732V5.05449C125.771 3.82989 103.52 9.90325 84.7923 22.357ZM16.7726 111.731C18.6776 111.631 20.5752 111.581 22.4731 111.581H22.4802C42.8979 111.595 62.8994 117.339 80.2078 128.167V22.3567C61.4804 9.90301 39.2294 3.83106 16.7713 5.0548L16.7726 111.731ZM69.2733 127.272C52.3868 118.785 33.5089 115.047 14.6679 116.458C14.0305 116.508 13.4003 116.293 12.9349 115.856C12.4694 115.42 12.2044 114.811 12.2044 114.173V14.7379C9.66928 14.7379 7.11986 14.8024 4.5919 14.9456V122.846C26.2471 121.829 47.9536 123.311 69.2733 127.272ZM160.417 14.9441C157.889 14.7938 155.339 14.7293 152.804 14.7365V114.172C152.804 114.816 152.539 115.425 152.067 115.855C151.601 116.292 150.971 116.507 150.334 116.456C131.493 115.046 112.615 118.784 95.7282 127.27C117.048 123.31 138.754 121.827 160.417 122.844L160.417 14.9441Z" fill="#1A305D"/>
</svg>
