<svg width="123" height="134" viewBox="0 0 123 134" fill="none" xmlns="http://www.w3.org/2000/svg">
<path d="M59.5304 0.00191517C77.9318 -0.148831 93.6717 8.60117 101.76 25.6575C108.507 39.9423 106.873 58.4215 96.9002 70.8304C90.3872 78.9342 85.1818 83.8561 83.9414 94.9074C83.5605 98.3025 84.1203 100.254 80.5059 101.918L80.5118 112.721C80.5235 118.392 81.1297 123.76 73.9068 123.851C73.7883 132.013 72.7435 134.032 63.9043 133.986L57.0555 134C49.8204 133.986 48.946 130.064 48.9735 123.851C41.7506 124.689 42.4645 117.711 42.4709 113.113L42.4695 101.918C39.0039 99.6619 39.9211 97.8804 39.3049 94.3777C37.3168 83.0731 33.6353 80.0326 27.1515 72.1916C6.52446 46.8438 19.7087 7.96984 52.4085 0.946438C54.7329 0.446952 57.1497 0.245358 59.5304 0.00191517ZM51.0351 76.655C48.0734 73.8871 44.9165 70.5712 42.0012 67.6854L38.9146 64.6228C34.1396 59.956 36.9409 57.4171 41.9494 62.2653L46.6333 66.875C47.7547 67.9905 54.7955 74.4986 54.8789 75.5845C55.0489 77.7948 54.9754 80.33 54.9736 82.5372L54.9641 97.9925H59.5304H63.4261H68.1519C68.1528 95.5094 67.927 76.0776 68.2556 75.2038C68.7113 73.9906 70.2564 72.7428 71.1538 71.8478L79.4422 63.5883C80.7164 62.3188 82.0014 60.9518 83.3698 59.7913C85.1966 58.242 87.7653 60.684 86.0476 62.4615C84.9609 63.6594 83.7759 64.7425 82.6311 65.889L77.0389 71.4918C75.5029 73.0101 73.3898 75.0526 71.9903 76.655V97.9925H79.5463C81.0044 81.6183 85.715 79.2231 94.0899 68.0139C106.868 50.7303 103.378 25.7668 86.3271 12.6083C49.8709 -15.5252 3.59564 29.7924 27.3859 65.7963C31.1247 71.454 36.6312 75.5881 39.4767 82.004C42.2838 87.9065 42.9599 91.6558 43.8181 97.9925C46.0257 98.0708 48.7901 97.9956 51.0351 97.9925V76.655ZM46.4188 105.654H76.64V101.918H46.4188V105.654ZM48.9735 109.61H46.4188C46.4341 110.641 46.4458 111.621 46.4188 112.655H74.4702H76.64C76.6603 111.618 76.6599 110.647 76.64 109.61H48.9735ZM52.8335 123.851C52.7794 127.65 52.4121 130.139 57.1037 130.162L63.166 130.169C65.0717 130.167 67.6097 130.462 69.1737 129.312C70.4322 127.745 70.1505 125.771 69.9558 123.851H52.8335ZM76.1113 119.595C76.7987 118.475 76.6878 117.929 76.64 116.621L56.1793 116.618C53.4429 116.617 49.0618 116.473 46.4188 116.621C46.3417 121.218 48.3046 120.033 52.5847 120.035L69.6903 120.033C70.9154 120.032 75.3415 120.238 76.1113 119.595Z" fill="#1A305D"/>
<path d="M56.9335 38.2287C56.7672 43.2879 52.5078 42.0721 48.8917 42.1423C44.672 42.1436 45.4589 36.4864 45.5446 33.7433C45.6915 29.0418 56.2683 27.8732 56.9335 34.1104H66.1117C66.5462 31.3372 67.8614 30.0354 70.7605 30.1366C78.787 30.416 77.3001 30.6104 77.8581 37.6307C78.344 44.2239 66.3623 43.6862 66.1257 38.5613L66.1153 38.3547C66.114 38.3129 66.1131 38.271 66.1117 38.2287C65.2129 38.154 64.3241 38.0973 63.4258 38.2287V49.9428H74.47C74.4695 44.0354 85.8085 44.4381 86.3259 49.3389C87.1471 57.1174 85.1117 58.5776 77.5525 57.8347C75.2182 57.6056 74.5295 55.8786 74.47 53.8136C70.8065 53.7749 67.0929 53.8091 63.4258 53.8136V97.9929H59.5302V53.8136H49.3253C49.2482 58.83 45.275 57.7595 41.4136 57.8374C36.6166 57.9341 37.6789 52.3228 37.6537 49.1859C37.6185 44.8336 50.3187 43.8468 49.3253 49.9428H59.5302V38.2287C58.4602 38.1171 58.0279 38.0924 56.9335 38.2287ZM69.9555 38.2287H73.3689C74.388 38.1639 73.9197 35.0973 73.9066 34.1104C72.6612 34.0317 71.8585 34.0483 70.6109 34.1104C69.3569 34.2022 69.9731 37.0016 69.9555 38.2287ZM49.3253 34.1104V38.2287H53.133C53.1281 36.9764 53.074 35.3254 53.133 34.1104C51.8336 34.0263 50.6256 34.0236 49.3253 34.1104ZM82.373 49.9428C80.6616 49.7794 80.0707 49.7448 78.3882 49.9428V53.8136C79.9824 53.9306 80.7716 53.945 82.373 53.8136V49.9428ZM45.536 53.8136C45.6095 52.4677 45.6144 51.2905 45.536 49.9428H41.4822V53.8136H45.536Z" fill="#1A305D"/>
<path d="M68.152 97.9927C68.1529 95.5097 67.9271 76.0779 68.2556 75.204C68.7113 73.9908 70.2564 72.743 71.1538 71.848L79.4422 63.5885C80.7165 62.3191 82.0015 60.952 83.3699 59.7915C85.1967 58.2422 87.7654 60.6843 86.0477 62.4617C84.961 63.6596 83.776 64.7427 82.6311 65.8893L77.039 71.4921C75.5029 73.0103 73.3899 75.0528 71.9904 76.6552V97.9927C70.887 97.9018 69.2923 97.9738 68.152 97.9927Z" fill="#1A305D"/>
<path d="M51.0355 76.6545C48.0738 73.8867 44.9169 70.5707 42.0016 67.6849L38.915 64.6223C34.14 59.9555 36.9413 57.4167 41.9498 62.2649L46.6337 66.8745C47.7551 67.99 54.7959 74.4982 54.8793 75.584C55.0492 77.7944 54.9758 80.3296 54.974 82.5368L54.9645 97.992H51.0355V76.6545Z" fill="#1A305D"/>
<path d="M108.606 59.6375C109.91 59.4602 123.031 63.4817 117.598 66.7819C117.05 66.9093 103.149 63.7778 108.606 59.6375Z" fill="#1A305D"/>
<path d="M5.51875 23.6582C7.11612 23.5542 19.6549 27.7148 13.5426 30.8922C12.4379 31.0213 -0.805858 26.647 5.51875 23.6582Z" fill="#1A305D"/>
<path d="M118.839 43.4636C120.444 43.2189 122.753 43.0105 122.99 45.2892C123.285 48.1201 116.881 47.5054 114.937 47.5653C113.973 47.6134 113.385 47.6431 112.432 47.5653C110.406 46.1586 110.665 43.6207 113.125 43.4375C114.596 43.3278 117.358 43.33 118.839 43.4636Z" fill="#1A305D"/>
<path d="M116.693 23.6584C118.291 23.5707 119.412 24.8981 118.845 26.4474C118.349 27.8001 111.582 30.3295 110.103 30.8924C107.364 30.7282 107.063 27.5657 109.398 26.6607C111.575 25.8179 114.514 24.2069 116.693 23.6584Z" fill="#1A305D"/>
<path d="M2.39051 43.4635C4.11724 43.454 9.96272 43.0999 11.2103 43.8874C13.0592 45.0546 11.8909 47.3658 9.72879 47.5651C7.66356 47.5638 2.3247 47.9993 0.791777 46.8654C-1.03322 45.5159 0.634472 43.6196 2.39051 43.4635Z" fill="#1A305D"/>
<path d="M12.7152 59.6376C14.3162 59.1957 14.8787 60.0371 15.2262 61.4519C14.62 64.105 9.3208 65.4977 6.70928 66.782C6.26081 66.8018 5.52657 66.7433 5.21782 66.4639C1.66204 63.2447 10.165 60.2027 12.7152 59.6376Z" fill="#1A305D"/>
</svg>
