<svg width="238" height="175" viewBox="0 0 238 175" fill="none" xmlns="http://www.w3.org/2000/svg">
<path d="M225.969 139.946C226 139.812 226.052 139.678 226.052 139.523C226.052 139.42 226 139.338 226 139.234C226.742 122.139 236.284 108.929 236.923 108.054C237.479 107.291 237.582 106.281 237.16 105.447C236.737 104.602 235.872 104.076 234.913 104.076H218.818C199.723 79.4378 218.766 53.0892 219.58 51.976C220.137 51.2134 220.24 50.2036 219.817 49.3689C219.405 48.493 218.529 47.9366 217.581 47.9366H204.422C188.46 27.1522 204.504 4.93491 205.184 3.98787C205.741 3.22534 205.844 2.21547 205.422 1.38081C204.999 0.535841 204.133 0.0103046 203.175 0.0103046L58.1893 0C43.5981 0 31.7066 11.8709 31.7066 26.4826C31.7066 35.561 36.2922 43.5472 43.2581 48.3283C28.5946 50.5747 17.3009 63.2286 17.3009 78.5094C17.3009 89.3499 22.9995 98.8505 31.5212 104.281C13.818 106.239 0 121.294 0 139.522C0 159.101 15.9102 175 35.4782 175H234.914C235.893 175 236.759 174.444 237.181 173.578C237.604 172.712 237.47 171.682 236.862 170.909C228.289 160.388 225.701 149.58 225.969 139.946ZM36.747 26.4914C36.747 14.6514 46.3714 5.01668 58.2218 5.01668H198.726C197.51 7.23216 196.057 10.3235 194.851 13.961H67.4552C66.0538 13.961 64.9512 15.0945 64.9512 16.465C64.9512 17.8355 66.0641 18.969 67.4552 18.969H193.45C192.42 23.6678 192.028 28.9646 193.028 34.5289H67.4548C66.0534 34.5289 64.9508 35.6624 64.9508 37.0329C64.9508 38.4034 66.0637 39.5369 67.4548 39.5369H194.315C195.242 42.3295 196.5 45.1323 198.272 47.9558H58.1902C46.3707 47.9352 36.747 38.3109 36.747 26.4914ZM22.3413 78.5097C22.3413 64.4234 33.7896 52.9748 47.8761 52.9748H213.069C211.564 55.6643 209.637 59.5698 208.112 64.2894H58.7264C57.325 64.2894 56.2224 65.4229 56.2224 66.7934C56.2224 68.1639 57.3353 69.2974 58.7264 69.2974H64.9504V89.1646C64.9504 90.1641 65.5275 91.0606 66.424 91.4625C67.3205 91.8541 68.3716 91.6995 69.1134 91.04L76.9242 84.0224L84.735 91.04C85.209 91.4625 85.817 91.6685 86.4249 91.6685C86.765 91.6685 87.1153 91.5861 87.4554 91.4625C88.3519 91.0709 88.9289 90.1744 88.9289 89.1646V69.2974H206.741C204.474 79.293 204.556 91.8025 212.646 104.066L47.9065 104.076C33.8203 104.045 22.3413 92.5959 22.3413 78.5097ZM69.9594 69.2767H83.912V83.5176L78.6051 78.7465C78.1311 78.3241 77.5231 78.118 76.9152 78.118C76.3072 78.118 75.7302 78.3241 75.2252 78.7465L69.9184 83.5176L69.939 69.2767H69.9594ZM35.4811 169.995C18.6743 169.995 5.0098 156.331 5.0098 139.523C5.0098 122.716 18.6737 109.052 35.4811 109.052H230.351C229.001 111.371 227.322 114.648 225.735 118.605C225.446 118.471 225.127 118.419 224.787 118.419H48.2268C46.8254 118.419 45.7228 119.553 45.7228 120.923C45.7228 122.294 46.8357 123.427 48.2268 123.427H224.024C222.736 127.518 221.706 132.104 221.283 137.008L48.2265 137.019C46.8251 137.019 45.7225 138.152 45.7225 139.523C45.7225 140.893 46.8354 142.027 48.2265 142.027H221.096C221.147 146.612 221.786 151.445 223.311 156.35L48.2261 156.361C46.8247 156.361 45.7221 157.494 45.7221 158.865C45.7221 160.235 46.835 161.369 48.2261 161.369H224.786C224.92 161.369 225.023 161.317 225.126 161.286C226.362 164.192 227.949 167.088 229.897 169.994L35.4811 169.995Z" fill="#1A305D"/>
</svg>
