<svg width="175" height="175" viewBox="0 0 175 175" fill="none" xmlns="http://www.w3.org/2000/svg">
<path d="M104.785 167.278L18.5012 167.682C18.0222 167.684 17.5483 167.78 17.1065 167.965C16.6646 168.149 16.2635 168.419 15.9261 168.759C15.5886 169.099 15.3214 169.503 15.1397 169.946C14.958 170.389 14.8654 170.863 14.8672 171.342C14.869 171.821 14.9651 172.295 15.15 172.737C15.3349 173.179 15.6051 173.58 15.9451 173.917C16.285 174.255 16.6881 174.522 17.1313 174.703C17.5745 174.885 18.0491 174.978 18.5281 174.976L104.839 174.572C105.318 174.568 105.791 174.47 106.233 174.284C106.674 174.097 107.074 173.826 107.41 173.485C107.746 173.144 108.012 172.74 108.192 172.296C108.372 171.852 108.462 171.377 108.459 170.898C108.455 170.419 108.358 169.946 108.171 169.505C107.984 169.064 107.713 168.664 107.372 168.328C107.031 167.991 106.627 167.726 106.183 167.546C105.739 167.366 105.264 167.275 104.785 167.278Z" fill="#1A305D"/>
<path d="M45.5774 28.124C44.6102 28.124 43.6827 28.5083 42.9988 29.1921C42.3149 29.876 41.9307 30.8036 41.9307 31.7708C41.9307 32.7379 42.3149 33.6655 42.9988 34.3494C43.6827 35.0333 44.6102 35.4175 45.5774 35.4175H92.0029C92.97 35.4175 93.8976 35.0333 94.5815 34.3494C95.2654 33.6655 95.6496 32.7379 95.6496 31.7708C95.6496 30.8036 95.2654 29.876 94.5815 29.1921C93.8976 28.5083 92.97 28.124 92.0029 28.124H45.5774Z" fill="#1A305D"/>
<path d="M45.6024 28.124C33.8805 28.1202 24.2007 37.4633 24.1791 49.0059L24.2599 48.2259C24.2039 48.4547 24.1961 48.7565 24.1523 49.0059V49.0334C24.1522 49.061 24.1521 49.0747 24.1523 49.1161C24.0747 49.5873 23.9639 50.031 23.9639 50.5692V155.813C23.9665 157.914 25.7416 159.578 27.8394 159.446C27.8394 159.446 30.6506 159.257 34.1372 159.257H86.8612C88.8069 167.736 95.5302 174.565 104.705 174.568C115.319 174.569 124.11 166.097 124.11 155.624C124.154 152.208 123.906 151.004 123.814 149.3V72.527C124.237 67.2773 116.124 70.5824 116.547 72.527V149.3C116.546 149.355 116.546 149.41 116.547 149.461C116.656 151.728 116.862 152.34 116.816 155.57C116.816 155.584 116.816 155.611 116.816 155.625C116.816 162.038 111.496 167.277 104.705 167.277C97.9155 167.275 92.5935 162.036 92.5938 155.625C92.5873 153.621 90.9644 151.999 88.9604 151.992H34.1372C32.5442 151.992 32.4105 152.034 31.2575 152.075V50.5717C31.2575 50.4229 31.274 50.241 31.3382 49.9793C31.4104 49.6886 31.4467 49.3896 31.4459 49.0906C31.4459 49.1026 31.4458 49.0631 31.4459 49.0355C31.4461 41.5356 37.664 35.4166 45.5755 35.4191C50.4379 35.4328 50.4648 28.1419 45.6024 28.124Z" fill="#1A305D"/>
<path d="M40.141 151.99C39.8032 151.997 39.4681 152.052 39.1452 152.151C38.3987 152.179 37.1694 152.193 35.5927 152.207C32.3436 152.234 27.7547 152.206 23.078 152.179C13.7245 152.124 4.05024 152.018 4.05024 152.018C3.18165 152.009 2.3384 152.31 1.6723 152.868C1.00621 153.425 0.561037 154.202 0.41694 155.059C-0.430782 160.16 0.0212034 164.292 1.70878 167.493C3.39635 170.694 6.2474 172.632 9.0292 173.629C11.811 174.627 14.5999 174.86 16.9417 174.92C19.2835 174.975 21.3783 174.893 21.8938 174.948C22.3877 175.032 22.8936 175.013 23.38 174.893C23.8664 174.773 24.3228 174.554 24.7208 174.249C25.1187 173.945 25.4497 173.562 25.693 173.124C25.9363 172.686 26.0868 172.203 26.135 171.704C26.1832 171.205 26.1281 170.702 25.9732 170.225C25.8182 169.749 25.5668 169.31 25.2345 168.935C24.9022 168.56 24.4961 168.257 24.0418 168.046C23.5874 167.835 23.0944 167.72 22.5935 167.708C20.8229 167.533 19.1111 167.681 17.1301 167.625C15.1492 167.57 13.09 167.332 11.5052 166.764C9.92049 166.196 8.89788 165.484 8.16797 164.1C7.72397 163.258 7.87718 161.068 7.81809 159.336C10.6144 159.364 15.538 159.433 23.0241 159.474C27.7146 159.501 32.3345 159.529 35.6465 159.501C37.3025 159.491 38.6154 159.46 39.522 159.419C39.9753 159.405 40.2437 159.411 40.76 159.336C40.8891 159.322 41.0038 159.308 41.3521 159.198C41.4392 159.171 41.6984 159.088 41.702 159.088C41.7055 159.087 42.2109 158.821 42.2133 158.819C42.2157 158.818 43.1271 158.067 43.1284 158.066C43.1296 158.064 43.9895 155.887 43.9896 155.886C43.9897 155.884 43.3179 153.546 43.3168 153.544C43.3157 153.543 42.3771 152.658 42.3748 152.655C42.3725 152.654 41.84 152.361 41.8365 152.359C41.833 152.358 41.6031 152.249 41.5136 152.221C41.1557 152.097 41.0001 152.084 40.8677 152.06C40.6288 152.008 40.3854 151.993 40.141 151.99Z" fill="#1A305D"/>
<path d="M43.6683 78.4775C42.7011 78.4775 41.7735 78.8618 41.0896 79.5457C40.4057 80.2296 40.0215 81.1571 40.0215 82.1243C40.0215 83.0914 40.4057 84.019 41.0896 84.7029C41.7735 85.3868 42.7011 85.771 43.6683 85.771H97.6295C98.5967 85.771 99.5242 85.3868 100.208 84.7029C100.892 84.019 101.276 83.0914 101.276 82.1243C101.276 81.1571 100.892 80.2296 100.208 79.5457C99.5242 78.8618 98.5967 78.4775 97.6295 78.4775H43.6683Z" fill="#1A305D"/>
<path d="M43.2901 126.906C42.3682 127.011 41.521 127.464 40.9213 128.172C40.3216 128.88 40.0145 129.79 40.0625 130.717C40.1106 131.643 40.5102 132.517 41.1799 133.159C41.8496 133.801 42.7391 134.164 43.6669 134.173H105.325C105.827 134.213 106.332 134.149 106.808 133.985C107.283 133.821 107.72 133.56 108.09 133.219C108.46 132.877 108.755 132.463 108.957 132.002C109.159 131.541 109.263 131.043 109.263 130.54C109.263 130.036 109.159 129.538 108.957 129.077C108.755 128.616 108.46 128.202 108.09 127.86C107.72 127.519 107.283 127.258 106.808 127.094C106.332 126.93 105.827 126.866 105.325 126.906H43.6669C43.5414 126.9 43.4156 126.9 43.2901 126.906Z" fill="#1A305D"/>
<path d="M43.6683 54.2559C42.7011 54.2559 41.7735 54.6401 41.0896 55.324C40.4057 56.0079 40.0215 56.9354 40.0215 57.9026C40.0215 58.8698 40.4057 59.7973 41.0896 60.4812C41.7735 61.1651 42.7011 61.5493 43.6683 61.5493H86.5412C87.5084 61.5493 88.436 61.1651 89.1199 60.4812C89.8038 59.7973 90.188 58.8698 90.188 57.9026C90.188 56.9354 89.8038 56.0079 89.1199 55.324C88.436 54.6401 87.5084 54.2559 86.5412 54.2559H43.6683Z" fill="#1A305D"/>
<path d="M43.2948 102.69C42.3277 102.74 41.4201 103.173 40.7717 103.892C40.1232 104.611 39.7869 105.558 39.8369 106.526C39.8869 107.493 40.3189 108.4 41.0381 109.049C41.7572 109.697 42.7045 110.034 43.6716 109.984H105.33C106.297 109.984 107.225 109.6 107.909 108.916C108.593 108.232 108.977 107.304 108.977 106.337C108.977 105.37 108.593 104.442 107.909 103.759C107.225 103.075 106.297 102.69 105.33 102.69H43.6716C43.5461 102.684 43.4204 102.684 43.2948 102.69Z" fill="#1A305D"/>
<path d="M130.812 0.0557375C130.349 0.146893 129.915 0.340363 129.544 0.620913C129.173 0.901463 128.874 1.26128 128.671 1.67221L116.907 24.7378L90.5128 28.4955C89.9529 28.5798 89.4285 28.8132 88.9986 29.1692C88.5687 29.5252 88.2504 29.9899 88.0794 30.5109C87.9084 31.0318 87.8916 31.5884 88.0308 32.1181C88.17 32.6478 88.4598 33.1294 88.8674 33.509L107.993 51.4087L103.504 76.7819C103.408 77.3231 103.471 77.8793 103.687 78.3874C103.903 78.8956 104.262 79.3353 104.723 79.6565C105.185 79.9778 105.731 80.1679 106.299 80.2051C106.867 80.2423 107.434 80.1251 107.937 79.867L131.537 67.8312L155.143 79.7604C155.646 80.0197 156.215 80.1373 156.784 80.1C157.354 80.0626 157.901 79.8717 158.363 79.5491C158.825 79.2265 159.184 78.7852 159.399 78.2754C159.614 77.7655 159.675 77.2077 159.577 76.6656L155.014 51.3442L174.078 33.3519C174.485 32.9682 174.773 32.4819 174.908 31.9484C175.043 31.415 175.021 30.8557 174.843 30.334C174.665 29.8124 174.339 29.3492 173.902 28.9972C173.465 28.6453 172.934 28.4186 172.37 28.3429L145.97 24.6993L134.149 1.66863C133.857 1.08084 133.371 0.603209 132.766 0.311202C132.162 0.0191949 131.475 -0.0705959 130.812 0.0557375ZM131.414 9.55691L141.23 28.6665C141.448 29.0946 141.771 29.4651 142.17 29.746C142.57 30.0268 143.035 30.2094 143.524 30.2783L165.394 33.3191L149.61 48.2193C149.259 48.5496 148.996 48.9568 148.844 49.406C148.691 49.8552 148.654 50.3332 148.734 50.7996L152.508 71.8L132.926 61.9282C132.487 61.7114 132 61.6006 131.507 61.6054C131.014 61.6102 130.529 61.7304 130.095 61.9557L110.556 71.9154L114.233 50.8812C114.316 50.4128 114.279 49.9322 114.127 49.4804C113.974 49.0287 113.71 48.6194 113.358 48.2876L97.5092 33.4402L119.382 30.3366C119.871 30.266 120.335 30.0815 120.734 29.7989C121.133 29.5164 121.454 29.1444 121.671 28.7151L131.414 9.55691Z" fill="#1A305D"/>
<path d="M131.457 32.7549C124.792 32.7549 119.292 38.2057 119.292 44.8658C119.292 51.526 124.792 56.9767 131.457 56.9767C138.122 56.9767 143.649 51.526 143.649 44.8658C143.648 38.2057 138.122 32.7549 131.457 32.7549ZM131.457 40.0483C134.206 40.0483 136.355 42.1715 136.355 44.8658C136.355 47.5601 134.206 49.6832 131.457 49.6832C128.708 49.6832 126.585 47.5601 126.586 44.8658C126.586 42.1715 128.708 40.0483 131.457 40.0483Z" fill="#1A305D"/>
</svg>
