<svg width="215" height="175" viewBox="0 0 215 175" fill="none" xmlns="http://www.w3.org/2000/svg">
<path d="M37.3466 32.1552C37.4865 30.5136 38.9229 29.2918 40.5646 29.4224C56.6448 30.6909 72.3888 34.7108 87.1071 41.3054C87.8346 41.6225 88.3942 42.2194 88.6834 42.9656C88.9632 43.7025 88.9445 44.5233 88.6181 45.2508C88.2916 45.969 87.6947 46.5379 86.9578 46.8178C86.2116 47.0976 85.3909 47.0789 84.6727 46.7525C70.57 40.438 55.4869 36.5858 40.0881 35.364C38.4466 35.2334 37.2253 33.7969 37.3466 32.1552ZM129.016 47.0136C129.435 47.0136 129.846 46.9203 130.228 46.7524C144.331 40.4379 159.414 36.5858 174.813 35.3639C176.454 35.2333 177.685 33.797 177.545 32.1552C177.415 30.5136 175.978 29.2825 174.337 29.4224C158.257 30.6816 142.513 34.7016 127.794 41.3054C126.507 41.8744 125.798 43.2735 126.097 44.6538C126.386 46.0249 127.607 47.0136 129.016 47.0136ZM129.016 75.994C129.435 75.994 129.846 75.9101 130.228 75.7328C144.331 69.4184 159.414 65.5568 174.813 64.3443C176.454 64.2138 177.685 62.768 177.545 61.1263C177.415 59.4847 175.978 58.2629 174.337 58.3935C158.257 59.662 142.513 63.6915 127.794 70.2858C126.507 70.8641 125.798 72.2539 126.097 73.6342C126.386 75.0146 127.607 75.994 129.016 75.994ZM40.0901 64.3443C55.4893 65.5568 70.5724 69.409 84.6746 75.7235C86.1763 76.395 87.9392 75.7141 88.6106 74.2125C89.2821 72.7108 88.6106 70.9479 87.1089 70.2765C72.3905 63.6821 56.6457 59.6621 40.5664 58.3935C38.9249 58.2629 37.4791 59.4847 37.3484 61.1263C37.2178 62.7678 38.4397 64.2137 40.0813 64.3443L40.0901 64.3443ZM40.0901 93.3247C55.4893 94.5372 70.5724 98.3894 84.6746 104.704C86.1763 105.375 87.9392 104.704 88.6106 103.202C89.2822 101.7 88.6106 99.9376 87.1089 99.2569C72.3905 92.6626 56.6457 88.6518 40.5664 87.3832C38.9249 87.2526 37.4791 88.4745 37.3484 90.1253C37.2179 91.7669 38.4397 93.2034 40.0813 93.334L40.0901 93.3247ZM129.016 104.965C129.435 104.965 129.846 104.881 130.228 104.704C144.331 98.3895 159.414 94.5373 174.813 93.3248C176.454 93.1942 177.685 91.7578 177.545 90.1161C177.415 88.4651 175.978 87.2433 174.337 87.3739C158.257 88.6518 142.513 92.6719 127.794 99.2662C126.507 99.8445 125.798 101.244 126.097 102.615C126.386 103.995 127.608 104.974 129.016 104.974L129.016 104.965ZM40.0901 122.314C55.4893 123.536 70.5724 127.388 84.6746 133.702C86.1763 134.374 87.9392 133.693 88.6106 132.191C89.2821 130.69 88.6106 128.927 87.1089 128.255C72.3905 121.661 56.6457 117.641 40.5664 116.372C38.9249 116.232 37.4791 117.463 37.3484 119.105C37.2178 120.747 38.4397 122.183 40.0813 122.314L40.0901 122.314ZM174.338 116.372C158.258 117.641 142.514 121.661 127.795 128.255C127.068 128.572 126.508 129.169 126.219 129.915C125.939 130.652 125.958 131.473 126.284 132.201C126.611 132.919 127.208 133.488 127.945 133.768C128.691 134.047 129.512 134.029 130.23 133.702C144.332 127.388 159.416 123.536 174.814 122.314C176.456 122.183 177.687 120.747 177.547 119.105C177.417 117.464 175.98 116.232 174.338 116.372ZM214.901 16.2626V162.719C214.901 163.54 214.566 164.323 213.969 164.883C213.372 165.452 212.57 165.741 211.749 165.695C176.949 163.764 142.054 166.87 108.141 174.929H108.113L107.945 174.966H107.861L107.796 174.975H107.786C107.563 175.003 107.339 175.003 107.115 174.975L107.05 174.966H106.966L106.798 174.929H106.76C72.8469 166.87 37.9544 163.764 3.1526 165.704C2.3318 165.75 1.52966 165.452 0.932712 164.892C0.335768 164.323 0 163.54 0 162.719V16.2626C0 14.705 1.20322 13.4085 2.76074 13.2872C7.10721 12.9515 11.5098 12.8115 15.8935 12.8115V3.37242C15.8935 1.81478 17.0967 0.518311 18.6449 0.397012C49.994 -1.94413 81.2309 6.17996 107.449 23.5099C133.676 6.17996 164.913 -1.95327 196.252 0.397012C197.81 0.518265 199.013 1.81475 199.013 3.37242V12.8022C203.387 12.8022 207.79 12.9515 212.146 13.2779V13.2872C213.703 13.4085 214.897 14.705 214.897 16.2626L214.901 16.2626ZM110.436 28.7051V166.515C135.126 151.069 163.975 143.598 193.058 145.11V6.16977C163.808 4.5748 134.827 12.4849 110.436 28.7051ZM21.8451 145.109C24.3263 144.978 26.7979 144.913 29.2697 144.913H29.279C55.8716 144.932 81.9222 152.412 104.465 166.515V28.7048C80.0741 12.4846 51.0937 4.57633 21.8435 6.17017L21.8451 145.109ZM90.2238 165.349C68.2303 154.297 43.6431 149.428 19.104 151.265C18.2738 151.331 17.453 151.051 16.8468 150.482C16.2405 149.913 15.8954 149.12 15.8954 148.29V18.7818C12.5936 18.7818 9.27314 18.8657 5.98064 19.0523V159.585C34.185 158.26 62.4564 160.191 90.2238 165.349ZM208.932 19.0504C205.639 18.8545 202.319 18.7706 199.017 18.7799V148.288C199.017 149.127 198.672 149.92 198.057 150.48C197.45 151.049 196.629 151.329 195.799 151.263C171.26 149.426 146.673 154.295 124.68 165.347C152.447 160.189 180.718 158.259 208.932 159.583L208.932 19.0504Z" fill="#1A305D"/>
</svg>
