<svg width="168" height="175" viewBox="0 0 168 175" fill="none" xmlns="http://www.w3.org/2000/svg">
<path d="M117.62 136.774C117.62 135.216 118.885 133.951 120.443 133.951C122.002 133.951 123.266 135.216 123.266 136.774V163.892C123.266 166.943 122.009 169.714 120.002 171.729C117.988 173.75 115.209 175 112.151 175H11.123C8.06492 175 5.28611 173.75 3.27191 171.736C1.25771 169.722 0.00794163 166.943 0.00794163 163.885V62.8796C0.00794163 61.3211 1.27235 60.0567 2.83079 60.0567C4.38923 60.0567 5.65364 61.3211 5.65364 62.8796V163.885C5.65364 165.385 6.27113 166.752 7.26355 167.744C8.25595 168.737 9.62326 169.354 11.1229 169.354H112.151C113.651 169.354 115.018 168.737 116.01 167.744C117.003 166.759 117.62 165.392 117.62 163.885V136.767L117.62 136.774ZM144.959 59.0648L156.485 68.0625L160.815 62.5271C161.638 61.3803 161.955 59.9908 161.793 58.6603C161.631 57.3224 160.984 56.0507 159.911 55.1391L159.565 54.8598L156.86 52.7426C155.684 51.8237 154.221 51.4709 152.824 51.64C151.428 51.809 150.09 52.5074 149.171 53.6835L144.959 59.0648ZM107.622 139.619C107.401 139.899 107.137 140.127 106.85 140.303L82.6355 154.814C81.3049 155.608 79.57 155.175 78.7761 153.844C78.335 153.109 78.2688 152.249 78.5261 151.492L86.6859 124.836C86.7667 124.417 86.9432 124.006 87.2298 123.645C87.3107 123.535 87.4063 123.432 87.5018 123.344L117.612 84.8761V11.1151C117.612 9.61542 116.995 8.24818 116.002 7.25566C115.017 6.26326 113.65 5.64576 112.143 5.64576H11.115C9.61536 5.64576 8.24812 6.26324 7.25561 7.25566C6.26321 8.24807 5.6457 9.61538 5.6457 11.1151V38.7771C5.6457 40.3356 4.38129 41.6 2.82285 41.6C1.26441 41.6 0 40.3356 0 38.7771V11.1151C0 8.05698 1.24969 5.27816 3.26397 3.26397C5.27816 1.24977 8.05698 0 11.1151 0H112.143C115.194 0 117.973 1.25705 119.987 3.26397C122.008 5.27082 123.251 8.04964 123.251 11.1077V77.6573L144.723 50.223C146.612 47.8044 149.31 46.3856 152.126 46.0475C154.941 45.702 157.896 46.4371 160.308 48.3189L163.27 50.6346C165.645 52.5165 167.041 55.1924 167.387 57.9783C167.732 60.7865 166.997 63.7416 165.115 66.1529L107.601 139.628L107.622 139.619ZM153.023 72.4883L141.496 63.498L93.4266 124.91L104.961 133.908L153.03 72.4957L153.023 72.4883ZM100.491 137.553L90.9568 130.114L86.0241 146.228L100.491 137.553ZM21.2388 155.255C19.6877 155.255 18.4306 153.998 18.4306 152.447C18.4306 150.895 19.6877 149.638 21.2388 149.638L74.4401 149.631C75.9912 149.631 77.2483 150.888 77.2483 152.439C77.2483 153.99 75.9912 155.247 74.4401 155.247L21.2388 155.255ZM21.2388 133.613C19.6803 133.613 18.4159 132.348 18.4159 130.79C18.4159 129.232 19.6803 127.967 21.2388 127.967H74.4401C75.9985 127.967 77.2629 129.232 77.2629 130.79C77.2629 132.348 75.9985 133.613 74.4401 133.613H21.2388ZM21.2388 111.963C19.6803 111.963 18.4159 110.699 18.4159 109.141C18.4159 107.582 19.6803 106.318 21.2388 106.318H85.4887C87.0472 106.318 88.3116 107.582 88.3116 109.141C88.3116 110.699 87.0472 111.963 85.4887 111.963H21.2388ZM21.2388 90.3141C19.6803 90.3141 18.4159 89.0497 18.4159 87.4912C18.4159 85.9328 19.6803 84.6684 21.2388 84.6684H96.5449C98.1033 84.6684 99.3677 85.9328 99.3677 87.4912C99.3677 89.0497 98.1033 90.3141 96.5449 90.3141H21.2388ZM21.2388 68.6647C19.6803 68.6647 18.4159 67.4003 18.4159 65.8419C18.4159 64.2834 19.6803 63.019 21.2388 63.019H91.0159C92.5743 63.019 93.8387 64.2834 93.8387 65.8419C93.8387 67.4003 92.5743 68.6647 91.0159 68.6647H21.2388ZM21.2388 47.0153C19.6803 47.0153 18.4159 45.7509 18.4159 44.1925C18.4159 42.634 19.6803 41.3696 21.2388 41.3696H85.4887C87.0472 41.3696 88.3116 42.634 88.3116 44.1925C88.3116 45.7509 87.0472 47.0153 85.4887 47.0153H21.2388ZM21.2388 25.366C19.6803 25.366 18.4159 24.1015 18.4159 22.5431C18.4159 20.9847 19.6803 19.7203 21.2388 19.7203H96.5449C98.1033 19.7203 99.3677 20.9847 99.3677 22.5431C99.3677 24.1015 98.1033 25.366 96.5449 25.366H21.2388ZM5.66907 50.9843C5.66907 52.5427 4.40468 53.8071 2.84622 53.8071C1.28778 53.8071 0.0233726 52.5427 0.0233726 50.9843V50.6608C0.0233726 49.1024 1.28778 47.8379 2.84622 47.8379C4.40468 47.8379 5.66907 49.1024 5.66907 50.6608V50.9843Z" fill="#1A305D"/>
</svg>
