<svg width="134" height="91" viewBox="0 0 134 91" fill="none" xmlns="http://www.w3.org/2000/svg">
<path d="M53.5309 41.0392L53.5296 31.1737C53.53 29.2206 52.7274 24.4727 55.2018 24.3246C56.9925 24.2176 66.6782 23.2595 66.7377 25.6698C66.8467 30.1028 67.1269 36.7752 66.7819 41.0392H69.3408L69.3309 35.6834C69.314 30.2955 69.6876 31.1715 74.8884 31.2223C75.9667 31.2263 77.0871 31.2464 78.1618 31.2223C80.802 31.2214 83.8136 31.146 86.4212 31.2223H89.7777C91.4888 31.2076 95.5372 30.481 95.6475 32.7834C95.7785 35.5179 95.7079 38.2975 95.6962 41.0392C105.172 41.2082 103.716 39.719 107.156 50.1326L129.553 50.1251C136.905 50.1237 133.428 55.7266 131.195 59.677L127.76 65.8441C126.789 67.5622 124.868 71.2592 123.878 72.6802C125.2 72.2436 132.438 70.4426 131.925 73.6285C131.542 75.5861 129.072 75.0366 127.644 75.186C124.258 75.541 121.949 78.0526 118.716 78.9094C107.377 81.9133 104.646 73.8974 96.6937 74.9037C90.2313 75.5455 89.3094 80.0824 80.4445 79.5405C75.9815 79.2675 73.4704 76.7194 69.545 75.248C64.8988 73.5063 60.749 76.4656 56.9965 78.3255C53.2909 80.1435 47.1422 80.2751 43.4318 78.2546C39.8285 76.2921 38.3668 74.868 34.0029 74.9567C27.6071 75.0874 26.0699 79.9606 17.2971 79.627C12.3402 79.4383 8.96714 75.5111 4.12828 75.1267C1.8447 74.9451 -2.19782 73.934 1.48853 71.5893C3.4575 71.5514 9.03506 72.7088 9.25851 72.6802C8.03449 69.1522 7.39053 65.1416 6.47576 61.5119C4.89647 55.2494 4.30122 55.0745 10.8275 55.0759L17.8271 55.0857C17.9187 53.1593 17.4544 43.1221 18.2042 42.2938C18.7012 41.7448 19.6504 41.7617 20.3332 41.7341C20.3216 39.3858 19.5172 34.4756 21.4786 33.2307L27.3899 33.2116C34.4619 33.2049 32.5814 34.129 32.5595 41.7341C35.9782 41.8978 35.0634 44.1435 35.0607 47.0355L35.05 55.0857H40.8841C42.7395 51.485 45.0714 47.9949 47.0412 44.4816C49.2502 40.5423 49.2998 40.9745 53.5309 41.0392ZM130.609 53.5215L102.356 53.5081C98.0991 53.4907 97.629 53.8034 93.5932 55.0638L86.2437 57.318C80.9553 58.9968 79.3497 58.5677 73.7998 58.5637L9.25851 58.5593C10.5875 63.9133 11.9662 69.7285 13.1022 75.1262C20.1853 79.4535 26.1266 72.5273 31.5907 71.885C41.7694 70.5987 44.225 77.3175 51.595 76.4442C58.6062 75.6142 59.415 70.794 67.8679 71.629C74.7552 72.3096 75.8867 76.6761 82.5131 76.3024C89.527 75.9063 90.6035 70.9274 99.6623 71.7003C103.935 72.0652 114.364 78.8813 118.524 75.3439C119.111 73.9438 120.756 71.1526 121.539 69.7535L127.522 59.1917C128.536 57.3876 129.727 55.3751 130.609 53.5215ZM21.1465 55.0857H31.6805V45.1564C28.2207 45.1024 24.6179 45.1555 21.1465 45.1564V55.0857ZM56.8289 41.0392H63.4102V27.6546H56.8289V41.0392ZM23.6889 41.7341H28.8039L29.0877 41.6971C29.32 41.2354 29.211 37.4153 29.2034 36.6058H24.1004L23.7715 36.7039C23.5548 37.2895 23.6933 40.8594 23.6889 41.7341ZM82.7996 34.6232H72.7827V41.0392H82.2347H92.2691V34.6232H82.7996ZM98.7199 44.4512H51.01C49.1054 48.0163 46.3669 51.3721 44.8091 55.0857H49.7239L77.6837 55.0928C81.8325 55.0991 82.0622 54.9715 86.0149 53.7418L93.6263 51.419C97.4856 50.258 99.404 49.6166 103.572 50.1326C102.914 48.2625 102.029 46.2594 101.427 44.4512C100.535 44.4459 99.6092 44.4272 98.7199 44.4512Z" fill="#1A305D"/>
<path d="M103.572 61.5745C107.846 61.5607 112.368 61.4162 116.596 61.7257C117.596 61.7988 118.59 64.1302 116.311 65.0106H103.572C101.861 64.0436 101.503 62.2185 103.572 61.5745Z" fill="#1A305D"/>
<path d="M1.48853 71.5898C3.4575 71.5519 9.03506 72.7093 9.25851 72.6807C9.36308 73.0099 12.5051 75.0103 13.1022 75.1267C20.1853 79.454 26.1266 72.5278 31.5907 71.8855C41.7694 70.5992 44.225 77.318 51.595 76.4447C58.6062 75.6147 59.415 70.7945 67.8679 71.6295C74.7552 72.3101 75.8867 76.6766 82.5131 76.3029C89.527 75.9068 90.6035 70.9279 99.6623 71.7008C103.935 72.0657 114.364 78.8818 118.524 75.3444C119.675 75.2462 122.656 73.3516 123.878 72.6807C125.2 72.2441 132.438 70.4431 131.925 73.629C131.542 75.5866 129.072 75.0371 127.644 75.1865C124.258 75.5415 121.949 78.053 118.716 78.9098C107.377 81.9138 104.646 73.8979 96.6937 74.9042C90.2313 75.546 89.3094 80.0829 80.4445 79.541C75.9815 79.268 73.4704 76.7199 69.545 75.2485C64.8987 73.5068 60.749 76.4661 56.9965 78.326C53.2909 80.144 47.1422 80.2756 43.4318 78.2551C39.8285 76.2926 38.3668 74.8685 34.0029 74.9572C27.6071 75.0879 26.0699 79.9611 17.2971 79.6275C12.3402 79.4388 8.96714 75.5116 4.12828 75.1272C1.8447 74.9456 -2.19782 73.9345 1.48853 71.5898Z" fill="#1A305D"/>
<path d="M21.4784 33.2311L27.3897 33.2119C34.4617 33.2053 32.5812 34.1294 32.5593 41.7345C35.978 41.8982 35.0632 44.1439 35.0605 47.0359L35.0498 55.0861C33.9272 55.099 32.8029 55.0905 31.6803 55.0861V45.1568C28.2205 45.1028 24.6177 45.1559 21.1463 45.1568V55.0861C19.8812 55.1579 19.0822 55.1494 17.8269 55.0861C17.9185 53.1597 17.4542 43.1225 18.204 42.2942C18.701 41.7452 19.6502 41.7621 20.333 41.7345C20.3214 39.3862 19.517 34.476 21.4784 33.2311ZM23.6886 41.7345H28.8037L29.0875 41.6975C29.3198 41.2358 29.2108 37.4157 29.2032 36.6062H24.1002L23.7713 36.7043C23.5546 37.2899 23.6931 40.8598 23.6886 41.7345Z" fill="#1A305D"/>
<path d="M53.5305 41.0392L53.5292 31.1737C53.5296 29.2206 52.727 24.4727 55.2014 24.3246C56.9921 24.2176 66.6779 23.2595 66.7373 25.6698C66.8463 30.1028 67.1265 36.7752 66.7815 41.0392H63.4098V27.6546H56.8285V41.0392C55.756 41.0695 54.6093 41.0441 53.5305 41.0392Z" fill="#1A305D"/>
<path d="M96.2595 82.738C105.245 81.9151 107.128 87.2432 113.631 87.1085C121.013 86.956 122.326 82.5627 129.658 82.6492C130.582 82.3209 132.231 83.7799 131.947 84.7491C131.376 86.7022 127.072 85.9288 125.475 86.6928C123.07 87.8436 120.951 89.2677 118.562 89.8899C107.456 92.7805 104.581 84.9315 96.8087 85.886C89.8234 86.7437 89.4463 90.9809 80.0546 90.4144C73.6096 90.422 68.478 81.5841 58.7744 88.2793C48.7315 95.2087 43.385 86.7941 35.5087 86.1358C28.9171 85.5889 27.9867 89.1357 22.3998 90.3203C13.4755 92.2123 12.2769 88.1103 5.85296 86.4239C4.65218 86.109 0.288355 86.6411 0.227131 84.7611C0.0939599 80.68 8.60666 83.5314 10.3951 84.5024C11.6352 85.1755 12.6519 86.0207 13.9961 86.4845C23.8874 90.0005 25.4721 83.0435 33.4284 82.754C42.0685 82.4396 44.1679 87.5362 49.9336 87.4078C56.1525 87.6718 58.1568 83.2928 63.9761 82.8031C73.7012 81.9842 75.1925 87.3222 81.7777 87.2347C88.1061 87.1513 90.3606 83.1001 96.2595 82.738Z" fill="#1A305D"/>
<path d="M80.7792 15.7001L80.7711 6.09682C80.7693 4.51033 80.7081 2.93766 80.814 1.35831C80.9414 -0.531924 83.919 -0.362434 84.0588 1.32887C84.1849 2.85604 84.1286 4.51969 84.129 6.05846L84.1201 15.7001C86.0198 13.6934 88.2381 11.3416 90.338 9.53384C91.4628 8.56598 94.4493 10.1556 91.4512 13.0324C89.7821 14.6341 88.18 16.3637 86.4211 17.8664V19.5247C90.6866 19.3958 89.7964 20.8494 89.7906 24.5973L89.7776 31.2224H86.4211C86.561 28.9384 86.4238 24.9991 86.4211 22.5857C80.3077 22.4225 85.6256 17.2616 81.4955 18.7705C80.1285 20.2437 83.0712 22.7391 78.1617 22.5857V31.2224C77.087 31.2465 75.9667 31.2264 74.8883 31.2224L74.8749 24.3551C74.8713 22.5589 74.3471 20.6397 76.0145 19.5247C76.767 19.5456 77.4083 19.5653 78.1617 19.5247C78.0813 18.9814 78.0612 18.4101 78.1617 17.8664C76.0846 15.5894 68.8889 11.1092 73.4149 9.06864C75.2244 9.90627 78.9384 14.1162 80.7792 15.7001Z" fill="#1A305D"/>
</svg>
