<svg width="134" height="85" viewBox="0 0 134 85" fill="none" xmlns="http://www.w3.org/2000/svg">
<path d="M133.217 37.1805L113.661 2.94224C112.052 0.131719 108.485 -0.834538 105.704 0.785742L96.1211 6.37723C94.7746 7.16087 93.8128 8.43358 93.4106 9.9537C93.0084 11.4738 93.2124 13.0647 93.9877 14.4198L94.9903 16.1816L92.2214 17.4896C90.904 18.1142 89.3418 18.3263 87.5814 18.1259C85.0283 17.8372 82.6908 17.3718 80.2192 16.8827C77.2405 16.2935 74.1627 15.6807 70.6653 15.3979L70.6187 15.392C66.5266 15.0621 64.7138 15.0798 60.849 18.992L58.3716 21.5021C48.8235 20.4356 42.1612 17.8137 38.9483 16.2877L40.0093 14.4258C40.7845 13.0647 40.9885 11.4798 40.5863 9.95968C40.1841 8.43956 39.2223 7.1668 37.8758 6.38321L28.2927 0.791723C25.5122 -0.828556 21.9389 0.137712 20.336 2.94822L0.779937 37.1804C-0.828865 39.991 0.132909 43.6027 2.91342 45.223L12.4965 50.8145C13.4117 51.3507 14.4144 51.604 15.3994 51.604C17.4164 51.604 19.3749 50.5493 20.4533 48.658L21.2227 47.3147C22.7908 50.349 25.134 53.625 27.489 55.6459L25.3148 59.4521C23.3678 62.8636 24.5278 67.2356 27.9029 69.2034C29.0046 69.8456 30.2171 70.152 31.4121 70.152C32.2573 70.152 33.0909 69.9929 33.8778 69.6983C33.9186 69.934 33.9302 70.1697 33.9944 70.4054C34.484 72.2496 35.6499 73.7933 37.2819 74.7419C38.3895 75.39 39.5961 75.6964 40.797 75.6964C41.6422 75.6964 42.4816 75.5314 43.2684 75.2368C43.3092 75.4666 43.3209 75.7023 43.385 75.9321C43.8747 77.7764 45.0405 79.32 46.6726 80.2686C47.7801 80.9167 48.9926 81.2231 50.1934 81.2231C51.7148 81.2231 53.2129 80.7223 54.4429 79.7972C55.0084 81.2467 56.011 82.537 57.4449 83.3678C58.5291 83.9983 59.7299 84.3223 60.9541 84.3223C61.572 84.3223 62.1899 84.2399 62.802 84.0749C64.6265 83.58 66.1537 82.4015 67.0922 80.7577L67.2962 80.4042L73.5334 84.0455C74.6176 84.676 75.8184 85 77.0426 85C77.6605 85 78.2784 84.9175 78.8905 84.7525C80.7151 84.2576 82.2422 83.0792 83.1807 81.4354C83.9268 80.1332 84.2125 78.6779 84.0959 77.2756C85.2967 77.6115 86.5674 77.6173 87.8032 77.2815C89.6278 76.7866 91.155 75.6081 92.0935 73.9643C92.8396 72.6563 93.1311 71.2069 93.0145 69.8046C96.0397 70.6471 99.3682 69.3627 101.006 66.4933C101.752 65.1852 102.044 63.7358 101.933 62.3394C103.128 62.6693 104.399 62.6752 105.629 62.3453C107.453 61.8504 108.981 60.6719 109.919 59.0281C110.858 57.3843 111.108 55.4575 110.619 53.6134C110.461 53.0242 110.24 52.4703 109.954 51.9577C111.044 50.8087 112.187 49.3063 113.143 47.9512L113.556 48.6759C114.635 50.5613 116.599 51.6219 118.61 51.6219C119.595 51.6219 120.598 51.3685 121.513 50.8323L131.096 45.2408C132.443 44.4572 133.405 43.1845 133.807 41.6644C134.197 40.1266 133.992 38.5416 133.217 37.1805ZM17.6253 47.0084C16.9199 48.2457 15.352 48.67 14.1337 47.957L4.55057 42.3655C3.32646 41.6526 2.9067 40.0677 3.61208 38.8362L23.1681 4.59798C23.6403 3.76721 24.503 3.30763 25.389 3.30763C25.8204 3.30763 26.2634 3.41958 26.6656 3.65526L36.2487 9.24675C36.8375 9.58848 37.2572 10.1482 37.4379 10.82C37.6128 11.4917 37.5253 12.1869 37.1872 12.782L17.6253 47.0084ZM29.5342 66.3515C27.7214 65.2969 27.0977 62.946 28.1469 61.1135L33.6029 51.5684C34.6463 49.7361 36.9779 49.1056 38.785 50.1661C40.5804 51.2149 41.21 53.5482 40.1957 55.3746L34.7046 64.9904C33.6437 66.7875 31.3238 67.4004 29.5342 66.3515ZM38.9074 71.8901C38.033 71.3834 37.4093 70.5526 37.147 69.5568C36.8847 68.5611 37.0187 67.5299 37.52 66.6461L44.9872 53.5776C45.4885 52.6937 46.3104 52.0633 47.2955 51.7981C48.2806 51.533 49.3008 51.6685 50.1751 52.1752C51.9705 53.224 52.6 55.5573 51.5858 57.3779L44.0896 70.5053C43.0229 72.32 40.7087 72.9389 38.9074 71.8901ZM48.2924 77.4169C47.418 76.9102 46.7943 76.0794 46.5319 75.0836C46.2696 74.0878 46.4037 73.0567 46.905 72.1729L55.3748 57.3427C55.8761 56.4589 56.698 55.8285 57.6831 55.5633C58.6683 55.2982 59.6884 55.4337 60.5627 55.9404C61.4371 56.4471 62.0608 57.2779 62.3231 58.2737C62.5855 59.2694 62.4572 60.3006 61.9501 61.1844L53.4803 76.0146C52.4311 77.841 50.1053 78.4715 48.2924 77.4169ZM61.9383 80.8932C60.9532 81.1583 59.933 81.0228 59.0587 80.5161C57.2634 79.4673 56.6338 77.1341 57.648 75.3135L63.1391 65.6977C64.1942 63.8947 66.5083 63.276 68.3036 64.3248C70.1164 65.3795 70.7402 67.7363 69.691 69.5629L64.235 79.108C63.7395 79.9918 62.9176 80.628 61.9383 80.8932ZM107.073 57.3658C106.572 58.2496 105.75 58.88 104.765 59.1452C103.78 59.4104 102.759 59.2748 101.885 58.7681L88.6064 51.0201C87.8253 50.5665 86.8227 50.8375 86.3739 51.627C85.925 52.4165 86.1932 53.43 86.9742 53.8837L96.8779 59.6637C96.8954 59.6755 96.9129 59.6873 96.9304 59.6991C98.6092 60.7891 99.1571 63.0987 98.1603 64.8429C97.1111 66.6752 94.7911 67.3057 92.9782 66.2452L83.1794 60.5298C82.3983 60.0762 81.3957 60.3472 80.9468 61.1367C80.498 61.9262 80.7661 62.9397 81.5472 63.3934L87.8486 67.07C87.8544 67.07 87.8544 67.0759 87.8602 67.0759C89.673 68.1364 90.2968 70.4815 89.2476 72.314C88.7463 73.1978 87.9244 73.8282 86.9392 74.0934C85.9541 74.3585 84.9339 74.223 84.0596 73.7163L77.7466 70.0338C76.9655 69.5801 75.9629 69.8511 75.514 70.6407C75.0652 71.4302 75.3333 72.4436 76.1144 72.8973L78.9649 74.5589C78.9708 74.5648 78.9766 74.5648 78.9824 74.5707C80.7545 75.6372 81.3608 77.9763 80.329 79.7851C79.8276 80.6689 79.0057 81.2993 78.0206 81.5645C77.0355 81.8297 76.0153 81.6941 75.141 81.1874L68.9038 77.5461L72.5237 71.2122C74.4707 67.8007 73.3106 63.4288 69.9355 61.4609C68.5657 60.6596 67.0326 60.4063 65.5695 60.5889C65.7619 59.546 65.756 58.4738 65.4704 57.4131C64.9808 55.5688 63.8149 54.0252 62.1886 53.0766C60.5624 52.1279 58.6562 51.8746 56.8317 52.3695C56.1439 52.5581 55.5202 52.8703 54.9315 53.2356C54.401 51.6389 53.346 50.213 51.8012 49.3115C50.1749 48.3629 48.2687 48.1095 46.4443 48.6045C45.2143 48.9344 44.1417 49.6002 43.2732 50.4899C42.6845 49.1936 41.7226 48.0565 40.4169 47.2964C37.0419 45.3284 32.7165 46.501 30.7697 49.9125L29.1609 52.7348C26.8177 50.5253 24.3753 46.7308 23.221 43.8379L37.3158 19.1687C40.4053 20.677 46.5608 23.1693 55.4617 24.4656L50.1804 29.8097C49.2361 30.7642 48.7931 32.0311 48.9272 33.3744C49.0613 34.7177 49.7491 35.8667 50.8683 36.6091C55.6074 39.7612 60.4456 39.614 63.8206 36.2084L68.379 31.6008C70.973 34.7412 76.1434 39.9617 85.9772 40.6334L105.697 52.1405C106.572 52.6472 107.195 53.478 107.458 54.4737C107.708 55.4518 107.574 56.4878 107.073 57.3658ZM107.714 49.5177C107.586 49.4293 107.452 49.3468 107.318 49.2702L87.265 37.5687C87.0435 37.439 86.7928 37.3624 86.5363 37.3507C76.6269 36.8027 72.0159 30.9401 70.0454 28.4359L69.7715 28.0883C69.48 27.723 69.0486 27.4991 68.5881 27.4755C68.1218 27.452 67.673 27.6228 67.3465 27.9587L61.4999 33.8684C58.3405 37.0619 54.2659 34.9172 52.6571 33.8508C52.3598 33.6504 52.2082 33.403 52.1732 33.0435C52.1383 32.6841 52.2315 32.4072 52.488 32.1539L63.1669 21.3419C66.1165 18.3546 66.851 18.4136 70.3658 18.7023L70.4125 18.7082C73.7175 18.9733 76.708 19.5684 79.5933 20.14C82.024 20.6231 84.5306 21.118 87.2178 21.4244C89.5844 21.6955 91.7353 21.3832 93.6065 20.4994L96.6317 19.0735L111.321 44.7986C109.969 46.7783 108.711 48.4395 107.714 49.5177ZM130.634 40.7915C130.459 41.4632 130.033 42.017 129.445 42.3647L119.862 47.9562C119.273 48.2979 118.585 48.3922 117.92 48.2096C117.256 48.0328 116.708 47.6027 116.364 47.0076L96.8125 12.7693C96.4744 12.1742 96.3811 11.479 96.5618 10.8073C96.7367 10.1356 97.1622 9.58172 97.751 9.23405L107.334 3.64256C108.558 2.92962 110.12 3.35385 110.826 4.59118L130.382 38.8294C130.72 39.4245 130.815 40.1198 130.634 40.7915Z" fill="#1A305D"/>
</svg>
