<svg width="135" height="134" viewBox="0 0 135 134" fill="none" xmlns="http://www.w3.org/2000/svg">
<path d="M92.5493 0.0376296C99.8195 -0.268928 102.33 11.3079 93.7835 13.1316C93.691 15.0335 93.5449 19.635 93.7835 21.3287C89.7013 25.9234 83.1948 30.7953 79.7672 35.5103C79.723 37.8265 79.7659 40.3062 79.7672 42.634L83.9415 42.625C93.2893 42.6183 92.2105 46.3806 92.1944 54.6644C92.8223 54.7738 98.2134 54.7716 98.8476 54.6644C99.9866 53.7778 101.255 52.3464 102.262 51.2703L108.088 45.0592C109.463 43.6028 110.853 41.9923 112.439 40.7928C115.275 40.6525 118.278 40.6936 121.116 40.7928C122.522 34.2559 130.231 32.7437 133.301 38.0454C137.873 45.9427 125.91 52.4599 121.384 43.7547H113.391C108.85 48.1091 104.791 53.5592 100.295 57.7438C97.6468 57.7965 94.8534 57.751 92.1944 57.7438V65.6866L113.228 65.6879C115.66 65.6893 119.098 65.3376 121.384 65.6866C125.999 52.3822 142.324 68.0667 130.015 73.2933C125.843 75.0652 122.637 72.1887 121.384 68.4675H92.1944V76.4027H100.295C103.374 80.7137 109.877 86.5008 113.746 90.7671C115.071 90.5495 119.975 90.6572 121.384 90.7671C123.309 86.8784 127.522 84.5033 131.516 87.4325C136.283 90.9285 134.479 98.5647 128.539 99.2449C124.923 99.6587 121.671 97.2066 121.384 93.5896H112.439C108.038 89.7992 103.05 83.5814 98.8476 79.2873H92.1944C92.0112 87.521 93.8314 92.1511 83.7132 92.1198L79.7672 92.1038V98.8936C82.6988 100.633 88.1297 107.108 90.9405 109.87C91.8754 110.788 93.0203 111.884 93.7835 112.927V120.928C99.9732 121.581 101.249 130.712 95.7726 133.188C87.2207 137.056 81.6213 124.872 90.7193 120.928C90.8333 119.028 90.726 116.114 90.7193 114.116C86.6684 109.652 81.4797 103.931 76.8625 100.089C76.9872 97.8443 76.8675 94.4324 76.8625 92.1038H68.716L68.6954 117.733C68.6847 118.642 68.6235 120.059 68.716 120.928C74.4467 122.628 75.7221 130.562 70.2872 133.234C62.2988 137.161 55.8405 124.91 65.6893 120.928C65.5659 118.11 65.6861 114.22 65.6866 111.342L65.6893 92.1038H57.3148V100.089C53.8627 104.632 46.444 109.666 43.6725 114.116C43.6846 116.302 43.5746 118.785 43.6725 120.928C51.4299 126.196 47.9116 134.35 40.5949 133.913C33.3175 132.859 32.7736 122.2 40.5949 120.928C40.5578 118.302 40.5757 115.556 40.5949 112.927C42.8069 109.933 48.329 105.017 51.0764 102.274C52.0014 101.351 53.7465 99.8964 54.4391 98.8936V92.1038L50.629 92.123C41.0623 92.1444 42.1795 87.6703 42.0642 79.643H35.1233C31.6046 83.0853 25.0851 90.9906 21.5226 93.5896C19.8607 93.9301 15.1336 93.5887 13.1915 93.5896C12.3772 97.6111 9.00913 100.127 4.92244 99.0983C-1.01299 97.6048 -1.53449 89.1597 3.88389 86.688C7.86602 84.8719 11.3807 87.0733 13.1915 90.7671H20.4134C23.1966 87.046 30.3967 80.0323 33.8439 76.6847C36.5837 76.682 39.3244 76.7182 42.0642 76.6847C42.1916 74.8673 42.0964 70.4293 42.0642 68.4675C39.7346 68.8411 35.2632 68.4648 32.7075 68.4639L19.7445 68.4675C17.6933 68.4698 15.1792 68.5663 13.1915 68.4675C11.1336 77.8126 -3.14884 73.5995 0.634649 64.6128C3.04645 58.8842 10.756 59.0366 13.1915 65.6866H42.0642C42.0231 63.0804 42.0633 60.3594 42.0642 57.7438C39.8338 57.5052 36.1288 57.7009 33.8439 57.7438C29.9632 53.0288 24.5578 48.4939 20.4134 43.7547C18.7234 43.8651 14.9633 43.7936 13.1915 43.7547C9.83585 50.3757 1.60661 49.183 0.346858 43.2824C-1.51215 34.5777 11.2323 31.3785 13.1915 40.7928H21.5226C25.1763 44.6673 31.0831 51.4482 35.1233 54.6644H42.0642C42.0267 41.595 42.9615 42.6018 54.8208 42.634C54.8753 40.3433 54.8252 37.8189 54.8208 35.5103C51.8673 32.1082 44.2302 24.0765 40.5949 21.3287C40.7321 18.827 40.7754 15.7807 40.5949 13.3331C30.1102 9.09628 36.5269 -1.83389 43.5778 0.403622C49.7147 2.35156 49.9234 10.1688 43.6725 13.1316V20.1887C46.7296 22.0642 52.8827 29.1669 55.8128 32.0828C56.5117 32.7781 57.2236 33.4591 57.7693 34.2783C57.9172 36.3951 57.7746 40.4054 57.7693 42.634C59.9335 42.5053 63.4379 42.6291 65.6893 42.634L65.6902 22.3524C65.6884 19.357 65.6128 16.1011 65.6893 13.1316C56.5578 10.1388 61.1695 -2.56159 69.3907 0.461719C75.4482 2.6894 75.1304 10.453 68.716 13.1316V42.634H76.8625V34.2783C76.8818 34.247 76.9014 34.2157 76.9211 34.184L77.0221 34.0289C77.8872 32.6869 80.6275 30.1277 81.8783 28.8921L90.7193 20.1887C90.7278 17.9525 90.6255 15.3177 90.7193 13.1316C83.5854 10.087 84.7991 0.728502 92.5493 0.0376296ZM77.4806 89.1763L83.0799 89.1928C89.5829 89.2156 89.3032 88.5837 89.3099 82.5223L89.317 49.3371C89.279 44.7446 86.1991 45.4725 82.6809 45.4935L56.9845 45.5052C53.86 45.4976 50.6509 45.3993 47.5447 45.6374C44.1551 45.8975 45.0145 50.0687 45.0145 52.4532L45.0319 84.6002C45.0301 89.6857 47.3262 89.2053 51.3521 89.1883L77.4806 89.1763ZM7.5465 70.7667C9.53734 70.314 10.7779 68.3259 10.31 66.3386C9.84211 64.3513 7.84457 63.126 5.86088 63.6095C3.89864 64.0877 2.68939 66.0589 3.1528 68.0247C3.61577 69.9905 5.57756 71.2145 7.5465 70.7667ZM7.43478 96.2999C9.40193 95.8955 10.6796 93.9856 10.3028 92.013C9.92568 90.0401 8.03404 88.7361 6.05616 89.0851C4.75173 89.3157 3.67252 90.2304 3.23145 91.479C2.79038 92.728 3.05583 94.1178 3.92635 95.1162C4.79686 96.1145 6.13749 96.5667 7.43478 96.2999ZM91.9665 3.05137C89.9869 3.40619 88.6686 5.29648 89.0189 7.2766C89.3697 9.25671 91.2569 10.5795 93.2375 10.2331C95.2247 9.88591 96.5524 7.9916 96.2007 6.00523C95.849 4.01886 93.952 2.69566 91.9665 3.05137ZM93.5641 130.919C95.5331 130.444 96.737 128.455 96.2436 126.491C95.7503 124.526 93.7496 123.342 91.79 123.854C89.8573 124.359 88.6918 126.327 89.1785 128.265C89.6651 130.203 91.6216 131.387 93.5641 130.919ZM7.32708 45.2183C9.30049 44.8822 10.6367 43.0223 10.3261 41.0449C10.0151 39.0679 8.17258 37.7076 6.19157 37.9927C4.88713 38.1808 3.78469 39.0558 3.30563 40.2839C2.82658 41.5114 3.0451 42.9017 3.87764 43.9237C4.71017 44.9452 6.02801 45.4399 7.32708 45.2183ZM66.8319 3.0755C64.8813 3.23325 63.4299 4.94479 63.5934 6.89496C63.757 8.84469 65.473 10.2912 67.4227 10.1219C69.3635 9.95294 70.8024 8.24587 70.6398 6.30419C70.4771 4.36251 68.7741 2.91865 66.8319 3.0755ZM127.088 63.6225C125.163 63.9724 123.882 65.8099 124.218 67.7369C124.555 69.6638 126.384 70.958 128.313 70.634C130.261 70.3073 131.57 68.4572 131.23 66.5115C130.89 64.5663 129.031 63.2699 127.088 63.6225ZM42.1777 10.2962C44.1592 10.0307 45.5458 8.20342 45.2683 6.22375C44.9912 4.24409 43.1555 2.86815 41.1776 3.15728C39.2163 3.44373 37.8542 5.26073 38.129 7.22386C38.4043 9.187 40.2128 10.5598 42.1777 10.2962ZM66.7435 123.794C64.7808 124.068 63.4151 125.885 63.6975 127.846C63.98 129.808 65.8028 131.166 67.7628 130.875C69.7116 130.586 71.0598 128.776 70.7787 126.827C70.4981 124.877 68.6941 123.521 66.7435 123.794ZM126.866 37.9494C124.954 38.4231 123.783 40.3504 124.242 42.2653C124.702 44.1802 126.62 45.3662 128.539 44.9206C130.477 44.4706 131.678 42.5276 131.214 40.5926C130.749 38.6572 128.797 37.4708 126.866 37.9494ZM127.294 89.1544C125.31 89.3908 123.899 91.1988 124.151 93.1812C124.402 95.1635 126.221 96.5609 128.202 96.2932C130.16 96.0287 131.539 94.234 131.29 92.2736C131.041 90.3127 129.257 88.9202 127.294 89.1544ZM40.9492 123.798C38.9968 124.088 37.6441 125.9 37.9212 127.854C38.1983 129.809 40.001 131.173 41.9574 130.909C43.9317 130.642 45.3117 128.819 45.0319 126.846C44.7526 124.874 42.9204 123.506 40.9492 123.798Z" fill="#1A305D"/>
<path d="M51.5044 73.3876C54.4538 73.254 53.5265 77.889 53.5118 80.1422C54.4024 80.1815 75.8575 78.596 69.3375 83.0871C67.2166 83.2202 51.3038 83.2859 50.8006 82.7528C50.2938 82.2161 50.4887 75.988 50.4958 74.4346C50.9105 73.8604 50.9159 73.8072 51.5044 73.3876Z" fill="#1A305D"/>
<path d="M76.8617 51.1611C78.5054 51.0892 81.9191 51.0418 83.4384 51.377C84.489 51.6084 85.1111 58.4957 83.2847 59.2527C80.578 59.2979 81.1991 56.0866 81.2237 54.1708C79.4022 54.1749 75.0899 55.0275 75.774 52.159C75.9032 51.6178 76.414 51.3577 76.8617 51.1611Z" fill="#1A305D"/>
<path d="M51.9894 51.1611C53.0798 51.1508 58.1407 50.8666 58.6059 51.65C60.5168 54.8679 55.1489 54.1874 53.5115 54.1708C53.7586 59.8667 50.0272 59.1106 50.3856 54.4296C50.5076 52.836 50.0688 51.5392 51.9894 51.1611Z" fill="#1A305D"/>
<path d="M82.2537 64.0159C82.8981 63.9864 83.6283 63.8845 84.0139 64.5409C84.3058 65.0388 85.3854 74.4308 83.286 75.598C81.9114 75.9019 81.301 75.1413 81.271 73.8154C81.2174 71.4094 80.3706 65.2122 82.2537 64.0159Z" fill="#1A305D"/>
<path d="M78.6931 80.1423C79.7615 80.1562 83.2767 79.8643 83.7146 80.4408C86.2256 83.7482 81.3801 83.1502 80.2996 83.0872C79.2034 83.0635 75.7338 83.4246 75.3236 82.8548C73.0986 79.7651 77.9816 80.1503 78.6931 80.1423Z" fill="#1A305D"/>
<path d="M64.1792 51.1615C65.8854 51.0217 68.8093 51.0842 70.4663 51.3112C71.8914 51.5065 72.025 53.5595 70.2701 54.1713C68.4218 54.1869 66.1901 54.3169 64.3941 54.0792C62.7103 53.8566 62.5222 51.9713 64.1792 51.1615Z" fill="#1A305D"/>
<path d="M51.5036 62.1043C54.815 61.9801 53.8037 68.5058 52.6333 69.2271C49.0101 69.505 50.2998 62.8868 51.5036 62.1043Z" fill="#1A305D"/>
</svg>
