<svg width="129" height="134" viewBox="0 0 129 134" fill="none" xmlns="http://www.w3.org/2000/svg">
<path d="M64.7375 59.7235C53.3071 60.3686 56.6336 58.0939 62.2949 52.4771L68.3314 46.5823C72.288 42.709 71.8223 41.3735 76.236 45.8857L80.6704 50.423C81.7612 51.5357 88.8737 57.4067 86.5063 59.0964C85.2637 59.9835 81.8964 59.6509 80.3265 59.7235L80.3216 131.534C80.3122 132.625 80.1604 133.569 78.8215 133.639C76.7161 133.749 65.5538 133.922 65.1454 133.249C64.3247 131.896 64.7353 124.566 64.7353 122.804L64.7375 59.7235ZM65.2547 56.2613C66.5815 56.303 68.0524 56.1931 68.0932 57.9146C68.1585 60.6843 68.1344 63.4525 68.1344 66.2231L68.1312 130.213C71.0736 130.243 74.0464 130.218 76.9914 130.213L76.9932 57.9854C77.0049 56.2985 78.3187 56.2061 79.679 56.2613H81.5359C78.7145 53.3504 75.5272 49.9352 72.6551 47.1127C69.5444 50.2163 66.521 53.254 63.3131 56.2613H65.2547Z" fill="#1A305D"/>
<path d="M64.7375 59.7235C53.3071 60.3686 56.6336 58.0939 62.2949 52.4771L68.3314 46.5823C72.288 42.709 71.8223 41.3735 76.236 45.8857L80.6704 50.423C81.7612 51.5357 88.8737 57.4067 86.5063 59.0963C85.2637 59.9835 81.8964 59.6509 80.3265 59.7235C80.4456 58.0572 80.5737 57.6752 79.679 56.2613H81.5359C78.7145 53.3504 75.5272 49.9352 72.6551 47.1127C69.5444 50.2163 66.521 53.254 63.3131 56.2613H65.2547C64.4303 57.4479 64.6466 58.2733 64.7375 59.7235Z" fill="#1A305D"/>
<path d="M35.8937 80.9876C34.6256 80.993 26.1787 81.5444 29.3028 78.2718C33.4958 73.8802 38.0565 69.5791 42.2678 65.1884C43.2682 64.2214 44.0881 64.424 45.0159 65.3543C46.6471 66.9902 58.4425 77.888 57.9504 79.6759C57.0907 82.8019 51.6587 79.3656 51.5078 81.717C51.6049 84.0092 51.5109 87.0927 51.5104 89.4584L51.5069 131.349C51.2001 133.862 51.0622 133.751 48.1028 133.686C46.0802 133.641 37.4627 134.202 36.2264 132.989C35.7513 131.208 35.8937 126.714 35.8932 124.624L35.8946 91.8465C35.8946 88.3546 35.7938 84.4275 35.8937 80.9876ZM36.3034 77.5827C39.3111 76.9331 39.3492 77.8454 39.3658 80.6057L39.3586 130.213H48.1628C48.29 118.486 48.1584 106.492 48.1579 94.7466L48.1584 84.6767C48.1588 79.9807 46.7152 77.2783 51.5078 77.5827C51.673 77.4433 51.6045 77.5289 51.7061 77.3191C49.4229 74.6992 46.044 71.3791 43.544 68.9936C42.2647 70.1686 36.1337 76.0298 35.2802 77.3994C35.5803 77.5863 35.9224 77.5563 36.3034 77.5827Z" fill="#1A305D"/>
<path d="M35.8937 80.9876C34.6256 80.993 26.1787 81.5444 29.3028 78.2718C33.4958 73.8802 38.0565 69.5791 42.2678 65.1884C43.2682 64.2214 44.0881 64.424 45.0159 65.3543C46.6471 66.9902 58.4425 77.888 57.9504 79.6759C57.0907 82.8019 51.6587 79.3656 51.5078 81.717C51.4769 81.1696 51.4442 77.9665 51.5078 77.5827C51.673 77.4433 51.6045 77.5289 51.7061 77.3191C49.4229 74.6992 46.044 71.3791 43.544 68.9936C42.2647 70.1686 36.1337 76.0298 35.2802 77.3994C35.5803 77.5863 35.9224 77.5563 36.3034 77.5827C35.7365 78.7573 35.8234 79.7131 35.8937 80.9876Z" fill="#1A305D"/>
<path d="M7.14957 100.848C0.602143 100.908 -2.73291 101.155 2.77477 95.7112L11.1693 87.3113C16.1159 82.3364 15.412 84.0113 20.1383 88.6611L26.2111 94.7007C32.9976 101.489 30.2312 99.9186 22.9808 100.848L22.9853 121.25C22.9853 123.821 24.2843 133.698 21.1243 133.651C16.8592 133.587 12.501 133.829 8.26141 133.543C7.29152 133.477 7.163 132.098 7.15629 131.362L7.14957 100.848ZM7.47466 97.3269C9.30831 97.1444 10.5196 97.0853 10.5809 99.2322C10.876 109.544 10.3064 119.9 10.5872 130.213H19.5759L19.5732 102.901C19.5745 99.6124 18.6024 96.6397 22.679 97.3269C23.1407 97.3179 23.2316 97.3094 23.6847 97.226C23.5974 96.9961 15.768 89.3717 14.9857 88.5486C13.9325 89.4206 7.19703 96.2833 6.67671 97.1888C6.97449 97.3493 7.11151 97.3076 7.47466 97.3269Z" fill="#1A305D"/>
<path d="M7.14957 100.848C0.602143 100.908 -2.73291 101.155 2.77477 95.7112L11.1693 87.3113C16.1159 82.3364 15.412 84.0113 20.1383 88.6611L26.2111 94.7007C32.9976 101.489 30.2312 99.9186 22.9808 100.848C23.0332 99.5752 23.1939 98.4979 22.679 97.3269C23.1407 97.3179 23.2316 97.3094 23.6847 97.226C23.5974 96.9961 15.768 89.3717 14.9857 88.5486C13.9325 89.4206 7.19703 96.2833 6.67671 97.1888C6.97449 97.3493 7.11151 97.3076 7.47466 97.3269C7.01926 98.2822 7.11778 99.7697 7.14957 100.848Z" fill="#1A305D"/>
<path d="M104.361 0.106428C106.238 0.0840131 116.57 -0.310496 117.906 0.578048C119.13 2.35962 118.597 11.5934 118.384 13.7067C118.088 15.0915 116.171 15.6559 115.24 14.5643C114.253 13.4068 114.709 8.10959 114.704 6.35492C113.007 8.19073 110.927 10.1279 109.145 11.9265L89.4503 31.7846C88.5561 32.6745 86.5066 35.1106 85.5018 35.2787C84.4611 35.4531 72.0133 22.684 70.683 21.4292C67.0774 24.597 62.8446 29.2436 59.2901 32.7463L25.4183 66.4755C20.6065 71.2966 20.4972 73.9788 15.6169 68.9936L10.9783 64.3676C9.97978 63.379 6.94205 61.164 8.08881 59.5115C10.3738 56.22 17.5732 65.4399 19.1498 67.356C20.9651 65.7775 23.7293 62.8303 25.537 61.0384L68.6035 18.0584C71.4997 15.1682 72.4078 17.685 74.9225 20.1982L80.3966 25.6442C82.0583 27.3173 83.8136 28.8586 85.448 30.5518C86.4296 29.4109 87.8665 28.048 88.9515 26.9622L111.869 3.90224C109.716 3.90224 106.131 4.15508 104.048 3.65701C102.445 3.27416 102.418 0.784716 104.361 0.106428Z" fill="#1A305D"/>
<path d="M118.582 130.213L118.597 42.0643C118.616 39.0584 119.453 39.4157 122.081 39.5497C122.018 40.7342 121.98 41.5922 122.081 42.7901L122.083 122.227C122.083 124.151 122.277 131.846 121.756 133.166C120.378 134.07 108.936 133.692 106.974 133.66C106.683 133.367 106.418 133.124 106.179 132.786C106.068 130.514 106.179 127.488 106.179 125.128L106.177 95.2514C106.177 90.9508 104.518 85.728 109.159 85.8298L109.616 85.841L109.603 92.8377C109.605 93.5998 109.541 95.0402 109.616 95.7445V130.213C112.597 130.213 115.606 130.165 118.582 130.213Z" fill="#1A305D"/>
<path d="M93.3214 85.8413C95.2128 85.7808 96.6358 85.389 96.6443 87.7942L96.66 125.693C96.66 127.898 96.6815 130.108 96.6282 132.312C96.5722 134.601 93.4006 134.722 93.3218 131.682C93.2788 130.032 93.3267 128.501 93.333 126.914L93.3214 89.2431C93.2761 87.9981 93.2752 87.0899 93.3214 85.8413Z" fill="#1A305D"/>
<path d="M106.178 42.7907L106.057 42.7822C104.106 42.6562 98.882 43.6479 99.2326 40.6963C99.3947 39.3325 104.511 34.9705 105.699 33.7807L110.466 29.0031C111.388 28.0764 112.889 26.1429 114.133 26.1613C115.997 26.9543 125.356 37.1385 127.981 39.6297C131.819 43.5923 123.692 42.7845 122.081 42.7907C121.979 41.5929 122.017 40.7348 122.081 39.5504L122.504 39.3778L122.525 39.2025C119.61 36.3714 116.787 33.3149 113.914 30.552C111.038 33.3871 107.671 36.6364 104.919 39.5504H106.974C106.034 40.8729 106.154 41.1024 106.178 42.7907Z" fill="#1A305D"/>
<path d="M101.467 72.2578C103.058 73.0468 104.716 75.0638 106.039 76.3401L106.179 76.2984C106.361 77.0663 108.697 79.3567 109.411 79.7131L109.617 79.589C110.117 82.3281 119.834 86.4772 114.706 89.2428H109.617C109.62 91.2001 109.708 93.846 109.617 95.7446C109.542 95.0403 109.606 93.5999 109.604 92.8378L109.617 85.8411H110.875C107.963 83.1131 104.169 79.6163 101.467 76.7055C100.086 77.9235 93.4517 84.4477 92.6117 85.7496C92.8808 85.8957 92.9829 85.8451 93.3219 85.8411C93.2757 87.0896 93.2766 87.9979 93.3219 89.2428C91.8509 89.254 85.4696 90.0892 86.5205 86.9793C86.8421 86.028 99.3597 73.2401 101.467 72.2578Z" fill="#1A305D"/>
<path d="M106.974 39.5497C110.815 38.7643 109.627 43.1205 109.619 45.9892L109.618 72.5392C109.619 74.124 109.736 78.135 109.616 79.5889L109.41 79.713C108.696 79.3566 106.36 77.0662 106.178 76.2983C106.017 73.4941 106.223 69.4728 106.211 66.5588L106.178 42.7901C106.154 41.1018 106.034 40.8722 106.974 39.5497Z" fill="#1A305D"/>
</svg>
