<svg width="134" height="134" viewBox="0 0 134 134" fill="none" xmlns="http://www.w3.org/2000/svg">
<path d="M127.891 83.664L131.725 79.8311C134.137 77.4175 134.137 73.4907 131.725 71.0769C130.555 69.9083 129.001 69.2642 127.347 69.2642C126.106 69.2642 124.92 69.6272 123.912 70.3032L123.104 67.5918L127.254 63.4409C129.667 61.0274 129.667 57.1005 127.254 54.6878C125.032 52.4652 121.53 52.2946 119.104 54.1643L114.186 37.6556C116.076 35.8385 117.949 34.0037 119.804 32.1514C124.913 27.0416 129.066 21.6345 131.5 16.9236C135.613 8.96157 133.892 4.7055 131.723 2.53716C129.556 0.368819 125.3 -1.35198 117.337 2.76119C112.627 5.19439 107.219 9.34813 102.11 14.4577C100.258 16.3124 98.4231 18.1848 96.6063 20.0744L80.0963 15.157C81.9663 12.7319 81.7954 9.22957 79.5739 7.00705C77.1601 4.59401 73.2333 4.59322 70.8207 7.00705L66.6699 11.1577L63.9577 10.35C64.6334 9.3408 64.9964 8.15495 64.9964 6.91388C64.9986 6.10075 64.8395 5.29525 64.5284 4.544C64.2173 3.79274 63.7602 3.11064 63.1838 2.53716C60.771 0.123588 56.8431 0.123588 54.4306 2.53716L50.5977 6.37003L31.062 0.550713C30.7207 0.449068 30.3582 0.441596 30.013 0.529087C29.6678 0.616578 29.3526 0.795777 29.1009 1.04772L24.0723 6.07664C23.2277 6.9199 23.3392 8.36249 24.3021 9.06704L73.5931 45.1463C62.4795 57.6771 51.7736 70.2231 44.2152 79.187L29.7165 73.6103C29.3598 73.4731 28.9711 73.4423 28.5973 73.5216C28.2235 73.6009 27.8807 73.7869 27.6104 74.057L21.6503 80.0172C21.2802 80.3877 21.0723 80.89 21.0723 81.4137C21.0723 81.9374 21.2802 82.4397 21.6503 82.8102L51.4504 112.61C52.211 113.372 53.4829 113.372 54.2445 112.61L60.2038 106.651C60.4742 106.381 60.6602 106.038 60.7395 105.664C60.8187 105.29 60.7878 104.901 60.6503 104.544L55.0747 90.0465C64.0386 82.4881 76.5835 71.7822 89.1154 60.6675L93.0307 66.0183C93.7261 66.9681 95.136 67.0909 95.9887 66.2811C96.6992 65.6064 96.7974 64.4747 96.2197 63.6854L92.0801 58.0296C98.6336 52.181 105.105 46.28 110.976 40.7196L129.588 103.2L127.021 105.766L101.441 70.8183C101.131 70.3956 100.667 70.1131 100.149 70.0329C99.6315 69.9528 99.1032 70.0815 98.6804 70.3909C98.471 70.544 98.2937 70.737 98.1589 70.9587C98.024 71.1804 97.9342 71.4264 97.8945 71.6829C97.8548 71.9393 97.866 72.2011 97.9275 72.4531C97.9891 72.7052 98.0997 72.9427 98.253 73.152L125.195 109.96C125.899 110.923 127.342 111.034 128.185 110.189L133.214 105.161C133.466 104.909 133.645 104.594 133.732 104.249C133.82 103.903 133.813 103.541 133.711 103.2L127.891 83.664ZM73.6146 9.8009C74.4775 8.93801 75.918 8.93801 76.7809 9.8009C77.6539 10.674 77.6539 12.0941 76.7809 12.9672L75.8546 13.8934L70.9749 12.4395L73.6146 9.8009ZM57.2244 5.33127C58.0965 4.45817 59.5176 4.45817 60.3907 5.33127C61.2638 6.20436 61.2638 7.62445 60.3907 8.49754L59.7814 9.10578L54.903 7.65324L57.2244 5.33127ZM28.4948 7.23998L31.062 4.67383L93.5421 23.2847C87.9816 29.1568 82.0807 35.6284 76.231 42.1815L28.4948 7.23998ZM29.4966 77.7588L41.5245 82.3849C39.2849 85.0508 37.0531 87.7232 34.8292 90.4022L25.8407 81.4137L29.4966 77.7588ZM37.6356 93.2086C44.5219 84.9001 80.9223 41.2328 104.904 17.2507C109.662 12.4916 114.856 8.49021 119.151 6.27162C122.375 4.60552 126.689 3.09043 128.93 5.33127C131.172 7.5721 129.655 11.8865 127.99 15.1109C125.771 19.4057 121.769 24.5982 117.01 29.3573C93.0299 53.3373 49.3616 89.7384 41.0531 96.6261L37.6356 93.2086ZM56.5029 104.765L52.848 108.42L43.8595 99.4315C45.5034 98.0676 48.2841 95.7543 51.8767 92.7372L56.5029 104.765ZM125.764 73.871C126.637 72.9979 128.057 72.9979 128.93 73.871C129.803 74.7441 129.803 76.1641 128.93 77.0372L126.609 79.3587L125.155 74.4802L125.764 73.871ZM121.295 57.4808C122.167 56.6077 123.588 56.6088 124.461 57.4808C125.324 58.3437 125.324 59.7839 124.461 60.6471L121.821 63.2868L120.367 58.407L121.295 57.4808Z" fill="#1A305D"/>
<path d="M112.945 108.396C113.129 108.213 113.274 107.995 113.373 107.756C113.473 107.516 113.524 107.259 113.524 107C113.524 106.741 113.473 106.484 113.373 106.244C113.274 106.004 113.129 105.787 112.945 105.603C112.762 105.42 112.544 105.274 112.304 105.175C112.065 105.076 111.808 105.025 111.549 105.025C111.289 105.025 111.032 105.076 110.793 105.175C110.553 105.274 110.336 105.42 110.152 105.603L99.6159 116.139C98.8972 116.858 98.8491 118.046 99.5107 118.819C100.25 119.682 101.607 119.736 102.41 118.933L112.945 108.396ZM106.624 97.8612C106.807 97.6778 106.953 97.46 107.052 97.2203C107.152 96.9806 107.203 96.7236 107.203 96.4642C107.203 96.2047 107.152 95.9477 107.052 95.708C106.953 95.4683 106.807 95.2505 106.624 95.0671C106.441 94.8836 106.223 94.7381 105.983 94.6388C105.743 94.5394 105.486 94.4883 105.227 94.4883C104.968 94.4883 104.711 94.5394 104.471 94.6388C104.231 94.7381 104.014 94.8836 103.83 95.0671L96.4549 102.442C95.7362 103.161 95.688 104.35 96.3507 105.123C97.0888 105.986 98.4452 106.04 99.249 105.236L106.624 97.8612ZM20.2303 13.9406C19.4583 13.1695 18.2073 13.1695 17.4362 13.9406L0.578923 30.7989C0.395395 30.9822 0.249801 31.1999 0.150466 31.4396C0.0511297 31.6792 0 31.9361 0 32.1955C0 32.4549 0.0511297 32.7117 0.150466 32.9513C0.249801 33.191 0.395395 33.4087 0.578923 33.592C1.33948 34.3525 2.61143 34.3525 3.37303 33.592L20.2303 16.7347C20.6005 16.364 20.8085 15.8615 20.8085 15.3376C20.8085 14.8137 20.6005 14.3113 20.2303 13.9406ZM28.6585 22.3697C28.4751 22.1862 28.2574 22.0406 28.0178 21.9413C27.7782 21.842 27.5213 21.7908 27.2619 21.7908C27.0025 21.7908 26.7457 21.842 26.506 21.9413C26.2664 22.0406 26.0487 22.1862 25.8654 22.3697L15.3291 32.9058C14.6094 33.6247 14.5623 34.8126 15.2239 35.5855C15.963 36.4484 17.3187 36.5026 18.1222 35.6988L28.6585 25.1636C28.842 24.9802 28.9875 24.7624 29.0868 24.5227C29.1861 24.283 29.2372 24.0261 29.2372 23.7667C29.2372 23.5072 29.1861 23.2503 29.0868 23.0106C28.9875 22.7709 28.842 22.5532 28.6585 22.3697ZM29.0254 38.8599C29.787 39.6207 31.0579 39.6207 31.8195 38.8599L39.1947 31.4846C39.5649 31.114 39.7728 30.6115 39.7728 30.0877C39.7728 29.5639 39.5649 29.0615 39.1947 28.6908C38.824 28.3206 38.3216 28.1126 37.7977 28.1126C37.2738 28.1126 36.7713 28.3206 36.4006 28.6908L29.0254 36.066C28.6553 36.4367 28.4474 36.9391 28.4474 37.4629C28.4474 37.9868 28.6553 38.4892 29.0254 38.8599Z" fill="#1A305D"/>
</svg>
