<svg width="134" height="132" viewBox="0 0 134 132" fill="none" xmlns="http://www.w3.org/2000/svg">
<path d="M133.877 12.5473C133.438 10.6192 131.88 9.24267 129.921 9.05152L38.4977 0.153654C20.7522 -1.56151 4.90437 11.2746 2.85932 29.0483C2.85932 29.092 2.8159 29.1357 2.8159 29.1958L2.77249 29.6383V29.6601V29.682L2.75078 29.8294V29.9769V30.0206C1.31813 47.396 14.4133 62.9033 32.0512 64.5966L52.6198 66.5903L52.1802 71.2933C51.9903 73.1558 52.5601 74.9802 53.7378 76.4441C54.9154 77.886 56.6032 78.7983 58.4538 78.9676L61.5037 79.2626L60.2392 90.5146C55.6317 91.8256 51.9251 95.3213 50.2807 99.8386L17.4695 99.8331V96.5067C17.4695 93.284 14.8592 90.6567 11.6572 90.6567L4.08122 90.6622V84.4353C4.08122 83.3101 3.17492 82.3815 2.04061 82.3815C0.906368 82.3815 0 83.2937 0 84.4353V129.946C0 131.071 0.906298 132 2.04061 132C3.17485 132 4.08122 131.088 4.08122 129.946V123.697H11.679C14.881 123.697 17.4913 121.07 17.4913 117.847V114.521H52.7935C55.5288 117.869 59.6967 120.01 64.3313 120.01C72.5803 120.01 79.2774 113.254 79.2774 104.967C79.2774 100.647 77.4485 96.7469 74.5396 93.9939C74.5613 93.9284 74.583 93.8683 74.6047 93.8027L76.0809 80.6663L77.8935 80.8356C78.1268 80.8575 78.3331 80.8793 78.5664 80.8793C82.1265 80.8793 85.1548 78.1483 85.513 74.5214L85.9525 69.8184L110.163 72.1726H110.352H110.396C110.483 72.1726 110.564 72.2163 110.651 72.2163C110.987 72.26 111.324 72.26 111.66 72.26C121.152 72.26 129.678 59.271 131.344 41.9614C132.126 33.8283 131.176 25.8375 128.755 19.6919C129.765 18.8453 130.818 18.0587 131.936 17.3815C133.542 16.3601 134.317 14.4754 133.877 12.5473ZM6.73367 32.3963L95.8603 41.0593C95.2687 48.8537 96.2619 56.1834 98.704 61.799C99.632 63.9401 100.745 65.7372 101.987 67.2667L32.4361 60.51C17.7233 59.0736 6.63086 46.6956 6.73367 32.3963ZM13.4089 117.862C13.4089 118.818 12.6274 119.599 11.6831 119.599H4.07982V94.7682H11.6776C12.6274 94.7682 13.4034 95.5548 13.4034 96.5052L13.4089 117.862ZM17.4683 110.428V103.923H49.4C49.3783 104.262 49.3566 104.622 49.3566 104.961C49.3566 106.889 49.7365 108.73 50.3877 110.429L17.4683 110.428ZM75.1897 104.983C75.1897 111.018 70.3054 115.934 64.3086 115.934C58.3118 115.934 53.4276 111.018 53.4276 104.983C53.4276 98.9471 58.3118 94.0312 64.3086 94.0312C70.3054 94.0312 75.1897 98.9471 75.1897 104.983ZM70.7287 91.4039C68.813 90.4699 66.6639 89.94 64.39 89.9182L65.5243 79.6438L71.9444 80.2556L70.7287 91.4039ZM81.4198 74.132C81.2733 75.7432 79.884 76.9286 78.2396 76.7592L58.8324 74.8747C58.0509 74.7873 57.3563 74.4323 56.8732 73.8151C56.3902 73.2197 56.1568 72.4605 56.222 71.674L56.6616 66.9711L81.8594 69.429L81.4198 74.132ZM127.245 41.5933C125.79 56.702 118.426 68.8603 111.012 68.1388C107.582 67.8001 104.527 64.9817 102.443 60.175C100.272 55.1772 99.4091 48.5625 99.9193 41.467L104.212 41.8931C104.125 49.8787 107.327 55.8543 112.124 56.318C112.314 56.3399 112.526 56.3399 112.716 56.3399C117.79 56.3399 122.148 49.9819 122.989 41.1934C123.429 36.5123 122.734 32.0607 121.073 28.8653C122.316 26.6641 123.787 24.6268 125.496 22.7859C127.244 28.0951 127.895 34.748 127.244 41.5918L127.245 41.5933ZM118.637 34.2194C119.039 36.1913 119.164 38.458 118.931 40.7849C118.279 47.6289 114.953 52.4576 112.532 52.2281C110.405 52.0151 108.299 47.842 108.321 41.9975C112.95 41.5059 116.971 38.5619 118.637 34.2194ZM129.752 13.9006C122.93 18.1391 117.671 24.7702 114.931 32.5205C113.688 36.0163 109.981 38.2831 106.155 37.9226L7.04807 28.3092C9.30027 13.4577 22.8792 2.75787 38.0962 4.23728L129.519 13.1188C129.731 13.1406 129.856 13.2663 129.899 13.4793C129.981 13.7524 129.812 13.8569 129.752 13.9006Z" fill="#1A305D"/>
</svg>
