<svg width="123" height="134" viewBox="0 0 123 134" fill="none" xmlns="http://www.w3.org/2000/svg">
<path d="M59.5314 0.00191517C77.9328 -0.148831 93.6726 8.60117 101.76 25.6575C108.508 39.9423 106.874 58.4215 96.9012 70.8304C90.3882 78.9342 85.1827 83.8561 83.9423 94.9074C83.5615 98.3025 84.1213 100.254 80.5069 101.918L80.5128 112.721C80.5245 118.392 81.1307 123.76 73.9078 123.851C73.7893 132.013 72.7445 134.032 63.9053 133.986L57.0565 134C49.8214 133.986 48.947 130.064 48.9745 123.851C41.7516 124.689 42.4655 117.711 42.4718 113.113L42.4705 101.918C39.0048 99.6619 39.9221 97.8804 39.3059 94.3777C37.3178 83.0731 33.6362 80.0326 27.1525 72.1916C6.52544 46.8438 19.7097 7.96984 52.4095 0.946438C54.7339 0.446952 57.1507 0.245358 59.5314 0.00191517ZM51.0361 76.655C48.0744 73.8871 44.9175 70.5712 42.0022 67.6854L38.9156 64.6228C34.1406 59.956 36.9419 57.4171 41.9503 62.2653L46.6343 66.875C47.7557 67.9905 54.7965 74.4986 54.8799 75.5845C55.0498 77.7948 54.9764 80.33 54.9746 82.5372L54.9651 97.9925H59.5314H63.4271H68.1529C68.1538 95.5094 67.928 76.0776 68.2566 75.2038C68.7123 73.9906 70.2574 72.7428 71.1548 71.8478L79.4432 63.5883C80.7174 62.3188 82.0024 60.9518 83.3708 59.7913C85.1976 58.242 87.7663 60.684 86.0486 62.4615C84.9619 63.6594 83.7769 64.7425 82.6321 65.889L77.0399 71.4918C75.5038 73.0101 73.3908 75.0526 71.9913 76.655V97.9925H79.5473C81.0054 81.6183 85.716 79.2231 94.0909 68.0139C106.869 50.7303 103.379 25.7668 86.328 12.6083C49.8719 -15.5252 3.59662 29.7924 27.3869 65.7963C31.1257 71.454 36.6322 75.5881 39.4777 82.004C42.2848 87.9065 42.9609 91.6558 43.8191 97.9925C46.0267 98.0708 48.791 97.9956 51.0361 97.9925V76.655ZM46.4198 105.654H76.641V101.918H46.4198V105.654ZM48.9745 109.61H46.4198C46.4351 110.641 46.4468 111.621 46.4198 112.655H74.4712H76.641C76.6613 111.618 76.6608 110.647 76.641 109.61H48.9745ZM52.8345 123.851C52.7804 127.65 52.4131 130.139 57.1047 130.162L63.167 130.169C65.0726 130.167 67.6107 130.462 69.1747 129.312C70.4332 127.745 70.1515 125.771 69.9567 123.851H52.8345ZM76.1123 119.595C76.7997 118.475 76.6888 117.929 76.641 116.621L56.1803 116.618C53.4439 116.617 49.0628 116.473 46.4198 116.621C46.3427 121.218 48.3056 120.033 52.5857 120.035L69.6913 120.033C70.9163 120.032 75.3425 120.238 76.1123 119.595Z" fill="#1A305D"/>
<path d="M56.9335 38.2282C56.7672 43.2874 52.5078 42.0716 48.8917 42.1418C44.672 42.1431 45.4589 36.4859 45.5446 33.7428C45.6915 29.0413 56.2683 27.8727 56.9335 34.1099H66.1117C66.5462 31.3367 67.8614 30.0349 70.7605 30.1361C78.787 30.4156 77.3001 30.6099 77.8581 37.6302C78.344 44.2234 66.3623 43.6857 66.1257 38.5608L66.1153 38.3542C66.114 38.3124 66.1131 38.2705 66.1117 38.2282C65.2129 38.1535 64.3241 38.0968 63.4258 38.2282V49.9423H74.47C74.4695 44.0349 85.8085 44.4376 86.3259 49.3384C87.1471 57.1169 85.1117 58.5771 77.5525 57.8342C75.2182 57.6051 74.5295 55.8781 74.47 53.8131C70.8065 53.7744 67.0929 53.8086 63.4258 53.8131V97.9924H59.5302V53.8131H49.3253C49.2482 58.8295 45.275 57.759 41.4136 57.8369C36.6166 57.9336 37.6789 52.3223 37.6537 49.1854C37.6185 44.8331 50.3187 43.8463 49.3253 49.9423H59.5302V38.2282C58.4602 38.1166 58.0279 38.0919 56.9335 38.2282ZM69.9555 38.2282H73.3689C74.388 38.1634 73.9197 35.0968 73.9066 34.1099C72.6612 34.0312 71.8585 34.0479 70.6109 34.1099C69.3569 34.2017 69.9731 37.0011 69.9555 38.2282ZM49.3253 34.1099V38.2282H53.133C53.1281 36.9759 53.074 35.3249 53.133 34.1099C51.8336 34.0258 50.6256 34.0231 49.3253 34.1099ZM82.373 49.9423C80.6616 49.779 80.0707 49.7443 78.3882 49.9423V53.8131C79.9824 53.9301 80.7716 53.9445 82.373 53.8131V49.9423ZM45.536 53.8131C45.6095 52.4672 45.6144 51.29 45.536 49.9423H41.4822V53.8131H45.536Z" fill="#1A305D"/>
<path d="M68.151 97.9927C68.1519 95.5097 67.9261 76.0779 68.2547 75.204C68.7104 73.9908 70.2554 72.743 71.1528 71.848L79.4413 63.5885C80.7155 62.3191 82.0005 60.952 83.3689 59.7915C85.1957 58.2422 87.7644 60.6843 86.0467 62.4617C84.96 63.6596 83.775 64.7427 82.6302 65.8893L77.038 71.4921C75.5019 73.0103 73.3889 75.0528 71.9894 76.6552V97.9927C70.886 97.9018 69.2913 97.9738 68.151 97.9927Z" fill="#1A305D"/>
<path d="M51.0355 76.6545C48.0738 73.8867 44.9169 70.5707 42.0016 67.6849L38.915 64.6223C34.14 59.9555 36.9413 57.4167 41.9498 62.2649L46.6337 66.8745C47.7551 67.99 54.7959 74.4982 54.8793 75.584C55.0492 77.7944 54.9758 80.3296 54.974 82.5368L54.9645 97.992H51.0355V76.6545Z" fill="#1A305D"/>
<path d="M108.605 59.6375C109.909 59.4602 123.03 63.4817 117.597 66.7819C117.049 66.9093 103.148 63.7778 108.605 59.6375Z" fill="#1A305D"/>
<path d="M5.51777 23.6582C7.11515 23.5542 19.6539 27.7148 13.5416 30.8922C12.4369 31.0213 -0.806834 26.647 5.51777 23.6582Z" fill="#1A305D"/>
<path d="M118.84 43.4641C120.445 43.2193 122.754 43.011 122.991 45.2897C123.286 48.1206 116.882 47.5059 114.938 47.5658C113.974 47.6139 113.386 47.6436 112.433 47.5658C110.407 46.1591 110.666 43.6212 113.126 43.438C114.597 43.3282 117.359 43.3305 118.84 43.4641Z" fill="#1A305D"/>
<path d="M116.694 23.6584C118.292 23.5707 119.413 24.8981 118.846 26.4474C118.35 27.8001 111.583 30.3295 110.104 30.8924C107.365 30.7282 107.064 27.5657 109.399 26.6607C111.576 25.8179 114.515 24.2069 116.694 23.6584Z" fill="#1A305D"/>
<path d="M2.39051 43.464C4.11724 43.4545 9.96272 43.1004 11.2103 43.8878C13.0592 45.0551 11.8909 47.3662 9.72879 47.5656C7.66356 47.5642 2.3247 47.9998 0.791777 46.8659C-1.03322 45.5163 0.634472 43.6201 2.39051 43.464Z" fill="#1A305D"/>
<path d="M12.7152 59.6376C14.3162 59.1957 14.8787 60.0371 15.2262 61.4519C14.62 64.105 9.3208 65.4977 6.70928 66.782C6.26081 66.8018 5.52657 66.7433 5.21782 66.4639C1.66204 63.2447 10.165 60.2027 12.7152 59.6376Z" fill="#1A305D"/>
</svg>
