<svg width="114" height="134" viewBox="0 0 114 134" fill="none" xmlns="http://www.w3.org/2000/svg">
<path d="M56.3271 0.00359007C56.7255 -0.00267641 57.255 -0.0219222 57.5961 0.175472C74.1566 9.76587 92.8325 16.0753 111.857 18.2046C112.336 18.2583 112.951 18.8308 113.314 19.1777C113.42 20.3146 113.32 23.3435 113.318 24.6429L113.321 51.7692C113.331 84.0352 97.0758 110.596 69.3439 127.194C65.5796 129.448 61.0932 132.339 57.0477 133.993C55.1521 134.245 45.3791 128.077 43.2449 126.77C19.7815 112.409 2.03749 87.5982 0.274824 59.6649C0.0948862 56.8128 0.225143 53.6487 0.225143 50.7665L0.235435 25.6809C0.206341 20.2994 -1.3567 18.5407 3.97428 17.782C20.6928 15.4026 37.0716 10.3715 51.9732 2.375C53.4459 1.58453 54.837 0.727816 56.3271 0.00359007ZM56.7152 129.475C76.4009 121.173 95.8077 101.661 103.686 82.0089C109.558 67.3637 109.114 59.5799 109.114 44.4853L109.113 22.0526C91.7989 19.9292 75.3946 14.3064 59.9728 6.31304C59.3274 5.97868 57.148 4.48054 56.7152 4.47293C38.6758 14.3511 23.9872 18.3599 4.34177 22.0526L4.34043 45.773C4.34043 50.4827 4.1399 55.8348 4.49754 60.5122C5.8878 78.7074 15.0087 96.2799 27.683 109.196C36.4373 118.118 45.7788 123.633 56.5232 129.476L56.7152 129.475Z" fill="#1A305D"/>
<path d="M56.3276 20.2736C58.212 20.2431 58.5007 21.3536 59.2173 22.8755C61.5673 27.8676 64.2641 32.768 66.6028 37.7472C66.986 38.5627 66.8566 43.7053 66.8526 44.8601C70.1783 46.5252 78.5579 51.704 81.2337 53.8905C81.2185 51.9672 80.9038 48.9713 81.9284 47.3152C82.6826 46.0964 85.174 46.9132 85.3154 48.1424C85.6265 50.8463 85.4766 53.7795 85.4649 56.5278C86.6918 56.9159 96.6465 62.9505 97.4701 63.9196C98.5117 65.1451 98.1407 71.1121 97.9898 72.7477C97.5888 77.0912 92.4015 74.5005 89.3998 73.7123L75.2067 69.9618C72.6916 69.2904 69.3377 68.2555 66.8526 67.8657C66.8705 73.4755 67.1189 76.8008 64.7779 82.1913C66.5079 82.9598 75.4927 87.4828 76.2733 88.5974C77.028 89.6757 76.8655 94.5479 76.6225 95.6306C75.9354 98.6887 71.9992 97.0871 70.0275 96.6932C67.5844 96.2058 65.0743 95.8284 62.6751 95.1548C61.4473 97.2585 58.5893 103.365 57.5509 104.116C54.4754 105.06 53.0046 97.8319 50.6699 95.1548C49.3159 95.5245 47.0653 95.8441 45.5748 96.1413C35.9678 97.7482 36.6173 98.5687 36.8469 88.6377C38.0443 87.375 46.6522 82.9674 48.6883 82.1913C46.4758 76.9816 46.6387 73.2821 46.649 67.8657C37.2784 69.7398 27.6048 73.0834 18.218 75.205C14.3042 76.09 14.5056 63.9943 17.2149 62.874C20.7197 60.7425 24.1998 58.5729 27.7834 56.5278C27.7986 53.8346 27.6473 51.1145 27.8639 48.4342C27.9906 46.8631 30.3137 46.2723 31.1995 47.253C32.4653 48.654 31.8695 51.9591 31.9541 53.8905C34.0149 52.5164 45.2185 45.2213 46.649 44.8601C46.8088 37.0838 46.1987 39.1849 49.6918 32.0997L54.4647 22.1942C55.0269 21.0202 55.1016 20.7064 56.3276 20.2736ZM41.0517 90.8958C41.0441 91.5722 41.0199 92.2968 41.0517 92.9683C42.8166 92.3246 51.5884 90.3668 53.0055 91.0695C54.2709 91.6971 56.0035 96.1315 56.7157 97.5714L57.5509 96.1834C57.9032 94.9471 59.3565 91.663 60.3995 91.0444C61.8358 90.1922 70.4876 92.5735 72.492 92.9683V90.8958C69.912 89.5732 67.0701 88.0607 64.6096 86.7515C59.6085 84.0896 59.3042 84.4942 61.6017 78.9349C62.8291 75.9651 62.6764 71.1578 62.6769 67.7488L62.6836 51.6686C62.6988 49.7372 62.8649 47.5766 62.4674 45.7002C61.9965 43.4779 57.1906 42.8996 55.4337 43.3548C49.7697 44.002 50.6694 46.6876 50.6663 51.3611L50.6672 67.9771C50.6703 71.707 50.549 75.2749 51.8542 78.8172C52.3269 80.1005 54.1061 82.9437 53.1138 84.2288C52.4576 85.0783 42.8157 89.895 41.0517 90.8958ZM62.6751 40.3509C62.8044 38.5958 58.2339 29.7221 56.7157 27.2638C55.6544 29.1558 50.6743 38.6209 50.8091 40.299C50.8673 40.3218 55.8585 39.368 57.0482 39.3926C59.2836 39.3214 60.549 39.5873 62.6751 40.3509ZM66.8526 49.6727C66.7326 50.7797 66.8401 53.2634 66.8468 54.4993L66.8526 63.4957C69.2285 63.8502 74.0931 65.3729 76.5728 66.0515L93.8817 70.6869V66.3071C90.7592 64.4392 87.7088 62.4769 84.6091 60.5728L74.956 54.7172C72.5564 53.2357 69.2204 50.9914 66.8526 49.6727ZM46.649 49.6727C44.8282 50.5764 42.5203 52.1364 40.7393 53.2303L29.9269 59.8835C26.8698 61.7773 22.2724 64.1277 19.5541 66.3071C19.5514 67.0161 19.4118 70.3405 19.5541 70.6869C28.1978 68.1369 37.8375 65.5453 46.649 63.4957C46.649 62.3646 46.692 49.7529 46.649 49.6727Z" fill="#1A305D"/>
</svg>
