<svg width="134" height="112" viewBox="0 0 134 112" fill="none" xmlns="http://www.w3.org/2000/svg">
<path d="M18.5146 53.2733L18.5075 8.17806C18.5048 6.88597 17.786 0.2282 19.6841 0.119034C23.5365 -0.103324 27.4682 0.0550565 31.3358 0.0496877C33.6048 0.0483455 33.4218 1.02323 33.3694 2.87547V4.65478H61.1013C63.1299 5.82965 73.1054 16.9968 74.8636 19.0973L96.0079 19.091C97.2953 19.0942 101.261 18.5255 101.427 20.4579C101.688 23.476 101.49 26.6481 101.477 29.6757C101.465 32.4992 100.188 32.4254 97.7706 32.237V42.9075C99.1683 44.7293 100.473 46.6384 101.809 48.5076L111.224 61.7681L120.924 61.7587C127.777 61.7547 128.59 60.5463 127.883 67.8559C127.359 71.5461 125.355 74.4175 122.545 76.7471C122.543 79.8753 122.43 83.7127 122.545 86.7778C124.723 86.7317 133.969 85.8374 134 88.3504C134.009 89.1132 123.903 110.548 122.545 111.902C121.531 112.023 118.987 111.904 117.773 111.903L18.5873 111.904C9.71715 111.92 11.6117 113.312 8.44679 104.939L1.49363 86.7979C1.26449 86.2181 0.211159 83.616 0.185151 83.1879C-0.146229 77.7846 0.0595951 71.1206 0.102643 65.6283C0.11206 64.4248 0.322368 63.8105 1.35911 63.2146C2.97476 63.0777 6.84594 63.2101 8.64902 63.2146L8.62885 57.4646C8.57593 53.0349 8.73961 53.2447 12.9928 53.2635L18.5146 53.2733ZM51.0213 92.3649H70.527C71.8041 92.3001 72.9534 92.237 74.2376 92.3649C76.1376 92.3815 78.8263 92.211 80.6052 92.3649C82.0033 90.8787 86.0377 88.0954 87.8529 86.7778L108.505 86.7756C111.785 86.776 115.64 86.8964 118.847 86.7778C120.182 86.712 121.212 86.7353 122.545 86.7778C122.43 83.7127 122.543 79.8753 122.545 76.7471C125.355 74.4175 127.359 71.5461 127.883 67.8559C128.59 60.5463 127.777 61.7547 120.924 61.7587L111.224 61.7681L101.809 48.5076C100.473 46.6384 99.1683 44.7293 97.7706 42.9075V32.237C100.188 32.4254 101.465 32.4992 101.477 29.6757C101.49 26.6481 101.688 23.476 101.427 20.4579C101.261 18.5255 97.2953 19.0942 96.0079 19.091L74.8636 19.0973C73.1054 16.9968 63.1299 5.82965 61.1013 4.65478H33.3694V2.87547C33.3398 3.54567 33.3402 3.98457 33.3694 4.65478C30.6484 4.71205 30.9703 6.55265 29.7417 6.83228V3.68526C27.2458 3.64365 24.6764 3.67586 22.1751 3.68526C22.2405 6.53833 22.5414 12.0892 22.1751 14.7701C20.915 16.7766 20.8854 17.1006 22.1751 19.0973C21.1966 21.469 21.3747 30.1955 22.1751 32.237V53.2733H29.7417V32.237C30.999 32.1985 32.1116 32.1475 33.3694 32.237L33.3725 46.3243C33.3721 47.9175 33.2326 51.8627 33.3694 53.2733C34.2249 53.7243 41.9794 52.3884 42.3135 54.2581C42.6642 56.2186 42.483 61.0491 42.492 63.2146C53.4037 63.1542 51.0343 62.675 51.0262 74.6394L51.0213 92.3649ZM7.64233 92.3649H47.3537C47.477 92.0826 47.3537 69.3632 47.3537 66.9137L18.5402 66.911C13.7507 66.911 8.53423 66.8085 3.77697 66.9137L3.76845 76.463C3.76576 80.6605 3.44694 81.3325 5.01236 85.2983L6.79213 89.8962C7.07329 90.6357 7.48135 91.6214 7.64233 92.3649ZM89.0125 90.451C87.2144 91.786 83.1795 95.0064 81.4921 95.9934H9.12928C10.5256 99.9542 12.3426 104.255 13.8507 108.238C25.5772 108.405 37.7401 108.236 49.4971 108.238L112.552 108.236C114.945 108.236 118.103 108.141 120.443 108.238C123.037 102.325 126.969 96.2461 129.208 90.451L102.326 90.4483C98.1903 90.4483 93.0712 90.3069 89.0125 90.451ZM38.814 57.0302H28.7004H12.361C12.3686 59.0497 12.4103 61.2053 12.361 63.2146H22.515H38.814V57.0302Z" fill="#1A305D"/>
<path d="M33.3692 4.6548C33.3401 3.9846 33.3396 3.54569 33.3692 2.87549V4.6548H61.1011C63.1298 5.82968 73.1052 16.9968 74.8635 19.0973L96.0077 19.0911C97.2951 19.0942 101.26 18.5256 101.427 20.4579C101.688 23.476 101.49 26.6481 101.477 29.6757C101.464 32.4992 100.187 32.4254 97.7704 32.237V42.9075C99.1681 44.7294 100.473 46.6384 101.809 48.5076L111.224 61.7681L120.924 61.7588C127.777 61.7547 128.59 60.5463 127.883 67.8559C127.359 71.5461 125.355 74.4175 122.545 76.7471C122.543 79.8753 122.43 83.7127 122.545 86.7778C121.212 86.7353 120.182 86.7121 118.846 86.7778V78.994C114.768 80.2516 112.089 79.9603 107.887 79.9523L85.0134 79.9541C80.6799 79.9626 78.4477 80.0879 74.2375 78.994L74.2438 87.8784C74.246 89.1938 74.3321 91.1131 74.2375 92.365C72.9532 92.237 71.8039 92.3001 70.5268 92.365V77.003C67.5162 74.2077 65.5678 71.9886 64.5907 67.8161C62.9387 60.7602 64.8095 61.7619 70.817 61.7637L80.605 61.7681C83.9336 57.84 87.564 52.2788 90.4706 47.9721C91.619 46.2707 93.0082 44.6421 94.0647 42.9075V32.237H33.3692V53.2734C33.2324 51.8627 33.3719 47.9175 33.3723 46.3243L33.3692 32.237C32.1114 32.1476 30.9989 32.1986 29.7415 32.237C27.2604 32.2214 24.6296 32.3171 22.1749 32.237C21.3745 30.1955 21.1965 21.469 22.1749 19.0973C20.8853 17.1006 20.9149 16.7767 22.1749 14.7701C23.2475 13.7804 29.472 7.62688 29.7415 6.8323C30.9702 6.55268 30.6482 4.71207 33.3692 4.6548ZM25.3107 28.4395L84.2107 28.4382C85.3497 28.4377 97.8126 28.4534 97.7489 28.4874L97.7704 28.4395C97.765 26.7474 97.6924 24.5476 97.7704 22.8971L33.0123 22.8962C30.8083 22.8958 27.4245 22.7875 25.3107 22.8971V28.4395ZM120.98 72.7876C123.346 71.109 124.246 68.3633 124.352 65.5693H97.7704V76.2948L108.176 76.3037C112.756 76.3064 117.809 76.8174 120.98 72.7876ZM69.6174 19.0973L69.7291 18.9546C68.5157 16.9784 61.4912 10.271 59.65 8.41967L50.5534 8.41296C49.2122 8.41162 47.3271 8.34854 46.0338 8.41967L45.8621 8.54942C46.0688 9.02456 55.169 18.126 56.1896 19.0973H69.6174ZM33.3692 19.0973H51.0211C47.4123 15.5606 43.9985 11.9949 40.4506 8.41967C39.1928 8.38254 33.627 7.89353 33.3692 9.04738V19.0973ZM29.7415 12.6977C28.3021 13.9263 24.6139 17.6594 23.4045 19.0973H29.7415C29.6899 17.9175 29.6514 17.1171 29.7415 15.9297C29.672 14.8001 29.6029 13.8234 29.7415 12.6977ZM94.0647 76.2948V65.5693H67.9565C69.9358 75.8232 76.876 76.3078 85.269 76.3006L94.0647 76.2948ZM94.0647 61.7681C94.0643 60.5825 94.1104 49.7317 94.0647 49.666C92.7621 51.1795 86.0129 60.4506 85.56 61.6496L85.6668 61.7681H94.0647ZM97.7704 49.666C98.1076 53.2349 97.6996 58.048 97.7704 61.7681H106.572C105.82 60.4684 98.4561 50.0279 97.7704 49.666Z" fill="#1A305D"/>
<path d="M29.7412 12.6977C30.1076 11.8919 32.5348 9.08629 33.3689 9.04736V19.0973C32.2465 19.2387 30.882 19.1546 29.7412 19.0973C29.7143 18.1068 29.8201 16.8608 29.7412 15.9297C29.6717 14.8 29.6026 13.8234 29.7412 12.6977Z" fill="#1A305D"/>
<path d="M11.4002 72.7876C12.793 72.7737 14.2029 72.7438 15.5938 72.7876V76.7471H11.4002C11.368 75.8568 11.2666 73.6108 11.4002 72.7876Z" fill="#1A305D"/>
<path d="M13.4381 82.8232H15.595C15.616 84.1552 15.6102 85.4459 15.595 86.7778H13.8511C13.2453 86.7259 12.0525 86.7711 11.4014 86.7778C11.4363 85.4575 11.4148 84.1435 11.4014 82.8232H13.4381Z" fill="#1A305D"/>
<path d="M35.2676 72.7876C36.6532 72.7965 38.0267 72.8046 39.4127 72.7876V76.7471C38.0343 76.7641 36.6465 76.7516 35.2676 76.7471C35.3151 75.3454 35.3093 74.1902 35.2676 72.7876Z" fill="#1A305D"/>
<path d="M23.405 72.7877C24.7157 72.8409 26.1134 72.7411 27.4793 72.7877C27.4936 74.1066 27.4838 75.4282 27.4793 76.7472C25.9417 76.7566 25.0847 76.5879 23.405 76.7472C23.392 75.4188 23.3902 74.116 23.405 72.7877Z" fill="#1A305D"/>
<path d="M23.405 82.8232C24.6561 82.7757 26.2054 82.8196 27.4794 82.8232C27.465 83.5229 27.6901 86.4834 27.4794 86.7777C25.944 86.742 24.9566 86.7088 23.405 86.7777C23.4221 85.4637 23.3629 84.2571 23.2705 82.952L23.405 82.8232Z" fill="#1A305D"/>
<path d="M35.2676 82.8233C36.4684 82.7611 38.176 82.8179 39.4127 82.8233V86.7779C37.5514 86.5511 37.1213 86.6012 35.2676 86.7779V82.8233Z" fill="#1A305D"/>
</svg>
