<svg width="134" height="105" viewBox="0 0 134 105" fill="none" xmlns="http://www.w3.org/2000/svg">
<path d="M66.3596 0.0323455C69.4193 -0.196514 71.0986 0.821729 73.8264 2.05498L122.292 24.4582C125.338 25.9042 128.535 27.1455 131.514 28.7605C134.252 30.2901 135.076 33.9599 132.201 35.9356C131.252 36.5877 129.937 37.074 128.874 37.5613L109.744 46.3849L109.75 59.0562C109.748 70.0642 110.899 67.2088 100.004 69.6414C100.011 69.8233 100.017 69.9963 100.019 70.1782L100.01 84.839C100.009 88.7194 100.943 94.4002 97.77 97.3052C86.3787 107.733 54.9341 106.349 41.2291 100.324C32.9265 96.674 34.0408 93.4289 34.0404 85.7017L34.0439 72.0073V69.6414C31.5648 68.8497 26.9751 68.5882 25.1465 67.1793C25.0293 66.2348 25.1403 62.27 25.1416 61.0278L25.1465 46.7358C22.2611 45.3858 18.2216 43.3382 15.3397 42.1916V64.1183C21.0638 65.829 21.8721 71.1415 18.4029 75.8022C18.9095 79.6414 21.4234 84.8265 22.4322 88.7668C22.0329 89.574 21.9006 89.7452 21.1369 90.211C18.1102 90.2847 15.0585 90.1783 12.0176 90.1998C10.4973 90.2105 4.62527 91.1358 5.42417 88.1584C6.54164 83.9938 8.39161 79.9673 9.48502 75.8022C4.8935 72.1306 7.03977 66.3086 12.0287 64.1183C12.1045 61.6652 12.0323 58.8085 12.0318 56.3197L12.0287 40.6969C9.42754 39.5428 0.578681 36.3785 0.0792066 33.5276C-0.53255 30.0384 2.51955 29.232 5.09534 28.0247L55.3449 4.56974C58.2883 3.21447 63.3909 0.618351 66.3596 0.0323455ZM66.3596 29.1699C69.1564 29.064 72.5752 29.1686 75.4286 29.1695L114.136 29.1699C117.448 29.169 121.145 29.0711 124.417 29.1699C122.523 28.3515 120.65 27.3453 118.776 26.4625L75.0018 6.18562C73.2899 5.39489 68.7465 3.06205 67.1563 3.26409C63.1498 3.97123 56.5929 7.59722 52.7932 9.39457L8.30205 30.185C7.39622 30.6074 3.75999 32.1281 3.2721 32.7051L3.27299 32.8956C4.13204 33.6304 8.94589 35.582 10.2692 36.1912L64.5493 61.389C66.3908 62.2289 67.8688 62.3031 69.7165 61.4596L107.923 43.5795C112.698 41.2708 127.457 35.4604 130.641 32.8518L130.601 32.6712C129.859 32.2582 126.367 32.5112 125.269 32.5121L68.5081 32.5071C65.6717 32.5018 63.8253 31.0794 66.3596 29.1699ZM96.6708 83.1132L96.6637 74.8591C96.6623 73.5083 96.6022 71.7874 96.6708 70.4719C86.8885 73.6321 77.6885 78.2812 70.5782 85.872C65.3799 91.4219 66.5 87.694 61.278 83.372C55.3485 77.9187 45.248 72.3457 37.3589 70.4719L37.3527 85.898C37.3554 92.5085 35.9131 94.5101 42.7957 97.3633C55.7499 102.734 84.4495 104.19 95.3885 94.9987C97.5031 93.2219 96.6547 85.8743 96.6708 83.1132ZM13.2558 67.2343C11.9909 67.414 10.9211 68.2642 10.4577 69.4585C9.99385 70.6525 10.2082 72.0046 11.0182 72.9956C11.8282 73.9866 13.1079 74.4621 14.3657 74.2395C16.266 73.9034 17.547 72.1011 17.244 70.1894C16.941 68.2776 15.1659 66.9625 13.2558 67.2343ZM9.48502 86.8362H15.3397H18.4029C17.3479 83.8543 16.2571 80.4558 15.1151 77.5629C13.9999 77.6049 13.1431 77.6081 12.0287 77.5629C11.8697 80.5573 10.0023 83.7533 9.48502 86.8362ZM106.442 48.1536L106.224 48.2126C104.688 48.6364 101.318 50.355 99.6716 51.1198L77.1298 61.6514C68.7225 65.6175 69.0834 67.1601 59.9133 62.894C49.4359 58.02 38.8569 53.2417 28.4655 48.1536V64.9846C29.3063 65.0888 30.0401 65.1956 30.8738 65.3458C44.045 68.0952 58.2919 74.0697 67.1563 84.6294C75.8777 75.8098 83.8377 70.7566 96.0773 67.2723C99.4101 66.3233 102.978 65.335 106.442 64.9846L106.439 50.7882C106.442 50.3716 106.62 48.2966 106.479 48.1523L106.442 48.1536Z" fill="#1A305D"/>
</svg>
