<svg width="100" height="100" viewBox="0 0 100 100" fill="none" xmlns="http://www.w3.org/2000/svg">
<path d="M81.1618 26.7668H75.3747V21.1259C75.3747 20.5039 74.8708 20 74.2487 20H34.8867C34.2646 20 33.7607 20.5039 33.7607 21.1259V39.7035C33.7607 40.3256 34.2646 40.8294 34.8867 40.8294C35.5087 40.8294 36.0126 40.3256 36.0126 39.7035V22.2515H73.1228V63.8996C73.1228 64.5216 73.6267 65.0255 74.2487 65.0255C74.8708 65.0255 75.3747 64.5216 75.3747 63.8996V29.0186H80.036V62.2674C80.036 66.2419 76.8046 69.4733 72.8301 69.4733H43.2183C41.096 69.4733 39.0862 68.536 37.707 66.9006C37.3045 66.4249 36.5951 66.3658 36.1194 66.7683C35.6437 67.1708 35.5846 67.8802 35.9871 68.3559C37.797 70.498 40.4345 71.728 43.2211 71.728H72.8329C78.0488 71.728 82.2907 67.4861 82.2907 62.2702L82.2878 27.8929C82.2878 27.2709 81.7839 26.7668 81.1618 26.7668Z" fill="#000F29"/>
<path d="M66.8797 25.5764H42.2529C41.6308 25.5764 41.127 26.0803 41.127 26.7023V33.2496C41.127 33.8716 41.6308 34.3755 42.2529 34.3755H66.8797C67.5017 34.3755 68.0056 33.8716 68.0056 33.2496V26.7023C68.0056 26.0803 67.5017 25.5764 66.8797 25.5764ZM65.7537 32.1236H43.3788V27.8283H65.7537V32.1236Z" fill="#000F29"/>
<path d="M42.2539 41.2211H66.8807C68.3529 41.1986 68.3669 38.9946 66.8807 38.9692H42.2539C40.7818 38.9918 40.7677 41.1957 42.2539 41.2211Z" fill="#000F29"/>
<path d="M66.8856 44.7368H49.7832C48.3082 44.7593 48.2998 46.9633 49.7832 46.9887H66.8856C68.3606 46.9661 68.369 44.7622 66.8856 44.7368Z" fill="#000F29"/>
<path d="M66.8855 50.5015H51.8994C50.4245 50.524 50.416 52.728 51.8994 52.7533H66.8855C68.3605 52.7308 68.3689 50.5268 66.8855 50.5015Z" fill="#000F29"/>
<path d="M66.8852 56.2664H51.4942C50.0192 56.2889 50.0108 58.4928 51.4942 58.5182H66.8852C68.3602 58.4957 68.3686 56.2917 66.8852 56.2664Z" fill="#000F29"/>
<path d="M37.876 65.4086C44.73 65.6169 50.799 58.9064 49.6785 51.9623C48.3584 41.5418 34.7998 37.9108 28.4493 46.2848C25.3192 50.2369 25.1926 56.1562 28.0862 60.2492L18.3554 70.6272C16.3175 72.7271 16.6186 76.4595 18.9831 78.1905C21.2799 80.0286 24.9533 79.3446 26.4397 76.8169L33.9324 64.7275C35.2131 65.1779 36.5445 65.4059 37.8759 65.4059L37.876 65.4086ZM30.2392 47.6553C35.3284 40.8716 46.4215 43.8272 47.449 52.2576C48.6312 60.6683 38.7371 66.3848 32.027 61.172C27.8498 58.1039 27.0022 51.7029 30.2392 47.6553ZM24.528 75.6345C23.1628 77.9539 19.4107 77.0757 19.2531 74.3707C19.1855 73.56 19.4614 72.7549 20.0075 72.1638L29.5524 61.9826C30.2364 62.6722 31.0386 63.2859 31.8802 63.7672L24.5281 75.6318L24.528 75.6345Z" fill="#000F29"/>
<path d="M40.7135 60.2915C43.2187 59.5934 44.9638 56.9165 45.2735 54.4085C45.3467 53.792 44.9076 53.2319 44.2883 53.1559C43.6747 53.0883 43.1117 53.5218 43.0357 54.1411C42.9259 55.0587 42.5684 55.9341 42.0027 56.6744C41.5185 57.3077 40.9133 57.8059 40.2068 58.1578C39.1484 58.6644 39.5538 60.3167 40.7107 60.2914L40.7135 60.2915Z" fill="#000F29"/>
<circle cx="50" cy="50" r="49" stroke="#000F29" stroke-width="2"/>
</svg>
