<svg width="100" height="100" viewBox="0 0 100 100" fill="none" xmlns="http://www.w3.org/2000/svg">
<path d="M69.3509 23.0022C69.2941 23.0058 69.2377 23.0146 69.1825 23.0282L60.3678 25.1996C60.121 25.2607 59.9086 25.4173 59.7773 25.6349C59.6461 25.8526 59.6066 26.1135 59.6677 26.3602C59.7287 26.6069 59.8853 26.8193 60.103 26.9506C60.3206 27.0819 60.5815 27.1213 60.8282 27.0603L67.333 25.4561C59.9148 39.2235 43.8307 48.5606 25.6312 49.5079C25.5051 49.5146 25.3816 49.5461 25.2677 49.6007C25.1539 49.6553 25.0519 49.7318 24.9677 49.8259C24.8835 49.92 24.8188 50.0299 24.7771 50.1491C24.7355 50.2683 24.7179 50.3945 24.7252 50.5206C24.7388 50.7739 24.8522 51.0115 25.0406 51.1813C25.229 51.3511 25.4771 51.4393 25.7304 51.4266C44.4905 50.4503 61.1694 40.8634 68.9803 26.4408L70.4348 33.0317C70.4898 33.2792 70.6407 33.4948 70.8544 33.6312C71.068 33.7677 71.327 33.814 71.5747 33.7599C71.8218 33.7048 72.0371 33.5542 72.1735 33.341C72.3099 33.1277 72.3564 32.8692 72.3029 32.6218L70.3505 23.749C70.3005 23.5257 70.1722 23.3277 69.9889 23.1907C69.8056 23.0537 69.5793 22.9868 69.3509 23.0022ZM66.0489 39.1659C65.7948 39.1649 65.5506 39.2649 65.3702 39.444C65.1897 39.623 65.0878 39.8664 65.0868 40.1205V76.0813H61.4853V49.1206C61.485 48.9945 61.4599 48.8698 61.4114 48.7535C61.3629 48.6372 61.2919 48.5316 61.2026 48.4428C61.1132 48.3539 61.0072 48.2836 60.8906 48.2358C60.774 48.1879 60.6491 48.1636 60.5231 48.164H52.6631C52.4099 48.165 52.1674 48.2662 51.9885 48.4454C51.8096 48.6246 51.7089 48.8673 51.7084 49.1206V76.0813H48.0994V54.2626C48.0984 54.0097 47.9975 53.7675 47.8187 53.5887C47.6399 53.4099 47.3977 53.309 47.1448 53.308H39.2772C39.0244 53.309 38.7821 53.4099 38.6033 53.5887C38.4245 53.7675 38.3236 54.0097 38.3226 54.2626V76.0813H34.7211V57.4036C34.7201 57.1495 34.6181 56.9061 34.4377 56.7271C34.2573 56.5481 34.0131 56.448 33.7589 56.449H25.8989C25.6447 56.448 25.4006 56.548 25.2201 56.7271C25.0397 56.9061 24.9378 57.1495 24.9367 57.4036V76.0813H23.0686C22.9421 76.0808 22.8168 76.1054 22.6998 76.1535C22.5829 76.2017 22.4766 76.2726 22.3872 76.362C22.2977 76.4515 22.2269 76.5577 22.1787 76.6747C22.1305 76.7916 22.106 76.917 22.1065 77.0435C22.1067 77.1695 22.1318 77.2942 22.1803 77.4105C22.2288 77.5268 22.2998 77.6324 22.3891 77.7213C22.4785 77.8101 22.5845 77.8805 22.7011 77.9283C22.8177 77.9761 22.9426 78.0005 23.0686 78H76.7393C76.9925 77.999 77.235 77.8978 77.4139 77.7186C77.5928 77.5394 77.6934 77.2967 77.6939 77.0435C77.6944 76.9176 77.6701 76.7929 77.6224 76.6764C77.5747 76.5599 77.5045 76.454 77.4159 76.3647C77.3272 76.2753 77.2218 76.2043 77.1057 76.1557C76.9897 76.1071 76.8651 76.0818 76.7393 76.0813H74.8636V40.1205C74.8626 39.8677 74.7617 39.6254 74.5829 39.4466C74.4041 39.2678 74.1619 39.1669 73.909 39.1659H66.0489ZM67.0036 41.0827H72.9468V76.0813H67.0036V41.0827ZM53.6252 50.0827H59.5685V76.0813H53.6252V50.0827ZM40.2394 55.2248H46.1826V76.0813H40.2394V55.2248ZM26.8554 58.3602H32.8043V76.0813H26.8554V58.3602Z" fill="#000F29"/>
<circle cx="50" cy="50" r="49" stroke="#000F29" stroke-width="2"/>
</svg>
