<svg width="100" height="100" viewBox="0 0 100 100" fill="none" xmlns="http://www.w3.org/2000/svg">
<path d="M43.3629 48.6343C43.3189 48.6343 43.2712 48.6233 43.2309 48.605C42.4021 48.2016 34.9176 44.5529 27.5469 40.6145C13.4617 33.0898 13.0402 31.5717 12.9003 31.073C12.827 30.809 12.8966 30.622 12.97 30.5119C13.0103 30.4533 13.069 30.4093 13.135 30.3873C17.2348 29.1074 24.9869 31.2343 28.8405 33.3465C30.9491 32.7268 34.8912 32.0484 38.4957 34.0982C41.004 35.5247 46.8456 39.9068 47.337 40.2772C48.1511 40.6659 49.3356 41.3406 50.586 42.0556C52.4343 43.1117 54.5244 44.3072 55.9069 44.8463L67.6303 43.4528C67.7989 43.4308 67.9493 43.5518 67.9676 43.7205C67.986 43.8892 67.8686 44.0395 67.6999 44.0579L55.8996 45.4587C55.852 45.466 55.8006 45.4587 55.7566 45.4403C54.3302 44.9013 52.1812 43.6692 50.2817 42.5837C49.0277 41.865 47.8431 41.1865 47.0474 40.8125C47.0291 40.8052 47.0107 40.7942 46.9961 40.7795C46.9337 40.7319 40.7254 36.0601 38.1951 34.6226C34.7188 32.646 30.8757 33.3611 28.8955 33.9625C28.8149 33.9882 28.7305 33.9772 28.6572 33.9369C25.0781 31.9383 17.4727 29.8042 13.4942 30.9152C13.6923 31.5826 15.8302 33.6581 27.8395 40.0754C35.203 44.0101 42.6767 47.6515 43.5056 48.0549C43.656 48.1282 43.722 48.3116 43.645 48.4619C43.5937 48.5719 43.4836 48.6342 43.37 48.6342L43.3629 48.6343Z" fill="#000F29"/>
<path fill-rule="evenodd" clip-rule="evenodd" d="M56.1286 48.5172L58.2555 49.2946C58.3325 49.324 58.3765 49.412 58.3471 49.489C58.3361 49.522 58.3141 49.5477 58.2885 49.566L55.3402 51.6012C55.2998 51.6306 55.2485 51.6342 55.2008 51.6196L53.074 50.8422C52.9969 50.8128 52.9529 50.7285 52.9823 50.6478C52.9933 50.6148 53.0153 50.5891 53.041 50.5708L55.9892 48.5356C56.0296 48.5062 56.0809 48.5026 56.1286 48.5172ZM60.5951 50.3801C60.551 50.3654 60.4997 50.3691 60.4557 50.3984L57.423 52.4923C57.3937 52.5107 57.3717 52.5364 57.3607 52.5694C57.3313 52.6464 57.3717 52.7344 57.4524 52.7637L59.7406 53.6071C59.7846 53.6218 59.8359 53.6181 59.8799 53.5888L62.9126 51.4949C62.942 51.4766 62.964 51.4509 62.975 51.4179C63.0043 51.3409 62.964 51.2529 62.8833 51.2235L60.5951 50.3801ZM67.0601 58.0699C67.0197 57.9965 67.0454 57.9048 67.1187 57.8645C67.1921 57.8242 67.2837 57.8498 67.3241 57.9232L68.6626 60.2994C68.6662 60.303 68.6662 60.3067 68.6699 60.3104L71.0682 64.5678L75.399 66.1666L74.5079 61.7516C74.5079 61.7479 74.5042 61.7406 74.5042 61.7369L74.1558 60.006C74.1412 59.9253 74.1925 59.8446 74.2732 59.8263C74.3539 59.8116 74.4346 59.863 74.4529 59.9437L74.7829 61.5828L75.1203 61.6525C76.7595 61.9899 78.2959 62.3052 79.605 62.6096L81.8053 59.3495L78.0686 57.4793C77.9952 57.4427 77.9622 57.351 78.0026 57.2777C78.0172 57.2483 78.0392 57.23 78.0612 57.2153L83.6388 53.827L78.0026 51.5497L70.2577 52.5765C70.2284 52.5802 70.1991 52.5765 70.1734 52.5619L66.8584 50.9997C66.7814 50.963 66.7521 50.875 66.7851 50.798C66.7961 50.776 66.8108 50.7576 66.8291 50.743L73.3968 45.4698C73.4371 45.4368 73.4848 45.4294 73.5288 45.4404L74.9479 45.8181L76.2901 44.729L66.1139 40.1379C65.9342 40.0756 65.7838 40.0206 65.6298 39.9656C64.4674 39.5438 63.3562 39.1405 61.3357 39.4302C61.5887 39.8519 62.0105 40.3139 62.5019 40.7393C63.0703 41.227 63.7376 41.6597 64.3574 41.92L67.6761 43.4638C67.7532 43.5005 67.7862 43.5885 67.7495 43.6655C67.7275 43.7169 67.6798 43.7462 67.6285 43.7535L55.8648 45.1507C55.8355 45.1543 55.8098 45.1507 55.7841 45.1397C54.3723 44.6043 52.2564 43.3941 50.3532 42.3051C49.0917 41.5827 47.9256 40.9153 47.1298 40.5376C47.1115 40.5596 47.0895 40.5779 47.0601 40.5853C42.568 42.14 35.8316 37.9927 31.1377 35.0993C30.2797 34.5713 29.4912 34.0836 28.7908 33.6802L28.7872 33.6766C26.774 32.5545 23.5322 31.3883 20.3456 30.776C17.7713 30.2809 15.241 30.1489 13.4405 30.688C13.2791 31.0437 13.6972 31.6341 14.5003 32.3712C15.3547 33.1522 16.6381 34.0727 18.138 35.0408C23.2352 38.3338 30.7785 42.1475 32.3368 42.9029C33.844 43.6363 35.4868 44.4651 37.2177 45.3598C38.8091 46.1813 40.4887 47.065 42.2085 47.9818L39.9972 43.4457C39.9899 43.4274 39.9826 43.409 39.9826 43.3907C39.9752 43.3064 40.0376 43.233 40.1219 43.2257C41.2477 43.1303 43.9137 44.0948 46.3229 45.3525C48.4425 46.46 50.3787 47.8058 50.9177 48.8692C50.9287 48.8876 50.9324 48.9096 50.9324 48.9316L51.0424 52.7086C52.6046 53.5447 54.1521 54.3734 55.6812 55.1801C57.2177 55.9942 58.6882 56.7606 60.0487 57.4574C61.1158 58.0038 62.4249 58.5025 63.8807 58.9609C65.2338 59.3899 66.7116 59.7823 68.2262 60.149L67.0527 58.0698L67.0601 58.0699ZM78.2004 46.9409C78.0097 46.8529 77.929 46.6255 78.017 46.4385C78.105 46.2478 78.3324 46.1671 78.5194 46.2551L87.9108 50.6482C88.1015 50.7363 88.1822 50.9636 88.0942 51.1506C88.0062 51.3413 87.7788 51.422 87.5918 51.334L78.2004 46.9409ZM55.2156 63.8967C55.0249 63.8087 54.9443 63.5814 55.0323 63.3944C55.1203 63.2037 55.3477 63.123 55.5347 63.211L67.3904 68.7555C67.581 68.8435 67.6617 69.0709 67.5737 69.2579C67.4857 69.4486 67.2583 69.5293 67.0713 69.4412L55.2156 63.8967ZM77.6578 67.3144C77.4671 67.2264 77.3864 66.999 77.4744 66.812C77.5624 66.6213 77.7898 66.5406 77.9768 66.6287L83.9028 69.4009C84.0935 69.4889 84.1741 69.7163 84.0861 69.9033C83.9981 70.094 83.7708 70.1746 83.5837 70.0866L77.6578 67.3144ZM64.6136 52.2248C64.6833 52.1771 64.7786 52.1954 64.8227 52.2651C64.8703 52.3348 64.852 52.4301 64.7823 52.4741L61.5553 54.6597C61.4856 54.7073 61.3903 54.689 61.3463 54.6193C61.2986 54.5496 61.3169 54.4543 61.3866 54.4103L64.6136 52.2248ZM40.3784 43.5193C41.5592 43.5596 43.9721 44.4617 46.1871 45.6168C48.2406 46.6876 50.1072 47.9747 50.6352 48.9758L50.9506 59.6908C50.9506 59.7495 50.9873 59.8045 51.0459 59.8265L52.5678 60.4316L52.9491 62.7748L40.089 58.5504C39.2896 58.268 38.3801 57.828 37.5807 57.2082C37.0013 56.7572 36.4842 56.2145 36.1139 55.5617C36.5906 55.4481 37.3973 55.3527 38.3288 55.4371C39.0475 55.4994 39.836 55.6718 40.5951 56.0275C40.6024 56.0311 40.6061 56.0348 40.6134 56.0348C42.7587 56.8195 47.2178 58.5944 47.4745 58.697C47.5148 58.719 47.5661 58.719 47.6101 58.697C47.6872 58.6604 47.7165 58.5687 47.6798 58.4953L40.3784 43.5193Z" fill="#000F29"/>
<path d="M43.3629 48.6343C43.3189 48.6343 43.2712 48.6233 43.2309 48.605C42.4021 48.2016 34.9176 44.5529 27.5469 40.6145C13.4617 33.0898 13.0402 31.5717 12.9003 31.073C12.827 30.809 12.8966 30.622 12.97 30.5119C13.0103 30.4533 13.069 30.4093 13.135 30.3873C17.2348 29.1074 24.9869 31.2343 28.8405 33.3465C30.9491 32.7268 34.8912 32.0484 38.4957 34.0982C41.004 35.5247 46.8456 39.9068 47.337 40.2772C48.1511 40.6659 49.3356 41.3406 50.586 42.0556C52.4343 43.1117 54.5244 44.3072 55.9069 44.8463L67.6303 43.4528C67.7989 43.4308 67.9493 43.5518 67.9676 43.7205C67.986 43.8892 67.8686 44.0395 67.6999 44.0579L55.8996 45.4587C55.852 45.466 55.8006 45.4587 55.7566 45.4403C54.3302 44.9013 52.1812 43.6692 50.2817 42.5837C49.0277 41.865 47.8431 41.1865 47.0474 40.8125C47.0291 40.8052 47.0107 40.7942 46.9961 40.7795C46.9337 40.7319 40.7254 36.0601 38.1951 34.6226C34.7188 32.646 30.8757 33.3611 28.8955 33.9625C28.8149 33.9882 28.7305 33.9772 28.6572 33.9369C25.0781 31.9383 17.4727 29.8042 13.4942 30.9152C13.6923 31.5826 15.8302 33.6581 27.8395 40.0754C35.203 44.0101 42.6767 47.6515 43.5056 48.0549C43.656 48.1282 43.722 48.3116 43.645 48.4619C43.5937 48.5719 43.4836 48.6342 43.37 48.6342L43.3629 48.6343Z" fill="#000F29"/>
<path fill-rule="evenodd" clip-rule="evenodd" d="M56.1286 48.5172L58.2555 49.2946C58.3325 49.324 58.3765 49.412 58.3471 49.489C58.3361 49.522 58.3141 49.5477 58.2885 49.566L55.3402 51.6012C55.2998 51.6306 55.2485 51.6342 55.2008 51.6196L53.074 50.8422C52.9969 50.8128 52.9529 50.7285 52.9823 50.6478C52.9933 50.6148 53.0153 50.5891 53.041 50.5708L55.9892 48.5356C56.0296 48.5062 56.0809 48.5026 56.1286 48.5172ZM60.5951 50.3801C60.551 50.3654 60.4997 50.3691 60.4557 50.3984L57.423 52.4923C57.3937 52.5107 57.3717 52.5364 57.3607 52.5694C57.3313 52.6464 57.3717 52.7344 57.4524 52.7637L59.7406 53.6071C59.7846 53.6218 59.8359 53.6181 59.8799 53.5888L62.9126 51.4949C62.942 51.4766 62.964 51.4509 62.975 51.4179C63.0043 51.3409 62.964 51.2529 62.8833 51.2235L60.5951 50.3801ZM67.0601 58.0699C67.0197 57.9965 67.0454 57.9048 67.1187 57.8645C67.1921 57.8242 67.2837 57.8498 67.3241 57.9232L68.6626 60.2994C68.6662 60.303 68.6662 60.3067 68.6699 60.3104L71.0682 64.5678L75.399 66.1666L74.5079 61.7516C74.5079 61.7479 74.5042 61.7406 74.5042 61.7369L74.1558 60.006C74.1412 59.9253 74.1925 59.8446 74.2732 59.8263C74.3539 59.8116 74.4346 59.863 74.4529 59.9437L74.7829 61.5828L75.1203 61.6525C76.7595 61.9899 78.2959 62.3052 79.605 62.6096L81.8053 59.3495L78.0686 57.4793C77.9952 57.4427 77.9622 57.351 78.0026 57.2777C78.0172 57.2483 78.0392 57.23 78.0612 57.2153L83.6388 53.827L78.0026 51.5497L70.2577 52.5765C70.2284 52.5802 70.1991 52.5765 70.1734 52.5619L66.8584 50.9997C66.7814 50.963 66.7521 50.875 66.7851 50.798C66.7961 50.776 66.8108 50.7576 66.8291 50.743L73.3968 45.4698C73.4371 45.4368 73.4848 45.4294 73.5288 45.4404L74.9479 45.8181L76.2901 44.729L66.1139 40.1379C65.9342 40.0756 65.7838 40.0206 65.6298 39.9656C64.4674 39.5438 63.3562 39.1405 61.3357 39.4302C61.5887 39.8519 62.0105 40.3139 62.5019 40.7393C63.0703 41.227 63.7376 41.6597 64.3574 41.92L67.6761 43.4638C67.7532 43.5005 67.7862 43.5885 67.7495 43.6655C67.7275 43.7169 67.6798 43.7462 67.6285 43.7535L55.8648 45.1507C55.8355 45.1543 55.8098 45.1507 55.7841 45.1397C54.3723 44.6043 52.2564 43.3941 50.3532 42.3051C49.0917 41.5827 47.9256 40.9153 47.1298 40.5376C47.1115 40.5596 47.0895 40.5779 47.0601 40.5853C42.568 42.14 35.8316 37.9927 31.1377 35.0993C30.2797 34.5713 29.4912 34.0836 28.7908 33.6802L28.7872 33.6766C26.774 32.5545 23.5322 31.3883 20.3456 30.776C17.7713 30.2809 15.241 30.1489 13.4405 30.688C13.2791 31.0437 13.6972 31.6341 14.5003 32.3712C15.3547 33.1522 16.6381 34.0727 18.138 35.0408C23.2352 38.3338 30.7785 42.1475 32.3368 42.9029C33.844 43.6363 35.4868 44.4651 37.2177 45.3598C38.8091 46.1813 40.4887 47.065 42.2085 47.9818L39.9972 43.4457C39.9899 43.4274 39.9826 43.409 39.9826 43.3907C39.9752 43.3064 40.0376 43.233 40.1219 43.2257C41.2477 43.1303 43.9137 44.0948 46.3229 45.3525C48.4425 46.46 50.3787 47.8058 50.9177 48.8692C50.9287 48.8876 50.9324 48.9096 50.9324 48.9316L51.0424 52.7086C52.6046 53.5447 54.1521 54.3734 55.6812 55.1801C57.2177 55.9942 58.6882 56.7606 60.0487 57.4574C61.1158 58.0038 62.4249 58.5025 63.8807 58.9609C65.2338 59.3899 66.7116 59.7823 68.2262 60.149L67.0527 58.0698L67.0601 58.0699ZM78.2004 46.9409C78.0097 46.8529 77.929 46.6255 78.017 46.4385C78.105 46.2478 78.3324 46.1671 78.5194 46.2551L87.9108 50.6482C88.1015 50.7363 88.1822 50.9636 88.0942 51.1506C88.0062 51.3413 87.7788 51.422 87.5918 51.334L78.2004 46.9409ZM55.2156 63.8967C55.0249 63.8087 54.9443 63.5814 55.0323 63.3944C55.1203 63.2037 55.3477 63.123 55.5347 63.211L67.3904 68.7555C67.581 68.8435 67.6617 69.0709 67.5737 69.2579C67.4857 69.4486 67.2583 69.5293 67.0713 69.4412L55.2156 63.8967ZM77.6578 67.3144C77.4671 67.2264 77.3864 66.999 77.4744 66.812C77.5624 66.6213 77.7898 66.5406 77.9768 66.6287L83.9028 69.4009C84.0935 69.4889 84.1741 69.7163 84.0861 69.9033C83.9981 70.094 83.7708 70.1746 83.5837 70.0866L77.6578 67.3144ZM64.6136 52.2248C64.6833 52.1771 64.7786 52.1954 64.8227 52.2651C64.8703 52.3348 64.852 52.4301 64.7823 52.4741L61.5553 54.6597C61.4856 54.7073 61.3903 54.689 61.3463 54.6193C61.2986 54.5496 61.3169 54.4543 61.3866 54.4103L64.6136 52.2248ZM40.3784 43.5193C41.5592 43.5596 43.9721 44.4617 46.1871 45.6168C48.2406 46.6876 50.1072 47.9747 50.6352 48.9758L50.9506 59.6908C50.9506 59.7495 50.9873 59.8045 51.0459 59.8265L52.5678 60.4316L52.9491 62.7748L40.089 58.5504C39.2896 58.268 38.3801 57.828 37.5807 57.2082C37.0013 56.7572 36.4842 56.2145 36.1139 55.5617C36.5906 55.4481 37.3973 55.3527 38.3288 55.4371C39.0475 55.4994 39.836 55.6718 40.5951 56.0275C40.6024 56.0311 40.6061 56.0348 40.6134 56.0348C42.7587 56.8195 47.2178 58.5944 47.4745 58.697C47.5148 58.719 47.5661 58.719 47.6101 58.697C47.6872 58.6604 47.7165 58.5687 47.6798 58.4953L40.3784 43.5193Z" fill="#000F29"/>
<path d="M43.3629 48.6343C43.3189 48.6343 43.2712 48.6233 43.2309 48.605C42.4021 48.2016 34.9176 44.5529 27.5469 40.6145C13.4617 33.0898 13.0402 31.5717 12.9003 31.073C12.827 30.809 12.8966 30.622 12.97 30.5119C13.0103 30.4533 13.069 30.4093 13.135 30.3873C17.2348 29.1074 24.9869 31.2343 28.8405 33.3465C30.9491 32.7268 34.8912 32.0484 38.4957 34.0982C41.004 35.5247 46.8456 39.9068 47.337 40.2772C48.1511 40.6659 49.3356 41.3406 50.586 42.0556C52.4343 43.1117 54.5244 44.3072 55.9069 44.8463L67.6303 43.4528C67.7989 43.4308 67.9493 43.5518 67.9676 43.7205C67.986 43.8892 67.8686 44.0395 67.6999 44.0579L55.8996 45.4587C55.852 45.466 55.8006 45.4587 55.7566 45.4403C54.3302 44.9013 52.1812 43.6692 50.2817 42.5837C49.0277 41.865 47.8431 41.1865 47.0474 40.8125C47.0291 40.8052 47.0107 40.7942 46.9961 40.7795C46.9337 40.7319 40.7254 36.0601 38.1951 34.6226C34.7188 32.646 30.8757 33.3611 28.8955 33.9625C28.8149 33.9882 28.7305 33.9772 28.6572 33.9369C25.0781 31.9383 17.4727 29.8042 13.4942 30.9152C13.6923 31.5826 15.8302 33.6581 27.8395 40.0754C35.203 44.0101 42.6767 47.6515 43.5056 48.0549C43.656 48.1282 43.722 48.3116 43.645 48.4619C43.5937 48.5719 43.4836 48.6342 43.37 48.6342L43.3629 48.6343Z" fill="#000F29"/>
<path fill-rule="evenodd" clip-rule="evenodd" d="M56.1286 48.5172L58.2555 49.2946C58.3325 49.324 58.3765 49.412 58.3471 49.489C58.3361 49.522 58.3141 49.5477 58.2885 49.566L55.3402 51.6012C55.2998 51.6306 55.2485 51.6342 55.2008 51.6196L53.074 50.8422C52.9969 50.8128 52.9529 50.7285 52.9823 50.6478C52.9933 50.6148 53.0153 50.5891 53.041 50.5708L55.9892 48.5356C56.0296 48.5062 56.0809 48.5026 56.1286 48.5172ZM60.5951 50.3801C60.551 50.3654 60.4997 50.3691 60.4557 50.3984L57.423 52.4923C57.3937 52.5107 57.3717 52.5364 57.3607 52.5694C57.3313 52.6464 57.3717 52.7344 57.4524 52.7637L59.7406 53.6071C59.7846 53.6218 59.8359 53.6181 59.8799 53.5888L62.9126 51.4949C62.942 51.4766 62.964 51.4509 62.975 51.4179C63.0043 51.3409 62.964 51.2529 62.8833 51.2235L60.5951 50.3801ZM67.0601 58.0699C67.0197 57.9965 67.0454 57.9048 67.1187 57.8645C67.1921 57.8242 67.2837 57.8498 67.3241 57.9232L68.6626 60.2994C68.6662 60.303 68.6662 60.3067 68.6699 60.3104L71.0682 64.5678L75.399 66.1666L74.5079 61.7516C74.5079 61.7479 74.5042 61.7406 74.5042 61.7369L74.1558 60.006C74.1412 59.9253 74.1925 59.8446 74.2732 59.8263C74.3539 59.8116 74.4346 59.863 74.4529 59.9437L74.7829 61.5828L75.1203 61.6525C76.7595 61.9899 78.2959 62.3052 79.605 62.6096L81.8053 59.3495L78.0686 57.4793C77.9952 57.4427 77.9622 57.351 78.0026 57.2777C78.0172 57.2483 78.0392 57.23 78.0612 57.2153L83.6388 53.827L78.0026 51.5497L70.2577 52.5765C70.2284 52.5802 70.1991 52.5765 70.1734 52.5619L66.8584 50.9997C66.7814 50.963 66.7521 50.875 66.7851 50.798C66.7961 50.776 66.8108 50.7576 66.8291 50.743L73.3968 45.4698C73.4371 45.4368 73.4848 45.4294 73.5288 45.4404L74.9479 45.8181L76.2901 44.729L66.1139 40.1379C65.9342 40.0756 65.7838 40.0206 65.6298 39.9656C64.4674 39.5438 63.3562 39.1405 61.3357 39.4302C61.5887 39.8519 62.0105 40.3139 62.5019 40.7393C63.0703 41.227 63.7376 41.6597 64.3574 41.92L67.6761 43.4638C67.7532 43.5005 67.7862 43.5885 67.7495 43.6655C67.7275 43.7169 67.6798 43.7462 67.6285 43.7535L55.8648 45.1507C55.8355 45.1543 55.8098 45.1507 55.7841 45.1397C54.3723 44.6043 52.2564 43.3941 50.3532 42.3051C49.0917 41.5827 47.9256 40.9153 47.1298 40.5376C47.1115 40.5596 47.0895 40.5779 47.0601 40.5853C42.568 42.14 35.8316 37.9927 31.1377 35.0993C30.2797 34.5713 29.4912 34.0836 28.7908 33.6802L28.7872 33.6766C26.774 32.5545 23.5322 31.3883 20.3456 30.776C17.7713 30.2809 15.241 30.1489 13.4405 30.688C13.2791 31.0437 13.6972 31.6341 14.5003 32.3712C15.3547 33.1522 16.6381 34.0727 18.138 35.0408C23.2352 38.3338 30.7785 42.1475 32.3368 42.9029C33.844 43.6363 35.4868 44.4651 37.2177 45.3598C38.8091 46.1813 40.4887 47.065 42.2085 47.9818L39.9972 43.4457C39.9899 43.4274 39.9826 43.409 39.9826 43.3907C39.9752 43.3064 40.0376 43.233 40.1219 43.2257C41.2477 43.1303 43.9137 44.0948 46.3229 45.3525C48.4425 46.46 50.3787 47.8058 50.9177 48.8692C50.9287 48.8876 50.9324 48.9096 50.9324 48.9316L51.0424 52.7086C52.6046 53.5447 54.1521 54.3734 55.6812 55.1801C57.2177 55.9942 58.6882 56.7606 60.0487 57.4574C61.1158 58.0038 62.4249 58.5025 63.8807 58.9609C65.2338 59.3899 66.7116 59.7823 68.2262 60.149L67.0527 58.0698L67.0601 58.0699ZM78.2004 46.9409C78.0097 46.8529 77.929 46.6255 78.017 46.4385C78.105 46.2478 78.3324 46.1671 78.5194 46.2551L87.9108 50.6482C88.1015 50.7363 88.1822 50.9636 88.0942 51.1506C88.0062 51.3413 87.7788 51.422 87.5918 51.334L78.2004 46.9409ZM55.2156 63.8967C55.0249 63.8087 54.9443 63.5814 55.0323 63.3944C55.1203 63.2037 55.3477 63.123 55.5347 63.211L67.3904 68.7555C67.581 68.8435 67.6617 69.0709 67.5737 69.2579C67.4857 69.4486 67.2583 69.5293 67.0713 69.4412L55.2156 63.8967ZM77.6578 67.3144C77.4671 67.2264 77.3864 66.999 77.4744 66.812C77.5624 66.6213 77.7898 66.5406 77.9768 66.6287L83.9028 69.4009C84.0935 69.4889 84.1741 69.7163 84.0861 69.9033C83.9981 70.094 83.7708 70.1746 83.5837 70.0866L77.6578 67.3144ZM64.6136 52.2248C64.6833 52.1771 64.7786 52.1954 64.8227 52.2651C64.8703 52.3348 64.852 52.4301 64.7823 52.4741L61.5553 54.6597C61.4856 54.7073 61.3903 54.689 61.3463 54.6193C61.2986 54.5496 61.3169 54.4543 61.3866 54.4103L64.6136 52.2248ZM40.3784 43.5193C41.5592 43.5596 43.9721 44.4617 46.1871 45.6168C48.2406 46.6876 50.1072 47.9747 50.6352 48.9758L50.9506 59.6908C50.9506 59.7495 50.9873 59.8045 51.0459 59.8265L52.5678 60.4316L52.9491 62.7748L40.089 58.5504C39.2896 58.268 38.3801 57.828 37.5807 57.2082C37.0013 56.7572 36.4842 56.2145 36.1139 55.5617C36.5906 55.4481 37.3973 55.3527 38.3288 55.4371C39.0475 55.4994 39.836 55.6718 40.5951 56.0275C40.6024 56.0311 40.6061 56.0348 40.6134 56.0348C42.7587 56.8195 47.2178 58.5944 47.4745 58.697C47.5148 58.719 47.5661 58.719 47.6101 58.697C47.6872 58.6604 47.7165 58.5687 47.6798 58.4953L40.3784 43.5193Z" fill="#000F29"/>
<path d="M83.9316 69.8118C83.8436 69.9988 83.6199 70.0831 83.4292 69.9951L77.5289 67.2339C77.3419 67.1459 77.2575 66.9222 77.3455 66.7315C77.4335 66.5445 77.6572 66.4601 77.8479 66.5481L83.7482 69.3094C83.9353 69.3974 84.0196 69.6211 83.9316 69.8118ZM74.3975 61.693L75.2849 66.0898L70.9762 64.502L68.5889 60.2666C68.5852 60.2629 68.5852 60.2592 68.5815 60.2556L67.2504 57.8904C67.21 57.817 67.1184 57.7914 67.045 57.8317C66.9717 57.872 66.946 57.9637 66.9863 58.0371L68.1525 60.1052C66.6416 59.7385 65.1748 59.3462 63.8253 58.9208C62.3805 58.4624 61.075 57.9674 60.0116 57.4246C58.6548 56.7315 57.1953 55.9688 55.6625 55.1583C54.1407 54.3553 52.5969 53.5302 51.0456 52.6978L50.9356 48.9391C50.9356 48.9171 50.9283 48.8951 50.921 48.8767C50.3856 47.817 48.4567 46.4785 46.3481 45.3747C43.9499 44.1206 41.2986 43.1634 40.1765 43.2551C40.0922 43.2625 40.0298 43.3358 40.0371 43.4165C40.0371 43.4348 40.0445 43.4568 40.0518 43.4715L41.9037 47.2669C42.0614 47.3439 42.2117 47.4173 42.3474 47.4833L40.4295 43.5486C41.6067 43.5889 44.0086 44.4873 46.2088 45.6351C48.2513 46.7022 50.1105 47.982 50.6386 48.9758L50.954 59.6392C50.954 59.6978 50.9907 59.7528 51.0493 59.7748L52.5638 60.3762L52.9452 62.7085L40.147 58.506C39.3513 58.2237 38.4455 57.7873 37.6497 57.1712C37.074 56.7238 36.5606 56.1811 36.1902 55.5321C36.6633 55.4184 37.47 55.323 38.3942 55.4074C39.1092 55.4697 39.894 55.6421 40.6493 55.9941C40.6567 55.9978 40.6604 56.0014 40.6677 56.0014C42.8055 56.7825 47.2427 58.55 47.4957 58.6527C47.536 58.671 47.5837 58.6747 47.6277 58.6527C47.7011 58.616 47.7341 58.5243 47.6974 58.451L42.7835 48.3706C40.8693 47.4355 34.2246 44.1645 27.6572 40.6551C13.6376 33.167 13.2161 31.6563 13.081 31.1614C13.0076 30.9011 13.0773 30.7141 13.1506 30.6041C13.191 30.5454 13.246 30.5014 13.3157 30.4794C17.3971 29.2069 25.1084 31.3228 28.948 33.424C31.0456 32.8043 34.973 32.1332 38.5591 34.1721C41.0564 35.5912 46.8686 39.955 47.36 40.3217C48.1704 40.7067 49.3475 41.3815 50.5943 42.0929C52.4351 43.1453 54.5144 44.337 55.8895 44.8688L67.5584 43.4826C67.5841 43.4789 67.6061 43.5009 67.6317 43.5009C67.6244 43.4973 67.6244 43.4863 67.6171 43.4826L64.3131 41.9461C63.6933 41.6894 63.0333 41.2567 62.4648 40.7727C61.9734 40.351 61.5554 39.8926 61.3024 39.4709C63.3119 39.1849 64.423 39.5882 65.5782 40.0063C65.7285 40.0613 65.8789 40.1163 66.0585 40.1786L76.1869 44.7514L74.8521 45.8368L73.4402 45.4591C73.3962 45.4481 73.3449 45.4554 73.3082 45.4884L66.7699 50.7359C66.7516 50.7506 66.7369 50.7689 66.7259 50.7909C66.6892 50.8679 66.7223 50.9559 66.7993 50.9926L70.0996 52.5474C70.1252 52.5584 70.1546 52.5657 70.1839 52.5621L77.892 51.5427L83.5027 53.8089L77.9507 57.1826C77.925 57.1973 77.903 57.2193 77.892 57.245C77.8554 57.3183 77.8847 57.41 77.958 57.4466L81.6801 59.3059L79.4909 62.5512C78.1891 62.2505 76.6599 61.9351 75.0281 61.5977L74.6944 61.5281L74.3643 59.8962C74.3497 59.8156 74.269 59.7606 74.1883 59.7789C74.1076 59.7936 74.0526 59.8742 74.071 59.9549L74.4193 61.6784C74.4193 61.682 74.4193 61.6894 74.423 61.693L74.3975 61.693ZM46.8287 40.6883C45.824 39.9365 40.5361 35.9945 38.2515 34.6964C34.9402 32.8115 31.2988 33.3836 29.2636 33.963C29.8723 34.3223 30.5288 34.722 31.2438 35.162C35.8276 37.9856 42.3626 42.0011 46.832 40.6882L46.8287 40.6883ZM58.2479 49.5698C58.2736 49.5515 58.2956 49.5258 58.3066 49.4964C58.3359 49.4194 58.2956 49.3314 58.2149 49.3021L56.099 48.5284C56.055 48.5137 56.0037 48.5174 55.9633 48.5467L53.0297 50.5708C53.004 50.5892 52.982 50.6148 52.971 50.6442C52.9417 50.7212 52.982 50.8092 53.0627 50.8385L55.1786 51.6123C55.2226 51.6269 55.2739 51.6233 55.3143 51.5939L58.2479 49.5698ZM62.8537 51.4877C62.883 51.4693 62.905 51.4437 62.916 51.4107C62.9453 51.3337 62.905 51.2456 62.8243 51.2163L60.5471 50.3766C60.5031 50.3619 60.4517 50.3656 60.4077 50.3949L57.386 52.4815C57.3567 52.4998 57.3347 52.5255 57.3237 52.5585C57.2944 52.6355 57.3347 52.7235 57.4117 52.7528L59.689 53.5926C59.733 53.6073 59.7843 53.6036 59.8283 53.5743L62.85 51.4877H62.8537ZM64.7568 52.2577C64.7092 52.1881 64.6175 52.1697 64.5478 52.2174L61.3354 54.3919C61.2658 54.4396 61.2474 54.5313 61.2951 54.601C61.3428 54.6706 61.4345 54.689 61.5041 54.6413L64.7165 52.4668C64.7862 52.4191 64.8045 52.3274 64.7568 52.2577ZM67.3128 68.6673L55.5125 63.1484C55.3255 63.0604 55.0981 63.1411 55.0101 63.3317C54.9221 63.5188 55.0028 63.7461 55.1935 63.8341L66.9938 69.353C67.1808 69.441 67.4081 69.3603 67.4962 69.1696C67.5842 68.9826 67.5035 68.7553 67.3128 68.6673ZM87.7385 50.644L78.3912 46.273C78.2042 46.185 77.9768 46.2656 77.8888 46.4563C77.8008 46.6433 77.8815 46.8707 78.0721 46.9587L87.4194 51.3298C87.6065 51.4178 87.8338 51.3371 87.9218 51.1464C88.0098 50.9594 87.9292 50.732 87.7385 50.644Z" fill="#000F29"/>
<circle cx="50" cy="50" r="49" stroke="#000F29" stroke-width="2"/>
</svg>
