<svg width="100" height="100" viewBox="0 0 100 100" fill="none" xmlns="http://www.w3.org/2000/svg">
<path d="M57.59 42.5776L47 53.1556L42.4102 48.5775C42.0313 48.1986 41.5313 47.9994 41 47.9994C40.4687 47.9994 39.9609 48.2104 39.5898 48.5775C39.2109 48.9564 39 49.4564 39 49.9877C39 50.519 39.2109 51.0268 39.5898 51.3979L43.9179 55.726C44.7461 56.5542 45.8398 57.0072 47.0077 57.0072C48.1796 57.0072 49.2694 56.558 50.0975 55.726L60.4255 45.398C60.8044 45.0191 61.0154 44.5191 61.0154 43.9878C61.0154 43.4565 60.8044 42.9487 60.4255 42.5776C59.6755 41.8276 58.3474 41.8276 57.5974 42.5776H57.59Z" fill="#000F29"/>
<path d="M77 39.3398V36.8086C77 33.1484 75.6094 29.7305 73.0781 27.168L72.957 27.0391C70.3554 24.4375 66.8867 23 63.1953 23H60.6641L59.6641 22C57.086 19.4219 53.6524 18 50.0039 18C46.3555 18 42.9258 19.4219 40.3437 22L39.3437 23H36.8125C33.1211 23 29.6641 24.4414 27.0508 27.0391C24.4414 29.668 23 33.1407 23 36.8086V39.3477L22 40.3477C19.4219 42.9258 18 46.3594 18 50.0079C18 53.6563 19.4219 57.086 22 59.6681L23 60.6681V63.1993C23 66.8595 24.3906 70.2774 26.9219 72.8399L27.043 72.9688C29.6446 75.5704 33.1133 77.0079 36.8047 77.0079H39.3359L40.3359 78.0079C42.914 80.586 46.3476 82.0079 49.9961 82.0079C53.6445 82.0079 57.0742 80.586 59.6563 78.0079L60.6563 77.0079H63.1875C66.8789 77.0079 70.3359 75.5665 72.9492 72.9688C75.5586 70.3399 77 66.8672 77 63.1993V60.6602L78 59.6602C80.5781 57.0821 82 53.6485 82 50C82 46.3515 80.5781 42.9219 78 40.3398L77 39.3398ZM75.1719 56.8278L73.5938 58.4176C73.2227 58.7887 73.004 59.3082 73.004 59.8278V63.1872C73.004 65.7966 71.9923 68.2458 70.1524 70.0974C68.2735 71.9685 65.8008 72.9958 63.1915 72.9958H59.8321C59.3008 72.9958 58.793 73.2068 58.4102 73.5857L56.8321 75.1638C55.0118 76.9841 52.5821 77.9919 50.004 77.9919C47.4259 77.9919 45.004 76.9919 43.1759 75.1638L41.5861 73.574C41.2071 73.195 40.7071 72.9841 40.1759 72.9841H36.8165C34.2267 72.9841 31.7774 71.9724 29.9181 70.1443L29.797 70.0232C27.9962 68.2341 27.0079 65.7927 27.0079 63.1716V59.8122C27.0079 59.281 26.7969 58.7731 26.418 58.402L24.8282 56.8122C23.0079 54.9919 22.0001 52.5622 22.0001 49.9841C22.0001 47.406 23.0001 44.9841 24.8282 43.156L26.4063 41.5662C26.7774 41.1951 26.9962 40.6756 26.9962 40.156V36.7966C26.9962 34.1872 28.0079 31.738 29.8478 29.8864C31.7267 28.0153 34.1994 26.988 36.8087 26.988H40.1681C40.6993 26.988 41.2072 26.7771 41.59 26.3982L43.1681 24.8201C44.9884 22.9998 47.4181 21.992 49.9962 21.992C52.5743 21.992 54.9962 22.992 56.8243 24.8201L58.4141 26.4099C58.793 26.7888 59.293 26.9997 59.8243 26.9997H63.1837C65.7735 26.9997 68.2228 28.0114 70.0821 29.8395L70.2032 29.9606C72.004 31.7497 72.9923 34.1911 72.9923 36.8122V40.1716C72.9923 40.7029 73.2032 41.2107 73.5821 41.5818L75.1719 43.1716C76.9922 44.9919 78 47.4216 78 49.9997C78 52.5778 77 54.9997 75.1719 56.8278Z" fill="#000F29"/>
<circle cx="50" cy="50" r="49" stroke="#000F29" stroke-width="2"/>
</svg>
