<svg width="100" height="100" viewBox="0 0 100 100" fill="none" xmlns="http://www.w3.org/2000/svg">
<path d="M29.266 46.4578L35.7024 49.1068C34.9767 50.9253 34.3978 52.7982 33.9712 54.7078L33.7271 55.8093L42.9544 64.9736L44.0641 64.7367C45.988 64.3133 47.8749 63.7388 49.707 63.0184L52.3759 69.407C52.402 69.4703 52.4436 69.5262 52.4969 69.5696C52.5502 69.613 52.6135 69.6426 52.6812 69.6557C52.7489 69.6688 52.8188 69.665 52.8846 69.6447C52.9504 69.6243 53.0101 69.5881 53.0583 69.5392L57.0922 65.5353C57.7505 64.882 58.2634 64.0989 58.5979 63.2366C58.9324 62.3743 59.081 61.4519 59.0342 60.5291L58.8899 57.9572C66.3583 52.4828 73.9154 42.8835 75.974 26.13C76.0324 25.71 75.9922 25.2822 75.8567 24.8801C75.7212 24.478 75.4939 24.1124 75.1927 23.8117C74.8914 23.5111 74.5242 23.2836 74.1198 23.1469C73.7154 23.0103 73.2847 22.9682 72.8612 23.0239C55.988 25.0836 46.3113 32.5902 40.796 39.9811L38.2103 39.8489C37.2826 39.7988 36.3546 39.942 35.486 40.2692C34.6173 40.5964 33.8273 41.1005 33.1667 41.749L29.1329 45.7528C29.077 45.8 29.0346 45.861 29.0101 45.9296C28.9856 45.9982 28.9799 46.0721 28.9934 46.1436C29.0069 46.2152 29.0392 46.2819 29.0871 46.3371C29.135 46.3923 29.1967 46.4339 29.266 46.4578ZM55.1446 36.6987C55.8437 36.0072 56.7335 35.5368 57.7017 35.347C58.6699 35.1571 59.6731 35.2563 60.5846 35.632C61.496 36.0076 62.2749 36.6429 62.8229 37.4577C63.3708 38.2724 63.6633 39.23 63.6633 40.2096C63.6633 41.1892 63.3708 42.1469 62.8229 42.9616C62.2749 43.7764 61.496 44.4117 60.5846 44.7873C59.6731 45.163 58.6699 45.2622 57.7017 45.0723C56.7335 44.8824 55.8437 44.4121 55.1446 43.7206C54.6791 43.2601 54.3097 42.7129 54.0576 42.1104C53.8056 41.508 53.6758 40.862 53.6758 40.2096C53.6758 39.5573 53.8056 38.9113 54.0576 38.3088C54.3097 37.7064 54.6791 37.1592 55.1446 36.6987ZM28.062 65.706C26.9939 65.334 25.8469 65.2429 24.7328 65.4417C24.6338 65.4629 24.531 65.4589 24.434 65.43C24.3369 65.4012 24.2489 65.3483 24.178 65.2765C24.0901 65.1896 24.0313 65.078 24.0094 64.9568C23.9876 64.8357 24.0038 64.7108 24.0559 64.5991C25.2378 62.0767 28.3727 57.0044 34.0489 61.1019C34.0786 61.1282 34.1023 61.1605 34.1185 61.1965C34.1348 61.2326 34.1431 61.2717 34.1431 61.3112C34.1431 61.3507 34.1348 61.3897 34.1185 61.4258C34.1023 61.4618 34.0786 61.4941 34.0489 61.5204C33.289 62.1145 32.6806 62.8776 32.2728 63.7483C31.8651 64.6189 31.6695 65.5726 31.7019 66.5321C31.706 66.6448 31.7529 66.7517 31.8332 66.8314C31.9135 66.911 32.0212 66.9576 32.1346 66.9617C33.0973 67.0001 34.0556 66.8139 34.9325 66.4179C35.8094 66.0219 36.5805 65.4272 37.1839 64.6817C37.2104 64.6494 37.2438 64.6234 37.2817 64.6056C37.3196 64.5877 37.3611 64.5785 37.403 64.5785C37.445 64.5785 37.4864 64.5877 37.5243 64.6056C37.5622 64.6234 37.5957 64.6494 37.6222 64.6817C38.4101 65.6124 40.5796 68.6525 38.177 71.5879C37.1282 72.8392 35.6254 73.6305 33.9934 73.7909C31.663 74.0387 27.3573 74.7932 25.5984 76.7869C25.5278 76.8699 25.4358 76.9324 25.3323 76.9676C25.2287 77.0028 25.1174 77.0095 25.0104 76.9869C24.9033 76.9642 24.8044 76.9132 24.7243 76.8392C24.6441 76.7652 24.5857 76.671 24.5553 76.5666C23.9338 74.4628 22.9684 69.7595 28.062 65.706Z" fill="#000F29"/>
<circle cx="50" cy="50" r="49" stroke="#000F29" stroke-width="2"/>
</svg>
