<svg width="100" height="100" viewBox="0 0 100 100" fill="none" xmlns="http://www.w3.org/2000/svg">
<path d="M81.1986 47.6476L72.2965 30.4359C72.001 29.8669 71.4921 29.4383 70.8812 29.2439C70.2703 29.0495 69.6072 29.1052 69.0373 29.3988L64.0625 31.9719C63.5008 32.2634 63.0756 32.7633 62.8781 33.3646C62.6807 33.9659 62.7267 34.6206 63.0062 35.1884L62.3924 35.3948C61.9167 35.5575 61.4152 35.6313 60.9128 35.6123L55.0531 35.4499C53.5099 35.3885 52.0047 35.9377 50.8635 36.9783L48.479 39.1006L39.2225 35.6302C39.5271 35.0922 39.6143 34.4581 39.4661 33.8579C39.3179 33.2577 38.9456 32.737 38.4256 32.4027L33.7096 29.3809C33.1693 29.0358 32.5141 28.9189 31.8878 29.056C31.2615 29.1932 30.7151 29.5731 30.3685 30.1125L19.9139 46.4275C19.5689 46.9679 19.4521 47.6229 19.5893 48.2492C19.7264 48.8755 20.1062 49.4218 20.6454 49.7686L25.3614 52.7903C25.8664 53.1133 26.4732 53.2373 27.0644 53.1384C27.6556 53.0395 28.1891 52.7247 28.5614 52.2549L30.758 55.0076L29.657 56.7204C29.1343 57.5384 28.9575 58.5303 29.1652 59.4785C29.3729 60.4267 29.9482 61.2538 30.7649 61.7785C31.3502 62.1553 32.0315 62.3557 32.7276 62.3558C32.8702 62.3557 33.0126 62.3469 33.1542 62.3297C33.1076 62.7343 33.1285 63.1438 33.2162 63.5415C33.4173 64.4717 33.9741 65.2864 34.7677 65.8118C35.5612 66.3371 36.5286 66.5315 37.4635 66.3534C37.4619 66.6262 37.4905 66.8983 37.5489 67.1647C37.7247 67.9788 38.1738 68.7081 38.8215 69.2315C39.4693 69.7549 40.2766 70.0409 41.1094 70.042C41.3767 70.0419 41.6432 70.0131 41.9043 69.9559C42.5653 69.8129 43.1736 69.4889 43.6611 69.02C43.9439 69.6728 44.411 70.2289 45.0053 70.6201C45.5995 71.0113 46.2949 71.2205 47.0063 71.2222C47.2736 71.2219 47.5401 71.1928 47.8012 71.1355C48.2712 71.0346 48.7165 70.8414 49.1113 70.5671C49.5061 70.2928 49.8425 69.9428 50.101 69.5375L50.5139 68.8982L53.0787 70.5498C53.6655 70.9287 54.3491 71.1301 55.0476 71.13C55.3146 71.1299 55.5808 71.1011 55.8417 71.0439C56.7372 70.8507 57.5278 70.3288 58.0572 69.5812C58.5867 68.8336 58.8167 67.9147 58.7017 67.0058C59.3777 67.0752 60.0597 66.9558 60.6719 66.6608C61.2841 66.3658 61.8024 65.9069 62.1694 65.3349C62.5811 64.6925 62.7798 63.9366 62.7371 63.1748C63.2953 63.3235 63.8807 63.3384 64.4456 63.2182C65.0106 63.0981 65.5393 62.8463 65.9886 62.4833C66.4379 62.1203 66.7952 61.6563 67.0314 61.1292C67.2676 60.6021 67.376 60.0266 67.3479 59.4497C68.118 59.6535 68.9335 59.6014 69.6714 59.3013C70.4093 59.0011 71.0296 58.4692 71.4388 57.7857C71.848 57.1021 72.0238 56.3041 71.9398 55.5119C71.8558 54.7197 71.5165 53.9763 70.9731 53.3938L71.9916 52.5556C72.2055 52.9192 72.5107 53.2206 72.8769 53.4299C73.2431 53.6392 73.6577 53.7492 74.0795 53.7489C74.4647 53.7491 74.8443 53.6563 75.1861 53.4785L80.1608 50.9075C80.7298 50.6119 81.1585 50.1029 81.3529 49.4918C81.5473 48.8808 81.4922 48.2177 81.1986 47.6476ZM49.2222 40.7384L49.2491 40.7151L52.0072 38.2597C52.41 37.8886 52.8822 37.6009 53.3967 37.4132C53.9112 37.2255 54.4578 37.1416 55.0049 37.1662L60.8646 37.3286C61.5655 37.3529 62.265 37.2498 62.9291 37.0244L63.8004 36.7361L71.1803 50.9976L69.5445 52.3437L60.6169 46.623C60.1399 46.3124 59.6198 46.0738 59.0733 45.9148C57.5346 45.4586 56.5072 44.0995 56.2519 42.1864C56.234 42.0503 56.1838 41.9205 56.1055 41.8078C56.0272 41.6951 55.9231 41.6028 55.8018 41.5386C55.6806 41.4744 55.5457 41.4402 55.4085 41.4388C55.2713 41.4374 55.1357 41.4688 55.0132 41.5305C53.1166 42.7984 51.3481 44.2481 49.7328 45.8591C49.3594 46.1523 48.918 46.3467 48.4496 46.4242C47.9811 46.5018 47.5006 46.46 47.0526 46.3027C46.6046 46.1454 46.2034 45.8777 45.8862 45.5244C45.569 45.1711 45.346 44.7435 45.2377 44.2811L49.2222 40.7384ZM26.2891 51.3424L21.5737 48.3234C21.4183 48.2234 21.3089 48.0659 21.2693 47.8853C21.2297 47.7048 21.2632 47.5159 21.3625 47.36L31.8171 31.0408C31.8666 30.9637 31.9309 30.8972 32.0062 30.8451C32.0816 30.793 32.1665 30.7564 32.2562 30.7373C32.3066 30.7264 32.358 30.7209 32.4096 30.7208C32.5416 30.7206 32.6708 30.7583 32.7819 30.8295L37.4945 33.8513C37.6493 33.9518 37.7583 34.1093 37.7979 34.2896C37.8374 34.47 37.8043 34.6586 37.7058 34.8147L37.2006 35.6033V35.6075L27.898 50.1264C27.7816 50.2304 27.6958 50.3641 27.6496 50.5132L27.2539 51.1325C27.1536 51.2881 26.9957 51.3975 26.8149 51.4369C26.634 51.4762 26.4449 51.4423 26.2891 51.3424ZM31.6953 60.3292C31.2617 60.051 30.9563 59.612 30.8463 59.1088C30.7362 58.6055 30.8304 58.0791 31.1083 57.6453L33.797 53.4475C34.079 53.0238 34.5161 52.7279 35.0143 52.6233C35.5124 52.5188 36.0316 52.6141 36.4602 52.8886C36.8887 53.1632 37.1923 53.595 37.3056 54.0912C37.4189 54.5874 37.3327 55.1083 37.0658 55.5416L34.3764 59.7394C34.0988 60.1728 33.6605 60.4784 33.1579 60.589C32.6552 60.6995 32.1292 60.6061 31.6953 60.3292ZM35.7452 64.3928C35.3126 64.1138 35.008 63.6748 34.8981 63.172C34.7881 62.6691 34.8816 62.1431 35.1582 61.709L39.5686 54.8273C39.706 54.6128 39.8844 54.4277 40.0937 54.2827C40.303 54.1376 40.539 54.0355 40.7881 53.9822C40.9271 53.9516 41.069 53.9362 41.2113 53.9361C41.5589 53.9379 41.8997 54.0329 42.1981 54.2114C42.4964 54.3898 42.7414 54.645 42.9075 54.9504C43.0736 55.2558 43.1546 55.6002 43.1422 55.9476C43.1297 56.2951 43.0242 56.6328 42.8367 56.9255L41.3351 59.2653L38.4256 63.8072C38.1474 64.2399 37.709 64.5445 37.2065 64.6543C36.704 64.7641 36.1784 64.6701 35.7452 64.3928ZM41.5361 68.2803C41.1611 68.3632 40.77 68.3328 40.4123 68.1929C40.0547 68.0531 39.7467 67.8101 39.5274 67.4948C39.3082 67.1795 39.1876 66.8062 39.1809 66.4222C39.1743 66.0383 39.2819 65.661 39.4902 65.3383L39.8755 64.7369L42.5408 60.5728L44.7801 57.079C44.9175 56.8643 45.096 56.679 45.3054 56.5339C45.5149 56.3887 45.751 56.2865 46.0002 56.2332C46.1393 56.2029 46.2811 56.1874 46.4235 56.1871C46.7704 56.1896 47.1104 56.285 47.408 56.4633C47.7056 56.6417 47.95 56.8965 48.1159 57.2012C48.2817 57.506 48.3629 57.8496 48.351 58.1964C48.3391 58.5431 48.2345 58.8804 48.0482 59.1731L45.9631 62.4267L43.9364 65.5923L42.7569 67.4331C42.6196 67.6481 42.441 67.8337 42.2314 67.9791C42.0219 68.1245 41.7855 68.2269 41.5361 68.2803ZM47.433 69.4612C47.0586 69.5425 46.6685 69.5112 46.3119 69.3712C45.9552 69.2312 45.648 68.9888 45.4289 68.6745C45.2099 68.3602 45.0887 67.988 45.0808 67.605C45.0728 67.2219 45.1785 66.8451 45.3843 66.522L47.4117 63.3564L47.8211 62.7171C47.9573 62.4995 48.1352 62.311 48.3447 62.1627C48.5542 62.0143 48.791 61.9089 49.0415 61.8527C49.292 61.7964 49.5511 61.7904 49.8039 61.835C50.0567 61.8796 50.2982 61.9738 50.5143 62.1123C50.7304 62.2508 50.917 62.4308 51.0631 62.6419C51.2092 62.853 51.312 63.0909 51.3655 63.342C51.419 63.5931 51.4222 63.8522 51.3749 64.1045C51.3276 64.3569 51.2307 64.5973 51.0899 64.8119L48.6531 68.6147C48.5156 68.829 48.3369 69.0139 48.1275 69.1587C47.9181 69.3035 47.682 69.4054 47.433 69.4584V69.4612ZM69.9319 56.9537C69.6522 57.389 69.2112 57.6956 68.7058 57.8062C68.2003 57.9167 67.6716 57.8223 67.2357 57.5435L65.6639 56.536L60.5247 53.2424C60.4299 53.1737 60.3221 53.125 60.2079 53.0993C60.0937 53.0736 59.9754 53.0716 59.8603 53.0932C59.7453 53.1149 59.6358 53.1598 59.5387 53.2252C59.4416 53.2906 59.3589 53.3752 59.2956 53.4737C59.2323 53.5722 59.1898 53.6826 59.1707 53.7981C59.1516 53.9136 59.1562 54.0318 59.1844 54.1454C59.2125 54.2591 59.2636 54.3658 59.3344 54.459C59.4053 54.5522 59.4944 54.63 59.5963 54.6876L64.7321 57.9784L64.7376 57.9825C65.1652 58.2659 65.464 58.7063 65.5695 59.2083C65.6749 59.7103 65.5784 60.2336 65.3009 60.6651C65.0234 61.0965 64.5872 61.4013 64.0867 61.5136C63.5862 61.6259 63.0615 61.5366 62.6263 61.2651L61.0566 60.2597L57.5793 57.9818C57.3885 57.8599 57.1573 57.8182 56.9359 57.8656C56.7145 57.9131 56.5207 58.0459 56.3966 58.2353C56.2725 58.4247 56.2281 58.6554 56.273 58.8773C56.318 59.0993 56.4486 59.2945 56.6365 59.4208L60.1159 61.7H60.1194C60.3354 61.8379 60.5221 62.017 60.6689 62.2271C60.8158 62.4372 60.9198 62.6741 60.975 62.9244C61.0302 63.1747 61.0357 63.4334 60.9909 63.6857C60.9462 63.9381 60.8522 64.1792 60.7143 64.3952C60.5764 64.6113 60.3973 64.798 60.1872 64.9448C59.9771 65.0916 59.7402 65.1956 59.4899 65.2509C59.2396 65.3061 58.9809 65.3115 58.7285 65.2668C58.4762 65.2221 58.2351 65.128 58.0191 64.9901L57.0391 64.3618L55.1418 63.1459C54.9489 63.0232 54.7152 62.9822 54.492 63.0319C54.2689 63.0816 54.0746 63.2179 53.952 63.4108C53.8293 63.6037 53.7884 63.8374 53.838 64.0606C53.8877 64.2837 54.024 64.478 54.2169 64.6006L56.1142 65.8159C56.3303 65.9543 56.5169 66.1339 56.6635 66.3445C56.8102 66.555 56.9139 66.7924 56.9688 67.043C57.0237 67.2936 57.0286 67.5526 56.9835 67.8052C56.9383 68.0577 56.8438 68.2989 56.7054 68.5149C56.5669 68.731 56.3874 68.9176 56.1768 69.0642C55.9663 69.2109 55.7289 69.3146 55.4783 69.3695C55.2277 69.4244 54.9687 69.4294 54.7161 69.3842C54.4636 69.339 54.2224 69.2445 54.0064 69.1061L51.4395 67.4545L52.5406 65.7396C52.8936 65.1894 53.0928 64.5548 53.1175 63.9016C53.1421 63.2484 52.9913 62.6006 52.6807 62.0254C52.3702 61.4502 51.9111 60.9688 51.3514 60.6312C50.7917 60.2935 50.1518 60.112 49.4982 60.1055C49.9325 59.4262 50.1304 58.6226 50.0612 57.8193C49.992 57.016 49.6596 56.2581 49.1156 55.663C48.5715 55.068 47.8463 54.6692 47.0524 54.5286C46.2585 54.3879 45.4404 54.5132 44.7251 54.8851C44.5582 54.2927 44.2445 53.752 43.8132 53.313C43.3818 52.8741 42.8467 52.551 42.2573 52.3738C41.6679 52.1965 41.0433 52.1709 40.4414 52.2991C39.8395 52.4274 39.2796 52.7055 38.8137 53.1076C38.5307 52.4129 38.0389 51.8233 37.4064 51.4202C36.5894 50.8968 35.5982 50.7188 34.6501 50.9252C33.702 51.1316 32.8745 51.7056 32.3491 52.5212L31.738 53.4744L29.5503 50.7341L38.279 37.1146L47.0263 40.3902L43.7472 43.3094C43.6473 43.3982 43.5694 43.5091 43.5198 43.6332C43.4703 43.7573 43.4503 43.8913 43.4616 44.0244C43.5304 44.8464 43.8217 45.6341 44.3043 46.303C44.7869 46.9719 45.4426 47.4967 46.2009 47.8212C46.9592 48.1457 47.7916 48.2575 48.6087 48.1448C49.4257 48.032 50.1967 47.6988 50.8387 47.1811C50.8573 47.1659 50.8752 47.1508 50.8924 47.1343C52.1433 45.9303 53.46 44.7965 54.8363 43.7382C55.0868 44.6409 55.5619 45.4654 56.2173 46.1349C56.8726 46.8043 57.6869 47.2968 58.584 47.5664C58.9741 47.6792 59.3452 47.8494 59.6851 48.0716L69.3387 54.2575C69.7746 54.5366 70.0819 54.9774 70.1931 55.4829C70.3043 55.9884 70.2104 56.5174 69.9319 56.9537ZM79.7142 48.971C79.6868 49.0585 79.6422 49.1397 79.5832 49.2099C79.5241 49.28 79.4517 49.3378 79.3701 49.3798L74.3954 51.9528C74.2308 52.0376 74.0393 52.0537 73.8628 51.9976C73.6864 51.9415 73.5394 51.8177 73.454 51.6535L73.0239 50.8208L65.1031 35.5029C65.0965 35.471 65.0882 35.4396 65.0783 35.4086C65.0392 35.2919 64.9757 35.1849 64.8918 35.0948L64.5539 34.441C64.4691 34.2764 64.453 34.0849 64.5091 33.9085C64.5652 33.7321 64.689 33.585 64.8533 33.4996L69.828 30.9273C69.9257 30.8762 70.0343 30.8495 70.1446 30.8495C70.2177 30.8498 70.2904 30.8614 70.36 30.8839C70.4476 30.9111 70.5289 30.9556 70.5991 31.0146C70.6693 31.0737 70.727 31.1463 70.7687 31.228L79.6709 48.4383C79.7129 48.5198 79.7384 48.6087 79.7458 48.7C79.7532 48.7913 79.7425 48.8839 79.7142 48.971Z" fill="#000F29"/>
<circle cx="50" cy="50" r="49" stroke="#000F29" stroke-width="2"/>
</svg>
