<svg width="100" height="100" viewBox="0 0 100 100" fill="none" xmlns="http://www.w3.org/2000/svg">
<path d="M55.2006 61.0975C55.2006 58.1541 52.8041 55.7676 49.8508 55.7676C46.8974 55.7676 44.501 58.1641 44.501 61.0975C44.501 64.031 46.8974 66.4275 49.8508 66.4275C52.8041 66.4275 55.2006 64.031 55.2006 61.0975ZM46.4894 61.0975C46.4894 59.2579 47.9909 57.7564 49.8504 57.7564C51.7099 57.7564 53.2114 59.2579 53.2114 61.0975C53.2114 62.9371 51.7099 64.4387 49.8504 64.4387C47.9909 64.4387 46.4894 62.9371 46.4894 61.0975Z" fill="#000F29"/>
<path d="M57.2703 73.2489C56.8527 69.4702 53.6607 66.6162 49.8523 66.6162C46.044 66.6162 42.8518 69.4701 42.4343 73.2489L41.9869 77.306C41.8675 78.4098 42.2156 79.5036 42.9613 80.329C43.6972 81.1543 44.7512 81.6217 45.855 81.6217H53.8598C54.9636 81.6217 56.0176 81.1543 56.7535 80.329C57.4894 79.5037 57.8474 78.3999 57.728 77.306L57.2805 73.2489H57.2703ZM55.2617 79.0065C54.8938 79.4142 54.3966 79.6329 53.8496 79.6329H45.8449C45.2979 79.6329 44.8008 79.4142 44.4328 79.0065C44.0648 78.5987 43.8958 78.0717 43.9555 77.5248L44.403 73.4677C44.7112 70.6933 47.048 68.6051 49.8323 68.6051C52.6166 68.6051 54.9534 70.6933 55.2617 73.4677L55.7091 77.5248C55.7688 78.0717 55.5997 78.5988 55.2318 79.0065H55.2617Z" fill="#000F29"/>
<path d="M30.8986 56.4936C33.852 56.4936 36.2484 54.0972 36.2484 51.1637C36.2484 48.2302 33.852 45.8337 30.8986 45.8337C27.9453 45.8337 25.5488 48.2302 25.5488 51.1637C25.5488 54.0972 27.9453 56.4936 30.8986 56.4936ZM30.8986 47.8123C32.7482 47.8123 34.2596 49.3139 34.2596 51.1535C34.2596 52.9931 32.7581 54.4947 30.8986 54.4947C29.0392 54.4947 27.5376 52.9931 27.5376 51.1535C27.5376 49.3139 29.0392 47.8123 30.8986 47.8123Z" fill="#000F29"/>
<path d="M38.3065 63.305C37.8888 59.5264 34.6968 56.6724 30.8885 56.6724C27.0801 56.6724 23.888 59.5263 23.4705 63.305L23.023 67.3622C22.9037 68.466 23.2517 69.5598 23.9975 70.3851C24.7333 71.2105 25.7874 71.6778 26.8912 71.6778H34.8959C35.9997 71.6778 37.0538 71.2104 37.7896 70.3851C38.5255 69.5598 38.8835 68.456 38.7641 67.3622L38.3166 63.305H38.3065ZM36.3078 69.0626C35.9398 69.4703 35.4426 69.6891 34.8957 69.6891H26.8909C26.344 69.6891 25.8468 69.4703 25.4789 69.0626C25.1109 68.6549 24.9419 68.1278 25.0015 67.581L25.449 63.5238C25.7573 60.7495 28.0941 58.6613 30.8784 58.6613C33.6627 58.6613 35.9995 60.7495 36.3077 63.5238L36.7552 67.581C36.8149 68.1279 36.6458 68.6549 36.2779 69.0626H36.3078Z" fill="#000F29"/>
<path d="M68.8049 56.4936C71.7582 56.4936 74.1547 54.0972 74.1547 51.1637C74.1547 48.2302 71.7582 45.8337 68.8049 45.8337C65.8515 45.8337 63.4551 48.2302 63.4551 51.1637C63.4551 54.0972 65.8515 56.4936 68.8049 56.4936ZM68.8049 47.8123C70.6544 47.8123 72.1659 49.3139 72.1659 51.1535C72.1659 52.9931 70.6643 54.4947 68.8049 54.4947C66.9454 54.4947 65.4439 52.9931 65.4439 51.1535C65.4439 49.3139 66.9454 47.8123 68.8049 47.8123Z" fill="#000F29"/>
<path d="M76.6797 67.3622L76.2323 63.305C75.8146 59.5264 72.6226 56.6724 68.8143 56.6724C65.0059 56.6724 61.8137 59.5263 61.3962 63.305L60.9488 67.3622C60.8295 68.466 61.1775 69.5598 61.9233 70.3851C62.6591 71.2105 63.7132 71.6778 64.8169 71.6778H72.8217C73.9255 71.6778 74.9795 71.2104 75.7154 70.3851C76.4513 69.5598 76.8093 68.456 76.6899 67.3622H76.6797ZM74.2136 69.0626C73.8457 69.4703 73.3485 69.6891 72.8016 69.6891H64.7968C64.2499 69.6891 63.7527 69.4703 63.3847 69.0626C63.0168 68.6549 62.8478 68.1278 62.9074 67.581L63.3549 63.5238C63.6632 60.7495 65.9999 58.6613 68.7842 58.6613C71.5685 58.6613 73.9054 60.7495 74.2136 63.5238L74.6611 67.581C74.7207 68.1279 74.5517 68.6549 74.1838 69.0626H74.2136Z" fill="#000F29"/>
<path d="M61.6948 41.1197L59.9645 38.3055L60.0241 38.1862C60.0838 38.0768 60.1435 37.9674 60.1932 37.858L60.2429 37.7487C60.2429 37.7487 60.2529 37.7188 60.2628 37.7089C60.3921 37.4305 60.5114 37.1421 60.6407 36.804C60.6606 36.7344 60.6804 36.6648 60.7003 36.6051C60.7501 36.4858 60.7898 36.3565 60.8296 36.2073L64.0514 35.4317C64.4989 35.3223 64.8171 34.9245 64.8171 34.4671V31.3448C64.8171 30.8873 64.4989 30.4896 64.0514 30.3802L60.8296 29.6046C60.7898 29.4653 60.75 29.3361 60.7003 29.2068C60.6804 29.1372 60.6606 29.0576 60.6208 28.9681C60.5114 28.6798 60.3821 28.3914 60.2429 28.0732L60.1932 27.9638C60.1435 27.8545 60.0838 27.7451 60.044 27.6755C60.0142 27.6257 59.9943 27.5661 59.9645 27.5164L61.6948 24.7022C61.9334 24.3144 61.8737 23.8073 61.5456 23.4791L59.3182 21.2616C58.99 20.9334 58.4829 20.8738 58.095 21.1124L55.271 22.8427L55.1516 22.783C55.0422 22.7234 54.9329 22.6637 54.8235 22.614L54.6743 22.5444C54.3959 22.425 54.1075 22.2958 53.7694 22.1665C53.6998 22.1466 53.6302 22.1267 53.5705 22.1068C53.4413 22.0571 53.312 22.0174 53.1728 21.9776L52.3971 18.7657C52.2877 18.3182 51.89 18 51.4226 18H48.2804C47.8229 18 47.4152 18.3182 47.3059 18.7657L46.5302 21.9776C46.391 22.0174 46.2617 22.0571 46.1325 22.1068C46.0629 22.1267 45.9833 22.1466 45.8938 22.1864C45.5955 22.2958 45.3171 22.425 44.9889 22.5643L44.8795 22.614C44.7701 22.6637 44.6608 22.7234 44.5912 22.7631C44.5414 22.793 44.4818 22.8129 44.4321 22.8427L41.608 21.1124C41.2102 20.8738 40.7031 20.9334 40.3849 21.2616L38.1574 23.4791C37.8293 23.8072 37.7696 24.3045 38.0083 24.7022L39.7385 27.5164C39.7385 27.5164 39.6988 27.5959 39.6789 27.6258C39.6093 27.7351 39.5595 27.8445 39.5098 27.9638L39.4402 28.1031C39.3706 28.2622 39.301 28.4113 39.2811 28.4809C39.2016 28.6301 39.1419 28.7892 39.0524 29.0179C39.0325 29.0875 39.0126 29.1472 38.9927 29.2168C38.943 29.3361 38.9032 29.4654 38.8635 29.6145L35.6416 30.3902C35.1942 30.4996 34.876 30.8973 34.876 31.3547V34.4771C34.876 34.9345 35.1942 35.3323 35.6416 35.4417L38.8635 36.2173C38.9032 36.3565 38.943 36.4858 38.9927 36.6151C39.0126 36.6847 39.0325 36.7642 39.0723 36.8537C39.1817 37.1421 39.3109 37.4305 39.4502 37.7586L39.4999 37.868C39.5496 37.9774 39.6093 38.0868 39.649 38.1564C39.6789 38.2061 39.6988 38.2658 39.7286 38.3155L37.9983 41.1296C37.7597 41.5175 37.8193 42.0246 38.1475 42.3528L40.3749 44.5703C40.7031 44.8984 41.2102 44.9581 41.598 44.7194L44.4221 42.9892L44.5414 43.0488C44.6508 43.1085 44.7602 43.1682 44.8696 43.2179L45.0088 43.2875C45.1679 43.3571 45.3171 43.4267 45.3867 43.4466C45.5358 43.5261 45.7049 43.5858 45.9236 43.6753C45.9933 43.6952 46.0629 43.7151 46.1225 43.735C46.2418 43.7847 46.3711 43.8245 46.5203 43.8642L47.2959 47.0761C47.4053 47.5236 47.8031 47.8418 48.2704 47.8418H51.4127C51.8701 47.8418 52.2778 47.5236 52.3872 47.0761L53.1628 43.8642C53.302 43.8245 53.4313 43.7847 53.5606 43.735C53.6302 43.7151 53.7097 43.6952 53.8191 43.6554C53.9882 43.5958 54.1473 43.5261 54.2169 43.4864C54.376 43.4267 54.5251 43.367 54.7141 43.2776L54.8235 43.2278C54.9328 43.1781 55.0422 43.1184 55.1118 43.0787C55.1615 43.0488 55.2212 43.029 55.2709 42.9991L58.095 44.7294C58.4928 44.968 58.9999 44.9084 59.3181 44.5802L61.5456 42.3627C61.8737 42.0346 61.9334 41.5274 61.6947 41.1396L61.6948 41.1197ZM59.0696 35.1135C59.0198 35.2826 58.9701 35.4417 58.9303 35.6008C58.8906 35.7201 58.8607 35.8394 58.821 35.9488C58.8011 35.9985 58.7812 36.0781 58.7712 36.1278C58.6718 36.3864 58.5624 36.635 58.453 36.8836L58.3934 37.0029C58.3635 37.0625 58.3337 37.1222 58.2641 37.2515C58.1746 37.4205 58.0951 37.5995 57.9857 37.7586C57.7669 38.0868 57.757 38.5044 57.9558 38.8425L59.5866 41.4975L58.4729 42.6013L55.8179 40.9805C55.4798 40.7716 55.0522 40.7816 54.734 41.0103C54.5749 41.1197 54.3959 41.2092 54.1672 41.3285C54.1075 41.3683 54.0479 41.3882 53.9882 41.418L53.8689 41.4776C53.7496 41.5373 53.6402 41.5771 53.4314 41.6666C53.3319 41.7163 53.2225 41.7561 53.0933 41.8058C53.0336 41.8157 52.9839 41.8356 52.9342 41.8555C52.8248 41.8953 52.7055 41.9351 52.5961 41.9649C52.4469 42.0047 52.2978 42.0445 52.1387 42.0942C51.7707 42.1737 51.4724 42.4522 51.3829 42.83L50.657 45.853H49.0958L48.37 42.83C48.2805 42.472 48.002 42.2035 47.654 42.1041C47.485 42.0544 47.3159 42.0047 47.1667 41.9649C47.0474 41.9251 46.9281 41.8953 46.8187 41.8555C46.769 41.8356 46.6795 41.8058 46.6298 41.7958C46.5204 41.7561 46.4209 41.7163 46.232 41.6268C46.1127 41.5771 46.0033 41.5373 45.9138 41.4975L45.7646 41.4279C45.705 41.3981 45.6453 41.3682 45.516 41.2986C45.347 41.2092 45.168 41.1296 45.0089 41.0202C44.6808 40.8014 44.2631 40.7915 43.925 40.9904L41.27 42.6113L40.1563 41.5075L41.7871 38.8524C41.9959 38.5143 41.986 38.0967 41.7572 37.7685C41.6479 37.6094 41.5584 37.4305 41.439 37.2017C41.3993 37.1421 41.3794 37.0824 41.3495 37.0228L41.2998 36.9233C41.1904 36.6648 41.0811 36.4162 40.9717 36.1377C40.9617 36.0781 40.9418 36.0283 40.922 35.9786C40.8822 35.8692 40.8424 35.7499 40.8126 35.6405C40.7728 35.4914 40.733 35.3422 40.6833 35.1831C40.6038 34.8152 40.3154 34.5169 39.9375 34.4274L36.9046 33.7015V32.1403L39.9375 31.4144C40.2955 31.3249 40.5739 31.0465 40.6634 30.7084C40.7131 30.5393 40.7628 30.3802 40.8026 30.2211C40.8424 30.1018 40.8722 29.9825 40.912 29.8731C40.9319 29.8234 40.9617 29.7339 40.9717 29.6742C41.0114 29.5748 41.0512 29.4654 41.1407 29.2864C41.1904 29.1671 41.2302 29.0577 41.27 28.9682L41.3396 28.829C41.3694 28.7693 41.3992 28.7096 41.4688 28.5804C41.5583 28.4113 41.6379 28.2323 41.7473 28.0732C41.966 27.7451 41.976 27.3274 41.7771 26.9894L40.1463 24.3443L41.26 23.2405L43.925 24.8614C44.2233 25.0404 44.5813 25.0603 44.8895 24.9012C44.9293 24.8813 44.989 24.8415 45.0387 24.8117H45.0486C45.1978 24.7122 45.3569 24.6426 45.5757 24.5233C45.6353 24.4835 45.695 24.4636 45.7547 24.4338L45.8541 24.3841C46.1126 24.2747 46.3612 24.1653 46.6496 24.0559C46.7093 24.046 46.759 24.0261 46.8087 24.0062C46.9181 23.9664 47.0374 23.9267 47.1369 23.8968L47.3755 23.8272C47.4352 23.8073 47.4948 23.7874 47.5644 23.7775C47.9523 23.7079 48.2606 23.4195 48.36 23.0317L49.0859 20.0087H50.647L51.3729 23.0317C51.4624 23.3996 51.7607 23.688 52.1287 23.7675C52.2082 23.7874 52.2778 23.8073 52.3474 23.8272L52.5662 23.8868C52.6855 23.9266 52.8048 23.9564 52.9142 23.9962C52.964 24.0161 53.0435 24.036 53.0932 24.0459C53.3617 24.1454 53.6103 24.2548 53.8191 24.3542L53.9683 24.4238C54.0279 24.4536 54.0876 24.4835 54.2169 24.5531C54.3859 24.6426 54.5649 24.7221 54.724 24.8315C55.0522 25.0503 55.4698 25.0602 55.8079 24.8613L58.4729 23.2405L59.5866 24.3443L57.9558 26.9993C57.747 27.3374 57.7569 27.755 57.9856 28.0832C58.095 28.2423 58.1845 28.4213 58.3038 28.65C58.3436 28.7096 58.3635 28.7693 58.3933 28.8389L58.443 28.9384C58.5524 29.1969 58.6717 29.4455 58.7712 29.7239C58.7811 29.7836 58.801 29.8333 58.8209 29.8831C58.8607 29.9924 58.9004 30.1118 58.9303 30.2211C58.97 30.3703 59.0098 30.5195 59.0595 30.6786C59.1391 31.0465 59.4275 31.3448 59.8054 31.4343L62.8382 32.1602V33.7214L59.8054 34.4473C59.4474 34.5368 59.1689 34.8152 59.0795 35.1533L59.0696 35.1135Z" fill="#000F29"/>
<path d="M55.6488 30.6094C55.3505 29.8238 54.8731 29.1178 54.2566 28.5112C53.6401 27.8847 52.9241 27.4173 52.1982 27.139C52.0093 27.0495 51.8104 26.9898 51.6314 26.9401C50.647 26.6418 49.5829 26.5921 48.5389 26.8208C48.3798 26.8606 48.2206 26.9003 48.0715 26.9401C47.8726 26.9998 47.6737 27.0594 47.5445 27.1191C46.7589 27.4174 46.0429 27.8948 45.4364 28.5013C44.8099 29.1178 44.3326 29.8238 44.0541 30.5498C43.9646 30.7387 43.905 30.9277 43.8553 31.1166C43.547 32.1011 43.5072 33.1651 43.726 34.1993C43.7658 34.3584 43.8055 34.5175 43.8453 34.6666C43.905 34.8655 43.9646 35.0644 44.0243 35.1837C44.3226 35.9693 44.8 36.6753 45.4165 37.2819C46.033 37.9084 46.749 38.3758 47.4749 38.6541C47.6638 38.7436 47.8627 38.8033 48.0417 38.853C48.6284 39.032 49.2349 39.1215 49.8316 39.1215C50.4282 39.1215 51.0248 39.032 51.5916 38.8629C51.7905 38.8033 51.9894 38.7436 52.1186 38.684C52.9042 38.3856 53.6202 37.9083 54.2268 37.3017C54.8532 36.6852 55.3305 35.9792 55.609 35.2533C55.6885 35.0743 55.7581 34.8754 55.8079 34.6765C56.1658 33.5131 56.1658 32.29 55.8079 31.1464C55.7482 30.9475 55.6885 30.7486 55.6289 30.6194L55.6488 30.6094ZM53.9185 34.0898V34.1097C53.8887 34.2091 53.8688 34.3086 53.7992 34.4677C53.6003 34.9848 53.2821 35.4521 52.8446 35.8797C52.4269 36.2974 51.9596 36.6156 51.3828 36.8344C51.2933 36.8741 51.1839 36.904 51.0646 36.9338C50.279 37.1725 49.4437 37.1725 48.6482 36.9338C48.5488 36.904 48.4493 36.8841 48.2902 36.8145C47.7731 36.6156 47.2958 36.2974 46.8682 35.8698C46.4406 35.4521 46.1324 34.9848 45.9037 34.408C45.8639 34.3185 45.8341 34.2091 45.8042 34.0898C45.7645 33.9705 45.7446 33.8611 45.7147 33.7517C45.5656 33.0656 45.5954 32.3496 45.8042 31.6734C45.8341 31.574 45.854 31.4746 45.9236 31.3155C46.1224 30.7984 46.4406 30.331 46.8782 29.9034C47.2958 29.4858 47.7632 29.1676 48.34 28.9488C48.4294 28.909 48.5388 28.8792 48.6582 28.8493C48.7775 28.8096 48.8869 28.7897 48.9963 28.7598C49.2846 28.7002 49.573 28.6704 49.8614 28.6704C50.2691 28.6704 50.6768 28.73 51.0845 28.8493C51.1839 28.8792 51.2834 28.8991 51.4425 28.9687C51.9596 29.1676 52.4369 29.4858 52.8645 29.9134C53.2921 30.331 53.6003 30.7984 53.829 31.3751C53.8688 31.4646 53.8986 31.574 53.9285 31.6933C54.1671 32.4789 54.1671 33.3042 53.9285 34.0898L53.9185 34.0898Z" fill="#000F29"/>
<circle cx="50" cy="50" r="49" stroke="#000F29" stroke-width="2"/>
</svg>
