<svg width="100" height="100" viewBox="0 0 100 100" fill="none" xmlns="http://www.w3.org/2000/svg">
<path d="M70.852 45.546L49.5284 53.3648L21.9601 43.2613L49.5284 33.107L72.2228 41.4335H78.1122L49.8838 31.0762C49.6808 30.9746 49.4269 30.9746 49.1731 31.0762L18.66 42.2966C18.2539 42.4489 18 42.8043 18 43.2613C18 43.7182 18.2539 44.0736 18.66 44.2259L31.2003 48.8461V60.9805C31.2003 61.539 31.2003 62.5544 38.9682 65.9053C40.7452 66.6669 46.6853 69.1547 49.3761 69.1547C52.1177 69.1547 58.1594 66.6669 59.9364 65.9053C67.8058 62.5544 67.8058 61.539 67.8058 60.9805V48.8461L76.7414 45.546H70.852ZM65.775 60.6251C64.0996 62.0974 52.6254 67.073 49.3761 67.073C46.2284 67.073 34.9066 62.0974 33.2311 60.6251V49.5569L49.1731 55.3956C49.2746 55.4464 49.4269 55.4464 49.5284 55.4464C49.63 55.4464 49.7823 55.4464 49.8838 55.3956L65.8258 49.5569L65.775 60.6251Z" fill="#000F29"/>
<path d="M82.885 61.8439C82.7327 61.1838 82.5804 60.473 82.4789 59.813L82.225 57.7822L81.8696 55.7513C81.7173 54.9897 81.6158 54.2789 81.4635 53.5174C82.2758 53.2635 82.885 52.5019 82.885 51.5881C82.885 50.6234 82.225 49.8111 81.3112 49.608C81.3619 49.5064 81.4635 49.4557 81.5142 49.3541L81.8189 48.9479C81.9712 48.7956 81.8189 48.6433 81.8696 48.5418V46.8663V43.5154C81.8696 42.9569 81.4127 42.5 80.8542 42.5H64.6077C61.9168 42.5508 59.1752 42.3984 56.4844 42.7031C54.809 42.8554 53.1336 43.0077 51.4074 43.16C51.1535 42.7538 50.392 42.4492 49.4781 42.4492C48.3611 42.4492 47.4473 42.9062 47.4473 43.4646C47.4473 44.0231 48.3611 44.4801 49.4781 44.4801C50.392 44.4801 51.1027 44.1754 51.4074 43.7693C53.0828 43.9216 54.7582 44.1247 56.4844 44.2262C59.1752 44.5816 61.9168 44.4293 64.6077 44.4293H79.8388V46.7648V48.4402C79.8896 48.5926 79.7373 48.7449 79.8896 48.8464L80.1942 49.2526C80.245 49.3541 80.3465 49.4049 80.3973 49.5064C79.4834 49.7095 78.8234 50.5219 78.8234 51.4865C78.8234 52.4004 79.4326 53.162 80.245 53.4158C80.0927 54.1774 79.9404 54.8882 79.8388 55.6498L79.4834 57.6806L79.2296 59.7115C79.128 60.3715 78.9757 61.0823 78.8234 61.7423C78.6711 62.4024 78.6711 63.1132 78.8234 63.7732C78.9249 64.4332 79.128 65.144 79.4326 65.804C79.7373 66.4641 80.0927 67.1749 80.6511 67.8349H81.0573C81.6158 67.1749 82.0219 66.4641 82.2758 65.804C82.5804 65.144 82.7327 64.4332 82.885 63.7732C83.0373 63.2147 83.0373 62.5547 82.885 61.8439Z" fill="#000F29"/>
<circle cx="50" cy="50" r="49" stroke="#000F29" stroke-width="2"/>
</svg>
