<svg width="100" height="100" viewBox="0 0 100 100" fill="none" xmlns="http://www.w3.org/2000/svg">
<path d="M49.5 17C55.5323 17 61.4292 18.7888 66.4449 22.1402C71.4606 25.4916 75.3698 30.255 77.6783 35.8281C79.9868 41.4013 80.5908 47.5338 79.4139 53.4502C78.2371 59.3667 75.3322 64.8012 71.0667 69.0667C66.8012 73.3322 61.3667 76.2371 55.4502 77.4139C49.5338 78.5908 43.4013 77.9868 37.8281 75.6783C32.255 73.3698 27.4916 69.4606 24.1402 64.4449C20.7888 59.4292 19 53.5323 19 47.5C19 39.4109 22.2134 31.6531 27.9332 25.9332C33.6531 20.2134 41.4109 17 49.5 17ZM71.9053 31.5058C69.5621 33.0764 67.0618 34.3991 64.445 35.4525C65.5747 38.8554 66.2255 42.3989 66.3787 45.9811H76.9866C76.7003 40.7717 74.9379 35.7512 71.9053 31.5058ZM27.1069 31.5058C24.0794 35.7543 22.3253 40.7776 22.05 45.9872H32.6213C32.7741 42.4029 33.4249 38.8574 34.555 35.4525C31.9401 34.399 29.4419 33.0763 27.1008 31.5058H27.1069ZM71.9053 63.4942C74.9404 59.2501 76.703 54.2289 76.9866 49.0189H66.3909C66.275 52.6066 65.6591 56.1606 64.5609 59.578C67.1366 60.6285 69.5977 61.9408 71.9053 63.4942ZM22.05 49.0067C22.3333 54.2205 24.0959 59.2457 27.1313 63.4942C29.4389 61.9408 31.9 60.6285 34.4757 59.578C33.3662 56.1581 32.74 52.5999 32.6152 49.0067H22.05ZM48.0116 56.6927V49.0128H35.6408C35.47 50.7147 36.6107 57.26 37.3 58.5593C40.7618 57.4584 44.357 56.8326 47.9872 56.6988L48.0116 56.6927ZM63.408 49.0189H51.0189V56.6988C54.6474 56.8385 58.2404 57.4684 61.7 58.5715C62.7013 55.4798 63.276 52.266 63.408 49.0189ZM47.9933 45.9689V38.3012C44.3976 38.1665 40.8361 37.551 37.4037 36.4712C36.5985 38.1975 35.4029 44.8221 35.6713 45.9994H47.9933V45.9689ZM61.6329 36.4529C58.1925 37.5342 54.6227 38.1496 51.0189 38.2829V45.9872H63.3958C63.2435 42.7438 62.6504 39.5363 61.6329 36.4529ZM38.3187 61.3958C40.4642 66.5249 43.7744 71.084 47.9872 74.7121V59.7C46.1145 59.578 40.1975 60.6089 38.3187 61.3958ZM51.0128 74.7243C55.2329 71.0856 58.5474 66.5138 60.6935 61.3714C57.5538 60.3923 54.299 59.8304 51.0128 59.7V74.7243ZM38.4285 33.6408C40.6062 34.4582 46.5232 35.4708 47.9872 35.2817V20.5868C43.8479 24.1529 40.5784 28.6179 38.4285 33.6408ZM60.5898 33.6408C58.4364 28.6167 55.1627 24.1516 51.0189 20.5868V35.3C54.2667 35.169 57.4838 34.6175 60.5898 33.6591V33.6408ZM35.6103 32.6526C36.5504 30.4272 37.6939 28.2933 39.0263 26.2781C40.3588 24.2783 41.863 22.3985 43.522 20.66C37.8948 21.9051 32.8037 24.8935 28.9735 29.2C31.0631 30.5727 33.2868 31.7295 35.6103 32.6526ZM55.4841 20.66C58.8414 24.139 61.5296 28.2063 63.4141 32.6587C65.7397 31.7254 67.9636 30.5562 70.0509 29.1695C66.2089 24.8743 61.1125 21.8971 55.4841 20.66ZM55.8989 74.2363C61.3621 72.9573 66.2978 70.024 70.0326 65.8366C67.9859 64.4729 65.8074 63.3183 63.53 62.3901C61.7093 66.7585 59.1253 70.7678 55.8989 74.2302V74.2363ZM28.9735 65.8366C32.7114 70.0232 37.6487 72.9562 43.1133 74.2363C39.8916 70.7715 37.3136 66.76 35.5005 62.3901C33.2161 63.32 31.0297 64.4745 28.9735 65.8366Z" fill="#000F29"/>
<circle cx="50" cy="50" r="49" stroke="#000F29" stroke-width="2"/>
</svg>
