<svg width="100" height="100" viewBox="0 0 100 100" fill="none" xmlns="http://www.w3.org/2000/svg">
<path d="M54.8972 63.1672C52.5633 66.1696 47.851 70.6719 38.6097 75.2063C22.2662 67.1928 19.752 59.1703 19.4112 57.6413C19.3166 53.5384 19.3905 37.4372 19.3669 32.8761C26.1025 30.9179 32.5662 28.1254 38.6092 24.5635C44.6497 28.1251 51.1134 30.9175 57.8486 32.8761V36.7276C57.8575 37.3754 58.384 37.8931 59.0318 37.8931C59.6797 37.8931 60.2062 37.3754 60.2151 36.7276V31.9828C60.2151 31.4533 59.8631 30.9889 59.3513 30.8439C52.2874 28.8561 45.5159 25.9393 39.2184 22.1708C38.8427 21.9431 38.3724 21.9431 37.9967 22.1708C31.6989 25.9395 24.9276 28.8561 17.8637 30.8439C17.352 30.9889 17 31.4533 17 31.9828C17.003 57.6355 17.003 57.6355 17.0296 57.7627C17.0355 59.3246 20.606 69.758 38.6089 77.7033L38.606 77.7063C45.6255 74.8694 51.8522 70.379 56.7654 64.6198C57.15 64.1051 57.0524 63.3715 56.5436 62.978C56.0348 62.5816 55.3012 62.6644 54.8959 63.1673L54.8972 63.1672Z" fill="#000F29"/>
<path d="M59.0326 42.7799C58.3877 42.7917 57.873 43.3183 57.873 43.9631C57.873 44.605 58.3878 45.1316 59.0326 45.1464H66.5018C67.2266 45.2499 68.321 43.7088 68.9453 43.1821V43.1792C70.9005 44.3003 73.3824 43.8004 74.752 42.0107C76.1217 40.224 75.956 37.6978 74.3645 36.1034C72.773 34.506 70.2468 34.3374 68.4542 35.701C66.6645 37.0677 66.1588 39.5466 67.2739 41.5049L66.0078 42.7798L59.0326 42.7799ZM71.1725 37.1476C72.3439 37.1624 73.2846 38.1149 73.2846 39.2863C73.2846 40.4578 72.341 41.4103 71.1725 41.425C70.001 41.4102 69.0604 40.4578 69.0604 39.2863C69.0604 38.1149 70.001 37.1624 71.1725 37.1476Z" fill="#000F29"/>
<path d="M70.5753 59.5232C69.7944 59.5291 69.0282 59.7391 68.3538 60.1325C67.7207 59.5971 66.6411 58.0677 65.9104 58.1683H60.0297C59.3877 58.1831 58.8701 58.7067 58.8701 59.3516C58.8701 59.9964 59.3878 60.523 60.0327 60.5348H65.4194L66.6796 61.8068C65.6739 63.5787 65.9844 65.8061 67.4369 67.2379C68.8864 68.6696 71.1197 68.9477 72.8768 67.9153C74.6369 66.8859 75.4829 64.8034 74.9446 62.8363C74.4033 60.872 72.6135 59.5113 70.5753 59.5232ZM70.5753 66.167C69.4039 66.1523 68.4662 65.1968 68.4662 64.0283C68.4662 62.8599 69.4039 61.9074 70.5753 61.8896C71.7438 61.9074 72.6845 62.8599 72.6815 64.0283C72.6815 65.1968 71.7437 66.1523 70.5753 66.167Z" fill="#000F29"/>
<path d="M78.7571 47.1524C76.7426 47.1583 74.9796 48.5012 74.4383 50.4388H55.932C55.2901 50.4536 54.7725 50.9772 54.7725 51.622C54.7725 52.2669 55.2901 52.7935 55.932 52.8053H74.4171C74.8579 54.4618 76.2009 55.7249 77.884 56.0592C79.5642 56.3964 81.2888 55.7486 82.333 54.3879C83.3772 53.0271 83.5547 51.1931 82.7974 49.6549C82.0372 48.1197 80.4699 47.1494 78.7571 47.1524ZM78.7571 53.7962C77.5857 53.7785 76.648 52.826 76.648 51.6575C76.648 50.4891 77.5857 49.5366 78.7571 49.5188C79.9256 49.5366 80.8633 50.4891 80.8633 51.6575C80.8633 52.826 79.9255 53.7785 78.7571 53.7962Z" fill="#000F29"/>
<path d="M25.8223 49.1424C25.8282 52.7483 27.2599 56.2034 29.8098 58.753C32.3597 61.3029 35.8147 62.7376 39.4204 62.7405C57.4617 61.9921 57.4556 36.2889 39.4204 35.5437C35.8144 35.5467 32.3594 36.9813 29.8098 39.5312C27.2599 42.0811 25.8282 45.5368 25.8223 49.1424ZM50.6526 49.1424C50.6496 52.1212 49.4664 54.9758 47.3602 57.0817C45.254 59.1876 42.3994 60.3711 39.4209 60.3741C24.5207 59.7558 24.5238 38.5252 39.4209 37.9103C42.3997 37.9132 45.2543 39.0965 47.3602 41.2027C49.4661 43.3089 50.6496 46.1639 50.6526 49.1424Z" fill="#000F29"/>
<path d="M34.3891 48.3058C33.9217 47.8591 33.1851 47.868 32.7296 48.3235C32.274 48.7791 32.2681 49.5156 32.7148 49.98L36.6757 53.941C36.8976 54.1628 37.1993 54.2871 37.5129 54.2871C37.8264 54.2871 38.1252 54.1628 38.3471 53.941L46.2303 46.0577C46.677 45.5933 46.6681 44.8568 46.2126 44.4012C45.757 43.9456 45.0205 43.9397 44.556 44.3864L37.5128 51.4297L34.3891 48.3058Z" fill="#000F29"/>
<circle cx="50" cy="50" r="49" stroke="#000F29" stroke-width="2"/>
</svg>
