<svg width="106" height="106" viewBox="0 0 106 106" fill="none" xmlns="http://www.w3.org/2000/svg">
<rect width="106" height="106" rx="53" fill="#3147B7"/>
<path d="M49.5683 22.0306C50.0714 21.9998 51.3669 22.0158 51.8997 22.0314C56.0737 22.1529 56.0793 21.1357 58.1629 25.1547L62.8553 25.1545C64.2271 25.1599 64.5582 25.1493 64.5331 26.6062L69.7242 26.6039C73.115 26.6025 75.0667 26.701 75.0736 30.5286L75.0846 79.5034C75.112 83.3795 74.1796 84.2361 70.3421 84.2224L55.6293 84.2164L35.5762 84.2191C32.4403 84.2182 30.0077 84.3177 30.0039 80.3424L30.0004 31.2554C29.9722 26.6451 31.3683 26.5981 35.634 26.6029L40.5071 26.6062C40.5372 24.6566 41.5575 25.1526 43.2833 25.1518L46.8683 25.1547C47.6479 23.8147 47.9427 22.5216 49.5683 22.0306ZM40.5071 28.2007L35.3565 28.1984C33.0832 28.1988 31.5054 27.6714 31.5346 30.4964L31.5573 79.2913C31.5589 83.6102 32.7164 82.631 36.367 82.6458L68.5308 82.645C69.7325 82.6456 70.995 82.6759 72.1929 82.6198C73.8424 82.5425 73.507 79.8131 73.5039 78.7587L73.5012 33.9196C73.5012 32.7331 74.0215 28.3083 72.3437 28.2169C71.1527 28.1519 69.9327 28.2005 68.7402 28.2003L65.9171 28.1972C65.587 28.1961 64.9144 28.1691 64.6095 28.1938L64.5331 28.2007C64.5505 32.6741 65.3494 32.2797 61.0579 32.2803L46.8405 32.2809C45.9145 32.2807 41.45 32.3761 40.8187 32.147C40.2452 31.5884 40.503 28.9778 40.5071 28.2007ZM42.1009 26.7431V30.7517H55.6293H63.0279C63.0254 29.4387 63.0007 28.0501 63.0279 26.7431L59.5685 26.7448C56.5001 26.7485 57.0071 26.59 55.6293 23.5841H49.5683C47.7759 26.4143 49.0527 26.7637 45.5244 26.7512L42.1009 26.7431Z" fill="white"/>
<path d="M37.3731 66.4574C38.3658 66.4576 46.0878 66.3625 46.4179 66.5417C46.8859 66.7962 46.723 68.0708 46.7232 68.4951L46.7266 74.3755C46.7284 75.2774 47.0828 76.7938 45.9038 76.8445C44.9009 76.8447 37.0356 76.9491 36.7296 76.7252C36.1116 76.2724 36.2903 68.238 36.4012 67.0664C36.4558 66.4908 36.8777 66.4693 37.3731 66.4574ZM37.9124 75.363H45.2125C45.2916 73.0101 45.1913 70.3474 45.2125 67.9553H37.9124C37.912 70.3875 37.87 72.9418 37.9124 75.363Z" fill="white"/>
<path d="M37.1189 52.0021L43.7929 52.0091C44.8855 51.9022 44.9848 53.3662 44.0196 53.5033C43.4562 53.5834 42.5468 53.5363 41.9608 53.5344L37.9113 53.5299V60.9037C40.2509 60.9301 42.8827 60.944 45.2115 60.9037C45.2202 60.4579 45.2129 59.9981 45.2115 59.5512C45.2119 58.7646 45.1151 57.8743 45.2414 57.1024C45.3411 56.4928 46.2513 56.3241 46.5685 56.8507C46.6109 56.9211 47.6225 62.3887 45.7297 62.4483C43.0894 62.5314 39.9715 62.5177 37.3414 62.4371C36.9018 62.4238 36.5117 62.4178 36.4083 61.908C36.1547 60.659 36.2994 54.1995 36.3848 52.8548C36.4226 52.2596 36.5148 52.1005 37.1189 52.0021Z" fill="white"/>
<path d="M41.7773 37.2896C42.4634 37.2935 43.8535 37.1321 44.4332 37.4905C44.7246 37.6706 44.7446 38.3691 44.4604 38.6009C43.852 39.097 38.9843 38.8199 37.9133 38.8452V46.3221C40.229 46.3828 42.8703 46.3236 45.2134 46.3221C45.2126 45.3871 44.708 41.067 46.7227 42.7198C46.7464 43.6107 46.8432 47.0597 46.468 47.6999C45.338 48.0902 36.7351 47.8501 36.4836 47.5373C36.1371 46.3651 36.2939 37.9782 36.5207 37.4753C36.9642 37.171 40.9535 37.2877 41.7773 37.2896Z" fill="white"/>
<path d="M47.7631 51.4756C48.3206 51.465 49.0736 52.0508 48.585 52.6017C46.9141 54.4944 44.9935 56.196 43.2531 58.0144C41.5707 59.7722 41.6933 59.4431 40.1073 57.8863C39.3269 57.2112 38.7146 55.8988 40.1319 55.8878C40.6285 55.8838 41.421 56.9418 41.7729 57.325C43.7024 55.7877 45.844 52.6403 47.7631 51.4756Z" fill="white"/>
<path d="M47.398 37.2896C50.0774 37.4543 46.2557 40.4947 45.8044 40.9612L43.4143 43.3913C41.2447 45.6029 41.98 44.7687 40.0069 43.4198L39.9469 43.3797C39.4945 42.8056 38.6482 42.1172 39.5171 41.4456C40.2152 40.906 41.2378 42.397 41.7783 42.8847C42.3404 42.2601 46.9134 37.57 47.398 37.2896Z" fill="white"/>
<path d="M50.152 44.051L56.1104 44.0465C56.9029 44.0456 61.2436 43.6342 59.3556 45.6299C59.0814 45.6465 58.8234 45.6364 58.5495 45.6299L52.565 45.6306C51.6268 45.6312 50.6904 45.6468 49.7511 45.6378C48.8797 45.6623 48.3521 44.1607 50.152 44.051Z" fill="white"/>
<path d="M68.1117 52.9342C68.8658 52.9134 69.4127 53.6292 68.9202 54.1711C67.2576 56.0005 65.4083 57.6444 63.756 59.4863C63.1181 60.1975 62.4412 59.2916 62.0027 58.8687C61.2757 58.0877 60.1592 56.7485 62.1927 56.8312C62.6931 57.2342 62.7891 57.3574 63.1435 57.8862C64.2324 56.814 67.0002 53.6038 68.1117 52.9342Z" fill="white"/>
<path d="M49.7195 40.3341C50.8372 40.3341 58.9587 40.2188 59.3872 40.4303C60.0826 40.7732 59.6994 41.6417 59.1282 41.8638C57.9269 41.8635 49.7874 41.9537 49.4476 41.7952C48.6896 41.4417 48.8088 40.5487 49.7195 40.3341Z" fill="white"/>
<path d="M55.7511 54.6191C56.522 54.6233 59.1365 54.4548 59.4377 54.8459C60.7393 56.5345 57.4095 56.1554 57.1144 56.155L52.9699 56.1506C52.2319 56.1467 49.7399 56.3258 49.2576 55.9543C48.7393 55.5553 49.0839 54.7408 49.6738 54.6528C50.3477 54.5522 51.1021 54.6156 51.7841 54.6156L55.7511 54.6191Z" fill="white"/>
<path d="M49.7184 73.1358L55.4989 73.1341C56.0086 73.1335 59.0386 72.974 59.3575 73.2802C59.9557 73.8541 59.6846 74.486 58.985 74.6781C57.9992 74.6779 49.6769 74.7917 49.3747 74.5902C48.7027 74.1422 49.0791 73.33 49.7184 73.1358Z" fill="white"/>
<path d="M49.7167 69.5191L55.4531 69.5187C56.5719 69.5183 57.6898 69.5002 58.8096 69.5235C59.8688 69.4655 60.0194 70.7962 58.9833 71.0288C58.6777 71.0535 58.056 71.0317 57.7309 71.0313L49.8903 71.0327C48.8351 71.033 48.6835 69.8438 49.7167 69.5191Z" fill="white"/>
<path d="M68.1104 38.5431C69.0516 38.5188 69.3272 39.3661 68.6862 39.9756C66.9968 41.581 65.381 43.4006 63.7001 44.9563C62.9949 45.6091 62.481 44.8721 62.0014 44.3649C60.1421 42.4788 61.3684 41.2609 63.1422 43.3797C64.4493 42.146 66.7571 39.3754 68.1104 38.5431Z" fill="white"/>
<path d="M68.1179 67.6832C68.7915 67.6841 69.4128 68.3311 68.9696 68.808C67.3167 70.5867 65.6068 72.3332 63.8964 74.0577C63.0549 74.9061 62.5894 74.281 62.0089 73.5391C60.1508 72.0987 61.5072 70.648 63.1497 72.67C64.0576 71.7493 67.1647 68.2567 68.1179 67.6832Z" fill="white"/>
<path d="M49.5662 58.4574C49.9376 58.4244 50.6723 58.4541 51.0726 58.4547L57.3958 58.4562C57.9882 58.456 59.3228 58.2734 59.5761 58.8699C59.7873 59.3672 59.584 59.7247 59.1261 59.9528L52.6987 59.9534C51.9062 59.9536 50.2766 60.012 49.5662 59.9528C48.8594 59.5266 48.655 58.7366 49.5662 58.4574Z" fill="white"/>
</svg>
