<svg width="106" height="106" viewBox="0 0 106 106" fill="none" xmlns="http://www.w3.org/2000/svg">
<rect width="106" height="106" rx="53" fill="#533D8B"/>
<path d="M53.7595 41.4462C62.9104 41.006 69.6712 50.4685 65.8829 58.9348C65.4813 59.8323 64.9532 60.6318 64.5322 61.5163C65.9263 62.6278 67.4426 64.6178 68.7848 65.731C69.8275 64.2624 69.9878 64.7308 71.0654 65.7222C73.0396 67.5379 74.8771 69.4653 76.778 71.3525L80.4975 75.0655C81.1081 75.6731 81.8279 76.2906 82.3804 76.9424C86.0574 81.3033 79.5316 87.9111 74.6185 81.9321C73.9661 81.3496 73.1956 80.5177 72.5597 79.8852L68.8705 76.2318C67.3571 74.7121 65.8034 73.2537 64.3466 71.6709C63.3644 70.6034 64.5011 69.9458 65.174 69.1432L60.8183 64.8064C48.4864 71.4484 36.3531 57.1808 44.7456 46.1403C47.0212 43.1466 50.1023 41.8747 53.7595 41.4462ZM65.5423 70.9221C66.0105 71.3562 66.4525 71.8653 66.9071 72.3234L69.5727 74.9965C70.8481 76.2887 76.598 82.3097 77.8376 82.7644C80.501 83.549 82.7448 81.2524 81.7402 78.5361C81.4878 77.8535 79.0884 75.6546 78.4071 74.9695L71.9328 68.524C71.3944 67.9984 70.3987 66.9191 69.8736 66.475C68.6241 67.6943 66.5224 69.6216 65.5423 70.9221ZM55.1181 65.0733C61.2127 64.7025 65.857 59.4476 65.4986 53.3286C65.1401 47.2098 59.9139 42.5378 53.8181 42.8867C47.7069 43.2365 43.0388 48.4993 43.3982 54.6337C43.7578 60.7681 49.0082 65.4451 55.1181 65.0733ZM62.0525 64.0424C63.4899 65.3793 64.816 66.852 66.24 68.229C66.7337 67.7072 67.2394 67.1694 67.7701 66.685C66.4275 65.3249 65.0244 63.8407 63.647 62.53C63.1906 62.9899 62.4136 63.6432 62.0525 64.0424Z" fill="white"/>
<path d="M53.3015 44.3604C58.577 43.737 63.3591 47.52 63.9887 52.815C64.6186 58.1102 60.8584 62.9173 55.5848 63.5583C50.299 64.2008 45.497 60.4151 44.8657 55.1074C44.2345 49.7998 48.0135 44.9854 53.3015 44.3604ZM54.7052 62.2187C59.2474 62.065 62.806 58.2455 62.6558 53.6856C62.5058 49.1255 58.7036 45.5502 54.1613 45.6979C49.6146 45.8458 46.0491 49.6672 46.1995 54.2317C46.3497 58.7959 50.1588 62.3727 54.7052 62.2187Z" fill="white"/>
<path d="M54.223 48.143C55.4895 48.1064 55.1764 49.3756 55.1758 50.3321L55.1702 53.2957C56.6002 53.2915 58.0343 53.2845 59.4616 53.3314C61.0459 53.3836 60.5996 54.6652 59.9457 54.6718C58.4063 54.6874 56.7129 54.7277 55.1702 54.6858C55.1696 56.0253 55.7719 59.4448 54.452 59.8096C53.463 59.4282 53.7491 58.3825 53.752 57.4827L53.758 54.6858C52.058 54.656 50.3347 54.7425 48.6442 54.6714C47.939 54.6419 47.7187 53.3202 48.8209 53.3042C49.314 53.2969 49.9991 53.2893 50.5006 53.2901L53.758 53.2957C53.8437 52.0147 53.3214 48.8332 54.223 48.143Z" fill="white"/>
<path d="M55.3097 22.0035L70.2407 22.0004C73.8912 21.9977 74.6305 23.2752 74.6197 26.8166L74.6175 66.6849C74.1749 66.2655 73.6065 65.6224 73.2599 65.1243L73.261 29.8451C73.2607 27.2937 74.184 23.4017 70.8722 23.3713L27.807 23.3734C23.3929 23.378 24.3898 24.5499 24.3904 28.5521L24.3917 61.5162L24.389 73.5233C24.3878 77.9768 25.9005 77.2795 29.9318 77.2774L66.9963 77.2739C67.7285 77.2751 68.2673 78.0784 68.7838 78.633L27.5841 78.6382C24.6197 78.6405 23.0228 77.4994 23.0008 74.3523L23 26.5191C22.9992 21.8475 24.4254 21.9985 28.6326 22.001L55.3097 22.0035Z" fill="white"/>
<path d="M41.3206 28.154C41.8503 28.1525 46.0912 27.9718 46.3269 28.3972C46.6095 28.908 46.4974 30.2484 46.4967 30.8271L46.4955 39.4764C46.4967 40.3139 46.5276 41.2734 46.4945 42.0997C45.8754 42.6973 45.1388 43.4272 45.115 41.9212C45.093 40.5268 45.1057 39.1289 45.1055 37.734L45.1077 29.6055H44.2029H41.824V43.7191C41.1803 44.6897 40.4096 44.1657 40.4081 43.0847C40.4024 38.4885 40.3843 33.8908 40.4199 29.295C40.4261 28.4822 40.4926 28.2489 41.3206 28.154Z" fill="white"/>
<path d="M35.174 35.2388C37.3565 35.1788 37.0162 35.4796 37.0205 37.6395L37.0234 40.308C37.0257 41.3668 37.0482 42.4864 36.9996 43.5427C36.91 44.5603 35.628 44.3148 35.605 43.354C35.5912 42.7658 35.6174 42.1657 35.6178 41.5733V36.6665H32.7898C32.0801 36.6495 32.414 37.7547 32.3991 38.5021C32.3656 40.2112 32.4591 42.0217 32.4041 43.719L32.3505 43.8013C31.7465 44.714 30.958 44.0613 30.983 43.0894C31.0143 41.8794 30.7267 36.006 31.295 35.4135C31.9334 35.1385 34.3606 35.2376 35.174 35.2388Z" fill="white"/>
<path d="M51.0584 35.2389C56.7737 35.258 56.0787 34.1375 56.1218 39.2637C56.128 40.016 55.1484 40.2287 54.9308 39.7904C54.6651 39.2558 54.7812 37.556 54.7826 36.9233C54.7775 36.3066 52.1933 36.6298 51.5765 36.6665C51.5776 37.0487 51.9748 41.1842 50.405 39.8729C49.926 39.473 50.1377 35.6333 50.3748 35.4034C50.549 35.2345 50.8337 35.248 51.0584 35.2389Z" fill="white"/>
<path d="M31.4214 48.1431L37.8884 48.1422C38.6523 48.1424 41.2671 48.0754 41.8193 48.243C41.8779 48.4999 41.4274 49.2459 41.3227 49.5828L35.0299 49.5832C34.4634 49.5834 31.4077 49.8055 31.1201 49.3304C30.8551 48.8925 31.0243 48.3992 31.4214 48.1431Z" fill="white"/>
<path d="M31.5933 53.2957C31.9592 53.2489 32.5605 53.2857 32.9472 53.2903L38.5284 53.2936C39.1129 53.2907 39.84 53.2566 40.4043 53.2957C40.51 53.8339 40.87 54.6567 40.1034 54.6857C38.9654 54.6868 31.8822 54.7971 31.3929 54.5894C30.7616 54.3214 30.9 53.3875 31.5933 53.2957Z" fill="white"/>
</svg>
