<svg width="106" height="106" viewBox="0 0 106 106" fill="none" xmlns="http://www.w3.org/2000/svg">
<rect width="106" height="106" rx="53" fill="#BDC208"/>
<path d="M76.1692 23.0008C77.1365 22.9751 77.0953 23.5979 77.2546 24.4078C77.5452 25.8849 77.8619 27.3621 78.1367 28.8417C78.9147 28.928 83.6501 29.3776 83.9851 29.7829C84.6137 30.5435 83.1527 31.5305 82.6867 32.006L76.8541 37.8668C76.5822 38.1457 76.1259 38.6485 75.8431 38.861C74.0279 38.8959 71.644 38.5411 69.8155 38.3462L69.5184 38.7648C69.8464 39.2864 70.2892 39.7523 70.6751 40.2369C83.2807 56.0673 74.1953 79.7093 54.1335 83.329C47.1136 84.5955 39.767 83.1529 33.8729 79.1004C26.5292 74.4643 21.945 65.2788 22.0005 56.6966C22.1507 33.3904 50.1581 21.2052 67.5397 36.7594C67.6724 36.8781 68.2958 37.4147 68.4365 37.4173C68.8586 36.7585 67.8861 32.5402 67.9097 31.4322L67.912 31.3414C69.3099 29.9673 70.6895 28.5752 72.0353 27.1483L74.48 24.5884C74.907 24.1493 75.6784 23.3256 76.1692 23.0008ZM68.2658 39.7151C67.2513 40.8287 65.9082 42.1016 64.8062 43.1583C64.1555 43.8161 63.4524 44.4735 62.8186 45.1275L62.8755 45.1809C63.4985 45.7737 64.1079 46.6226 64.5674 47.3446C72.1557 59.265 63.3243 74.7151 49.3311 74.862C39.4039 74.9485 31.0343 66.5752 31.0765 56.6428C31.1185 46.7474 39.5079 38.7341 49.3199 38.7598C53.4873 38.7705 58.9761 40.7704 61.7994 43.9214C63.368 42.6007 65.7129 39.7128 67.3161 38.7648C62.8403 33.8612 55.1035 31.0161 48.586 31.3414C46.7608 31.4299 44.9143 31.6137 43.1504 32.0627C23.25 37.1295 16.7957 61.7582 31.983 75.6646C42.5379 85.2036 58.9655 84.1689 68.3953 73.6011C77.1926 63.7419 76.9559 49.5095 68.2658 39.7151ZM61.7994 46.1267C61.2991 46.5271 60.8987 46.92 60.448 47.3721L58.7375 49.0348C58.4592 49.3053 58.0371 49.6808 57.8151 49.9719L57.8643 50.0189C59.4712 51.58 60.3013 54.3556 60.2995 56.5443C60.291 66.6712 48.3791 71.5346 41.2727 64.3475C34.4978 57.4954 39.5671 45.3276 49.5514 45.7733C52.1084 45.8875 54.9287 46.8536 56.7246 48.7485C58.0723 47.5097 59.3719 46.2881 60.6448 44.969C57.0911 41.9793 53.4977 40.0147 48.586 40.3389C43.5907 40.6998 39.8464 42.477 36.5532 46.2659C26.9964 57.2618 36.0407 74.1175 50.2363 73.2783C59.3377 72.7395 66.5008 64.7043 65.7201 55.5765C65.3711 51.6663 64.0835 49.1962 61.7994 46.1267ZM58.7031 56.6972C58.6789 54.7547 58.0443 52.4209 56.7246 50.9622C55.0627 52.7805 53.0588 54.5023 51.3226 56.3034C54.0408 56.2745 53.4157 57.6953 52.6228 57.8104C52.1045 57.8855 49.0294 57.8983 48.73 57.5612C48.4691 57.2674 48.5465 53.9496 48.6404 53.4516C48.8041 52.5842 49.6756 52.8099 50.1153 53.5722C50.1163 54.1178 50.1273 54.7077 50.1153 55.2496C51.5643 53.9124 54.1811 50.9533 55.7317 49.9719C54.2291 48.3605 50.7772 46.9297 48.586 47.3721C40.7798 47.459 36.5857 57.7659 42.7209 63.6134C48.6998 69.2884 58.9192 64.9946 58.7064 56.8104L58.7031 56.6972ZM69.5184 31.9545C69.5741 32.4126 69.9769 35.6139 70.0847 35.7267L70.1534 35.6727C72.1141 33.9274 74.9794 31.163 76.6318 29.1686C76.361 28.3579 76.1226 25.8398 75.8431 25.3502C73.6978 27.7155 71.709 29.6898 69.5184 31.9545ZM81.5512 30.9315C80.497 30.7523 78.7225 30.6234 77.7779 30.3232C77.1566 30.8129 76.1733 31.9286 75.5772 32.5241L72.9227 35.2131C72.3657 35.7687 71.678 36.3969 71.1584 36.9686C72.5584 36.9835 73.7771 37.173 75.1144 37.2067C75.6056 37.18 80.7409 31.7206 81.5512 30.9315Z" fill="white"/>
</svg>
