<svg width="106" height="106" viewBox="0 0 106 106" fill="none" xmlns="http://www.w3.org/2000/svg">
<rect width="106" height="106" rx="53" fill="#CA9612"/>
<path d="M38.0735 36.0607C45.5049 35.4637 48.8654 39.3593 53.4248 43.8681C54.1232 43.0656 54.8269 42.2553 55.5411 41.471C61.9619 34.418 72.2528 34.2633 79.2137 40.7317C90.4329 51.1576 82.6386 69.4187 68.703 69.9159C63.354 70.3576 58.2624 67.7326 54.689 63.896C54.2669 63.443 53.6716 62.895 53.4248 62.3313C52.8708 62.8069 52.4564 63.3514 51.9519 63.8755C48.5681 67.3897 44.6935 69.7313 39.7095 69.9062C30.3943 70.2329 22.2589 62.8238 22.0059 53.4296C21.7637 44.4333 29.0007 36.2827 38.0735 36.0607ZM41.31 63.3387C44.9816 62.4746 46.2643 60.5607 48.7409 58.2508C45.6727 54.5418 46.2254 51.7209 49.4345 48.4256C46.6789 45.4127 43.0282 41.7011 38.4985 42.3384C35.8565 42.3934 33.1509 43.6323 31.3494 45.5593C24.2514 53.1513 30.9983 65.4697 41.31 63.3387ZM58.4384 47.3841C61.8948 50.8416 58.666 54.1764 57.144 57.1318C59.5422 60.3172 63.2086 63.5593 67.4046 63.5337C77.2514 63.5437 81.9986 51.9515 74.9897 45.3524C72.6643 43.1631 70.3276 42.2773 67.1418 42.3311L66.8059 42.3384C62.9122 42.931 60.9098 44.3259 58.4384 47.3841ZM37.6354 37.4046C23.0823 39.5009 18.2063 56.8165 29.7219 65.4194C33.0379 67.8992 37.0461 68.9602 41.1565 68.3963C48.6236 67.372 53.1477 60.7088 56.9392 54.8818C58.3403 52.7286 59.4622 50.6956 57.486 48.4256C55.3223 50.6212 53.8658 53.5019 52.171 56.0078C47.5247 62.7376 40.0657 68.4091 32.2162 62.7824C23.5794 56.5913 26.3263 43.1998 36.7731 41.1505C42.3527 40.056 47.0478 43.1221 50.2914 47.3841C51.007 46.601 51.8 45.6623 52.5231 44.9123C47.8727 40.1976 45.2178 37.0247 37.6354 37.4046ZM73.8157 63.3387L73.7382 63.363C73.2212 63.5286 72.7436 63.7843 72.2513 64.0051C66.0987 66.7617 60.0021 63.2828 56.4058 58.2508C55.6661 59.2335 54.9667 60.2393 54.1919 61.1905C69.7963 80.3312 92.1204 58.1895 79.7847 43.2561C76.785 39.6247 71.969 37.1261 67.2016 37.4046C59.9688 37.6419 56.3402 42.3662 52.1232 47.4251C49.4385 50.646 46.0576 52.7155 49.6021 57.1318C51.2099 55.0422 52.2959 52.9209 53.7792 50.8977C57.0385 46.4517 60.3974 41.9815 66.1063 41.0852C77.8168 39.5664 84.6944 54.6982 75.1048 62.3302C74.6856 62.6638 74.2157 62.9843 73.8157 63.3387Z" fill="white"/>
</svg>
