<svg width="106" height="106" viewBox="0 0 106 106" fill="none" xmlns="http://www.w3.org/2000/svg">
<rect width="106" height="106" rx="53" fill="#201769"/>
<path d="M35.8978 22.001L66.8803 22.0002C70.4226 21.9985 73.4813 21.9476 73.496 26.5006L73.5049 38.8496C73.5058 43.6095 71.0509 43.7806 66.984 43.779L61.6828 43.7746H55.7889C55.3783 44.3847 55.0027 45.1292 54.6471 45.7837L52.9531 48.9074C50.9399 52.6391 49.9021 52.6524 47.6882 48.7909C46.7435 47.1432 45.9226 45.3855 44.9576 43.7746L38.7505 43.7767C32.8292 43.7775 31.9237 43.5914 31.9219 36.8945L31.9231 27.3232C31.9267 24.3464 32.49 22.2619 35.8978 22.001ZM50.4426 50.1483C51.7766 49.2302 53.6427 43.4479 55.2011 42.3378C56.2885 42.2907 57.7041 42.3376 58.8235 42.3376L66.2379 42.3384C70.8607 42.3434 72.0737 42.9516 72.0499 37.7512L72.0474 28.5342C72.0519 24.6685 72.3243 23.3888 68.2546 23.4124L55.2011 23.4201L37.6776 23.4162C34.3258 23.4106 33.3402 23.5593 33.3423 27.4472L33.3402 39.6071C33.3635 42.4184 35.7605 42.3436 37.8116 42.3418L42.8365 42.3355C43.4915 42.3345 45.2074 42.11 45.7523 42.4525C46.8981 43.1726 49.0422 49.5792 50.4426 50.1483Z" fill="white"/>
<path d="M45.1391 28.9301C47.5739 28.8987 49.5712 30.8517 49.5942 33.287C49.6173 35.7221 47.6574 37.7125 45.2221 37.7272C42.7987 37.7418 40.8199 35.7935 40.7971 33.3701C40.774 30.9466 42.7156 28.9612 45.1391 28.9301ZM45.4808 36.2962C47.1205 36.1361 48.3199 34.6771 48.1599 33.0373C48 31.3976 46.541 30.198 44.9012 30.3579C43.2613 30.5179 42.0615 31.9769 42.2216 33.6168C42.3816 35.2568 43.8408 36.4566 45.4808 36.2962Z" fill="white"/>
<path d="M51.2394 30.0968L63.73 30.0974C64.7063 30.1022 64.8934 31.308 63.9934 31.4725L51.3891 31.479C50.2481 31.4993 50.1335 30.2484 51.2394 30.0968Z" fill="white"/>
<path d="M51.242 35.4272C52.0833 35.3765 58.4746 35.3669 58.8888 35.5298C59.5286 35.7811 59.2436 36.5964 58.7519 36.828C57.7441 36.8592 51.4659 36.919 50.9788 36.7605C50.2302 36.5169 50.3908 35.6388 51.242 35.4272Z" fill="white"/>
<path d="M57.4766 32.7465L61.6707 32.7424C62.4154 32.7392 63.1619 32.7216 63.9074 32.7563C64.7204 32.7617 65.1328 34.0597 63.5155 34.1191L59.3438 34.1214C58.418 34.1218 55.7372 34.5547 56.5321 32.9821C56.6412 32.7665 57.2276 32.7584 57.4766 32.7465Z" fill="white"/>
<path d="M53.4224 32.7466C56.0791 32.714 55.0204 34.0736 54.6639 34.108C54.0007 34.1724 53.18 34.124 52.5084 34.1193C52.0425 34.1311 49.6099 34.3259 50.9561 32.8565C51.0982 32.7016 52.9631 32.7446 53.4224 32.7466Z" fill="white"/>
<path d="M60.8192 35.4272C61.5612 35.3992 63.4163 35.3279 64.128 35.5008C64.6201 35.6202 64.8953 36.5306 63.9907 36.8281C63.1006 36.8653 61.5859 36.906 60.7247 36.6952C60.2035 36.5676 60.168 35.6262 60.8192 35.4272Z" fill="white"/>
<path d="M69.6435 66.3218C70.2939 66.041 72.3946 64.6777 72.8289 64.6879C77.2409 64.7912 80.9443 67.6004 81.4211 72.1289C81.5471 73.3247 81.5137 74.4701 81.5087 75.6726C81.7974 80.3803 79.892 80.0299 76.156 80.031L66.2498 80.0208C65.7621 80.0181 65.2432 79.9603 64.7615 80.0272C64.7725 82.1287 64.9019 84.4195 62.1583 84.4315L45.4431 84.4328C41.5492 84.4342 40.8926 84.4741 40.9347 80.0272H37.7438L30.1865 80.0297C28.3197 80.0301 24.969 80.6531 24.1987 78.5057C23.9111 77.7037 23.9761 73.0742 24.14 72.0946C24.7841 68.2437 27.9439 65.1339 31.902 64.8138C33.7528 64.664 34.3976 65.3954 36.033 66.175C36.7558 65.8055 38.2317 64.9046 38.9527 64.7995C41.9241 64.3664 45.6342 66.2305 46.6034 69.1633C49.7263 67.936 49.9739 68.8959 52.5104 70.2444C54.7176 69.1313 56.1245 67.8768 58.7532 69.1633C60.2214 66.0959 63.0382 65.0194 66.2488 64.6892C66.6952 64.6505 69.0306 66.0325 69.6435 66.3218ZM44.9583 82.9696C44.9714 81.7376 44.3642 77.5479 45.7352 77.5427C46.6734 77.5394 46.4327 79.0879 46.4323 79.8554L46.4275 82.9696H58.4738H59.3712L59.3664 79.7802C59.3643 79.2963 59.3282 78.6216 59.3712 78.1588C60.7326 76.25 60.8335 79.4213 60.8306 80.2098L60.8258 82.9696C61.37 82.9914 62.5617 83.1372 62.9423 82.7097C63.5715 81.9158 63.3276 78.569 63.3176 77.4178C63.2852 73.7213 60.1885 70.1539 56.3976 70.1215C55.4417 70.1134 53.5033 71.4488 52.5104 71.8291C51.3068 71.3786 50.4473 70.5755 49.1436 70.0718H48.6491C43.7452 71.2415 42.0357 74.5289 42.3576 79.3731C42.5398 82.1127 41.3398 83.256 44.9583 82.9696ZM26.073 78.5985C26.6669 78.6257 27.2657 78.6079 27.8606 78.5985L27.8546 75.5419C27.854 75.0025 27.8214 74.4138 27.8918 73.8818C28.0212 72.9035 29.3159 72.9936 29.2866 74.3619C29.2846 75.5253 29.2144 77.5207 29.2866 78.5985C30.5388 78.6347 31.9251 78.5994 33.1895 78.5989L40.9347 78.5985C40.8629 73.6967 41.8853 72.3619 45.4986 69.6938C44.0406 67.4469 42.1144 65.9897 39.2622 66.175C38.4074 66.4454 36.7305 67.5362 36.002 67.5453C34.442 67.5648 33.9803 65.9374 31.5227 66.3123C28.6093 66.7568 26.1166 69.1672 25.5911 72.0736C25.3956 73.1552 25.0269 77.8534 26.073 78.5985ZM73.0146 66.175C72.1478 66.526 70.1963 67.7177 69.6435 67.8515C68.5445 67.5561 66.782 66.0792 65.9316 66.175C63.2599 66.4469 61.4592 67.2572 60.1597 69.6938C64.2418 72.1324 64.431 74.5008 64.7615 78.5985H76.3489L76.3427 75.3406C76.339 75.0012 76.2924 73.8488 76.3489 73.5709C77.9089 72.283 77.7654 74.7977 77.7641 75.5803L77.7565 78.5985C79.7954 78.5827 80.1214 78.7915 80.111 76.4999C80.0856 70.9164 79.6602 66.6546 73.0146 66.175Z" fill="white"/>
<path d="M51.908 55.2991C55.293 54.8465 58.4011 57.2311 58.8404 60.6178C59.2798 64.0045 56.8827 67.1033 53.4943 67.5291C50.1249 67.9526 47.0473 65.5719 46.6105 62.2042C46.1737 58.8364 48.5421 55.7495 51.908 55.2991ZM53.1597 66.1365C55.7641 65.8935 57.6789 63.5857 57.4369 60.9811C57.1951 58.3767 54.8879 56.4609 52.2833 56.7019C49.6773 56.943 47.7602 59.2516 48.0024 61.8577C48.2444 64.4635 50.5539 66.3796 53.1597 66.1365Z" fill="white"/>
<path d="M69.1596 51.9295C72.4258 51.7457 75.2199 54.2504 75.3929 57.5172C75.5659 60.784 73.0521 63.5698 69.7847 63.732C66.5326 63.8934 63.7626 61.3939 63.5904 58.1422C63.4182 54.8906 65.9086 52.1123 69.1596 51.9295ZM70.1924 62.2512C72.6331 61.8673 74.3053 59.5838 73.9343 57.141C73.5635 54.6982 71.2888 53.0141 68.8441 53.3722C66.381 53.7328 64.6814 56.0283 65.0551 58.4893C65.4288 60.9504 67.7332 62.6379 70.1924 62.2512Z" fill="white"/>
<path d="M35.9305 51.9547C39.1788 51.9017 41.8557 54.4909 41.9111 57.7392C41.9666 60.9876 39.3796 63.6665 36.1313 63.7245C32.8795 63.7824 30.197 61.192 30.1415 57.9401C30.0858 54.6883 32.6784 52.0076 35.9305 51.9547ZM36.5322 62.259C38.986 61.9836 40.7481 59.7651 40.461 57.3124C40.174 54.8598 37.9472 53.1083 35.4959 53.4072C33.0612 53.7039 31.3241 55.9126 31.6093 58.3487C31.8942 60.7848 34.0946 62.5326 36.5322 62.259Z" fill="white"/>
</svg>
