<svg width="106" height="106" viewBox="0 0 106 106" fill="none" xmlns="http://www.w3.org/2000/svg">
<rect width="106" height="106" rx="53" fill="#226D78"/>
<path d="M51.0353 22.0779C55.8804 22.0855 55.3702 21.107 55.4504 25.8782C56.3677 26.0634 57.7663 26.7069 58.4831 27.2956C59.094 26.6065 60.2799 25.3558 61.0192 24.9188C61.5653 24.5962 64.3398 27.5633 64.3655 27.9686C64.3975 28.4723 62.4443 30.2372 62.0424 30.6918C62.6267 31.7665 63.0025 32.6072 63.3296 33.7891C64.6146 33.8176 67.1224 33.1936 67.1353 34.8247C67.1702 39.2319 67.6729 38.6846 63.3296 38.6621C62.9819 39.9002 62.6687 40.5476 62.0424 41.6401C62.4865 42.0113 64.3306 43.8738 64.6694 44.3279C64.49 44.8959 64.0924 45.2065 63.6985 45.6342C60.9319 48.6387 61.2838 47.7927 58.6431 45.3161C57.2553 45.9069 57.0879 46.1303 55.4504 46.5802C55.5237 47.3294 55.7242 49.3335 55.0846 49.8338C54.5593 49.8765 50.6807 49.9381 50.5056 49.6044C50.1326 48.8932 50.2904 47.3923 50.3924 46.5802C49.3632 46.3999 48.1816 45.9739 47.3614 45.3161C46.5712 45.8678 45.3687 47.2861 44.5544 47.5607C44.1305 47.7037 41.1838 44.7159 41.3981 44.2867C41.8057 43.4701 43.0603 42.4117 43.7483 41.6401C43.1627 40.5017 42.8619 39.9161 42.5815 38.6621C41.954 38.6827 39.9005 38.7198 39.4059 38.6621C38.3349 38.0771 38.942 33.9885 39.1404 33.8855C39.5829 33.6558 41.9804 33.7914 42.5815 33.7891C42.6328 32.5828 43.1253 31.7129 43.7483 30.6918C43.3698 30.4203 41.2072 28.3129 41.3061 27.9194C41.4334 27.4125 43.9176 24.7818 44.7246 24.8033C45.2218 25.0272 46.9594 26.813 47.3614 27.2956C48.2059 26.5432 49.279 26.0649 50.3924 25.8782C50.3895 25.0299 50.0474 22.2028 51.0353 22.0779ZM51.84 27.0113C48.9893 27.4265 48.7205 28.4731 47.1395 28.9598C46.5747 28.6188 45.155 27.0622 44.5418 26.5178C44.1537 26.8441 43.4105 27.6115 43.0755 28.0123C44.3737 29.3183 45.9933 30.0566 44.8837 31.6767C44.3841 31.9612 43.7344 34.9856 43.628 35.0328C42.9814 35.3194 40.9756 35.1938 40.2866 35.1919V37.2689C45.4048 37.5027 42.7975 36.6159 44.3376 39.5218C45.8504 43.7988 46.1381 40.5077 43.0755 44.5013C43.5543 44.9768 44.0505 45.4833 44.5418 45.9416C45.0474 45.3828 46.4133 43.9727 47.0145 43.5897L47.0922 43.5392C47.1079 43.5292 47.1237 43.5195 47.1395 43.5098C48.509 44.0956 48.8792 44.8872 50.7856 45.2232C52.5294 45.5305 51.647 46.5944 51.84 48.3629C52.5585 48.3749 53.2762 48.3675 53.9947 48.3629L54.0616 48.3122C54.0263 44.535 53.4588 45.9284 56.4369 44.7761C57.3568 44.42 57.8319 44.0351 58.6431 43.5098C59.2074 43.7782 60.8584 45.4008 61.3889 45.9416C61.87 45.401 62.3118 44.9822 62.8556 44.5013C62.1369 43.7277 60.7699 42.5654 60.2845 41.7835C60.7358 40.7471 61.6049 39.8183 61.8557 38.6399C62.3091 36.5081 63.4501 37.2857 65.701 37.2689V35.1919C64.9189 35.1952 63.2623 35.2954 62.581 35.175C61.9057 35.0558 61.7609 33.5275 61.5428 32.9647C60.2678 29.6773 59.3794 31.3821 62.6633 28.0123C62.1409 27.512 61.6882 27.0446 61.1914 26.5178C60.6621 27.0661 59.346 28.7177 58.5828 28.937C58.3641 28.9997 57.313 28.0684 57.0334 27.9829C56.0214 27.4406 55.1436 27.1522 53.9947 27.0113V23.5289C53.3019 23.5202 52.6312 23.5114 51.9385 23.5289L51.8666 23.5836C51.7904 24.1884 51.8386 26.2571 51.84 27.0113Z" fill="white"/>
<path d="M52.141 29.8729C55.6557 29.4626 58.8377 31.971 59.2446 35.4726C59.6514 38.9742 57.1288 42.1403 53.6129 42.5405C50.1041 42.94 46.9335 40.4333 46.5274 36.9388C46.1215 33.4442 48.6333 30.2824 52.141 29.8729ZM53.2987 41.1176C56.0335 40.8875 58.0577 38.4842 57.8101 35.7614C57.5625 33.0387 55.1376 31.037 52.4059 31.3002C49.6974 31.5611 47.7089 33.9514 47.9542 36.6507C48.1997 39.3503 50.5873 41.3456 53.2987 41.1176Z" fill="white"/>
<path d="M52.7785 50.3473C54.2351 50.4613 53.679 54.0707 53.6755 55.2728C54.868 55.2759 56.0825 55.2463 57.2713 55.2728C58.0635 55.8607 61.5512 59.5338 62.2805 60.5996C62.779 59.8783 63.9823 58.744 64.6722 58.1638C62.9132 54.5224 65.3155 50.4495 69.0742 50.7034C75.7486 51.1545 75.4011 60.5439 68.7364 60.5915C67.6234 60.5994 66.4534 60.0831 65.7037 59.2555C64.9013 59.8899 62.6074 62.8044 61.8195 62.0837C60.0074 60.4264 58.4865 58.4709 56.735 56.7582C55.5414 56.7104 54.0034 56.7558 52.7785 56.7582C51.6614 56.764 50.0798 56.6846 49.0219 56.7582C48.6748 57.0591 48.1179 57.7167 47.788 58.0862L45.242 60.9685C44.8669 61.385 43.9899 62.5307 43.4631 62.2747C42.6987 61.9033 40.6753 59.9459 40.2894 59.2555C39.7613 59.5882 39.2343 59.9559 38.6585 60.1895C34.6452 61.8021 30.5232 57.6906 32.3264 53.6467C34.9244 47.8201 44.381 51.3552 41.1263 58.1638C41.863 58.8249 42.8686 59.8808 43.5819 60.5996C44.0514 60.0444 47.9864 55.4204 48.4006 55.3494C49.2541 55.2031 51.4219 55.2706 52.1986 55.2728L52.1936 52.6202C52.1925 51.7497 51.9518 50.8646 52.7785 50.3473ZM69.3415 59.0713C71.2542 58.8648 72.6328 57.1472 72.4141 55.2432C72.1954 53.3392 70.4628 51.9763 68.5526 52.2056C66.6588 52.4332 65.3047 54.141 65.5215 56.0289C65.7384 57.9167 67.445 59.276 69.3415 59.0713ZM37.3522 59.014C39.2456 58.7454 40.5615 56.9981 40.2906 55.1121C40.0197 53.2263 38.2647 51.9165 36.3715 52.1876C34.48 52.4584 33.1666 54.2047 33.4373 56.0889C33.708 57.9732 35.4603 59.2826 37.3522 59.014Z" fill="white"/>
<path d="M73.7654 73.0103C82.7682 72.3772 85.7097 84.3638 79.4825 84.0911C78.113 84.0391 76.7364 84.054 75.3659 84.0549L70.8118 84.0586C69.7766 84.0644 68.361 84.2856 67.4794 83.6261C65.1247 81.8643 66.2871 78.2619 67.7739 76.3315C69.314 74.3319 71.3023 73.3513 73.7654 73.0103ZM74.6418 82.6313L78.1876 82.6359C78.4632 82.6375 78.9202 82.6267 79.1774 82.657C83.6417 83.1829 80.6002 73.9774 74.2745 74.511C68.0224 74.8814 65.8866 82.0813 68.9336 82.6245C69.5018 82.7043 70.1962 82.639 70.7855 82.6346L74.6418 82.6313Z" fill="white"/>
<path d="M30.772 73.0103C31.2556 72.9828 31.5339 72.9807 32.0166 73.0103C36.0607 72.9789 39.7428 77.163 39.7731 81.0803C39.8014 84.7199 35.7188 84.0586 33.2711 84.0544L26.5399 84.0598C19.436 83.9967 24.1549 72.7941 30.772 73.0103ZM32.3617 82.6313L35.2841 82.6342C36.4974 82.6342 38.5314 82.7962 38.3347 80.9419C37.9541 77.3586 35.017 74.3184 31.299 74.4041C31.2028 74.4063 30.8488 74.457 30.772 74.511C27.4817 74.5452 24.5539 77.7502 24.4837 80.9522C24.4394 82.975 26.7944 82.6348 28.1132 82.6334L32.3617 82.6313Z" fill="white"/>
<path d="M51.8429 69.2867C61.129 68.7755 62.9771 79.4269 58.9822 79.9497C57.4561 80.1494 55.5793 80.0501 53.9976 80.0455L49.1323 80.0472C48.5243 80.0489 47.2215 80.1374 46.713 80.0242C42.5264 79.0911 44.4503 70.4171 51.8429 69.2867ZM53.2793 78.5976L56.4908 78.6044C57.1032 78.6052 57.8485 78.6466 58.4411 78.5444C61.1994 78.0689 58.6683 70.5857 52.8235 70.7755L52.5238 70.7873C48.8197 70.8862 46.1025 73.4355 46.1079 77.1895C46.1104 78.9775 47.9161 78.6048 49.1919 78.603L53.2793 78.5976Z" fill="white"/>
<path d="M30.8954 72.7385C28.2884 72.4776 26.3275 70.2531 26.4045 67.6441C26.4816 65.0354 28.5704 62.9296 31.1885 62.8218C33.8064 62.714 36.0627 64.6406 36.3558 67.2344C36.6489 69.8281 34.8791 72.2061 32.3023 72.6805C32.0578 72.856 32.0585 72.7929 32.0151 73.0104C31.5323 72.9808 31.254 72.9828 30.7704 73.0104C30.9148 72.9355 30.8772 72.9886 30.942 72.8732L30.8954 72.7385ZM31.8204 71.2537C33.7373 71.0195 35.0997 69.281 34.8631 67.372C34.6263 65.4628 32.88 64.1069 30.9638 64.3443C29.0494 64.5812 27.6901 66.3184 27.9265 68.2253C28.1629 70.1324 29.9059 71.4879 31.8204 71.2537Z" fill="white"/>
<path d="M32.3015 72.6807C32.057 72.8561 32.0576 72.793 32.0142 73.0105C31.5314 72.9809 31.2531 72.983 30.7695 73.0105C30.9139 72.9356 30.8763 72.9888 30.9411 72.8733L30.8946 72.7386C31.364 72.7856 31.8376 72.7661 32.3015 72.6807Z" fill="white"/>
<path d="M52.2497 59.1169C54.9833 58.7823 57.4739 60.713 57.8193 63.4347C58.165 66.1567 56.2356 68.6442 53.5045 68.9982C50.7595 69.3541 48.2467 67.4203 47.8994 64.6847C47.5521 61.9491 49.5024 59.4531 52.2497 59.1169ZM53.5573 67.4759C55.4542 67.1016 56.6879 65.2671 56.3131 63.3772C55.9386 61.4875 54.0974 60.2578 52.2001 60.6298C50.3013 61.0023 49.0656 62.838 49.4405 64.7292C49.8154 66.6204 51.6589 67.8502 53.5573 67.4759Z" fill="white"/>
<path d="M73.6899 62.9678C76.3691 62.542 78.8887 64.3564 79.3231 67.0241C79.7572 69.6916 77.9421 72.2062 75.2652 72.6457C72.5786 73.0866 70.043 71.2708 69.6072 68.5934C69.1714 65.9159 71.001 63.3949 73.6899 62.9678ZM74.4358 71.2228C76.3329 71.2304 77.8773 69.7049 77.8854 67.815C77.8935 65.9252 76.3624 64.3866 74.4651 64.3779C72.5674 64.3695 71.0219 65.8952 71.0138 67.7858C71.0057 69.6763 72.5379 71.2151 74.4358 71.2228Z" fill="white"/>
</svg>
