<svg width="106" height="106" viewBox="0 0 106 106" fill="none" xmlns="http://www.w3.org/2000/svg">
<rect width="106" height="106" rx="53" fill="#043870"/>
<path d="M70.6917 43.2599L76.6669 43.2568C77.8941 43.257 79.4626 42.8798 80.1413 43.8879C80.1951 44.8918 80.1419 46.5072 80.1419 47.5587L80.1413 77.9692C80.6761 77.9665 85.602 77.4724 84.234 79.3052C83.8644 79.7999 81.8479 79.6189 81.1117 79.6147L23.1744 79.6193C21.5409 79.568 21.8816 78.1022 22.5791 77.9946C23.6925 77.8229 25.0051 77.9669 26.1423 77.9692L26.1372 66.8865C26.1322 65.9103 25.8299 64.5052 27.1456 64.5151C29.8782 64.5238 32.6143 64.4998 35.3458 64.5265C36.5132 64.5379 36.2635 65.9617 36.2606 66.7874L36.2554 77.9692H38.0914H40.8712L40.8691 61.0599C40.8676 59.6659 40.3928 57.7661 42.2284 57.7853C44.8494 57.8128 47.4729 57.7754 50.0929 57.8023C51.3162 57.8149 50.9474 60.0134 50.9466 60.8168L50.9441 77.9692H55.4581L55.4564 56.9006C55.4558 53.0779 54.9249 53.3882 59.0201 53.4054L63.9509 53.3998C66.3794 53.4021 65.5387 55.2794 65.5381 57.5192L65.5385 73.8889C65.5392 75.1297 65.5984 76.7759 65.5385 77.9692C67.0279 77.9882 68.5588 77.9694 70.0515 77.9692V43.8879C70.2646 43.5378 70.3219 43.4263 70.6917 43.2599ZM71.6474 77.9692H78.5213V44.8542H71.6474V77.9692ZM27.7189 66.08C27.6824 67.3544 27.7185 68.7777 27.7189 70.067V77.9692H34.6539V66.08H27.7189ZM49.385 77.9692V59.3336H42.4228C42.3653 62.9234 42.4228 66.6736 42.4228 70.2818L42.4222 75.4026C42.422 76.217 42.395 77.1709 42.4228 77.9692H49.385ZM63.9794 77.9692V54.992C61.6884 54.9554 59.3038 54.9928 57.0027 54.992V77.9692C59.3136 77.9671 61.6727 77.9433 63.9794 77.9692Z" fill="white"/>
<path d="M81.1024 26.0033C81.5444 25.9788 81.9868 26.0829 82.0151 26.6168C82.1142 29.5785 82.1194 32.8696 82.0421 35.8183C81.4696 36.7794 80.4728 36.5272 80.4451 35.3673C80.4287 34.6729 80.4364 33.9714 80.437 33.2756L80.4414 28.7146C76.4652 32.8262 72.3804 36.815 68.349 40.8707L63.879 45.3708C63.2326 46.0296 60.6552 49.3032 59.8385 48.5287C56.3862 45.2543 52.6528 40.8933 49.1056 37.9841L49.0541 37.9427C48.1708 38.7122 47.2793 39.6948 46.4412 40.5256L32.4782 54.3744C31.6652 55.1882 30.7886 55.9606 29.9918 56.7731C30.5691 57.2612 31.1552 57.8271 31.7329 58.3349C34.8647 55.122 38.0825 51.9457 41.2623 48.7776L44.366 45.6497C44.757 45.2593 46.0407 43.836 46.4495 43.9024C48.375 44.2158 46.1476 46.0294 45.9248 46.2572L33.4823 58.7617C33.0253 59.2289 32.015 60.7241 31.2421 60.1658C30.7417 59.8044 28.0313 57.1857 27.9925 56.7218C27.9682 56.4315 29.3983 55.134 29.6194 54.915L45.9241 38.8401C49.2285 35.5454 48.3017 34.9981 51.2997 37.9274L60.3133 46.7772C60.7797 46.2142 61.4479 45.5591 61.9655 45.0348L77.4575 29.5143C77.9689 28.9927 78.5636 28.4612 79.0341 27.9226C76.851 28.1028 74.6335 28.569 72.4525 28.8135C71.4745 29.0238 71.1254 27.4943 72.1559 27.2789C74.8325 26.7517 78.4303 26.2716 81.1024 26.0033Z" fill="white"/>
</svg>
