<svg width="210" height="209" viewBox="0 0 210 209" fill="none" xmlns="http://www.w3.org/2000/svg">
<path d="M104.992 69.377C119.967 50.5029 150.219 69.6933 137.668 90.6243C143.139 94.848 143.264 95.6016 145.376 101.558H176.933C182.562 90.8787 195.097 95.1734 195.139 104.677C195.134 113.309 183.016 117.434 178.229 109.747C177.579 108.701 177.512 107.528 176.16 107.368C172.787 107.326 169.367 107.36 165.996 107.36L145.376 107.357C143.718 113.065 142.21 114.576 137.668 118.16C143.226 126.319 140.515 137.48 132.801 143.072C130.469 144.763 125.978 147.055 123.047 146.647C116.27 148.501 109.453 143.89 104.992 139.199C103.868 140.157 102.873 141.367 101.758 142.282C89.9888 151.945 70.6176 144.865 69.3198 129.449C68.9983 125.625 69.5844 121.211 72.0584 118.16C67.71 115.64 66.0853 111.942 64.8323 107.357C54.5292 107.06 43.2072 107.174 32.8922 107.357C30.3683 115.404 19.7158 116.215 15.8496 108.853C10.5351 98.7337 26.213 88.0988 32.8922 101.558H64.8323C65.7256 97.0025 68.2567 93.2666 72.0584 90.6243C65.2014 77.0128 72.6023 63.7254 87.4286 61.7407C93.398 60.8308 101.529 64.5242 104.992 69.377ZM107.769 75.7641C107.789 78.4623 108.765 85.1671 104.101 83.9727C100.648 83.0885 102.543 78.2901 101.9 75.8519C100.49 71.1808 94.9152 67.7539 90.1857 67.4564C78.7169 66.7551 70.6713 79.2698 77.9233 88.8344C80.8366 88.7111 87.8166 87.8673 88.0742 91.4167C88.4844 97.1723 78.5643 92.6372 74.6515 95.9436C68.2009 101.394 69.3211 110.552 76.9274 114.227C78.4179 113.915 85.3496 113.572 86.7396 114.484C88.7936 115.831 88.2682 119.483 85.6621 119.74C83.131 119.989 80.4753 119.812 77.9233 119.806C67.0246 132.659 88.5045 150.284 100.157 135.376C102.604 131.908 102.038 130.429 102.037 126.341L102.026 114.169C102.021 113.118 101.8 110.794 102.132 109.962C103.265 107.125 107.62 107.582 107.755 110.915C107.829 112.728 107.772 114.455 107.763 116.224L107.765 126.026C107.765 127.783 107.615 131.172 108.22 132.696C115.287 150.471 144.327 136.744 131.92 119.806C129.816 119.952 126.697 119.85 124.606 119.702C122.253 119.535 121.424 116.335 123.019 114.776C125.275 112.295 131.645 116.31 136.607 111.449C142.64 105.54 139.014 94.8741 130.402 94.5835C128.521 94.5198 124.36 95.1044 123.008 93.7389C121.489 92.2037 122.173 89.1046 124.662 88.916C127.105 88.7123 129.505 88.8752 131.92 88.8344C133.083 86.8297 133.73 85.783 134.374 83.5098C136.626 75.5539 128.063 66.117 119.87 67.4551C114.123 67.8809 110.673 70.9587 107.769 75.7641ZM186.368 107.886C188.204 107.606 189.474 105.91 189.221 104.079C188.968 102.247 187.285 100.957 185.44 101.18C184.222 101.327 183.177 102.117 182.708 103.247C182.239 104.376 182.418 105.669 183.176 106.63C183.934 107.592 185.154 108.072 186.368 107.886ZM24.9516 107.806C26.7392 107.316 27.7836 105.471 27.2782 103.696C26.7727 101.921 24.9108 100.895 23.1309 101.412C21.3698 101.923 20.3526 103.751 20.8528 105.508C21.3529 107.264 23.1831 108.291 24.9516 107.806Z" fill="#3D2A6D"/>
<path d="M104.123 88.8344C106.071 88.5119 107.789 89.3618 107.745 91.5367C107.674 95.0346 109.191 102.053 105.684 103.353C101.009 104.649 102.181 97.8316 102.038 95.6791C102.095 93.1724 101.087 89.8414 104.123 88.8344Z" fill="#3D2A6D"/>
<path d="M53.9998 119.806C54.0503 119.791 58.505 119.59 58.6588 119.601C60.9651 119.758 62.2296 122.515 60.8863 124.355C59.5201 126.226 56.0153 125.122 53.9732 125.592C45.3595 127.574 57.5477 142.714 40.8102 145.74C38.6289 152.067 32.7486 154.762 26.7865 151.341C23.1748 148.801 21.7358 144.566 23.1974 140.406C25.9131 132.676 37.0463 132.017 40.3451 139.648C46.1133 138.974 44.419 133.933 44.4612 129.874C44.5174 124.502 48.3569 119.745 53.9998 119.806ZM32.4594 146.786C34.3096 146.49 35.5637 144.752 35.2534 142.912C34.9431 141.073 33.1871 139.838 31.3414 140.16C29.5146 140.479 28.2884 142.205 28.5956 144.025C28.9028 145.846 30.6282 147.078 32.4594 146.786Z" fill="#3D2A6D"/>
<path d="M31.2556 56.1676C35.8266 55.372 39.8437 59.1389 41.2782 63.1082L41.6318 63.1413C46.2046 63.5671 49.6196 67.1441 50.2627 71.6385C50.6725 74.5028 49.3673 80.2201 51.5588 82.244C53.943 84.4466 57.44 82.7167 60.0228 83.7813C62.2598 84.7038 61.6634 88.6581 59.1516 88.9993C55.7383 89.4626 51.7946 89.2814 48.8239 87.4686C40.4366 81.8484 48.5515 70.5179 40.8112 68.648C35.2553 77.9019 23.8664 75.5613 22.7744 66.3326C22.1535 61.0856 26.1715 56.6937 31.2556 56.1676ZM32.867 68.6912C34.7113 68.2238 35.8321 66.3641 35.3784 64.5243C34.9246 62.6849 33.0657 61.553 31.2135 61.9885C29.3382 62.4298 28.1838 64.3075 28.6433 66.1702C29.1027 68.0324 30.9997 69.1652 32.867 68.6912Z" fill="#3D2A6D"/>
<path d="M154.39 119.806C156.503 118.938 159.863 120.241 161.539 121.462C169.766 127.459 161.335 139.217 169.883 139.199C172.123 136.447 173.979 134.149 178.008 134.183C186.514 134.257 190.816 144.096 184.595 150.174C178.618 155.223 171.338 152.354 169.312 145.119C156.45 145.452 161.114 129.296 158.769 126.647C156.391 123.961 151.525 126.907 149.439 124.24C148.562 123.117 148.838 121.111 149.985 120.264C151.246 119.335 152.949 119.615 154.39 119.806ZM178.68 146.787C180.562 146.58 181.923 144.897 181.725 143.023C181.526 141.148 179.844 139.785 177.959 139.972C176.059 140.16 174.676 141.851 174.876 143.74C175.076 145.63 176.782 146.997 178.68 146.787Z" fill="#3D2A6D"/>
<path d="M177.593 56.1675C181.501 55.5764 186.025 59.1801 186.954 62.9657C190.075 75.6764 172.038 77.7962 169.881 69.0488C161.119 69.7835 169.864 80.1846 162.28 87.0869C156.79 91.3697 145.244 89.2291 149.746 84.3588C151.122 82.8697 154.15 83.6449 156.063 83.4812C163.684 82.8289 156.536 72.3969 162.344 66.253C164.101 64.3953 166.571 63.1947 169.31 63.1082C169.932 58.9849 173.619 56.5165 177.593 56.1675ZM178.674 68.6834C180.511 68.354 181.739 66.6143 181.428 64.7822C181.118 62.9502 179.383 61.7085 177.539 61.9979C176.328 62.1877 175.313 63.0106 174.881 64.1524C174.45 65.2941 174.667 66.5791 175.452 67.5168C176.237 68.454 177.467 68.8998 178.674 68.6834Z" fill="#3D2A6D"/>
<path d="M86.6978 151.341C87.9472 151.189 88.9845 151.267 90.2277 151.341C90.4627 162.953 85.6019 164.69 74.8435 164.61V170.664C84.2291 173.953 82.3711 188.033 72.0594 188.634C60.0406 188.695 59.1973 173.001 68.7613 170.664C69.2371 167.624 67.3262 159.489 71.4954 158.967C78.1674 158.132 84.846 161.377 84.8029 151.341H86.6978ZM72.2419 182.855C73.8751 182.561 75.0707 181.158 75.0945 179.507C75.1089 178.491 74.6741 177.521 73.9051 176.854C73.1364 176.187 72.1115 175.891 71.1033 176.044C69.8667 176.231 68.8273 177.067 68.3827 178.23C67.9385 179.394 68.1576 180.705 68.9569 181.663C69.7559 182.621 71.011 183.076 72.2419 182.855Z" fill="#3D2A6D"/>
<path d="M137.668 20.3264C138.781 19.9623 140.456 20.3948 141.547 20.7684C149.687 23.5539 149.679 34.3065 141.304 38.2108C141.276 40.1765 141.644 46.9381 141.124 48.2504C139.741 51.7389 130.819 49.0305 127.458 50.5262C124.267 51.9463 127.261 55.9508 123.601 57.4926C120.734 58.2143 119.928 56.1855 119.822 53.8204C119.498 46.5756 125.199 44.25 131.265 44.2725L135.502 44.288C135.477 42.2862 135.502 40.2174 135.502 38.2108C125.468 35.0736 127.871 20.5218 137.668 20.3264ZM138.786 32.818C140.676 32.537 141.982 30.7879 141.708 28.9056C141.433 27.0232 139.681 25.7161 137.788 25.9816C135.885 26.2488 134.562 28.0049 134.838 29.8982C135.114 31.7916 136.885 33.1008 138.786 32.818Z" fill="#3D2A6D"/>
<path d="M70.4974 20.3264C82.4493 19.6554 84.2971 35.436 74.5477 38.2108V44.288C76.9664 44.4464 79.6652 44.108 81.9814 44.3415C88.7941 45.0285 93.5453 53.7938 88.6661 57.4926C82.5601 58.7531 86.1506 51.5532 82.51 50.3898C80.5282 49.7563 76.3101 50.2539 74.0785 50.1278C68.8883 50.0425 68.7456 48.857 68.7493 43.6545L68.7604 38.2108C59.7386 34.4902 60.0856 22.641 70.4974 20.3264ZM72.4444 32.7595C74.2429 32.34 75.368 30.5584 74.9677 28.7634C74.567 26.9684 72.7902 25.828 70.9822 26.2056C69.7936 26.4539 68.8309 27.3188 68.4614 28.4702C68.0922 29.6216 68.3732 30.8817 69.1976 31.7694C70.0216 32.657 71.2619 33.0352 72.4444 32.7595Z" fill="#3D2A6D"/>
<path d="M119.461 151.341H124.997L125.01 152.793C125.16 162.835 137.265 156.754 140.171 159.732C141.434 161.025 141.107 163.506 141.102 165.134L141.093 170.664C150.287 173.688 149.608 183.914 141.093 188.634C138.749 188.788 137.307 188.982 135.057 188.104C127.304 185.081 127.187 174.086 135.503 170.664V164.61C124.771 164.653 119.405 162.73 119.461 151.341ZM139.386 182.916C141.254 182.417 142.37 180.513 141.887 178.648C141.403 176.784 139.5 175.656 137.622 176.12C135.719 176.591 134.567 178.515 135.058 180.404C135.548 182.293 137.492 183.422 139.386 182.916Z" fill="#3D2A6D"/>
</svg>
