<svg width="209" height="209" viewBox="0 0 209 209" fill="none" xmlns="http://www.w3.org/2000/svg">
<path d="M34.415 150.494L34.4578 150.495C40.2896 154.355 44.0929 153.569 49.7008 150.494C62.9898 153.799 68.1891 161.808 68.0699 175.303C67.9642 187.258 65.4876 192.699 52.5068 192.671L36.1404 192.677C33.3203 192.678 30.1003 192.795 27.3425 192.589C21.7765 192.173 16.7336 187.055 16.1656 181.532C15.5544 176.652 15.8991 167.774 17.6868 163.506C19.9367 158.135 24.5217 154.221 29.8189 151.976C31.3051 151.346 33.1278 151.08 34.415 150.494ZM33.695 157.401C28.4147 158.603 23.7132 163.201 22.6214 168.551C22.2547 170.348 22.1119 179.673 22.5383 181.438C23.6856 186.185 28.049 186.357 32.0458 186.43L48.3729 186.427C50.9968 186.427 54.1086 186.578 56.6827 186.228C57.7146 186.088 58.8376 185.105 59.7026 184.841C62.7555 180.834 62.3649 174.498 61.6881 169.683C60.8986 164.07 56.3904 158.682 50.7405 157.391L50.7221 157.401C43.0589 159.371 42.4425 160.75 33.695 157.401Z" fill="#3D2A6D"/>
<path d="M34.4136 171.241C38.3992 171.014 46.0876 170.975 49.8958 171.295C53.8329 171.626 54.0374 177.517 49.3671 177.463L38.9319 177.465C37.1543 177.469 33.0596 177.882 31.8623 176.664C29.4965 174.258 31.1844 171.28 34.4136 171.241Z" fill="#3D2A6D"/>
<path d="M174.715 150.494C185.12 153.399 192.581 160.088 192.657 171.54L192.656 177.556C192.609 189.75 187.335 192.781 175.783 192.674L156.979 192.671C150.189 192.708 145.503 192.076 142.209 185.207C140.092 180.791 140.702 168.085 142.411 163.689C145.894 154.736 151.801 153.979 159.031 150.699C163.968 153.702 169.825 153.943 174.715 150.494ZM159.031 157.401C145.297 162.727 147.705 168.058 147.381 180.283C147.224 186.226 153.169 186.217 156.979 186.43L172.742 186.434C178.145 186.434 186.943 187.722 186.301 179.217C185.583 169.697 188.407 161.515 175.242 157.401C171.201 159.263 162.677 160.571 159.031 157.401Z" fill="#3D2A6D"/>
<path d="M163.123 171.241L170.641 171.236C172.916 171.239 177.393 170.889 177.953 173.661C178.897 178.322 173.043 177.483 170.68 177.463L162.852 177.468C160.602 177.47 156.39 178.073 155.733 175.24C154.686 170.731 160.363 171.307 163.123 171.241Z" fill="#3D2A6D"/>
<path d="M105.851 85.7827C108.969 85.748 107.855 89.741 107.862 92.6303L107.867 103.98C108.68 104.515 109.491 104.707 110.292 105.154C114.774 107.654 116.563 113.075 115.28 117.869C116.737 119.333 119.999 121.734 121.689 123.014L141.571 138.145C144.213 140.177 146.845 142.46 149.688 144.157C149.82 144.737 146.185 148.332 145.511 149.075C143.799 148.029 141.592 146.263 139.961 145.017L131.33 138.345C124.953 133.322 118.259 128.235 111.711 123.434C108.595 125.682 106.223 126.148 102.481 125.929C100.222 125.07 99.0652 124.348 97.0703 123.434C93.6051 125.209 84.5242 132.942 81.2194 135.551L63.8324 148.938C63.5879 149.129 63.4703 149.347 63.3671 149.636L63.2307 149.604C61.8873 147.729 60.4619 146.524 59.7002 144.383L59.6328 144.417C60.9003 142.427 76.61 131.083 79.8642 128.444C80.543 127.892 82.104 127.481 82.4983 126.813C83.4731 125.08 91.4024 119.827 93.628 117.869C91.849 112.641 94.5093 106.049 100.21 104.643C100.595 104.548 101.105 104.202 101.441 103.98L101.434 93.2348C101.432 86.7129 99.8727 85.7247 105.851 85.7827ZM105.167 119.531C107.849 119.145 109.705 116.652 109.308 113.972C108.911 111.292 106.411 109.446 103.732 109.854C101.069 110.26 99.2355 112.742 99.6306 115.407C100.025 118.072 102.501 119.915 105.167 119.531Z" fill="#3D2A6D"/>
<path d="M40.7056 117.869C57.0563 115.918 64.1228 141.249 47.6889 149.64C46.997 149.994 44.8078 150.333 43.9747 150.494C24.0925 151.848 21.1826 121.091 40.7056 117.869ZM43.4301 144.118C55.1174 141.302 51.3991 122.686 41.2728 124.24C30.2291 126.733 32.4331 145.458 43.4301 144.118Z" fill="#3D2A6D"/>
<path d="M165.743 117.869C169.73 117.533 173.237 119.037 176.151 121.676C186.43 130.988 180.721 149.977 167.962 150.494C150.018 152.208 144.749 120.637 165.743 117.869ZM167.548 144.118C175.517 142.398 177.612 131.733 172.391 127.049C171.999 125.245 167.847 124.12 166.316 124.24C154.837 125.641 156.691 144.905 167.548 144.118Z" fill="#3D2A6D"/>
<path d="M102.958 15.1652C121.38 13.0361 125.729 43.6716 105.85 47.2348C86.1464 48.0643 83.7331 17.3535 102.958 15.1652ZM105.338 40.7596C115.645 39.2256 114.744 20.5766 103.85 21.453C103.832 21.4584 103.815 21.4639 103.797 21.4693C92.4409 22.5752 94.0533 41.5335 105.338 40.7596Z" fill="#3D2A6D"/>
<path d="M95.7914 47.8827C96.4956 47.761 98.937 49.0379 100.031 49.2771C105.415 50.4552 108.114 49.3518 112.92 47.8827C121.77 49.4024 128.973 55.732 130.888 64.5969C131.536 68.0601 131.101 71.6805 131.246 75.1641C131.461 80.372 129.477 84.763 124.671 87.1318C116.961 91.1036 115.223 83.1477 119.396 82.395C121.953 81.9337 125.044 79.7254 124.891 76.8222C124.35 66.5682 126.251 58.6494 113.605 54.469C113.348 54.3457 112.52 54.7111 112.219 54.8152C106.121 56.9276 101.644 56.3725 95.7914 54.469C90.3607 55.7728 85.0875 60.8701 84.4724 66.649C84.125 69.9097 84.5369 73.5456 84.3634 76.8488C84.0911 82.024 91.4367 81.8892 91.722 83.9992C92.4691 89.6186 86.6428 88.5948 83.6204 86.5432C78.3783 82.9853 77.8501 78.8632 77.9717 73.0178C78.0905 67.3176 77.6713 63.0572 80.9512 57.8975C84.5916 52.1704 89.2206 49.2648 95.7914 47.8827Z" fill="#3D2A6D"/>
<path d="M97.9314 68.2813C102.067 68.4622 106.272 68.2699 110.414 68.2724C117.548 68.2764 116.317 74.6362 111.713 74.7309L101.735 74.7375C100.041 74.7375 98.0967 74.8122 96.4468 74.6571C93.3942 74.3705 91.7822 68.4891 97.9314 68.2813Z" fill="#3D2A6D"/>
</svg>
