<svg width="210" height="209" viewBox="0 0 210 209" fill="none" xmlns="http://www.w3.org/2000/svg">
<path d="M80.6253 44.3921C101.403 43.0797 122.625 54.8086 133.447 72.3185C134.601 74.1856 132.313 76.6536 130.329 76.4185C128.279 76.1899 127.525 74.0415 126.462 72.5969C117.223 60.0267 102.784 51.9377 87.1718 50.6156C56.575 48.0243 30.8689 70.682 28.4368 100.776C29.8193 100.854 33.9308 100.368 35.1594 101.557C36.6314 102.981 36.3595 106.692 34.0365 107.186C32.6785 107.474 30.0471 107.329 28.4368 107.316C28.3809 108.836 28.8077 111.343 29.0807 112.894C36.0391 152.528 84.667 171.347 116.762 145.309C128.82 135.526 135.075 122.554 136.624 107.316C135.957 107.319 134.441 107.225 133.727 107.295C128.687 107.849 125.105 99.762 136.624 100.776C136.397 96.1086 135.746 92.787 134.592 88.3189C131.786 89.2071 128.52 90.5011 125.737 91.533L115.122 95.4485C111.141 96.9544 107.448 98.426 103.407 99.8257C106.499 117.121 89.458 130.576 73.7269 123.208C56.4737 115.126 57.6152 90.9109 75.5972 84.1858C85.5497 80.9038 96.071 84.6634 101.128 93.9325C103.503 92.9667 106.548 91.9719 108.992 91.0828L145.877 77.4055C146.799 77.0814 148.041 76.6038 148.972 76.3875C150.383 70.9478 152.225 65.2966 153.752 59.872C154.212 58.2396 157.241 57.4554 158.738 56.8509L172.827 51.1238C175.61 49.9804 180.147 47.0144 182.172 50.3968C183.069 51.8728 179.641 64.8888 179.142 66.8694L188.442 72.3181C189.873 73.1598 193.165 74.8114 194.196 76.203C194.808 77.2798 194.391 79.389 193.284 79.8976C185.037 83.6857 176.471 87.3192 168.086 90.7444C162.756 87.7661 156.316 85.0226 150.708 82.2623C147.584 83.658 143.6 84.9373 140.341 86.1023C141.672 90.3011 142.734 96.3854 142.874 100.776C144.4 100.759 148.285 100.299 149.637 101.596C151.333 103.224 150.739 106.262 148.491 107.085C147.396 107.486 144.3 107.317 142.874 107.316C142.373 110.119 142.239 112.96 141.654 115.769C136.186 142.014 114.27 161.151 87.4155 163.206C53.9771 165.764 24.485 140.764 22.3285 107.316C19.5597 107.304 15.1093 108.212 14.9863 104.016C14.8734 100.162 19.6532 100.774 22.3285 100.776C22.6491 97.9296 22.8836 95.084 23.4171 92.2764C27.8098 69.1586 46.4856 50.8156 69.4752 45.8853C73.3065 45.0636 76.7268 44.7285 80.6253 44.3921ZM96.3602 110.248C97.5693 107.508 97.9585 104.859 97.7227 101.874C92.96 103.475 87.8523 105.741 83.0395 107.282C80.5421 108.082 78.1193 103.202 81.0662 101.583C85.7297 99.5873 90.7074 98.1492 95.3532 96.0996C92.1056 91.5633 87.2543 88.4519 81.4969 89.0899C67.0672 91.2183 62.5805 108.201 73.5653 116.101C81.2758 121.647 92.3386 118.879 96.3602 110.248ZM167.625 83.6413C169.137 84.4034 181.877 78.1717 184.467 77.1561C181.707 75.4956 178.666 73.5982 175.84 72.0667C170.171 74.2575 164.061 76.7312 158.495 79.189C161.313 80.9667 164.638 82.1554 167.625 83.6413ZM159.194 63.3662C158.852 64.4945 156.464 72.7728 156.596 73.1582L156.707 73.1986C161.975 71.1706 167.934 68.9476 173.01 66.5175C173.629 63.8499 174.743 59.4928 175.109 56.8382C174.993 56.7345 175.051 56.7464 174.962 56.7415C171.675 58.1947 161.563 61.7424 159.194 63.3662Z" fill="#3D2A6D"/>
<path d="M80.625 62.8633C89.6144 62.4546 98.6431 64.8643 106.133 69.839C108.716 71.5547 115.878 77.163 116.403 80.1523C116.693 81.7974 115.386 83.4522 113.739 83.6637C111.55 83.9445 110.077 81.2695 108.785 79.947C93.9354 64.7475 68.3818 65.0525 54.9435 81.8704C42.4948 97.4499 44.8503 119.305 60.6676 131.627C76.1834 143.714 98.9011 140.421 110.898 125.114C115.188 120.306 117.877 112.541 118.29 106.194C118.384 104.74 118.03 102.798 118.908 101.573C120.594 99.2186 124.268 100.506 124.362 103.324C124.866 124.717 107.991 142.81 86.7683 144.864C63.9583 147.071 43.4197 130.773 41.1716 108.057C38.7305 83.393 56.6755 65.0149 80.625 62.8633Z" fill="#3D2A6D"/>
</svg>
