<svg width="209" height="209" viewBox="0 0 209 209" fill="none" xmlns="http://www.w3.org/2000/svg">
<path d="M103.792 15.1487C116.176 14.6247 120.27 31.0517 107.852 36.2257V74.0868H118.433C118.491 69.6994 118.27 65.0688 118.542 60.6949C118.592 59.8822 128.696 50.0118 130.411 48.3349C131.974 46.8058 134.01 43.8826 136.202 43.6557C138.126 43.4593 139.645 44.788 139.672 46.7192C139.729 49.4836 127.225 60.5679 124.967 62.8767C124.802 66.402 125.071 70.522 124.967 74.0868C126.297 75.8237 132.65 82.1288 134.264 83.2787C137.537 83.2746 141.98 83.7922 145.013 83.2787C147.131 81.9455 154.901 73.5039 157.379 70.9326C157.336 66.6857 157.376 62.364 157.379 58.1114C140.609 48.9439 156.255 30.3785 167.51 39.2264C174.844 44.937 171.668 57.0819 163.893 58.1114C163.712 62.5677 163.611 68.9541 163.893 73.4786C163.117 74.5199 159.557 78.0113 158.533 79.0301L149.399 88.1739C146.029 91.5387 139.697 90.0112 134.709 90.0096C134.791 93.2385 134.89 96.638 134.709 99.8595L160.289 99.8599C164.47 99.8595 168.952 99.7697 173.099 99.8595C174.628 96.5486 178.195 93.8769 181.786 93.4658C196.422 91.7889 199.153 113.073 184.696 115.318C179.371 116.145 173.296 111.746 172.731 106.234C160.151 106.234 147.264 106.092 134.709 106.234V117.052L142.105 117.046C144.606 117.035 146.546 116.493 148.401 118.445C150.104 120.231 163.887 133.762 163.898 134.761C163.914 136.223 163.9 137.689 163.899 139.152L163.893 151.113C167.27 151.617 170.357 155.051 171.186 158.269C174.575 171.651 155.411 177.572 150.664 165.077C148.541 159.487 151.298 152.512 157.379 151.113C157.59 147.467 157.648 140.959 157.379 137.184C155.622 134.421 147.087 126.16 144.458 123.683C143.375 123.533 135.711 123.533 134.709 123.683C133.503 124.804 132.282 126.113 131.114 127.293L124.967 133.494C125.031 134.509 124.977 135.931 124.975 136.979L124.967 143.584C127.303 145.759 130.016 148.626 132.313 150.915L136.478 155.145C142.823 161.699 135.942 163.487 134.292 161.977C128.917 157.061 123.899 151.149 118.433 146.35C118.487 142.311 118.432 138.244 118.433 134.197H107.852C107.724 135.227 107.837 137.037 107.844 138.169L107.853 146.196C107.855 154.878 107.727 163.87 107.852 172.513C108.428 172.781 109.008 173.024 109.567 173.33C118.643 178.305 116.819 190.782 106.468 193.791C90.7794 194.826 90.1724 175.378 101.32 172.513C101.236 171.905 101.27 170.856 101.281 170.201C101.482 158.23 101.126 146.157 101.32 134.197H90.6174C90.788 135.861 90.8374 144.683 90.6174 146.35C89.9451 147.223 88.7531 148.352 87.9387 149.161L83.2473 153.765C80.6131 156.351 78.0741 159.002 75.4036 161.584C73.2981 164.066 65.6941 162.126 72.8413 154.951C75.4134 152.368 82.2239 146.29 84.0098 143.584C84.4862 141.317 84.0057 136.22 84.0098 133.494C81.7769 130.326 77.2895 126.269 74.3978 123.683H65.072L51.6376 137.184C51.7238 141.718 51.6393 146.553 51.6376 151.113C60.8047 153.993 61.6268 167.469 52.2418 171.033C39.2595 176.002 30.8223 156.32 45.2056 151.113C45.1354 150.351 45.1864 148.946 45.1893 148.124L45.1974 142.758C45.2044 140.415 45.0574 136.365 45.2056 134.197C46.9286 132.568 48.5704 130.915 50.2375 129.222L55.587 123.875C56.719 122.721 61.3688 117.628 62.7759 117.276C66.146 116.435 70.7905 117.538 74.2056 117.079L74.3978 117.052C74.3954 113.592 74.4713 109.948 74.3978 106.51C70.3729 106.402 65.8823 106.508 61.8031 106.508L36.5785 106.51C35.3187 109.529 33.8294 112.375 30.8074 113.912C24.971 116.957 16.8647 113.794 15.2537 107.214C12.0064 93.9508 29.7003 87.271 35.9313 99.8595C36.5156 99.9763 39.1924 99.8771 39.9007 99.8705L65.8219 99.8591C68.5389 99.862 71.7939 100.028 74.3978 99.8595C74.3264 98.7672 74.3848 97.4846 74.3884 96.3722L74.3978 90.0096L66.8902 90.0165C65.7386 90.021 63.6188 90.0863 62.5346 89.9745L62.3395 89.9528C60.9435 89.8128 47.0939 75.478 45.2056 73.4786C45.2035 68.5018 45.324 63.0461 45.2056 58.1114C36.4348 56.3304 35.0094 43.3605 42.3572 38.7391C54.2979 31.2283 65.757 48.5537 54.3371 56.6386C53.5525 57.1945 52.6508 57.5995 51.8348 58.1114C51.7944 62.2722 51.7756 66.7706 51.8348 70.9326C52.8508 71.6392 54.9122 73.9472 55.8674 74.9204L64.1266 83.2787H75.033C78.0431 80.7038 81.1132 77.2275 84.0098 74.4423V62.8767C82.9354 61.7064 81.53 60.381 80.3911 59.245L73.8692 52.6806C72.6736 51.4617 71.2926 50.2118 70.2631 48.8068C68.2646 46.0788 71.5335 42.3886 74.3917 44.0292C75.1571 44.4684 76.8099 46.3702 77.5259 47.087L84.3588 53.9163C85.6487 55.2078 89.545 58.9294 90.321 60.3295C90.8374 61.2615 90.6178 72.1556 90.6174 74.0868C91.6603 74.1472 93.2017 74.0946 94.2875 74.0933L101.32 74.0868V36.2257C89.7377 32.0908 92.0224 15.9634 103.792 15.1487ZM80.7417 120.829C83.026 123.177 85.3356 125.65 87.7848 127.828C89.8887 127.889 92.1808 127.83 94.3026 127.829L116.188 127.833C117.739 127.836 119.759 127.903 121.273 127.828C123.347 125.821 128.172 122.252 128.179 119.512L128.18 86.9423C126.13 84.8336 123.849 82.4978 121.695 80.518H87.3717C86.4141 81.1083 81.681 85.9255 80.7417 86.9423C80.6168 90.6501 80.7417 95.0856 80.7417 98.868V120.829ZM184.266 108.63C186.666 108.074 188.169 105.688 187.634 103.284C187.099 100.879 184.725 99.3558 182.316 99.871C179.878 100.392 178.333 102.8 178.875 105.234C179.416 107.667 181.838 109.192 184.266 108.63ZM104.653 187.248C107.016 187.157 108.86 185.173 108.778 182.81C108.696 180.446 106.717 178.595 104.354 178.669C101.979 178.744 100.117 180.734 100.2 183.108C100.283 185.483 102.279 187.338 104.653 187.248ZM47.3295 157.14C45.1048 157.661 43.7279 159.891 44.259 162.113C44.7904 164.335 47.027 165.702 49.2464 165.161C51.4519 164.623 52.808 162.404 52.2806 160.196C51.7528 157.988 49.5395 156.622 47.3295 157.14ZM104.551 30.1943C106.09 30.1952 107.511 29.3685 108.27 28.0301C109.03 26.6916 109.011 25.0482 108.221 23.7276C107.43 22.4071 105.991 21.6134 104.453 21.6498C102.114 21.7051 100.254 23.6312 100.281 25.9708C100.308 28.3103 102.212 30.193 104.551 30.1943ZM47.7026 43.6242C46.2053 43.8034 44.9207 44.7758 44.3418 46.1682C43.7626 47.561 43.9793 49.1574 44.9084 50.3453C45.8371 51.5332 47.3344 52.1283 48.8255 51.9022C51.0813 51.5601 52.6455 49.4713 52.3385 47.2103C52.032 44.9497 49.9681 43.3528 47.7026 43.6242ZM160.434 43.6418C158.109 43.9153 156.454 46.0318 156.749 48.3533C157.044 50.6751 159.176 52.3104 161.495 51.9936C163.783 51.6809 165.392 49.5832 165.101 47.2919C164.81 45.0007 162.727 43.372 160.434 43.6418ZM24.939 100.026C22.6507 100.465 21.1457 102.669 21.5691 104.96C21.9925 107.252 24.1857 108.772 26.48 108.365C28.797 107.953 30.3357 105.734 29.9081 103.419C29.4804 101.105 27.2501 99.5824 24.939 100.026ZM160.169 156.929C157.826 157.225 156.172 159.373 156.485 161.714C156.799 164.056 158.958 165.694 161.297 165.364C163.613 165.037 165.231 162.904 164.921 160.586C164.611 158.269 162.489 156.635 160.169 156.929Z" fill="#3D2A6D"/>
</svg>
