<svg width="209" height="209" viewBox="0 0 209 209" fill="none" xmlns="http://www.w3.org/2000/svg">
<path d="M57.9536 32.3504C58.5092 32.2837 62.1349 32.324 62.9521 32.3506C69.7327 32.7956 75.4455 30.7696 79.9701 38.0981C82.9312 42.8944 81.749 56.5157 81.838 62.7617C81.9188 65.2039 82.7605 69.8934 83.1532 72.51H92.7248C95.7345 68.105 100.073 68.8402 104.892 68.9778C110.249 69.1308 112.657 67.9822 116.383 72.51C118.689 72.5602 123.423 72.8186 125.594 72.6275C126.793 71.2311 127.088 60.4304 127.084 57.2489L127.069 44.8223C127.097 32.6385 137.011 32.2912 146.371 32.3501C160.505 32.439 162.055 37.9643 162.056 50.7654C162.057 53.8808 162.104 57.0007 162.058 60.1153C167.268 63.5985 168.174 69.6329 170.244 75.3466C171.045 77.5582 175.13 85.35 169.485 85.1647C164.834 85.012 162.893 68.6659 159.992 66.3755C159.048 65.6301 151.733 66.0893 150.289 66.0893L133.178 66.0918L133.026 66.7612C132.701 68.185 132.498 70.2077 132.277 71.705L126.966 110.815C126.363 115.639 125.405 120.697 125.007 125.544C124.552 131.079 130.605 133.66 135.409 133.476C142.161 115.1 163.105 109.692 179.531 118.751C179.147 117.109 177.786 113.795 177.14 112.06L172.338 99.0297C171.715 97.2883 170.971 95.3844 170.536 93.6051C169.688 90.1276 174.978 88.5307 176.322 91.9057C176.995 93.5953 177.594 95.3052 178.236 97.0013L189.88 128.669C190.92 131.566 192.57 134.198 193.167 137.284C193.364 138.3 193.618 139.808 194 140.729C193.887 142.14 194.01 143.498 194 144.906C193.946 152.395 190.828 160.166 185.634 165.577C165.067 186.999 129.349 169.533 133.626 139.737C122.575 139.028 117.779 131.551 119.143 121.358C120.23 113.243 121.53 105.127 122.5 96.9993C120.666 97.0813 118.292 96.985 116.383 96.9993C113.492 101.096 109.966 100.855 105.464 100.726C101.119 100.602 95.1164 101.77 92.7248 96.9993H86.4633C86.6197 99.6644 87.2536 103.44 87.6398 106.135L89.2371 117.611C90.1613 123.811 91.5594 129.279 86.9054 134.516C83.5553 138.287 80.1342 139.374 75.2692 139.737C78.1793 163.372 56.4253 181.51 34.164 172.83C20.4016 167.465 12.8883 153.893 15.1416 139.414C16.0936 133.296 19.5078 128.918 21.303 123.139C27.8886 103.859 34.5973 84.6156 41.7647 65.5419C42.7734 62.858 44.407 61.2072 47.0477 60.1153C46.8819 54.9752 47.1175 49.7338 47.0468 44.5795C46.9554 37.8815 51.5697 33.3578 57.9536 32.3504ZM48.9809 66.0918C47.1975 67.3384 45.2883 74.2922 44.4511 76.6104L32.7453 108.971C31.7532 111.773 30.3952 115.372 29.5899 118.176C31.4025 117.469 33.0306 116.534 34.884 115.929C45.8043 112.363 57.6148 114.699 65.9222 122.642C66.768 123.45 67.9583 124.748 68.7967 125.45C70.3091 127.634 72.5616 130.912 73.349 133.476C78.234 133.912 83.3063 131.874 83.9255 126.214C84.1513 124.149 83.3998 120.637 83.0895 118.478L76.6701 71.3058C76.4575 69.7725 76.106 67.6087 75.9933 66.0918H48.9809ZM145.04 59.8597H155.936L155.94 49.5122C155.94 43.9778 156.74 38.6211 149.186 38.6118L144.352 38.6252L140.739 38.6302C132.678 38.6551 133.169 42.5131 133.171 49.2073L133.178 59.8597H145.04ZM53.1842 59.8597H68.7967H75.6753C75.5774 55.7206 76.7436 42.9667 73.9519 40.3735C70.9573 37.5923 64.2355 38.6269 60.1661 38.6252C56.3673 38.412 53.2597 40.3453 53.2087 44.4595C53.147 49.404 52.976 54.9617 53.1842 59.8597ZM117.259 78.8849C117.34 82.8632 117.409 86.9477 117.259 90.9256C119.141 90.8256 121.602 90.8024 123.497 90.9256C123.479 90.4835 123.426 89.8374 123.497 89.4198C124.045 85.9153 124.489 82.4011 124.95 78.8849C122.566 79.0032 119.718 78.8595 117.259 78.8849ZM164.457 168.857C177.805 168.437 188.29 157.284 187.885 143.935C187.48 130.586 176.338 120.089 162.989 120.478C149.619 120.869 139.101 132.032 139.506 145.402C139.912 158.772 151.087 169.278 164.457 168.857ZM83.9807 78.8849C83.9876 81.9472 85.1849 87.6343 85.5543 90.9256H91.7463V78.8849C89.1599 78.8628 86.5662 78.8232 83.9807 78.8849ZM46.2835 168.782C59.6354 168.154 69.9572 156.833 69.3531 143.481C68.7494 130.127 57.4475 119.785 44.0935 120.364C30.7049 120.946 20.3297 132.283 20.9353 145.671C21.5408 159.058 32.8971 169.412 46.2835 168.782ZM106.1 75.2731C103.588 75.269 100.993 75.1943 98.4955 75.3412C97.6404 75.3919 97.8657 78.3256 97.8653 78.9653L97.862 90.2762C97.8571 95.3342 97.7783 94.7705 103.2 94.6317C104.281 94.6374 110.443 94.8297 110.72 94.3215C111.422 93.0324 111.521 77.3782 110.971 75.5094C110.211 75.111 107.106 75.2478 106.1 75.2731Z" fill="#3D2A6D"/>
<path d="M43.9416 126.85C52.0228 125.775 60.4494 133.333 62.5292 140.88C63.2517 143.502 63.2333 145.638 60.164 146.47C57.2801 146.099 57.0368 144.563 56.3563 141.956C55.1403 137.296 50.8272 133.881 46.1178 133.278C44.774 133.063 43.4677 133.619 42.2435 132.836C39.4447 131.045 40.2554 127.548 43.9416 126.85Z" fill="#3D2A6D"/>
<path d="M162.841 126.85C177.403 126.345 186.026 144.675 178.448 146.47C172.031 146.209 177.754 134.96 164.925 133.254C163.881 133.115 162.348 133.351 161.459 132.875C158.484 131.281 159.119 127.696 162.841 126.85Z" fill="#3D2A6D"/>
</svg>
