<svg width="195" height="194" viewBox="0 0 195 194" fill="none" xmlns="http://www.w3.org/2000/svg">
<path d="M96.6696 13.7821C99.793 13.6809 108.436 12.8302 107.692 17.7505C107.233 20.7902 105.983 27.6188 104.954 30.3554C107.497 32.1187 110.177 34.2597 112.658 36.137L137.251 54.6546C138.438 55.5636 137.976 62.9776 137.969 64.5338C137.949 67.6116 126.862 72.201 123.925 73.8996C120.302 75.9949 119.9 75.0753 116.754 73.2073L112.174 70.5406C111.189 69.9684 110.017 69.2436 109.01 68.7794L108.867 68.7139C107.732 68.8094 105.179 68.7169 103.983 68.7105L94.7417 68.7139C96.0781 76.5383 101.418 77.6311 107.065 80.9454C125.169 91.5703 132.484 109.787 130.212 130.171C129.976 132.29 129.553 135.509 128.83 137.452C134.692 139.183 135.032 144.244 135.027 149.275L135.02 155.352C141.693 154.936 144.859 160.483 144.098 166.319C143.919 168.564 144.387 171.426 143.872 173.59C142.06 181.201 134.097 179.937 128.183 179.938L88.264 179.941C85.8193 179.971 79.8543 179.924 82.093 175.493C83.2283 173.246 86.0653 173.766 88.2214 173.777L116.592 173.782L129.181 173.779C130.913 173.779 137.909 174.596 137.936 171.896C137.963 169.166 138.086 166.025 137.867 163.327C137.687 161.103 134.76 161.511 133.146 161.512L65.9042 161.514C62.064 161.515 63.2686 168.859 63.4537 171.757C63.7889 177.011 76.1211 169.914 75.8271 177.483C75.944 180.97 67.0155 180.008 64.9592 179.934C56.0845 179.615 56.9334 168.933 57.339 162.744C57.6608 157.836 61.8571 155.013 66.4633 155.352C66.5882 147.153 64.2787 141.382 72.7455 137.069C73.8592 135.977 74.0435 135.32 74.6662 133.939C79.2506 123.785 73.7476 112.023 63.0732 108.809C61.2063 108.066 58.3715 108.681 56.8946 107.146C55.7908 105.999 54.8809 104.008 54.077 102.592C48.5073 92.7831 45.6177 82.2693 45.0533 71.0529C43.5374 40.9378 65.8619 14.6891 96.6696 13.7821ZM60.9115 101.954C78.1937 105.426 87.0556 120.497 80.2568 137.069C84.9231 137.136 89.7673 137.069 94.45 137.069L122.788 137.069C124.86 129.935 123.893 124.882 124.496 118.385C123.932 115.96 123.813 113.796 123.124 111.25C120.539 101.332 114.47 92.876 105.727 87.411C95.8561 81.2413 88.7249 80.4407 88.8391 66.5265C79.0735 60.0286 83.092 51.1573 87.6569 54.6966C89.4116 56.0573 88.8886 59.2337 92.116 61.3176C94.504 62.8594 97.1777 62.6249 99.8867 62.6222L107.441 62.612C113.215 62.5904 115.868 65.3594 120.858 68.4638C124.164 66.8019 128.358 63.9177 131.589 62.6143C131.594 61.2381 131.659 59.3735 131.589 58.0367C130.088 57.0705 128.479 55.6428 127.001 54.5534L113.884 44.7325C111.655 43.0472 98.9239 34.1851 98.5149 32.4834C98.11 30.799 100.448 22.1741 100.932 19.8922C99.6098 19.8869 96.7286 19.7915 95.5388 19.8922C53.5377 24.6436 40.2053 67.5605 60.9115 101.954ZM74.9473 143.206C72.0478 143.737 72.7307 146.288 72.7414 148.53L72.7455 155.352H126.685H128.83L128.84 148.627C128.847 142.233 127.908 143.199 121.243 143.202L74.9473 143.206Z" fill="#3D2A6D"/>
<path d="M81.5703 37.0507C85.58 36.6068 87.9642 41.765 81.9112 43.5413C73.7932 45.9238 67.8007 53.821 67.56 62.2179C67.5079 64.0412 66.9046 64.9521 65.2307 65.6948C61.6579 66.3548 61.0112 63.4407 61.3357 60.5295C62.61 49.0968 70.3807 40.1391 81.5703 37.0507Z" fill="#3D2A6D"/>
<path d="M63.5525 72.1434C65.3296 72.1085 66.8039 73.5036 66.8573 75.2712C66.9102 77.0392 65.5227 78.5196 63.7464 78.5905C62.5817 78.6367 61.4814 78.0573 60.8648 77.0726C60.2486 76.0878 60.2113 74.8499 60.7673 73.8303C61.3234 72.8106 62.3867 72.1665 63.5525 72.1434Z" fill="#3D2A6D"/>
<path d="M155.35 78.5867C162.136 78.0983 168.032 83.1847 168.507 89.938C168.981 96.6908 163.854 102.544 157.065 102.999C150.299 103.453 144.441 98.3739 143.968 91.6438C143.495 84.914 148.587 79.0732 155.35 78.5867ZM156.963 96.7363C160.261 96.3778 162.643 93.4296 162.287 90.1483C161.93 86.8669 158.969 84.4935 155.671 84.8447C152.367 85.1967 149.976 88.148 150.334 91.4343C150.691 94.7205 153.66 97.0955 156.963 96.7363Z" fill="#3D2A6D"/>
<path d="M155.481 35.6443C158.22 35.3054 164.746 42.9941 166.949 45.1008C169.35 47.3985 169.034 50.8432 165.533 51.0065C163.438 51.097 160.842 47.6153 159.294 46.1034C159.135 54.3166 159.44 62.6082 159.272 70.8278C159.241 72.3832 158.284 73.4377 156.818 73.8837C151.784 74.8347 153.004 67.3745 153.004 64.3765L153.01 52.2118C153.012 50.268 153.085 48.0123 153.011 46.1034L152.559 46.4751C150.982 47.7532 149.561 49.9489 147.74 50.7992C145.391 51.8965 142.791 48.8759 143.914 46.6305C144.347 45.7658 145.745 44.5139 146.465 43.7921L151.904 38.4336C153.149 37.2148 153.741 36.195 155.481 35.6443Z" fill="#3D2A6D"/>
<path d="M29.1709 106.758C31.9945 106.673 34.9927 110.713 36.992 112.645C38.5105 111.198 41.9215 107.221 43.8764 106.923C46.3094 106.553 48.2255 109.199 47.0749 111.402C46.2256 113.029 43.133 115.57 41.7257 117.224C43.1155 118.735 46.8913 121.949 47.3522 123.713C47.8385 125.575 46.5584 127.117 44.7886 127.501C42.1991 127.669 38.8811 123.59 36.992 121.748C34.9045 123.464 32.4702 127.179 29.7504 127.597C27.6007 127.928 25.4664 124.897 26.8896 122.976C28.402 120.934 30.5456 119.124 32.3476 117.224C30.2321 114.834 22.2927 109.174 29.1709 106.758Z" fill="#3D2A6D"/>
</svg>
