<svg width="195" height="194" viewBox="0 0 195 194" fill="none" xmlns="http://www.w3.org/2000/svg">
<path d="M96.9178 14.1445C100.872 13.8272 103.811 17.7429 106.589 20.0245C119.295 30.4614 128.672 35.3964 145.72 36.5403C150.75 36.8582 155.733 35.7944 158.667 41.0215C160.625 44.5094 159.833 53.6914 159.75 57.8325C159.974 61.4105 153.305 61.4074 152.462 58.6649C151.797 55.279 152.422 48.4875 152.281 44.7579C152.053 44.5279 151.798 44.3639 151.533 44.1752C150.25 43.9645 148.177 44.0713 146.769 43.9819C125.013 42.6031 113.771 36.3131 97.403 21.7838C95.7992 23.6296 93.802 25.0763 91.988 26.6903C79.0083 38.2377 61.7249 44.537 44.3093 43.9323C41.7313 43.8429 42.7859 50.4749 42.7867 52.5869L42.7874 89.4969C42.7882 104.266 42.5726 109.917 48.2349 124.341C57.2003 147.179 76.3804 161.679 97.403 172.699C115.656 163.784 127.974 153.901 139.778 137.79C146.625 128.366 151.273 115.036 152.12 103.615C152.352 100.492 152.282 97.3532 152.282 94.2166L152.3 74.3043C152.308 70.6853 158.608 70.4887 159.647 73.5006C159.919 75.0117 159.809 77.2817 159.81 78.9137L159.811 88.0802C159.811 92.7127 159.94 97.5308 159.704 102.11C157.975 135.658 134.034 161.775 105.523 176.935C96.8447 180.842 99.2959 182.125 89.7417 177.008C62.5601 162.45 40.6341 139.9 36.0033 108.247C35.0802 101.973 35.2868 95.9383 35.2863 89.614L35.2966 50.6522C35.3095 48.5959 35.1429 46.1497 35.353 44.1642C35.812 39.8253 39.6971 36.5538 44.0386 36.6518C58.2187 36.9722 71.9563 32.9183 83.3299 24.2936C86.461 21.8033 93.5651 14.6357 96.9178 14.1445Z" fill="#3D2A6D"/>
<path d="M96.9177 59.8039C97.3279 59.6895 98.3512 59.8278 98.7744 59.8892C102.86 60.4829 104.075 62.8442 105.954 65.9528C106.485 66.833 107.21 67.7818 107.588 68.7302C108.701 72.0521 103.762 76.777 100.167 70.6588C97.1782 65.5834 97.2185 66.503 94.8759 70.791C93.4103 73.4737 90.4282 80.3804 88.666 82.3291C87.6384 83.4655 83.9612 83.7091 82.5219 83.9482L74.5567 85.3327C73.8947 85.4524 70.4339 85.679 70.9404 86.8317C71.3662 87.8017 79.0508 95.0191 80.508 96.4032C84.5055 100.201 84.24 99.5648 83.1824 104.697C82.779 106.651 80.3137 116.256 80.583 117.776C80.9159 118.27 81.3089 118.363 81.8737 118.568C83.2494 118.086 84.7515 117.134 86.0247 116.389L92.4148 112.718C97.8755 109.608 97.2441 109.674 102.721 112.823L108.668 116.193C110.095 116.995 111.713 117.966 113.21 118.568C115.654 117.63 114.072 114.605 113.501 112.259L111.657 104.591C111.374 103.364 110.405 100.305 111.427 99.3234C115.567 95.3445 119.938 91.6066 123.877 87.4061C123.824 84.3301 123.806 82.536 127.382 81.7448C131.731 81.6137 132.385 86.3152 131.329 89.5014C130.436 92.1951 121.833 99.8388 118.888 102.392C119.959 107.15 123.146 116.79 121.094 121.038C118.778 125.832 112.623 127.292 108.208 124.487C105.15 122.544 100.633 120.094 97.4029 118.568L89.7229 122.898C84.5074 125.811 78.6159 128.437 74.3365 121.638C71.7623 117.547 74.8594 107.198 76.0188 102.392C75.2045 101.823 72.8135 99.3435 71.9645 98.5198L67.5237 94.2374C65.5661 92.3417 63.8941 91.0629 63.3895 88.2514C61.9574 80.2747 68.7268 78.7716 74.4847 77.7322L83.5712 76.1734C84.3543 74.8169 85.1312 73.2107 85.8609 71.8065L88.4447 66.9395C90.7218 62.5786 91.4733 60.2946 96.9177 59.8039Z" fill="#3D2A6D"/>
<path d="M135.792 53.7198C139.418 53.4515 141.368 57.2777 139.531 59.3864C138.4 60.6852 137.1 61.8538 135.878 63.0739L117.982 81.1159C116.524 82.5796 112.716 86.8146 111.021 87.4061C107.587 87.4292 105.524 84.6859 107.179 81.7956C107.764 80.776 110.657 78.1949 111.63 77.2075L129.519 59.0988C131.14 57.4426 133.537 54.3768 135.792 53.7198Z" fill="#3D2A6D"/>
</svg>
