<svg width="195" height="194" viewBox="0 0 195 194" fill="none" xmlns="http://www.w3.org/2000/svg">
<path d="M97.454 14.511L112.369 14.5045C115.146 14.5046 122.025 13.344 122.062 17.2959C122.115 22.8358 122.223 28.4032 122.056 33.9363C121.952 37.3723 116.352 36.4966 114.174 36.4991L100.642 36.4932L100.644 45.4759C100.651 47.2803 100.775 48.5409 100.642 50.3676C102.398 51.2452 104.704 52.8733 106.409 53.9907L146.577 80.272C150.992 83.1957 156.01 86.1299 160.289 89.3927C161.375 90.2206 160.593 102.868 160.906 104.726C161.548 108.545 155.573 107.682 153.106 107.656V145.688C155.494 145.773 158.398 145.669 160.838 145.688C160.907 149.863 160.877 154.421 160.838 158.603C166.684 158.103 166.93 159.182 166.924 164.642L166.913 171.55L174.361 171.54C175.996 171.539 179.029 171.241 180.234 172.477C181.956 174.244 180.976 177.674 178.202 177.704C176.232 177.726 174.223 177.712 172.235 177.71L119.068 177.707L20.9538 177.711C19.5821 177.71 18.2003 177.734 16.8339 177.675C13.1441 177.569 12.7602 172.177 16.3707 171.586C17.2738 171.438 19.08 171.546 20.0357 171.546L27.9997 171.55C28.0316 168.764 28.0442 165.592 27.9918 162.829C27.8968 157.826 30.2547 158.441 34.1839 158.603C34.0646 154.575 34.1537 149.751 34.1839 145.688H41.9925V107.656C39.1109 107.807 34.0909 108.507 34.1376 104.516C34.1783 101.045 32.9825 90.0732 35.8808 88.331C42.0546 84.0994 48.7055 80.0174 55.0285 75.84L88.1583 54.3242C90.0505 53.1204 92.4624 51.2679 94.4578 50.3676L94.4559 21.9256C94.4559 18.7244 93.5867 15.2244 97.454 14.511ZM40.3719 101.491L50.0141 101.487C51.5037 101.486 53.4647 101.424 54.9207 101.491V107.656C53.2846 107.919 49.9719 107.653 48.1807 107.656V133.102C48.1807 137.057 48.3151 141.815 48.1807 145.688C50.3417 145.69 52.783 145.748 54.9207 145.688C54.8762 147.744 54.9135 149.701 54.9207 151.752H40.3719V158.603H153.892L154.399 158.567C154.635 158.284 154.538 152.592 154.536 151.752C152.947 151.82 151.157 151.756 149.544 151.754L140.355 151.752V145.688C142.001 145.649 145.187 145.605 146.807 145.688V107.656H140.355C140.354 105.772 140.28 103.318 140.355 101.491H154.536C154.558 99.2511 154.437 96.6787 154.536 94.5007L53.2811 94.5C49.2924 94.5 44.7335 94.392 40.776 94.5007L40.4283 94.5875C40.2908 95.1274 40.3841 100.565 40.3719 101.491ZM34.1839 164.723V171.55H52.1226H160.633V164.723H142.897H34.1839ZM100.642 20.5895C100.641 23.8128 100.731 27.4033 100.642 30.5967H114.163C114.719 30.5991 115.285 30.6076 115.841 30.5967V20.5895H102.295C101.745 20.5881 101.192 20.5834 100.642 20.5895ZM97.454 55.5151C92.769 58.7377 87.7185 61.9133 82.9379 65.0294L59.5505 80.424C55.8683 82.8755 50.8151 85.6067 47.5203 88.3799H97.454H147.366C144.085 85.5767 138.951 82.7607 135.309 80.3414L101.708 58.2689C101.183 57.9298 97.6288 55.5526 97.454 55.5151Z" fill="#3D2A6D"/>
<path d="M81.1247 101.491L81.2367 101.568C81.1145 103.716 81.1891 105.561 81.1247 107.656C78.8933 107.458 76.4505 107.614 74.2102 107.656V145.688C75.9333 145.737 79.5145 145.78 81.1247 145.688V151.752H62.1534C60.8474 151.804 61.4351 146.934 61.5311 145.688H68.0369V107.656C66.1871 107.74 63.307 107.805 61.5311 107.656C61.6301 105.915 61.5356 103.317 61.5311 101.491C68.0099 101.633 74.6463 101.576 81.1247 101.491Z" fill="#3D2A6D"/>
<path d="M114.16 101.491C120.523 101.598 127.102 101.465 133.492 101.491C133.453 103.493 133.492 105.643 133.492 107.656C131.31 107.656 129.107 107.622 126.927 107.656L126.928 140.822C126.932 142.459 127.021 144.051 126.927 145.688C128.638 145.542 131.794 145.554 133.492 145.688C133.622 146.888 133.645 150.578 133.492 151.752H114.16V145.688C116.14 145.603 118.662 145.682 120.682 145.688C120.548 142.086 120.7 137.774 120.692 134.11L120.682 107.656C118.624 107.583 116.242 107.651 114.16 107.656C114.13 106.723 114.072 102.288 114.16 101.491Z" fill="#3D2A6D"/>
<path d="M90.6075 101.491H107.226C107.216 103.507 107.297 105.664 107.226 107.656C105.2 107.723 102.679 107.677 100.641 107.656V145.688H107.226V151.752H104.213H87.7804C87.7438 149.808 87.7263 147.625 87.7804 145.688H94.4569V107.656C92.2189 107.616 90.0107 107.684 87.7804 107.656C87.7438 105.621 87.7743 103.53 87.7804 101.491C88.7215 101.527 89.6657 101.504 90.6075 101.491Z" fill="#3D2A6D"/>
</svg>
