<svg width="195" height="194" viewBox="0 0 195 194" fill="none" xmlns="http://www.w3.org/2000/svg">
<path d="M88.1521 61.2881C91.576 60.9599 95.0867 62.2156 97.3978 64.76C105.834 56.6685 118.858 63.108 116.919 75.976C127.333 79.0451 128.097 92.71 116.919 97.2429C119.188 104.136 113.834 110.73 106.946 111.871C103.346 111.959 100.039 111.087 97.6884 108.12C88.4068 118.184 74.5097 106.146 78.0871 97.2429C67.3293 92.9832 67.4044 79.1463 78.0871 75.976C76.3949 68.4199 80.4914 62.5032 88.1521 61.2881ZM88.6719 95.0043C86.9158 96.7219 83.7486 96.5821 83.9462 100.119C84.1168 105.711 91.5493 107.535 94.0554 102.336C94.5234 101.365 94.2172 76.1435 94.2035 72.9304C94.1902 69.8574 91.9728 67.2767 88.6719 67.6734C84.1759 68.3426 82.3306 73.5794 86.1377 76.4663C86.7063 76.8634 87.4025 77.201 87.9399 77.6311C90.1702 79.4153 88.9503 82.8926 86.2226 83.3044C83.3106 83.744 82.7583 80.8449 79.5751 82.1359C74.0762 84.3661 76.7095 92.189 81.8858 91.1588C82.6189 91.0125 83.2428 90.5571 83.8891 90.207C87.1176 88.2287 90.3485 91.7999 88.6719 95.0043ZM106.228 94.3526C105.5 92.3288 105.953 90.3214 108.145 89.5632C110.753 88.6606 112.604 92.1867 115.897 90.4623C120.907 87.8869 117.567 80.2561 112.623 82.0855C110.966 82.6986 109.829 83.9236 107.943 83.0494C106.165 82.2249 105.25 80.385 106.157 78.5617C106.968 76.9305 108.789 76.8232 109.82 75.4266C112.49 71.8565 108.926 67.1107 105.471 67.6734C100.041 68.2361 100.786 72.9876 100.785 76.9615L100.785 95.3116C100.784 99.1882 100.327 106.103 106.529 105.502C110.761 105.092 112.483 99.3932 109.207 96.7742C107.895 95.7254 107.267 96.3331 106.228 94.3526Z" fill="#3D2A6D"/>
<path d="M96.0511 40.8264C134.188 40.1368 155.869 83.8751 130.848 112.237C125.415 118.179 121.587 121.118 121.957 130.504C122.166 135.805 122.148 142.81 114.628 142.743L83.8739 142.742C72.6991 142.756 73.3908 139.358 73.3195 129.524C73.2689 122.544 70.7564 118.458 65.9476 113.832C49.44 97.9507 49.7485 70.3496 65.6742 54.2344C67.2985 52.4577 71.0047 48.7535 73.5698 48.5523C75.2566 48.42 76.7477 49.9239 76.764 51.6411C76.7854 53.9096 74.6617 54.8546 73.1272 56.1206C58.7799 67.9553 55.7825 89.1244 66.1758 104.366C69.5871 109.518 74.87 112.703 77.274 118.532C80.1442 124.955 79.6022 129.645 79.5946 136.408C80.6842 136.467 82.3071 136.411 83.4386 136.41L115.58 136.408C115.569 133.348 115.463 129.219 115.718 126.307C117.27 112.496 126.181 110.779 131.271 99.9615C142.462 76.1799 126.342 48.849 99.7569 47.0908C98.315 46.9954 96.5021 47.3493 95.1755 46.7491C92.5164 45.5464 92.7624 41.7987 96.0511 40.8264Z" fill="#3D2A6D"/>
<path d="M80.6109 161.319L113.049 161.32C116.756 161.453 118.066 165.01 115.768 166.95C114.471 168.045 112.948 167.795 111.392 167.666C110.554 170.548 110.691 171.643 108.603 174.386C102.321 184.317 83.7054 179.711 84.0009 167.666C76.37 168.322 76.6861 162.476 80.6109 161.319ZM102.791 171.527C104.076 169.989 104.252 169.561 104.835 167.666C103.165 167.72 101.42 167.669 99.7392 167.667L90.2885 167.666C91.7868 173.604 98.274 175.64 102.791 171.527Z" fill="#3D2A6D"/>
<path d="M91.0798 148.913C92.5564 149.003 95.0259 148.917 96.6022 148.916L107.804 148.91C110.252 148.909 117.019 148.052 116.852 151.989C116.689 155.81 113.394 155.269 110.68 155.267L104.023 155.256L83.7604 155.261C82.7854 155.261 81.8196 155.288 80.8659 155.191C77.4347 154.843 77.2043 149.694 80.3441 149.156C83.7577 148.572 87.6688 149.134 91.0798 148.913Z" fill="#3D2A6D"/>
<path d="M27.1089 78.8125L37.3264 78.8072C39.0336 78.8068 40.8971 78.7299 42.5813 78.875C46.0067 79.1702 46.6093 84.5541 42.2987 85.3274L31.7904 85.3104C30.2311 85.3001 28.677 85.3528 27.116 85.249C23.3257 84.9974 23.0703 79.4631 27.1089 78.8125Z" fill="#3D2A6D"/>
<path d="M48.1105 31.9318C50.8828 31.2461 54.4906 36.2513 56.3359 38.2533C58.2581 40.3384 63.2287 43.7019 61.6283 46.7104C61.0837 47.7335 60.3582 48.184 59.2781 48.5542C58.7799 48.6114 57.6225 48.5474 57.2648 48.2435C54.4636 45.8628 48.6258 39.8185 46.2001 36.8226C44.538 34.7704 45.5808 32.3635 48.1105 31.9318Z" fill="#3D2A6D"/>
<path d="M57.9279 117.115C59.609 116.891 60.9725 117.505 61.6024 119.118C62.4514 121.292 60.4743 122.874 59.1234 124.318C57.2344 126.336 51.4998 133.081 49.2801 133.815C46.8114 134.283 44.7014 131.601 45.761 129.345C46.3258 128.142 55.912 117.772 57.9279 117.115Z" fill="#3D2A6D"/>
<path d="M145.708 31.9318C148.798 31.8037 150.872 34.6289 148.843 36.8155C146.805 39.0122 139.237 47.1806 136.806 48.5542C133.228 48.278 131.289 45.3911 134.051 42.6898C136.426 40.366 143.15 32.7694 145.708 31.9318Z" fill="#3D2A6D"/>
<path d="M97.3978 13.6732C99.1577 13.6379 100.718 14.959 100.755 16.7056C100.85 21.2178 100.82 25.7958 100.739 30.3113C100.707 32.1213 99.5965 33.0328 97.9752 33.478C94.0005 33.4835 94.2104 30.6782 94.2157 27.5762L94.221 22.1369C94.2229 18.8023 93.1158 14.1161 97.3978 13.6732Z" fill="#3D2A6D"/>
<path d="M152.52 78.8125C152.835 78.7765 154.028 78.8061 154.39 78.8064L158.223 78.8068C161.236 78.8068 164.357 78.7629 167.362 78.8402C171.012 78.9341 171.969 83.955 167.812 85.0633L157.98 85.0728C156.267 85.0728 154.632 85.0936 152.86 85.0232C148.862 84.8648 148.545 79.4688 152.52 78.8125Z" fill="#3D2A6D"/>
<path d="M136.044 117.115C138.32 116.871 142.125 121.589 143.709 123.196C144.77 124.271 148.864 127.852 149.117 129.213C149.543 131.494 148.538 132.998 146.296 133.378C143.935 133.395 142.164 130.64 140.638 129.097L136.521 124.992C135.666 124.147 134.746 123.303 133.964 122.394C132.193 120.334 133.278 117.467 136.044 117.115Z" fill="#3D2A6D"/>
<path d="M85.1953 42.852C87.5318 42.2833 92.288 47.3989 84.0032 49.5189C80.5316 50.2157 77.8093 43.7588 85.1953 42.852Z" fill="#3D2A6D"/>
</svg>
