<svg width="195" height="194" viewBox="0 0 195 194" fill="none" xmlns="http://www.w3.org/2000/svg">
<path d="M95.5138 13.9322C107.954 13.2356 104.837 19.1866 109.443 21.7387C114.762 24.6852 117.514 16.9093 124.659 21.5364C136.305 28.8826 128.751 31.7408 132.618 35.944C135.742 39.5862 142.163 34.498 146.428 43.4928C147.094 44.8981 147.774 45.7939 148.283 47.4156C149.696 51.9208 144.601 54.1897 146.208 58.4618C147.661 61.9883 152.381 62.0326 153.345 66.8281C154.208 71.123 154.075 76.4606 150.423 79.4134C149.009 80.5562 147.509 81.1132 146.558 82.7649C144.179 86.377 147.608 88.292 148.291 91.3047C149.399 96.1899 144.334 104.704 138.729 104.436C134.99 104.258 130.692 105.803 131.28 110.347C131.473 115.868 125.963 119.791 121.136 121.055C121.703 128.656 120.24 125.581 125.032 132.919C127.544 136.766 129.866 140.805 132.346 144.634L136.179 150.555C137.452 152.525 140.096 155.318 137.745 157.474C137.272 157.937 136.214 158.401 135.522 158.238C131.628 157.322 124.56 154.245 121.301 154.071L121.136 154.063L121.142 169.257C121.141 171.676 121.196 174.132 121.062 176.544C120.94 178.34 118.18 179.533 116.831 178.488C110.816 173.826 104.855 167.527 98.9217 162.41C98.454 161.957 97.9075 161.482 97.4207 161.041L80.9368 175.943C79.8147 176.948 78.2875 178.739 76.761 178.794C72.3301 178.954 73.6639 172.254 73.6608 169.193L73.6517 154.063C69.2162 155.329 64.8089 156.832 60.4115 158.141C58.0886 158.833 55.9722 156.066 56.5701 154.313C57.2861 152.215 59.3889 149.361 60.6194 147.426L66.7456 137.916C68.5939 135.079 71.8658 130.011 73.6155 126.934C73.8314 126.555 73.6502 121.601 73.6517 120.68C67.078 120.19 63.6164 114.671 63.6256 108.436C63.6301 105.526 60.0916 104.671 57.7276 104.7C51.3067 104.898 48.0499 99.1908 46.7386 93.7691C45.855 90.1168 49.544 87.6137 49.2652 84.3786C48.8448 79.4896 40.5718 81.7089 41.1198 70.7998C41.0105 60.7144 45.5149 63.3994 48.2152 59.4936C50.4749 56.1554 47.2105 53.6649 46.7276 50.2202C46.1654 46.2137 48.8158 43.4147 50.9033 40.3005C54.2069 35.3711 63.5878 39.2573 63.5048 33.2291C63.4096 26.3025 64.0456 26.3923 68.7748 22.4518C75.9715 16.4547 79.4765 22.9975 83.9821 22.2152C89.4353 21.2684 86.93 15.2265 95.5138 13.9322ZM52.4489 93.0628C54.1128 99.2408 55.7075 98.4724 60.5935 99.0442C64.4433 99.4951 67.9647 102.483 69.0844 106.191C70.1741 109.8 68.3505 112.042 72.4775 114.457C75.4848 116.217 77.437 114.76 80.1133 113.608C84.2293 111.835 89.0144 113.646 91.7623 116.935C94.6123 120.346 92.7716 121.116 98.0884 121.055C101.638 120.836 101.091 119.762 102.718 117.344C105.322 113.473 111.197 111.551 115.492 113.706C117.842 114.886 119.297 116.192 121.996 114.579C126.031 112.168 124.732 110.749 125.686 107.037C126.844 102.532 130.72 99.2143 135.314 98.5823C140.461 97.9435 139.868 99.2431 142.412 93.8467C143.429 91.6904 136.284 86.8806 142.102 78.6037C143.341 76.6906 147.225 74.5972 147.5 73.8572C148.031 72.4294 148.134 67.9118 146.505 66.9198C141.057 63.7695 137.795 57.1868 141.296 51.4968C141.883 50.5029 142.329 49.714 142.538 48.5792C139.611 43.517 141.164 43.6045 135.138 43.2131C130.114 42.8865 125.925 38.5287 125.61 33.5623C125.542 32.5285 125.715 30.0464 125.345 29.2509C125.014 28.5407 121.626 26.2529 120.961 25.9992C119.545 25.4587 117.481 27.0405 116.199 27.5475C111.459 29.3707 105.483 27.7899 102.742 23.3919C101.133 20.8101 100.528 19.1459 96.8285 19.7367C95.7849 19.8563 94.0909 20.1505 93.6925 21.0227C90.9838 26.9541 84.8089 29.9417 78.6752 27.4491C74.7333 25.8472 73.9975 24.6078 70.0107 29.0107C68.5268 30.6491 71.5825 41.0424 60.5829 42.9108C58.7761 43.2177 56.2517 42.6217 55.1488 44.451C52.1693 49.9698 51.6521 47.2776 54.1144 52.8673C56.027 57.2092 54.622 62.205 50.8569 65.0609C46.7226 68.1967 46.2709 67.088 46.8003 72.9186C46.9995 75.1098 49.1971 75.7506 50.7457 76.8005C55.1118 79.7609 56.433 85.8253 53.612 90.2854C53.15 91.0156 52.6637 92.075 52.4801 92.923L52.4489 93.0628ZM121.136 138.272C121.188 141.14 121.389 145.158 121.136 147.951C123.488 148.099 126.417 149.281 128.574 150.231C128.224 149.245 121.59 138.538 121.136 138.272ZM73.6517 147.951C73.6197 145.347 74.0063 140.586 73.6517 138.272C72.5639 139.517 66.6728 148.319 65.9023 150.144C65.9435 150.175 65.9793 150.221 66.0299 150.231C68.2286 149.597 71.5185 148.401 73.6517 147.951ZM109.963 164.668L115.43 169.629C115.376 165.482 115.43 161.215 115.43 157.058L115.43 120.68C114.01 118.762 110.464 118.063 108.704 119.74C107.685 120.71 107.361 121.63 106.679 122.824C103.899 127.053 99.8666 127.003 95.2731 126.757C87.2293 126.327 89.0216 118.756 83.1336 118.792C81.7499 119.172 81.1847 119.78 79.5028 120.149V169.629C82.9328 166.586 86.6066 163.248 89.9666 160.129L94.0094 156.425C95.291 155.271 96.9416 153.316 98.7499 154.665C102.38 157.66 106.605 161.425 109.963 164.668Z" fill="#3D2A6D"/>
<path d="M95.2541 37.8854C113.359 36.6146 129.068 50.1933 130.331 68.2058C131.595 86.2186 117.935 101.837 99.8286 103.081C81.7412 104.324 66.0624 90.7507 64.7998 72.7572C63.5373 54.7633 77.1682 39.1547 95.2541 37.8854ZM98.0233 97.2827C112.92 97.0011 124.769 84.7621 124.493 69.9412C124.217 55.1206 111.92 43.3268 97.0228 43.5947C82.116 43.8626 70.2515 56.1062 70.528 70.9366C70.8041 85.767 83.1165 97.5646 98.0233 97.2827Z" fill="#3D2A6D"/>
<path d="M96.8303 54.0957C100.587 53.7653 102.269 60.204 103.188 63.255C105.847 63.6274 109.227 63.7567 111.827 64.4087C113.27 64.7702 114.187 67.4912 113.061 68.6714C111.141 70.685 109.091 72.7178 106.952 74.4975L106.975 74.5752C107.988 78.0429 110.263 84.9644 105.79 86.1716C103.958 85.7347 99.9065 82.9926 98.0902 81.9074L97.4225 81.513C95.2231 82.902 92.5814 84.6234 90.2502 85.7991C88.7264 86.488 86.3228 85.0758 86.4119 83.4272C86.5726 80.4543 87.5373 77.4238 87.9258 74.4975C86.178 72.362 83.4111 70.7607 81.773 68.5665C80.8818 67.3051 81.8149 64.6376 83.3372 64.4201C85.8592 64.0594 89.3152 63.2781 91.8007 63.255C92.7783 60.7288 94.3699 55.0365 96.8303 54.0957ZM91.3787 69.3069C95.1595 72.7507 94.1315 71.7819 93.7537 76.5485C94.6358 75.9775 96.7667 74.6449 97.8118 74.9746C99.0663 75.2993 100.167 75.8498 101.257 76.5485C100.619 71.5576 100.548 72.5984 103.864 69.3069C96.9967 68.1296 100.595 68.6874 97.4225 65.0343C95.5807 68.8863 95.5559 68.632 91.3787 69.3069Z" fill="#3D2A6D"/>
</svg>
