<svg width="195" height="194" viewBox="0 0 195 194" fill="none" xmlns="http://www.w3.org/2000/svg">
<path d="M137.416 42.6455C140.27 42.4402 143.394 46.7415 145.341 48.6815L179.958 83.0771C182.939 85.6779 179.118 90.2775 176.102 88.2302C174.33 87.0276 171.893 84.3063 170.321 82.7331C161.382 90.6033 152.109 101.025 143.423 109.552C142.359 110.596 141.05 111.872 140.108 113.01C147.428 119.133 144.91 128.736 136.15 131.662C136.272 139.541 130.485 145.865 122.516 143.627C120.759 147.686 117.828 150.363 113.277 150.857C106.626 151.578 102.252 143.99 97.66 140.166C94.1577 142.873 89.6532 149.119 85.8298 150.397C79.6435 152.466 75.3333 148.497 72.5305 143.627C68.1766 143.826 64.9815 143.38 61.7968 140.166C59.5901 137.774 59.0215 135.306 59.1079 132.202C59.1216 132.129 59.0363 131.519 59.026 131.516C52.1847 129.589 48.1258 122.473 52.6089 116.093C53.1513 115.322 54.0056 114.494 54.696 113.767C53.5657 112.8 52.1344 111.311 51.0569 110.241L44.2079 103.35C40.1259 99.2284 35.7027 95.118 31.5686 91.0212C29.6312 89.1013 26.1835 85.3774 24.1181 83.8376C22.675 85.2569 21.4 86.7567 19.899 88.231C16.6254 91.4468 12.9162 86.815 14.4312 84.6264C16.4185 81.7555 22.5947 76.0878 25.3095 73.304L50.9202 47.3269C56.9001 41.2413 56.715 40.9132 63.1009 47.5202L69.8843 54.4072C70.7695 55.2972 72.0297 56.6954 72.9335 57.4941C76.3692 60.5314 82.1274 57.1417 88.9246 61.5469C93.6134 56.8564 94.3302 57.5744 100.577 57.5885L113.071 57.6006C119.979 57.6025 120.638 58.7615 125.617 53.6035L131.908 47.1522C133.339 45.6863 135.305 43.0097 137.416 42.6455ZM28.7366 79.0694C32.2688 82.3966 35.7146 85.881 39.1619 89.2999L54.4066 104.282C56.0336 105.858 57.7764 107.62 59.4149 109.147C62.504 106.148 64.5424 103.497 69.318 103.59C75.4993 103.709 79.196 108.571 79.1267 114.483C82.1823 115.062 83.5294 116.777 85.6302 118.869L105.318 138.311C107.692 140.689 111.585 146.235 114.949 143.537C118.408 140.762 115.448 137.939 113.546 136.01C106.727 129.093 99.8492 122.481 93.1358 115.499C91.1443 112.59 94.9358 108.947 97.8512 111.17C98.8163 111.906 99.8005 112.979 100.677 113.849L118.309 131.379C120.982 134.085 124.639 139.84 128.338 135.881C129.443 134.543 129.314 133.69 129.323 131.984C128.686 130.728 121.159 123.536 119.565 121.957L107.581 110.023C106.203 108.66 103.841 106.551 102.785 104.97C101.516 103.07 104.065 99.5224 106.414 100.312C108.191 100.761 114.632 107.731 116.185 109.275L127.824 120.693C129.232 122.088 131.038 124.119 132.476 125.171C134.37 126.556 139.009 122.919 137.285 119.763C135.079 117.175 131.443 113.769 129.097 111.439L102.503 84.9929C101.472 83.9831 100.341 82.9585 99.3507 81.9165L87.3692 94.1665C84.7729 96.8295 82.3811 97.6487 78.6274 97.2046C75.0172 96.778 72.8451 93.6399 70.3147 91.413C67.3977 88.7698 67.547 83.9486 69.8577 81.0094C74.3751 76.0776 79.4938 71.1351 84.1769 66.3438C82.8808 65.5004 81.8513 65.3803 80.3485 65.519C67.9077 66.7443 65.1305 57.1334 56.9686 50.678C55.4726 52.0867 53.9625 53.6861 52.5 55.1528L33.0336 74.723C31.6199 76.1424 30.0759 77.6049 28.7366 79.0694ZM87.098 131.202C84.99 131.81 82.1678 136.028 80.3854 137.314C76.5505 140.082 79.1796 144.611 83.2476 144.233C85.1119 143.548 90.9078 137.672 91.6097 136.229C92.7687 133.845 89.43 131.076 87.098 131.202ZM165.768 77.899C163.51 75.8059 138.784 50.9792 137.88 50.678L137.743 50.7727C134.659 52.9381 130.31 58.233 127.227 61.0123C123.168 64.6698 117.654 63.887 112.619 63.865C107.048 63.8408 101.421 63.9359 95.862 63.8677C94.7225 64.976 93.6523 66.1445 92.539 67.279L83.5819 76.4012C81.8471 78.1521 72.9891 85.23 75.5557 87.2417C78.2663 89.5693 79.7318 92.5191 83.0701 89.1207C86.0214 86.1171 88.9604 83.1241 91.9148 80.1175C93.6591 78.3423 96.4188 74.6237 99.0768 74.5475C102.391 74.4521 108.313 81.8169 110.846 84.1941L132.661 105.774C133.516 106.611 134.541 107.535 135.333 108.398C144.012 100.045 152.317 91.227 160.98 82.8498C162.647 81.2375 164.23 79.6381 165.768 77.899ZM68.6938 110.281C66.6379 110.669 59.2336 118.425 58.0263 119.977C56.2884 122.211 58.5408 125.667 61.4944 125.275C63.7853 124.794 70.2553 118.013 72.1946 115.557C73.7821 113.188 71.3925 110.045 68.6938 110.281ZM77.0399 121.072C75.2762 121.655 66.6931 130.469 66.0361 131.679C64.5717 134.376 67.6814 137.674 70.5204 136.976C72.9967 136.249 78.6399 129.697 80.8051 127.579C83.4673 124.975 80.6135 120.97 77.0399 121.072Z" fill="#3D2A6D"/>
</svg>
